M48
;DRILL file {pcbnew (2015-03-21 BZR 5528)-product} date Fri 27 Mar 2015 09:49:14 AM EET
;FORMAT={-:-/ absolute / metric / decimal}
FMAT,2
METRIC,TZ
T1C0.400
T2C1.016
T3C3.000
%
G90
G05
M71
T1
X101.064Y-74.223
X102.461Y-63.196
X102.489Y-59.436
X102.842Y-69.905
X103.35Y-74.223
X103.886Y-50.8
X104.394Y-46.736
X105.509Y-70.413
X106.934Y-50.292
X106.934Y-51.816
X107.16Y-68.127
X107.795Y-62.158
X108.684Y-70.667
X109.728Y-50.546
X109.982Y-57.539
X109.982Y-59.944
X109.982Y-74.168
X112.014Y-53.848
X112.24Y-74.223
X116.329Y-74.223
X117.726Y-63.196
X117.754Y-59.436
X118.107Y-69.905
X118.615Y-74.223
X119.151Y-50.8
X119.659Y-46.736
X120.774Y-70.413
X122.199Y-50.292
X122.199Y-51.816
X122.425Y-68.127
X123.06Y-62.158
X123.949Y-70.667
X124.993Y-50.546
X125.247Y-57.539
X125.247Y-59.944
X125.247Y-74.168
X127.279Y-53.848
X127.505Y-74.223
T2
X103.886Y-38.354
X103.886Y-40.894
X106.426Y-38.354
X106.426Y-40.894
X108.966Y-38.354
X108.966Y-40.894
X119.151Y-38.354
X119.151Y-40.894
X121.691Y-38.354
X121.691Y-40.894
X124.231Y-38.354
X124.231Y-40.894
T3
X102.032Y-31.218
X111.272Y-31.218
X117.297Y-31.218
X126.537Y-31.218
T0
M30
