G04 #@! TF.FileFunction,Profile,NP*
%FSLAX46Y46*%
G04 Gerber Fmt 4.6, Leading zero omitted, Abs format (unit mm)*
G04 Created by KiCad (PCBNEW (2015-04-12 BZR 5595)-product) date Mon 20 Apr 2015 09:24:05 PM EEST*
%MOMM*%
G01*
G04 APERTURE LIST*
%ADD10C,0.100000*%
G04 APERTURE END LIST*
D10*
X134537400Y-28225286D02*
X129537400Y-28225286D01*
X129537400Y-142422286D02*
X134537400Y-142422286D01*
X94032000Y-142422286D02*
X99032000Y-142422286D01*
X99032000Y-71175286D02*
X99032000Y-33075286D01*
X94032000Y-28225286D02*
X99032000Y-28225286D01*
X94032000Y-28225286D02*
X94032000Y-142422286D01*
X134537400Y-28225286D02*
X134537400Y-142422286D01*
X129537400Y-28225286D02*
X129537400Y-71175286D01*
X129537400Y-71175286D02*
X129537400Y-142422286D01*
X114272000Y-28225286D02*
X129537400Y-28225286D01*
X114272000Y-132135286D02*
X121917400Y-142422286D01*
X121917400Y-142422286D02*
X129537400Y-132135286D01*
X106652000Y-142422286D02*
X114272000Y-132135286D01*
X99032000Y-132135286D02*
X106652000Y-142422286D01*
X114272000Y-28225286D02*
X114272000Y-33075286D01*
X99032000Y-28225286D02*
X114272000Y-28225286D01*
X99032000Y-33075286D02*
X99032000Y-28225286D01*
X99032000Y-142422286D02*
X99032000Y-71175286D01*
X114272000Y-71175286D02*
X114272000Y-132135286D01*
X114272000Y-33075286D02*
X114272000Y-71175286D01*
M02*
