G04 #@! TF.FileFunction,Soldermask,Top*
%FSLAX46Y46*%
G04 Gerber Fmt 4.6, Leading zero omitted, Abs format (unit mm)*
G04 Created by KiCad (PCBNEW (2015-02-15 BZR 5420)-product) date Tue 17 Feb 2015 11:56:18 AM EET*
%MOMM*%
G01*
G04 APERTURE LIST*
%ADD10C,0.100000*%
%ADD11R,1.143000X0.635000*%
%ADD12R,0.660400X0.406400*%
%ADD13R,2.100580X5.600700*%
%ADD14R,1.727200X1.727200*%
%ADD15O,1.727200X1.727200*%
%ADD16R,0.914400X0.914400*%
%ADD17R,0.700000X0.600000*%
%ADD18R,0.635000X1.143000*%
%ADD19R,1.143000X0.508000*%
G04 APERTURE END LIST*
D10*
D11*
X68688000Y-54733286D03*
X68688000Y-53209286D03*
D12*
X68688000Y-56866886D03*
X68688000Y-58187686D03*
X68688000Y-57527286D03*
X70720000Y-58187686D03*
X70720000Y-56866886D03*
X70720000Y-57527286D03*
D11*
X61068000Y-58543286D03*
X61068000Y-57019286D03*
X70720000Y-54733286D03*
X70720000Y-53209286D03*
D13*
X64624000Y-52678426D03*
X64624000Y-62376146D03*
D11*
X68688000Y-61845286D03*
X68688000Y-60321286D03*
X70720000Y-60321286D03*
X70720000Y-61845286D03*
X69704000Y-65401286D03*
X69704000Y-63877286D03*
X71990000Y-66925286D03*
X71990000Y-68449286D03*
X60814000Y-66925286D03*
X60814000Y-68449286D03*
D14*
X68688000Y-24253286D03*
D15*
X68688000Y-26793286D03*
X66148000Y-24253286D03*
X66148000Y-26793286D03*
X63608000Y-24253286D03*
X63608000Y-26793286D03*
D16*
X66021000Y-33905286D03*
X64243000Y-33905286D03*
X65132000Y-31873286D03*
D11*
X62338000Y-32381286D03*
X62338000Y-33905286D03*
X71990000Y-65401286D03*
X71990000Y-63877286D03*
X60814000Y-65401286D03*
X60814000Y-63877286D03*
X69704000Y-68449286D03*
X69704000Y-66925286D03*
X63100000Y-68449286D03*
X63100000Y-66925286D03*
X68688000Y-34667286D03*
X68688000Y-33143286D03*
D17*
X67672000Y-66987286D03*
X67672000Y-68387286D03*
X65132000Y-68387286D03*
X65132000Y-66987286D03*
D11*
X69958000Y-44065286D03*
X69958000Y-45589286D03*
D18*
X65894000Y-47875286D03*
X64370000Y-47875286D03*
X67418000Y-47875286D03*
X68942000Y-47875286D03*
D11*
X69958000Y-37715286D03*
X69958000Y-39239286D03*
D19*
X62592000Y-37969286D03*
X62592000Y-39239286D03*
X62592000Y-40509286D03*
X62592000Y-41779286D03*
X62592000Y-43049286D03*
X62592000Y-44319286D03*
X62592000Y-45589286D03*
X67926000Y-45589286D03*
X67926000Y-44319286D03*
X67926000Y-43049286D03*
X67926000Y-41779286D03*
X67926000Y-40509286D03*
X67926000Y-39239286D03*
X67926000Y-37969286D03*
D11*
X83938000Y-54733286D03*
X83938000Y-53209286D03*
D12*
X83938000Y-56866886D03*
X83938000Y-58187686D03*
X83938000Y-57527286D03*
X85970000Y-58187686D03*
X85970000Y-56866886D03*
X85970000Y-57527286D03*
D11*
X76318000Y-58543286D03*
X76318000Y-57019286D03*
X85970000Y-54733286D03*
X85970000Y-53209286D03*
D13*
X79874000Y-52678426D03*
X79874000Y-62376146D03*
D11*
X83938000Y-61845286D03*
X83938000Y-60321286D03*
X85970000Y-60321286D03*
X85970000Y-61845286D03*
X84954000Y-65401286D03*
X84954000Y-63877286D03*
X87240000Y-66925286D03*
X87240000Y-68449286D03*
X76064000Y-66925286D03*
X76064000Y-68449286D03*
D14*
X83938000Y-24253286D03*
D15*
X83938000Y-26793286D03*
X81398000Y-24253286D03*
X81398000Y-26793286D03*
X78858000Y-24253286D03*
X78858000Y-26793286D03*
D16*
X81271000Y-33905286D03*
X79493000Y-33905286D03*
X80382000Y-31873286D03*
D11*
X77588000Y-32381286D03*
X77588000Y-33905286D03*
X87240000Y-65401286D03*
X87240000Y-63877286D03*
X76064000Y-65401286D03*
X76064000Y-63877286D03*
X84954000Y-68449286D03*
X84954000Y-66925286D03*
X78350000Y-68449286D03*
X78350000Y-66925286D03*
X83938000Y-34667286D03*
X83938000Y-33143286D03*
D17*
X82922000Y-66987286D03*
X82922000Y-68387286D03*
X80382000Y-68387286D03*
X80382000Y-66987286D03*
D11*
X85208000Y-44065286D03*
X85208000Y-45589286D03*
D18*
X81144000Y-47875286D03*
X79620000Y-47875286D03*
X82668000Y-47875286D03*
X84192000Y-47875286D03*
D11*
X85208000Y-37715286D03*
X85208000Y-39239286D03*
D19*
X77842000Y-37969286D03*
X77842000Y-39239286D03*
X77842000Y-40509286D03*
X77842000Y-41779286D03*
X77842000Y-43049286D03*
X77842000Y-44319286D03*
X77842000Y-45589286D03*
X83176000Y-45589286D03*
X83176000Y-44319286D03*
X83176000Y-43049286D03*
X83176000Y-41779286D03*
X83176000Y-40509286D03*
X83176000Y-39239286D03*
X83176000Y-37969286D03*
M02*
