G04 #@! TF.FileFunction,Legend,Top*
%FSLAX46Y46*%
G04 Gerber Fmt 4.6, Leading zero omitted, Abs format (unit mm)*
G04 Created by KiCad (PCBNEW (2015-04-12 BZR 5595)-product) date Mon 20 Apr 2015 09:24:05 PM EEST*
%MOMM*%
G01*
G04 APERTURE LIST*
%ADD10C,0.100000*%
%ADD11C,0.150000*%
%ADD12C,2.000000*%
%ADD13R,0.900000X0.500000*%
%ADD14R,0.750000X0.800000*%
%ADD15R,0.700000X0.600000*%
%ADD16R,1.727200X1.727200*%
%ADD17O,1.727200X1.727200*%
%ADD18R,2.100580X5.600700*%
%ADD19R,0.660400X0.406400*%
%ADD20R,0.914400X0.914400*%
%ADD21R,1.450000X0.450000*%
G04 APERTURE END LIST*
D10*
D11*
X117258400Y-61531286D02*
X117258400Y-62531286D01*
X115908400Y-62531286D02*
X115908400Y-61531286D01*
X125894400Y-68389286D02*
X125894400Y-69389286D01*
X124544400Y-69389286D02*
X124544400Y-68389286D01*
X128180400Y-68389286D02*
X128180400Y-69389286D01*
X126830400Y-69389286D02*
X126830400Y-68389286D01*
X117004400Y-68389286D02*
X117004400Y-69389286D01*
X115654400Y-69389286D02*
X115654400Y-68389286D01*
X125894400Y-71437286D02*
X125894400Y-72437286D01*
X124544400Y-72437286D02*
X124544400Y-71437286D01*
X119290400Y-71437286D02*
X119290400Y-72437286D01*
X117940400Y-72437286D02*
X117940400Y-71437286D01*
X123302400Y-55110000D02*
X123302400Y-54110000D01*
X124652400Y-54110000D02*
X124652400Y-55110000D01*
X126684400Y-54110000D02*
X126684400Y-55110000D01*
X125334400Y-55110000D02*
X125334400Y-54110000D01*
X123603400Y-58571286D02*
X123603400Y-57871286D01*
X124803400Y-57871286D02*
X124803400Y-58571286D01*
X125635400Y-58571286D02*
X125635400Y-57871286D01*
X126835400Y-57871286D02*
X126835400Y-58571286D01*
X123603400Y-65683286D02*
X123603400Y-64983286D01*
X124803400Y-64983286D02*
X124803400Y-65683286D01*
X128105400Y-71587286D02*
X128105400Y-72287286D01*
X126905400Y-72287286D02*
X126905400Y-71587286D01*
X116929400Y-71587286D02*
X116929400Y-72287286D01*
X115729400Y-72287286D02*
X115729400Y-71587286D01*
X121247400Y-72337286D02*
X121247400Y-70787286D01*
X120047400Y-72337286D02*
X120047400Y-70787286D01*
X122587400Y-71537286D02*
X122587400Y-73087286D01*
X123787400Y-71537286D02*
X123787400Y-73087286D01*
X125501400Y-39624000D02*
X122961400Y-39624000D01*
X122961400Y-39624000D02*
X122961400Y-37084000D01*
X125501400Y-37084000D02*
X117881400Y-37084000D01*
X117881400Y-37084000D02*
X117881400Y-42164000D01*
X117881400Y-42164000D02*
X122961400Y-42164000D01*
X125501400Y-37084000D02*
X125501400Y-39624000D01*
X125501400Y-42164000D02*
X125501400Y-39624000D01*
X122961400Y-42164000D02*
X125501400Y-42164000D01*
X117640040Y-55927666D02*
X117640040Y-67626906D01*
X122638760Y-67626906D02*
X122638760Y-55927666D01*
X117640040Y-67626906D02*
X118488400Y-67626906D01*
X122638760Y-67626906D02*
X121790400Y-67626906D01*
X117640040Y-55927666D02*
X118488400Y-55927666D01*
X122638760Y-55927666D02*
X121790400Y-55927666D01*
X124919400Y-60677286D02*
X124919400Y-60977286D01*
X124919400Y-60977286D02*
X124619400Y-60977286D01*
X124619400Y-62877286D02*
X125819400Y-62877286D01*
X125819400Y-60677286D02*
X124619400Y-60677286D01*
X124619400Y-60677286D02*
X124619400Y-62877286D01*
X125819400Y-62877286D02*
X125819400Y-60677286D01*
X125334400Y-52316000D02*
X125334400Y-51316000D01*
X126684400Y-51316000D02*
X126684400Y-52316000D01*
X121778400Y-46220000D02*
X121778400Y-45220000D01*
X123128400Y-45220000D02*
X123128400Y-46220000D01*
X125334400Y-46220000D02*
X125334400Y-45220000D01*
X126684400Y-45220000D02*
X126684400Y-46220000D01*
X125334400Y-49522000D02*
X125334400Y-48522000D01*
X126684400Y-48522000D02*
X126684400Y-49522000D01*
X118262400Y-46990000D02*
X118262400Y-43942000D01*
X118262400Y-43942000D02*
X119024400Y-43942000D01*
X119024400Y-43942000D02*
X119024400Y-46990000D01*
X119024400Y-46990000D02*
X118262400Y-46990000D01*
X115503400Y-46070000D02*
X115503400Y-45370000D01*
X116703400Y-45370000D02*
X116703400Y-46070000D01*
X123631400Y-46070000D02*
X123631400Y-45370000D01*
X124831400Y-45370000D02*
X124831400Y-46070000D01*
X121350400Y-43188000D02*
X121350400Y-44188000D01*
X120000400Y-44188000D02*
X120000400Y-43188000D01*
X118350400Y-47413000D02*
X118350400Y-47638000D01*
X123000400Y-47413000D02*
X123000400Y-47638000D01*
X123000400Y-52663000D02*
X123000400Y-52438000D01*
X118350400Y-52663000D02*
X118350400Y-52438000D01*
X118350400Y-47413000D02*
X123000400Y-47413000D01*
X118350400Y-52663000D02*
X123000400Y-52663000D01*
X118350400Y-47638000D02*
X117000400Y-47638000D01*
X103085000Y-47413000D02*
X103085000Y-47638000D01*
X107735000Y-47413000D02*
X107735000Y-47638000D01*
X107735000Y-52663000D02*
X107735000Y-52438000D01*
X103085000Y-52663000D02*
X103085000Y-52438000D01*
X103085000Y-47413000D02*
X107735000Y-47413000D01*
X103085000Y-52663000D02*
X107735000Y-52663000D01*
X103085000Y-47638000D02*
X101735000Y-47638000D01*
X106085000Y-43188000D02*
X106085000Y-44188000D01*
X104735000Y-44188000D02*
X104735000Y-43188000D01*
X108366000Y-46070000D02*
X108366000Y-45370000D01*
X109566000Y-45370000D02*
X109566000Y-46070000D01*
X100238000Y-46070000D02*
X100238000Y-45370000D01*
X101438000Y-45370000D02*
X101438000Y-46070000D01*
X102997000Y-46990000D02*
X102997000Y-43942000D01*
X102997000Y-43942000D02*
X103759000Y-43942000D01*
X103759000Y-43942000D02*
X103759000Y-46990000D01*
X103759000Y-46990000D02*
X102997000Y-46990000D01*
X110069000Y-49522000D02*
X110069000Y-48522000D01*
X111419000Y-48522000D02*
X111419000Y-49522000D01*
X110069000Y-46220000D02*
X110069000Y-45220000D01*
X111419000Y-45220000D02*
X111419000Y-46220000D01*
X106513000Y-46220000D02*
X106513000Y-45220000D01*
X107863000Y-45220000D02*
X107863000Y-46220000D01*
X110069000Y-52316000D02*
X110069000Y-51316000D01*
X111419000Y-51316000D02*
X111419000Y-52316000D01*
X109654000Y-60677286D02*
X109654000Y-60977286D01*
X109654000Y-60977286D02*
X109354000Y-60977286D01*
X109354000Y-62877286D02*
X110554000Y-62877286D01*
X110554000Y-60677286D02*
X109354000Y-60677286D01*
X109354000Y-60677286D02*
X109354000Y-62877286D01*
X110554000Y-62877286D02*
X110554000Y-60677286D01*
X102374640Y-55927666D02*
X102374640Y-67626906D01*
X107373360Y-67626906D02*
X107373360Y-55927666D01*
X102374640Y-67626906D02*
X103223000Y-67626906D01*
X107373360Y-67626906D02*
X106525000Y-67626906D01*
X102374640Y-55927666D02*
X103223000Y-55927666D01*
X107373360Y-55927666D02*
X106525000Y-55927666D01*
X110236000Y-39624000D02*
X107696000Y-39624000D01*
X107696000Y-39624000D02*
X107696000Y-37084000D01*
X110236000Y-37084000D02*
X102616000Y-37084000D01*
X102616000Y-37084000D02*
X102616000Y-42164000D01*
X102616000Y-42164000D02*
X107696000Y-42164000D01*
X110236000Y-37084000D02*
X110236000Y-39624000D01*
X110236000Y-42164000D02*
X110236000Y-39624000D01*
X107696000Y-42164000D02*
X110236000Y-42164000D01*
X107322000Y-71537286D02*
X107322000Y-73087286D01*
X108522000Y-71537286D02*
X108522000Y-73087286D01*
X105982000Y-72337286D02*
X105982000Y-70787286D01*
X104782000Y-72337286D02*
X104782000Y-70787286D01*
X101664000Y-71587286D02*
X101664000Y-72287286D01*
X100464000Y-72287286D02*
X100464000Y-71587286D01*
X112840000Y-71587286D02*
X112840000Y-72287286D01*
X111640000Y-72287286D02*
X111640000Y-71587286D01*
X108338000Y-65683286D02*
X108338000Y-64983286D01*
X109538000Y-64983286D02*
X109538000Y-65683286D01*
X110370000Y-58571286D02*
X110370000Y-57871286D01*
X111570000Y-57871286D02*
X111570000Y-58571286D01*
X108338000Y-58571286D02*
X108338000Y-57871286D01*
X109538000Y-57871286D02*
X109538000Y-58571286D01*
X111419000Y-54110000D02*
X111419000Y-55110000D01*
X110069000Y-55110000D02*
X110069000Y-54110000D01*
X108037000Y-55110000D02*
X108037000Y-54110000D01*
X109387000Y-54110000D02*
X109387000Y-55110000D01*
X104025000Y-71437286D02*
X104025000Y-72437286D01*
X102675000Y-72437286D02*
X102675000Y-71437286D01*
X110629000Y-71437286D02*
X110629000Y-72437286D01*
X109279000Y-72437286D02*
X109279000Y-71437286D01*
X101739000Y-68389286D02*
X101739000Y-69389286D01*
X100389000Y-69389286D02*
X100389000Y-68389286D01*
X112915000Y-68389286D02*
X112915000Y-69389286D01*
X111565000Y-69389286D02*
X111565000Y-68389286D01*
X110629000Y-68389286D02*
X110629000Y-69389286D01*
X109279000Y-69389286D02*
X109279000Y-68389286D01*
X101993000Y-61531286D02*
X101993000Y-62531286D01*
X100643000Y-62531286D02*
X100643000Y-61531286D01*
X130689838Y-26138831D02*
X130356504Y-26138831D01*
X130356504Y-26662641D02*
X130356504Y-25662641D01*
X130832695Y-25662641D01*
X131213647Y-26662641D02*
X131213647Y-25662641D01*
X131689837Y-26662641D02*
X131689837Y-25662641D01*
X131927932Y-25662641D01*
X132070790Y-25710260D01*
X132166028Y-25805498D01*
X132213647Y-25900736D01*
X132261266Y-26091212D01*
X132261266Y-26234070D01*
X132213647Y-26424546D01*
X132166028Y-26519784D01*
X132070790Y-26615022D01*
X131927932Y-26662641D01*
X131689837Y-26662641D01*
X132832694Y-25662641D02*
X132832694Y-25900736D01*
X132594599Y-25805498D02*
X132832694Y-25900736D01*
X133070790Y-25805498D01*
X132689837Y-26091212D02*
X132832694Y-25900736D01*
X132975552Y-26091212D01*
X133594599Y-25662641D02*
X133594599Y-25900736D01*
X133356504Y-25805498D02*
X133594599Y-25900736D01*
X133832695Y-25805498D01*
X133451742Y-26091212D02*
X133594599Y-25900736D01*
X133737457Y-26091212D01*
X95193338Y-135422331D02*
X94860004Y-135422331D01*
X94860004Y-135946141D02*
X94860004Y-134946141D01*
X95336195Y-134946141D01*
X95717147Y-135946141D02*
X95717147Y-134946141D01*
X96193337Y-135946141D02*
X96193337Y-134946141D01*
X96431432Y-134946141D01*
X96574290Y-134993760D01*
X96669528Y-135088998D01*
X96717147Y-135184236D01*
X96764766Y-135374712D01*
X96764766Y-135517570D01*
X96717147Y-135708046D01*
X96669528Y-135803284D01*
X96574290Y-135898522D01*
X96431432Y-135946141D01*
X96193337Y-135946141D01*
X97336194Y-134946141D02*
X97336194Y-135184236D01*
X97098099Y-135088998D02*
X97336194Y-135184236D01*
X97574290Y-135088998D01*
X97193337Y-135374712D02*
X97336194Y-135184236D01*
X97479052Y-135374712D01*
X98098099Y-134946141D02*
X98098099Y-135184236D01*
X97860004Y-135088998D02*
X98098099Y-135184236D01*
X98336195Y-135088998D01*
X97955242Y-135374712D02*
X98098099Y-135184236D01*
X98240957Y-135374712D01*
X115135781Y-62197952D02*
X114659590Y-62531286D01*
X115135781Y-62769381D02*
X114135781Y-62769381D01*
X114135781Y-62388428D01*
X114183400Y-62293190D01*
X114231019Y-62245571D01*
X114326257Y-62197952D01*
X114469114Y-62197952D01*
X114564352Y-62245571D01*
X114611971Y-62293190D01*
X114659590Y-62388428D01*
X114659590Y-62769381D01*
X115135781Y-61245571D02*
X115135781Y-61817000D01*
X115135781Y-61531286D02*
X114135781Y-61531286D01*
X114278638Y-61626524D01*
X114373876Y-61721762D01*
X114421495Y-61817000D01*
X123771781Y-69055952D02*
X123295590Y-69389286D01*
X123771781Y-69627381D02*
X122771781Y-69627381D01*
X122771781Y-69246428D01*
X122819400Y-69151190D01*
X122867019Y-69103571D01*
X122962257Y-69055952D01*
X123105114Y-69055952D01*
X123200352Y-69103571D01*
X123247971Y-69151190D01*
X123295590Y-69246428D01*
X123295590Y-69627381D01*
X123105114Y-68198809D02*
X123771781Y-68198809D01*
X122724162Y-68436905D02*
X123438448Y-68675000D01*
X123438448Y-68055952D01*
X126057781Y-69055952D02*
X125581590Y-69389286D01*
X126057781Y-69627381D02*
X125057781Y-69627381D01*
X125057781Y-69246428D01*
X125105400Y-69151190D01*
X125153019Y-69103571D01*
X125248257Y-69055952D01*
X125391114Y-69055952D01*
X125486352Y-69103571D01*
X125533971Y-69151190D01*
X125581590Y-69246428D01*
X125581590Y-69627381D01*
X125057781Y-68151190D02*
X125057781Y-68627381D01*
X125533971Y-68675000D01*
X125486352Y-68627381D01*
X125438733Y-68532143D01*
X125438733Y-68294047D01*
X125486352Y-68198809D01*
X125533971Y-68151190D01*
X125629210Y-68103571D01*
X125867305Y-68103571D01*
X125962543Y-68151190D01*
X126010162Y-68198809D01*
X126057781Y-68294047D01*
X126057781Y-68532143D01*
X126010162Y-68627381D01*
X125962543Y-68675000D01*
X114881781Y-69055952D02*
X114405590Y-69389286D01*
X114881781Y-69627381D02*
X113881781Y-69627381D01*
X113881781Y-69246428D01*
X113929400Y-69151190D01*
X113977019Y-69103571D01*
X114072257Y-69055952D01*
X114215114Y-69055952D01*
X114310352Y-69103571D01*
X114357971Y-69151190D01*
X114405590Y-69246428D01*
X114405590Y-69627381D01*
X113881781Y-68198809D02*
X113881781Y-68389286D01*
X113929400Y-68484524D01*
X113977019Y-68532143D01*
X114119876Y-68627381D01*
X114310352Y-68675000D01*
X114691305Y-68675000D01*
X114786543Y-68627381D01*
X114834162Y-68579762D01*
X114881781Y-68484524D01*
X114881781Y-68294047D01*
X114834162Y-68198809D01*
X114786543Y-68151190D01*
X114691305Y-68103571D01*
X114453210Y-68103571D01*
X114357971Y-68151190D01*
X114310352Y-68198809D01*
X114262733Y-68294047D01*
X114262733Y-68484524D01*
X114310352Y-68579762D01*
X114357971Y-68627381D01*
X114453210Y-68675000D01*
X123771781Y-72103952D02*
X123295590Y-72437286D01*
X123771781Y-72675381D02*
X122771781Y-72675381D01*
X122771781Y-72294428D01*
X122819400Y-72199190D01*
X122867019Y-72151571D01*
X122962257Y-72103952D01*
X123105114Y-72103952D01*
X123200352Y-72151571D01*
X123247971Y-72199190D01*
X123295590Y-72294428D01*
X123295590Y-72675381D01*
X122771781Y-71770619D02*
X122771781Y-71103952D01*
X123771781Y-71532524D01*
X117167781Y-72103952D02*
X116691590Y-72437286D01*
X117167781Y-72675381D02*
X116167781Y-72675381D01*
X116167781Y-72294428D01*
X116215400Y-72199190D01*
X116263019Y-72151571D01*
X116358257Y-72103952D01*
X116501114Y-72103952D01*
X116596352Y-72151571D01*
X116643971Y-72199190D01*
X116691590Y-72294428D01*
X116691590Y-72675381D01*
X116596352Y-71532524D02*
X116548733Y-71627762D01*
X116501114Y-71675381D01*
X116405876Y-71723000D01*
X116358257Y-71723000D01*
X116263019Y-71675381D01*
X116215400Y-71627762D01*
X116167781Y-71532524D01*
X116167781Y-71342047D01*
X116215400Y-71246809D01*
X116263019Y-71199190D01*
X116358257Y-71151571D01*
X116405876Y-71151571D01*
X116501114Y-71199190D01*
X116548733Y-71246809D01*
X116596352Y-71342047D01*
X116596352Y-71532524D01*
X116643971Y-71627762D01*
X116691590Y-71675381D01*
X116786829Y-71723000D01*
X116977305Y-71723000D01*
X117072543Y-71675381D01*
X117120162Y-71627762D01*
X117167781Y-71532524D01*
X117167781Y-71342047D01*
X117120162Y-71246809D01*
X117072543Y-71199190D01*
X116977305Y-71151571D01*
X116786829Y-71151571D01*
X116691590Y-71199190D01*
X116643971Y-71246809D01*
X116596352Y-71342047D01*
X126329781Y-55252857D02*
X125853590Y-55586191D01*
X126329781Y-55824286D02*
X125329781Y-55824286D01*
X125329781Y-55443333D01*
X125377400Y-55348095D01*
X125425019Y-55300476D01*
X125520257Y-55252857D01*
X125663114Y-55252857D01*
X125758352Y-55300476D01*
X125805971Y-55348095D01*
X125853590Y-55443333D01*
X125853590Y-55824286D01*
X126329781Y-54300476D02*
X126329781Y-54871905D01*
X126329781Y-54586191D02*
X125329781Y-54586191D01*
X125472638Y-54681429D01*
X125567876Y-54776667D01*
X125615495Y-54871905D01*
X125329781Y-53681429D02*
X125329781Y-53586190D01*
X125377400Y-53490952D01*
X125425019Y-53443333D01*
X125520257Y-53395714D01*
X125710733Y-53348095D01*
X125948829Y-53348095D01*
X126139305Y-53395714D01*
X126234543Y-53443333D01*
X126282162Y-53490952D01*
X126329781Y-53586190D01*
X126329781Y-53681429D01*
X126282162Y-53776667D01*
X126234543Y-53824286D01*
X126139305Y-53871905D01*
X125948829Y-53919524D01*
X125710733Y-53919524D01*
X125520257Y-53871905D01*
X125425019Y-53824286D01*
X125377400Y-53776667D01*
X125329781Y-53681429D01*
X124561781Y-55252857D02*
X124085590Y-55586191D01*
X124561781Y-55824286D02*
X123561781Y-55824286D01*
X123561781Y-55443333D01*
X123609400Y-55348095D01*
X123657019Y-55300476D01*
X123752257Y-55252857D01*
X123895114Y-55252857D01*
X123990352Y-55300476D01*
X124037971Y-55348095D01*
X124085590Y-55443333D01*
X124085590Y-55824286D01*
X124561781Y-54300476D02*
X124561781Y-54871905D01*
X124561781Y-54586191D02*
X123561781Y-54586191D01*
X123704638Y-54681429D01*
X123799876Y-54776667D01*
X123847495Y-54871905D01*
X124561781Y-53348095D02*
X124561781Y-53919524D01*
X124561781Y-53633810D02*
X123561781Y-53633810D01*
X123704638Y-53729048D01*
X123799876Y-53824286D01*
X123847495Y-53919524D01*
X122660543Y-58387952D02*
X122708162Y-58435571D01*
X122755781Y-58578428D01*
X122755781Y-58673666D01*
X122708162Y-58816524D01*
X122612924Y-58911762D01*
X122517686Y-58959381D01*
X122327210Y-59007000D01*
X122184352Y-59007000D01*
X121993876Y-58959381D01*
X121898638Y-58911762D01*
X121803400Y-58816524D01*
X121755781Y-58673666D01*
X121755781Y-58578428D01*
X121803400Y-58435571D01*
X121851019Y-58387952D01*
X122755781Y-57435571D02*
X122755781Y-58007000D01*
X122755781Y-57721286D02*
X121755781Y-57721286D01*
X121898638Y-57816524D01*
X121993876Y-57911762D01*
X122041495Y-58007000D01*
X124692543Y-58387952D02*
X124740162Y-58435571D01*
X124787781Y-58578428D01*
X124787781Y-58673666D01*
X124740162Y-58816524D01*
X124644924Y-58911762D01*
X124549686Y-58959381D01*
X124359210Y-59007000D01*
X124216352Y-59007000D01*
X124025876Y-58959381D01*
X123930638Y-58911762D01*
X123835400Y-58816524D01*
X123787781Y-58673666D01*
X123787781Y-58578428D01*
X123835400Y-58435571D01*
X123883019Y-58387952D01*
X123787781Y-58054619D02*
X123787781Y-57435571D01*
X124168733Y-57768905D01*
X124168733Y-57626047D01*
X124216352Y-57530809D01*
X124263971Y-57483190D01*
X124359210Y-57435571D01*
X124597305Y-57435571D01*
X124692543Y-57483190D01*
X124740162Y-57530809D01*
X124787781Y-57626047D01*
X124787781Y-57911762D01*
X124740162Y-58007000D01*
X124692543Y-58054619D01*
X122660543Y-65499952D02*
X122708162Y-65547571D01*
X122755781Y-65690428D01*
X122755781Y-65785666D01*
X122708162Y-65928524D01*
X122612924Y-66023762D01*
X122517686Y-66071381D01*
X122327210Y-66119000D01*
X122184352Y-66119000D01*
X121993876Y-66071381D01*
X121898638Y-66023762D01*
X121803400Y-65928524D01*
X121755781Y-65785666D01*
X121755781Y-65690428D01*
X121803400Y-65547571D01*
X121851019Y-65499952D01*
X121851019Y-65119000D02*
X121803400Y-65071381D01*
X121755781Y-64976143D01*
X121755781Y-64738047D01*
X121803400Y-64642809D01*
X121851019Y-64595190D01*
X121946257Y-64547571D01*
X122041495Y-64547571D01*
X122184352Y-64595190D01*
X122755781Y-65166619D01*
X122755781Y-64547571D01*
X129762543Y-72103952D02*
X129810162Y-72151571D01*
X129857781Y-72294428D01*
X129857781Y-72389666D01*
X129810162Y-72532524D01*
X129714924Y-72627762D01*
X129619686Y-72675381D01*
X129429210Y-72723000D01*
X129286352Y-72723000D01*
X129095876Y-72675381D01*
X129000638Y-72627762D01*
X128905400Y-72532524D01*
X128857781Y-72389666D01*
X128857781Y-72294428D01*
X128905400Y-72151571D01*
X128953019Y-72103952D01*
X129191114Y-71246809D02*
X129857781Y-71246809D01*
X128810162Y-71484905D02*
X129524448Y-71723000D01*
X129524448Y-71103952D01*
X118586543Y-72103952D02*
X118634162Y-72151571D01*
X118681781Y-72294428D01*
X118681781Y-72389666D01*
X118634162Y-72532524D01*
X118538924Y-72627762D01*
X118443686Y-72675381D01*
X118253210Y-72723000D01*
X118110352Y-72723000D01*
X117919876Y-72675381D01*
X117824638Y-72627762D01*
X117729400Y-72532524D01*
X117681781Y-72389666D01*
X117681781Y-72294428D01*
X117729400Y-72151571D01*
X117777019Y-72103952D01*
X117681781Y-71199190D02*
X117681781Y-71675381D01*
X118157971Y-71723000D01*
X118110352Y-71675381D01*
X118062733Y-71580143D01*
X118062733Y-71342047D01*
X118110352Y-71246809D01*
X118157971Y-71199190D01*
X118253210Y-71151571D01*
X118491305Y-71151571D01*
X118586543Y-71199190D01*
X118634162Y-71246809D01*
X118681781Y-71342047D01*
X118681781Y-71580143D01*
X118634162Y-71675381D01*
X118586543Y-71723000D01*
X119909305Y-74421667D02*
X119909305Y-73421667D01*
X120147400Y-73421667D01*
X120290258Y-73469286D01*
X120385496Y-73564524D01*
X120433115Y-73659762D01*
X120480734Y-73850238D01*
X120480734Y-73993096D01*
X120433115Y-74183572D01*
X120385496Y-74278810D01*
X120290258Y-74374048D01*
X120147400Y-74421667D01*
X119909305Y-74421667D01*
X120861686Y-73516905D02*
X120909305Y-73469286D01*
X121004543Y-73421667D01*
X121242639Y-73421667D01*
X121337877Y-73469286D01*
X121385496Y-73516905D01*
X121433115Y-73612143D01*
X121433115Y-73707381D01*
X121385496Y-73850238D01*
X120814067Y-74421667D01*
X121433115Y-74421667D01*
X122449305Y-74421667D02*
X122449305Y-73421667D01*
X122687400Y-73421667D01*
X122830258Y-73469286D01*
X122925496Y-73564524D01*
X122973115Y-73659762D01*
X123020734Y-73850238D01*
X123020734Y-73993096D01*
X122973115Y-74183572D01*
X122925496Y-74278810D01*
X122830258Y-74374048D01*
X122687400Y-74421667D01*
X122449305Y-74421667D01*
X123973115Y-74421667D02*
X123401686Y-74421667D01*
X123687400Y-74421667D02*
X123687400Y-73421667D01*
X123592162Y-73564524D01*
X123496924Y-73659762D01*
X123401686Y-73707381D01*
X120953305Y-43886381D02*
X120953305Y-42886381D01*
X121334258Y-42886381D01*
X121429496Y-42934000D01*
X121477115Y-42981619D01*
X121524734Y-43076857D01*
X121524734Y-43219714D01*
X121477115Y-43314952D01*
X121429496Y-43362571D01*
X121334258Y-43410190D01*
X120953305Y-43410190D01*
X122477115Y-43886381D02*
X121905686Y-43886381D01*
X122191400Y-43886381D02*
X122191400Y-42886381D01*
X122096162Y-43029238D01*
X122000924Y-43124476D01*
X121905686Y-43172095D01*
X124671781Y-62586810D02*
X125671781Y-61920143D01*
X124671781Y-61920143D02*
X125671781Y-62586810D01*
X125671781Y-61015381D02*
X125671781Y-61586810D01*
X125671781Y-61301096D02*
X124671781Y-61301096D01*
X124814638Y-61396334D01*
X124909876Y-61491572D01*
X124957495Y-61586810D01*
X125071781Y-63939191D02*
X125881305Y-63939191D01*
X125976543Y-63891572D01*
X126024162Y-63843953D01*
X126071781Y-63748715D01*
X126071781Y-63558238D01*
X126024162Y-63463000D01*
X125976543Y-63415381D01*
X125881305Y-63367762D01*
X125071781Y-63367762D01*
X126071781Y-62367762D02*
X126071781Y-62939191D01*
X126071781Y-62653477D02*
X125071781Y-62653477D01*
X125214638Y-62748715D01*
X125309876Y-62843953D01*
X125357495Y-62939191D01*
X128361781Y-51982666D02*
X127885590Y-52316000D01*
X128361781Y-52554095D02*
X127361781Y-52554095D01*
X127361781Y-52173142D01*
X127409400Y-52077904D01*
X127457019Y-52030285D01*
X127552257Y-51982666D01*
X127695114Y-51982666D01*
X127790352Y-52030285D01*
X127837971Y-52077904D01*
X127885590Y-52173142D01*
X127885590Y-52554095D01*
X128361781Y-51506476D02*
X128361781Y-51316000D01*
X128314162Y-51220761D01*
X128266543Y-51173142D01*
X128123686Y-51077904D01*
X127933210Y-51030285D01*
X127552257Y-51030285D01*
X127457019Y-51077904D01*
X127409400Y-51125523D01*
X127361781Y-51220761D01*
X127361781Y-51411238D01*
X127409400Y-51506476D01*
X127457019Y-51554095D01*
X127552257Y-51601714D01*
X127790352Y-51601714D01*
X127885590Y-51554095D01*
X127933210Y-51506476D01*
X127980829Y-51411238D01*
X127980829Y-51220761D01*
X127933210Y-51125523D01*
X127885590Y-51077904D01*
X127790352Y-51030285D01*
X122905781Y-46616857D02*
X122429590Y-46950191D01*
X122905781Y-47188286D02*
X121905781Y-47188286D01*
X121905781Y-46807333D01*
X121953400Y-46712095D01*
X122001019Y-46664476D01*
X122096257Y-46616857D01*
X122239114Y-46616857D01*
X122334352Y-46664476D01*
X122381971Y-46712095D01*
X122429590Y-46807333D01*
X122429590Y-47188286D01*
X122905781Y-45664476D02*
X122905781Y-46235905D01*
X122905781Y-45950191D02*
X121905781Y-45950191D01*
X122048638Y-46045429D01*
X122143876Y-46140667D01*
X122191495Y-46235905D01*
X121905781Y-45331143D02*
X121905781Y-44712095D01*
X122286733Y-45045429D01*
X122286733Y-44902571D01*
X122334352Y-44807333D01*
X122381971Y-44759714D01*
X122477210Y-44712095D01*
X122715305Y-44712095D01*
X122810543Y-44759714D01*
X122858162Y-44807333D01*
X122905781Y-44902571D01*
X122905781Y-45188286D01*
X122858162Y-45283524D01*
X122810543Y-45331143D01*
X128361781Y-45886666D02*
X127885590Y-46220000D01*
X128361781Y-46458095D02*
X127361781Y-46458095D01*
X127361781Y-46077142D01*
X127409400Y-45981904D01*
X127457019Y-45934285D01*
X127552257Y-45886666D01*
X127695114Y-45886666D01*
X127790352Y-45934285D01*
X127837971Y-45981904D01*
X127885590Y-46077142D01*
X127885590Y-46458095D01*
X127457019Y-45505714D02*
X127409400Y-45458095D01*
X127361781Y-45362857D01*
X127361781Y-45124761D01*
X127409400Y-45029523D01*
X127457019Y-44981904D01*
X127552257Y-44934285D01*
X127647495Y-44934285D01*
X127790352Y-44981904D01*
X128361781Y-45553333D01*
X128361781Y-44934285D01*
X128361781Y-49664857D02*
X127885590Y-49998191D01*
X128361781Y-50236286D02*
X127361781Y-50236286D01*
X127361781Y-49855333D01*
X127409400Y-49760095D01*
X127457019Y-49712476D01*
X127552257Y-49664857D01*
X127695114Y-49664857D01*
X127790352Y-49712476D01*
X127837971Y-49760095D01*
X127885590Y-49855333D01*
X127885590Y-50236286D01*
X128361781Y-48712476D02*
X128361781Y-49283905D01*
X128361781Y-48998191D02*
X127361781Y-48998191D01*
X127504638Y-49093429D01*
X127599876Y-49188667D01*
X127647495Y-49283905D01*
X127457019Y-48331524D02*
X127409400Y-48283905D01*
X127361781Y-48188667D01*
X127361781Y-47950571D01*
X127409400Y-47855333D01*
X127457019Y-47807714D01*
X127552257Y-47760095D01*
X127647495Y-47760095D01*
X127790352Y-47807714D01*
X128361781Y-48379143D01*
X128361781Y-47760095D01*
X117032019Y-45561238D02*
X116984400Y-45656476D01*
X116889162Y-45751714D01*
X116746305Y-45894571D01*
X116698686Y-45989810D01*
X116698686Y-46085048D01*
X116936781Y-46037429D02*
X116889162Y-46132667D01*
X116793924Y-46227905D01*
X116603448Y-46275524D01*
X116270114Y-46275524D01*
X116079638Y-46227905D01*
X115984400Y-46132667D01*
X115936781Y-46037429D01*
X115936781Y-45846952D01*
X115984400Y-45751714D01*
X116079638Y-45656476D01*
X116270114Y-45608857D01*
X116603448Y-45608857D01*
X116793924Y-45656476D01*
X116889162Y-45751714D01*
X116936781Y-45846952D01*
X116936781Y-46037429D01*
X116936781Y-44656476D02*
X116936781Y-45227905D01*
X116936781Y-44942191D02*
X115936781Y-44942191D01*
X116079638Y-45037429D01*
X116174876Y-45132667D01*
X116222495Y-45227905D01*
X114560543Y-45886666D02*
X114608162Y-45934285D01*
X114655781Y-46077142D01*
X114655781Y-46172380D01*
X114608162Y-46315238D01*
X114512924Y-46410476D01*
X114417686Y-46458095D01*
X114227210Y-46505714D01*
X114084352Y-46505714D01*
X113893876Y-46458095D01*
X113798638Y-46410476D01*
X113703400Y-46315238D01*
X113655781Y-46172380D01*
X113655781Y-46077142D01*
X113703400Y-45934285D01*
X113751019Y-45886666D01*
X113655781Y-45029523D02*
X113655781Y-45220000D01*
X113703400Y-45315238D01*
X113751019Y-45362857D01*
X113893876Y-45458095D01*
X114084352Y-45505714D01*
X114465305Y-45505714D01*
X114560543Y-45458095D01*
X114608162Y-45410476D01*
X114655781Y-45315238D01*
X114655781Y-45124761D01*
X114608162Y-45029523D01*
X114560543Y-44981904D01*
X114465305Y-44934285D01*
X114227210Y-44934285D01*
X114131971Y-44981904D01*
X114084352Y-45029523D01*
X114036733Y-45124761D01*
X114036733Y-45315238D01*
X114084352Y-45410476D01*
X114131971Y-45458095D01*
X114227210Y-45505714D01*
X122688543Y-45886666D02*
X122736162Y-45934285D01*
X122783781Y-46077142D01*
X122783781Y-46172380D01*
X122736162Y-46315238D01*
X122640924Y-46410476D01*
X122545686Y-46458095D01*
X122355210Y-46505714D01*
X122212352Y-46505714D01*
X122021876Y-46458095D01*
X121926638Y-46410476D01*
X121831400Y-46315238D01*
X121783781Y-46172380D01*
X121783781Y-46077142D01*
X121831400Y-45934285D01*
X121879019Y-45886666D01*
X121783781Y-45553333D02*
X121783781Y-44886666D01*
X122783781Y-45315238D01*
X119227781Y-43854666D02*
X118751590Y-44188000D01*
X119227781Y-44426095D02*
X118227781Y-44426095D01*
X118227781Y-44045142D01*
X118275400Y-43949904D01*
X118323019Y-43902285D01*
X118418257Y-43854666D01*
X118561114Y-43854666D01*
X118656352Y-43902285D01*
X118703971Y-43949904D01*
X118751590Y-44045142D01*
X118751590Y-44426095D01*
X118227781Y-43521333D02*
X118227781Y-42902285D01*
X118608733Y-43235619D01*
X118608733Y-43092761D01*
X118656352Y-42997523D01*
X118703971Y-42949904D01*
X118799210Y-42902285D01*
X119037305Y-42902285D01*
X119132543Y-42949904D01*
X119180162Y-42997523D01*
X119227781Y-43092761D01*
X119227781Y-43378476D01*
X119180162Y-43473714D01*
X119132543Y-43521333D01*
X124168067Y-26169881D02*
X123834733Y-25693690D01*
X123596638Y-26169881D02*
X123596638Y-25169881D01*
X123977591Y-25169881D01*
X124072829Y-25217500D01*
X124120448Y-25265119D01*
X124168067Y-25360357D01*
X124168067Y-25503214D01*
X124120448Y-25598452D01*
X124072829Y-25646071D01*
X123977591Y-25693690D01*
X123596638Y-25693690D01*
X124596638Y-25646071D02*
X124929972Y-25646071D01*
X125072829Y-26169881D02*
X124596638Y-26169881D01*
X124596638Y-25169881D01*
X125072829Y-25169881D01*
X125834734Y-25646071D02*
X125501400Y-25646071D01*
X125501400Y-26169881D02*
X125501400Y-25169881D01*
X125977591Y-25169881D01*
X126501400Y-25169881D02*
X126501400Y-25407976D01*
X126263305Y-25312738D02*
X126501400Y-25407976D01*
X126739496Y-25312738D01*
X126358543Y-25598452D02*
X126501400Y-25407976D01*
X126644258Y-25598452D01*
X127263305Y-25169881D02*
X127263305Y-25407976D01*
X127025210Y-25312738D02*
X127263305Y-25407976D01*
X127501401Y-25312738D01*
X127120448Y-25598452D02*
X127263305Y-25407976D01*
X127406163Y-25598452D01*
X116548067Y-26169881D02*
X116214733Y-25693690D01*
X115976638Y-26169881D02*
X115976638Y-25169881D01*
X116357591Y-25169881D01*
X116452829Y-25217500D01*
X116500448Y-25265119D01*
X116548067Y-25360357D01*
X116548067Y-25503214D01*
X116500448Y-25598452D01*
X116452829Y-25646071D01*
X116357591Y-25693690D01*
X115976638Y-25693690D01*
X116976638Y-25646071D02*
X117309972Y-25646071D01*
X117452829Y-26169881D02*
X116976638Y-26169881D01*
X116976638Y-25169881D01*
X117452829Y-25169881D01*
X118214734Y-25646071D02*
X117881400Y-25646071D01*
X117881400Y-26169881D02*
X117881400Y-25169881D01*
X118357591Y-25169881D01*
X118881400Y-25169881D02*
X118881400Y-25407976D01*
X118643305Y-25312738D02*
X118881400Y-25407976D01*
X119119496Y-25312738D01*
X118738543Y-25598452D02*
X118881400Y-25407976D01*
X119024258Y-25598452D01*
X119643305Y-25169881D02*
X119643305Y-25407976D01*
X119405210Y-25312738D02*
X119643305Y-25407976D01*
X119881401Y-25312738D01*
X119500448Y-25598452D02*
X119643305Y-25407976D01*
X119786163Y-25598452D01*
X119913495Y-45940381D02*
X119913495Y-46749905D01*
X119961114Y-46845143D01*
X120008733Y-46892762D01*
X120103971Y-46940381D01*
X120294448Y-46940381D01*
X120389686Y-46892762D01*
X120437305Y-46845143D01*
X120484924Y-46749905D01*
X120484924Y-45940381D01*
X120913495Y-46035619D02*
X120961114Y-45988000D01*
X121056352Y-45940381D01*
X121294448Y-45940381D01*
X121389686Y-45988000D01*
X121437305Y-46035619D01*
X121484924Y-46130857D01*
X121484924Y-46226095D01*
X121437305Y-46368952D01*
X120865876Y-46940381D01*
X121484924Y-46940381D01*
X104648095Y-45940381D02*
X104648095Y-46749905D01*
X104695714Y-46845143D01*
X104743333Y-46892762D01*
X104838571Y-46940381D01*
X105029048Y-46940381D01*
X105124286Y-46892762D01*
X105171905Y-46845143D01*
X105219524Y-46749905D01*
X105219524Y-45940381D01*
X105648095Y-46035619D02*
X105695714Y-45988000D01*
X105790952Y-45940381D01*
X106029048Y-45940381D01*
X106124286Y-45988000D01*
X106171905Y-46035619D01*
X106219524Y-46130857D01*
X106219524Y-46226095D01*
X106171905Y-46368952D01*
X105600476Y-46940381D01*
X106219524Y-46940381D01*
X101282667Y-26169881D02*
X100949333Y-25693690D01*
X100711238Y-26169881D02*
X100711238Y-25169881D01*
X101092191Y-25169881D01*
X101187429Y-25217500D01*
X101235048Y-25265119D01*
X101282667Y-25360357D01*
X101282667Y-25503214D01*
X101235048Y-25598452D01*
X101187429Y-25646071D01*
X101092191Y-25693690D01*
X100711238Y-25693690D01*
X101711238Y-25646071D02*
X102044572Y-25646071D01*
X102187429Y-26169881D02*
X101711238Y-26169881D01*
X101711238Y-25169881D01*
X102187429Y-25169881D01*
X102949334Y-25646071D02*
X102616000Y-25646071D01*
X102616000Y-26169881D02*
X102616000Y-25169881D01*
X103092191Y-25169881D01*
X103616000Y-25169881D02*
X103616000Y-25407976D01*
X103377905Y-25312738D02*
X103616000Y-25407976D01*
X103854096Y-25312738D01*
X103473143Y-25598452D02*
X103616000Y-25407976D01*
X103758858Y-25598452D01*
X104377905Y-25169881D02*
X104377905Y-25407976D01*
X104139810Y-25312738D02*
X104377905Y-25407976D01*
X104616001Y-25312738D01*
X104235048Y-25598452D02*
X104377905Y-25407976D01*
X104520763Y-25598452D01*
X108902667Y-26169881D02*
X108569333Y-25693690D01*
X108331238Y-26169881D02*
X108331238Y-25169881D01*
X108712191Y-25169881D01*
X108807429Y-25217500D01*
X108855048Y-25265119D01*
X108902667Y-25360357D01*
X108902667Y-25503214D01*
X108855048Y-25598452D01*
X108807429Y-25646071D01*
X108712191Y-25693690D01*
X108331238Y-25693690D01*
X109331238Y-25646071D02*
X109664572Y-25646071D01*
X109807429Y-26169881D02*
X109331238Y-26169881D01*
X109331238Y-25169881D01*
X109807429Y-25169881D01*
X110569334Y-25646071D02*
X110236000Y-25646071D01*
X110236000Y-26169881D02*
X110236000Y-25169881D01*
X110712191Y-25169881D01*
X111236000Y-25169881D02*
X111236000Y-25407976D01*
X110997905Y-25312738D02*
X111236000Y-25407976D01*
X111474096Y-25312738D01*
X111093143Y-25598452D02*
X111236000Y-25407976D01*
X111378858Y-25598452D01*
X111997905Y-25169881D02*
X111997905Y-25407976D01*
X111759810Y-25312738D02*
X111997905Y-25407976D01*
X112236001Y-25312738D01*
X111855048Y-25598452D02*
X111997905Y-25407976D01*
X112140763Y-25598452D01*
X103962381Y-43854666D02*
X103486190Y-44188000D01*
X103962381Y-44426095D02*
X102962381Y-44426095D01*
X102962381Y-44045142D01*
X103010000Y-43949904D01*
X103057619Y-43902285D01*
X103152857Y-43854666D01*
X103295714Y-43854666D01*
X103390952Y-43902285D01*
X103438571Y-43949904D01*
X103486190Y-44045142D01*
X103486190Y-44426095D01*
X102962381Y-43521333D02*
X102962381Y-42902285D01*
X103343333Y-43235619D01*
X103343333Y-43092761D01*
X103390952Y-42997523D01*
X103438571Y-42949904D01*
X103533810Y-42902285D01*
X103771905Y-42902285D01*
X103867143Y-42949904D01*
X103914762Y-42997523D01*
X103962381Y-43092761D01*
X103962381Y-43378476D01*
X103914762Y-43473714D01*
X103867143Y-43521333D01*
X107423143Y-45886666D02*
X107470762Y-45934285D01*
X107518381Y-46077142D01*
X107518381Y-46172380D01*
X107470762Y-46315238D01*
X107375524Y-46410476D01*
X107280286Y-46458095D01*
X107089810Y-46505714D01*
X106946952Y-46505714D01*
X106756476Y-46458095D01*
X106661238Y-46410476D01*
X106566000Y-46315238D01*
X106518381Y-46172380D01*
X106518381Y-46077142D01*
X106566000Y-45934285D01*
X106613619Y-45886666D01*
X106518381Y-45553333D02*
X106518381Y-44886666D01*
X107518381Y-45315238D01*
X99295143Y-45886666D02*
X99342762Y-45934285D01*
X99390381Y-46077142D01*
X99390381Y-46172380D01*
X99342762Y-46315238D01*
X99247524Y-46410476D01*
X99152286Y-46458095D01*
X98961810Y-46505714D01*
X98818952Y-46505714D01*
X98628476Y-46458095D01*
X98533238Y-46410476D01*
X98438000Y-46315238D01*
X98390381Y-46172380D01*
X98390381Y-46077142D01*
X98438000Y-45934285D01*
X98485619Y-45886666D01*
X98390381Y-45029523D02*
X98390381Y-45220000D01*
X98438000Y-45315238D01*
X98485619Y-45362857D01*
X98628476Y-45458095D01*
X98818952Y-45505714D01*
X99199905Y-45505714D01*
X99295143Y-45458095D01*
X99342762Y-45410476D01*
X99390381Y-45315238D01*
X99390381Y-45124761D01*
X99342762Y-45029523D01*
X99295143Y-44981904D01*
X99199905Y-44934285D01*
X98961810Y-44934285D01*
X98866571Y-44981904D01*
X98818952Y-45029523D01*
X98771333Y-45124761D01*
X98771333Y-45315238D01*
X98818952Y-45410476D01*
X98866571Y-45458095D01*
X98961810Y-45505714D01*
X101766619Y-45561238D02*
X101719000Y-45656476D01*
X101623762Y-45751714D01*
X101480905Y-45894571D01*
X101433286Y-45989810D01*
X101433286Y-46085048D01*
X101671381Y-46037429D02*
X101623762Y-46132667D01*
X101528524Y-46227905D01*
X101338048Y-46275524D01*
X101004714Y-46275524D01*
X100814238Y-46227905D01*
X100719000Y-46132667D01*
X100671381Y-46037429D01*
X100671381Y-45846952D01*
X100719000Y-45751714D01*
X100814238Y-45656476D01*
X101004714Y-45608857D01*
X101338048Y-45608857D01*
X101528524Y-45656476D01*
X101623762Y-45751714D01*
X101671381Y-45846952D01*
X101671381Y-46037429D01*
X101671381Y-44656476D02*
X101671381Y-45227905D01*
X101671381Y-44942191D02*
X100671381Y-44942191D01*
X100814238Y-45037429D01*
X100909476Y-45132667D01*
X100957095Y-45227905D01*
X113096381Y-49664857D02*
X112620190Y-49998191D01*
X113096381Y-50236286D02*
X112096381Y-50236286D01*
X112096381Y-49855333D01*
X112144000Y-49760095D01*
X112191619Y-49712476D01*
X112286857Y-49664857D01*
X112429714Y-49664857D01*
X112524952Y-49712476D01*
X112572571Y-49760095D01*
X112620190Y-49855333D01*
X112620190Y-50236286D01*
X113096381Y-48712476D02*
X113096381Y-49283905D01*
X113096381Y-48998191D02*
X112096381Y-48998191D01*
X112239238Y-49093429D01*
X112334476Y-49188667D01*
X112382095Y-49283905D01*
X112191619Y-48331524D02*
X112144000Y-48283905D01*
X112096381Y-48188667D01*
X112096381Y-47950571D01*
X112144000Y-47855333D01*
X112191619Y-47807714D01*
X112286857Y-47760095D01*
X112382095Y-47760095D01*
X112524952Y-47807714D01*
X113096381Y-48379143D01*
X113096381Y-47760095D01*
X113096381Y-45886666D02*
X112620190Y-46220000D01*
X113096381Y-46458095D02*
X112096381Y-46458095D01*
X112096381Y-46077142D01*
X112144000Y-45981904D01*
X112191619Y-45934285D01*
X112286857Y-45886666D01*
X112429714Y-45886666D01*
X112524952Y-45934285D01*
X112572571Y-45981904D01*
X112620190Y-46077142D01*
X112620190Y-46458095D01*
X112191619Y-45505714D02*
X112144000Y-45458095D01*
X112096381Y-45362857D01*
X112096381Y-45124761D01*
X112144000Y-45029523D01*
X112191619Y-44981904D01*
X112286857Y-44934285D01*
X112382095Y-44934285D01*
X112524952Y-44981904D01*
X113096381Y-45553333D01*
X113096381Y-44934285D01*
X107640381Y-46616857D02*
X107164190Y-46950191D01*
X107640381Y-47188286D02*
X106640381Y-47188286D01*
X106640381Y-46807333D01*
X106688000Y-46712095D01*
X106735619Y-46664476D01*
X106830857Y-46616857D01*
X106973714Y-46616857D01*
X107068952Y-46664476D01*
X107116571Y-46712095D01*
X107164190Y-46807333D01*
X107164190Y-47188286D01*
X107640381Y-45664476D02*
X107640381Y-46235905D01*
X107640381Y-45950191D02*
X106640381Y-45950191D01*
X106783238Y-46045429D01*
X106878476Y-46140667D01*
X106926095Y-46235905D01*
X106640381Y-45331143D02*
X106640381Y-44712095D01*
X107021333Y-45045429D01*
X107021333Y-44902571D01*
X107068952Y-44807333D01*
X107116571Y-44759714D01*
X107211810Y-44712095D01*
X107449905Y-44712095D01*
X107545143Y-44759714D01*
X107592762Y-44807333D01*
X107640381Y-44902571D01*
X107640381Y-45188286D01*
X107592762Y-45283524D01*
X107545143Y-45331143D01*
X113096381Y-51982666D02*
X112620190Y-52316000D01*
X113096381Y-52554095D02*
X112096381Y-52554095D01*
X112096381Y-52173142D01*
X112144000Y-52077904D01*
X112191619Y-52030285D01*
X112286857Y-51982666D01*
X112429714Y-51982666D01*
X112524952Y-52030285D01*
X112572571Y-52077904D01*
X112620190Y-52173142D01*
X112620190Y-52554095D01*
X113096381Y-51506476D02*
X113096381Y-51316000D01*
X113048762Y-51220761D01*
X113001143Y-51173142D01*
X112858286Y-51077904D01*
X112667810Y-51030285D01*
X112286857Y-51030285D01*
X112191619Y-51077904D01*
X112144000Y-51125523D01*
X112096381Y-51220761D01*
X112096381Y-51411238D01*
X112144000Y-51506476D01*
X112191619Y-51554095D01*
X112286857Y-51601714D01*
X112524952Y-51601714D01*
X112620190Y-51554095D01*
X112667810Y-51506476D01*
X112715429Y-51411238D01*
X112715429Y-51220761D01*
X112667810Y-51125523D01*
X112620190Y-51077904D01*
X112524952Y-51030285D01*
X109806381Y-63939191D02*
X110615905Y-63939191D01*
X110711143Y-63891572D01*
X110758762Y-63843953D01*
X110806381Y-63748715D01*
X110806381Y-63558238D01*
X110758762Y-63463000D01*
X110711143Y-63415381D01*
X110615905Y-63367762D01*
X109806381Y-63367762D01*
X110806381Y-62367762D02*
X110806381Y-62939191D01*
X110806381Y-62653477D02*
X109806381Y-62653477D01*
X109949238Y-62748715D01*
X110044476Y-62843953D01*
X110092095Y-62939191D01*
X109406381Y-62586810D02*
X110406381Y-61920143D01*
X109406381Y-61920143D02*
X110406381Y-62586810D01*
X110406381Y-61015381D02*
X110406381Y-61586810D01*
X110406381Y-61301096D02*
X109406381Y-61301096D01*
X109549238Y-61396334D01*
X109644476Y-61491572D01*
X109692095Y-61586810D01*
X105687905Y-43886381D02*
X105687905Y-42886381D01*
X106068858Y-42886381D01*
X106164096Y-42934000D01*
X106211715Y-42981619D01*
X106259334Y-43076857D01*
X106259334Y-43219714D01*
X106211715Y-43314952D01*
X106164096Y-43362571D01*
X106068858Y-43410190D01*
X105687905Y-43410190D01*
X107211715Y-43886381D02*
X106640286Y-43886381D01*
X106926000Y-43886381D02*
X106926000Y-42886381D01*
X106830762Y-43029238D01*
X106735524Y-43124476D01*
X106640286Y-43172095D01*
X107183905Y-74421667D02*
X107183905Y-73421667D01*
X107422000Y-73421667D01*
X107564858Y-73469286D01*
X107660096Y-73564524D01*
X107707715Y-73659762D01*
X107755334Y-73850238D01*
X107755334Y-73993096D01*
X107707715Y-74183572D01*
X107660096Y-74278810D01*
X107564858Y-74374048D01*
X107422000Y-74421667D01*
X107183905Y-74421667D01*
X108707715Y-74421667D02*
X108136286Y-74421667D01*
X108422000Y-74421667D02*
X108422000Y-73421667D01*
X108326762Y-73564524D01*
X108231524Y-73659762D01*
X108136286Y-73707381D01*
X104643905Y-74421667D02*
X104643905Y-73421667D01*
X104882000Y-73421667D01*
X105024858Y-73469286D01*
X105120096Y-73564524D01*
X105167715Y-73659762D01*
X105215334Y-73850238D01*
X105215334Y-73993096D01*
X105167715Y-74183572D01*
X105120096Y-74278810D01*
X105024858Y-74374048D01*
X104882000Y-74421667D01*
X104643905Y-74421667D01*
X105596286Y-73516905D02*
X105643905Y-73469286D01*
X105739143Y-73421667D01*
X105977239Y-73421667D01*
X106072477Y-73469286D01*
X106120096Y-73516905D01*
X106167715Y-73612143D01*
X106167715Y-73707381D01*
X106120096Y-73850238D01*
X105548667Y-74421667D01*
X106167715Y-74421667D01*
X103321143Y-72103952D02*
X103368762Y-72151571D01*
X103416381Y-72294428D01*
X103416381Y-72389666D01*
X103368762Y-72532524D01*
X103273524Y-72627762D01*
X103178286Y-72675381D01*
X102987810Y-72723000D01*
X102844952Y-72723000D01*
X102654476Y-72675381D01*
X102559238Y-72627762D01*
X102464000Y-72532524D01*
X102416381Y-72389666D01*
X102416381Y-72294428D01*
X102464000Y-72151571D01*
X102511619Y-72103952D01*
X102416381Y-71199190D02*
X102416381Y-71675381D01*
X102892571Y-71723000D01*
X102844952Y-71675381D01*
X102797333Y-71580143D01*
X102797333Y-71342047D01*
X102844952Y-71246809D01*
X102892571Y-71199190D01*
X102987810Y-71151571D01*
X103225905Y-71151571D01*
X103321143Y-71199190D01*
X103368762Y-71246809D01*
X103416381Y-71342047D01*
X103416381Y-71580143D01*
X103368762Y-71675381D01*
X103321143Y-71723000D01*
X114497143Y-72103952D02*
X114544762Y-72151571D01*
X114592381Y-72294428D01*
X114592381Y-72389666D01*
X114544762Y-72532524D01*
X114449524Y-72627762D01*
X114354286Y-72675381D01*
X114163810Y-72723000D01*
X114020952Y-72723000D01*
X113830476Y-72675381D01*
X113735238Y-72627762D01*
X113640000Y-72532524D01*
X113592381Y-72389666D01*
X113592381Y-72294428D01*
X113640000Y-72151571D01*
X113687619Y-72103952D01*
X113925714Y-71246809D02*
X114592381Y-71246809D01*
X113544762Y-71484905D02*
X114259048Y-71723000D01*
X114259048Y-71103952D01*
X107395143Y-65499952D02*
X107442762Y-65547571D01*
X107490381Y-65690428D01*
X107490381Y-65785666D01*
X107442762Y-65928524D01*
X107347524Y-66023762D01*
X107252286Y-66071381D01*
X107061810Y-66119000D01*
X106918952Y-66119000D01*
X106728476Y-66071381D01*
X106633238Y-66023762D01*
X106538000Y-65928524D01*
X106490381Y-65785666D01*
X106490381Y-65690428D01*
X106538000Y-65547571D01*
X106585619Y-65499952D01*
X106585619Y-65119000D02*
X106538000Y-65071381D01*
X106490381Y-64976143D01*
X106490381Y-64738047D01*
X106538000Y-64642809D01*
X106585619Y-64595190D01*
X106680857Y-64547571D01*
X106776095Y-64547571D01*
X106918952Y-64595190D01*
X107490381Y-65166619D01*
X107490381Y-64547571D01*
X109427143Y-58387952D02*
X109474762Y-58435571D01*
X109522381Y-58578428D01*
X109522381Y-58673666D01*
X109474762Y-58816524D01*
X109379524Y-58911762D01*
X109284286Y-58959381D01*
X109093810Y-59007000D01*
X108950952Y-59007000D01*
X108760476Y-58959381D01*
X108665238Y-58911762D01*
X108570000Y-58816524D01*
X108522381Y-58673666D01*
X108522381Y-58578428D01*
X108570000Y-58435571D01*
X108617619Y-58387952D01*
X108522381Y-58054619D02*
X108522381Y-57435571D01*
X108903333Y-57768905D01*
X108903333Y-57626047D01*
X108950952Y-57530809D01*
X108998571Y-57483190D01*
X109093810Y-57435571D01*
X109331905Y-57435571D01*
X109427143Y-57483190D01*
X109474762Y-57530809D01*
X109522381Y-57626047D01*
X109522381Y-57911762D01*
X109474762Y-58007000D01*
X109427143Y-58054619D01*
X107395143Y-58387952D02*
X107442762Y-58435571D01*
X107490381Y-58578428D01*
X107490381Y-58673666D01*
X107442762Y-58816524D01*
X107347524Y-58911762D01*
X107252286Y-58959381D01*
X107061810Y-59007000D01*
X106918952Y-59007000D01*
X106728476Y-58959381D01*
X106633238Y-58911762D01*
X106538000Y-58816524D01*
X106490381Y-58673666D01*
X106490381Y-58578428D01*
X106538000Y-58435571D01*
X106585619Y-58387952D01*
X107490381Y-57435571D02*
X107490381Y-58007000D01*
X107490381Y-57721286D02*
X106490381Y-57721286D01*
X106633238Y-57816524D01*
X106728476Y-57911762D01*
X106776095Y-58007000D01*
X109296381Y-55252857D02*
X108820190Y-55586191D01*
X109296381Y-55824286D02*
X108296381Y-55824286D01*
X108296381Y-55443333D01*
X108344000Y-55348095D01*
X108391619Y-55300476D01*
X108486857Y-55252857D01*
X108629714Y-55252857D01*
X108724952Y-55300476D01*
X108772571Y-55348095D01*
X108820190Y-55443333D01*
X108820190Y-55824286D01*
X109296381Y-54300476D02*
X109296381Y-54871905D01*
X109296381Y-54586191D02*
X108296381Y-54586191D01*
X108439238Y-54681429D01*
X108534476Y-54776667D01*
X108582095Y-54871905D01*
X109296381Y-53348095D02*
X109296381Y-53919524D01*
X109296381Y-53633810D02*
X108296381Y-53633810D01*
X108439238Y-53729048D01*
X108534476Y-53824286D01*
X108582095Y-53919524D01*
X111064381Y-55252857D02*
X110588190Y-55586191D01*
X111064381Y-55824286D02*
X110064381Y-55824286D01*
X110064381Y-55443333D01*
X110112000Y-55348095D01*
X110159619Y-55300476D01*
X110254857Y-55252857D01*
X110397714Y-55252857D01*
X110492952Y-55300476D01*
X110540571Y-55348095D01*
X110588190Y-55443333D01*
X110588190Y-55824286D01*
X111064381Y-54300476D02*
X111064381Y-54871905D01*
X111064381Y-54586191D02*
X110064381Y-54586191D01*
X110207238Y-54681429D01*
X110302476Y-54776667D01*
X110350095Y-54871905D01*
X110064381Y-53681429D02*
X110064381Y-53586190D01*
X110112000Y-53490952D01*
X110159619Y-53443333D01*
X110254857Y-53395714D01*
X110445333Y-53348095D01*
X110683429Y-53348095D01*
X110873905Y-53395714D01*
X110969143Y-53443333D01*
X111016762Y-53490952D01*
X111064381Y-53586190D01*
X111064381Y-53681429D01*
X111016762Y-53776667D01*
X110969143Y-53824286D01*
X110873905Y-53871905D01*
X110683429Y-53919524D01*
X110445333Y-53919524D01*
X110254857Y-53871905D01*
X110159619Y-53824286D01*
X110112000Y-53776667D01*
X110064381Y-53681429D01*
X101902381Y-72103952D02*
X101426190Y-72437286D01*
X101902381Y-72675381D02*
X100902381Y-72675381D01*
X100902381Y-72294428D01*
X100950000Y-72199190D01*
X100997619Y-72151571D01*
X101092857Y-72103952D01*
X101235714Y-72103952D01*
X101330952Y-72151571D01*
X101378571Y-72199190D01*
X101426190Y-72294428D01*
X101426190Y-72675381D01*
X101330952Y-71532524D02*
X101283333Y-71627762D01*
X101235714Y-71675381D01*
X101140476Y-71723000D01*
X101092857Y-71723000D01*
X100997619Y-71675381D01*
X100950000Y-71627762D01*
X100902381Y-71532524D01*
X100902381Y-71342047D01*
X100950000Y-71246809D01*
X100997619Y-71199190D01*
X101092857Y-71151571D01*
X101140476Y-71151571D01*
X101235714Y-71199190D01*
X101283333Y-71246809D01*
X101330952Y-71342047D01*
X101330952Y-71532524D01*
X101378571Y-71627762D01*
X101426190Y-71675381D01*
X101521429Y-71723000D01*
X101711905Y-71723000D01*
X101807143Y-71675381D01*
X101854762Y-71627762D01*
X101902381Y-71532524D01*
X101902381Y-71342047D01*
X101854762Y-71246809D01*
X101807143Y-71199190D01*
X101711905Y-71151571D01*
X101521429Y-71151571D01*
X101426190Y-71199190D01*
X101378571Y-71246809D01*
X101330952Y-71342047D01*
X108506381Y-72103952D02*
X108030190Y-72437286D01*
X108506381Y-72675381D02*
X107506381Y-72675381D01*
X107506381Y-72294428D01*
X107554000Y-72199190D01*
X107601619Y-72151571D01*
X107696857Y-72103952D01*
X107839714Y-72103952D01*
X107934952Y-72151571D01*
X107982571Y-72199190D01*
X108030190Y-72294428D01*
X108030190Y-72675381D01*
X107506381Y-71770619D02*
X107506381Y-71103952D01*
X108506381Y-71532524D01*
X99616381Y-69055952D02*
X99140190Y-69389286D01*
X99616381Y-69627381D02*
X98616381Y-69627381D01*
X98616381Y-69246428D01*
X98664000Y-69151190D01*
X98711619Y-69103571D01*
X98806857Y-69055952D01*
X98949714Y-69055952D01*
X99044952Y-69103571D01*
X99092571Y-69151190D01*
X99140190Y-69246428D01*
X99140190Y-69627381D01*
X98616381Y-68198809D02*
X98616381Y-68389286D01*
X98664000Y-68484524D01*
X98711619Y-68532143D01*
X98854476Y-68627381D01*
X99044952Y-68675000D01*
X99425905Y-68675000D01*
X99521143Y-68627381D01*
X99568762Y-68579762D01*
X99616381Y-68484524D01*
X99616381Y-68294047D01*
X99568762Y-68198809D01*
X99521143Y-68151190D01*
X99425905Y-68103571D01*
X99187810Y-68103571D01*
X99092571Y-68151190D01*
X99044952Y-68198809D01*
X98997333Y-68294047D01*
X98997333Y-68484524D01*
X99044952Y-68579762D01*
X99092571Y-68627381D01*
X99187810Y-68675000D01*
X110792381Y-69055952D02*
X110316190Y-69389286D01*
X110792381Y-69627381D02*
X109792381Y-69627381D01*
X109792381Y-69246428D01*
X109840000Y-69151190D01*
X109887619Y-69103571D01*
X109982857Y-69055952D01*
X110125714Y-69055952D01*
X110220952Y-69103571D01*
X110268571Y-69151190D01*
X110316190Y-69246428D01*
X110316190Y-69627381D01*
X109792381Y-68151190D02*
X109792381Y-68627381D01*
X110268571Y-68675000D01*
X110220952Y-68627381D01*
X110173333Y-68532143D01*
X110173333Y-68294047D01*
X110220952Y-68198809D01*
X110268571Y-68151190D01*
X110363810Y-68103571D01*
X110601905Y-68103571D01*
X110697143Y-68151190D01*
X110744762Y-68198809D01*
X110792381Y-68294047D01*
X110792381Y-68532143D01*
X110744762Y-68627381D01*
X110697143Y-68675000D01*
X108506381Y-69055952D02*
X108030190Y-69389286D01*
X108506381Y-69627381D02*
X107506381Y-69627381D01*
X107506381Y-69246428D01*
X107554000Y-69151190D01*
X107601619Y-69103571D01*
X107696857Y-69055952D01*
X107839714Y-69055952D01*
X107934952Y-69103571D01*
X107982571Y-69151190D01*
X108030190Y-69246428D01*
X108030190Y-69627381D01*
X107839714Y-68198809D02*
X108506381Y-68198809D01*
X107458762Y-68436905D02*
X108173048Y-68675000D01*
X108173048Y-68055952D01*
X99870381Y-62197952D02*
X99394190Y-62531286D01*
X99870381Y-62769381D02*
X98870381Y-62769381D01*
X98870381Y-62388428D01*
X98918000Y-62293190D01*
X98965619Y-62245571D01*
X99060857Y-62197952D01*
X99203714Y-62197952D01*
X99298952Y-62245571D01*
X99346571Y-62293190D01*
X99394190Y-62388428D01*
X99394190Y-62769381D01*
X99870381Y-61245571D02*
X99870381Y-61817000D01*
X99870381Y-61531286D02*
X98870381Y-61531286D01*
X99013238Y-61626524D01*
X99108476Y-61721762D01*
X99156095Y-61817000D01*
%LPC*%
D12*
X132016500Y-30480000D03*
X96520000Y-139763500D03*
D13*
X116583400Y-62781286D03*
X116583400Y-61281286D03*
X125219400Y-69639286D03*
X125219400Y-68139286D03*
X127505400Y-69639286D03*
X127505400Y-68139286D03*
X116329400Y-69639286D03*
X116329400Y-68139286D03*
X125219400Y-72687286D03*
X125219400Y-71187286D03*
X118615400Y-72687286D03*
X118615400Y-71187286D03*
X123977400Y-53860000D03*
X123977400Y-55360000D03*
X126009400Y-55360000D03*
X126009400Y-53860000D03*
D14*
X124203400Y-58971286D03*
X124203400Y-57471286D03*
X126235400Y-58971286D03*
X126235400Y-57471286D03*
X124203400Y-66083286D03*
X124203400Y-64583286D03*
X127505400Y-71187286D03*
X127505400Y-72687286D03*
X116329400Y-71187286D03*
X116329400Y-72687286D03*
D15*
X120647400Y-72637286D03*
X120647400Y-71237286D03*
X123187400Y-71237286D03*
X123187400Y-72637286D03*
D16*
X124231400Y-38354000D03*
D17*
X124231400Y-40894000D03*
X121691400Y-38354000D03*
X121691400Y-40894000D03*
X119151400Y-38354000D03*
X119151400Y-40894000D03*
D18*
X120139400Y-56928426D03*
X120139400Y-66626146D03*
D19*
X124203400Y-61116886D03*
X124203400Y-62437686D03*
X124203400Y-61777286D03*
X126235400Y-62437686D03*
X126235400Y-61116886D03*
X126235400Y-61777286D03*
D13*
X126009400Y-51066000D03*
X126009400Y-52566000D03*
X122453400Y-44970000D03*
X122453400Y-46470000D03*
X126009400Y-44970000D03*
X126009400Y-46470000D03*
X126009400Y-48272000D03*
X126009400Y-49772000D03*
D20*
X117627400Y-46355000D03*
X117627400Y-44577000D03*
X119659400Y-45466000D03*
D14*
X116103400Y-46470000D03*
X116103400Y-44970000D03*
X124231400Y-46470000D03*
X124231400Y-44970000D03*
D13*
X120675400Y-44438000D03*
X120675400Y-42938000D03*
D21*
X117725400Y-48088000D03*
X117725400Y-48738000D03*
X117725400Y-49388000D03*
X117725400Y-50038000D03*
X117725400Y-50688000D03*
X117725400Y-51338000D03*
X117725400Y-51988000D03*
X123625400Y-51988000D03*
X123625400Y-51338000D03*
X123625400Y-50688000D03*
X123625400Y-50038000D03*
X123625400Y-49388000D03*
X123625400Y-48738000D03*
X123625400Y-48088000D03*
X102460000Y-48088000D03*
X102460000Y-48738000D03*
X102460000Y-49388000D03*
X102460000Y-50038000D03*
X102460000Y-50688000D03*
X102460000Y-51338000D03*
X102460000Y-51988000D03*
X108360000Y-51988000D03*
X108360000Y-51338000D03*
X108360000Y-50688000D03*
X108360000Y-50038000D03*
X108360000Y-49388000D03*
X108360000Y-48738000D03*
X108360000Y-48088000D03*
D13*
X105410000Y-44438000D03*
X105410000Y-42938000D03*
D14*
X108966000Y-46470000D03*
X108966000Y-44970000D03*
X100838000Y-46470000D03*
X100838000Y-44970000D03*
D20*
X102362000Y-46355000D03*
X102362000Y-44577000D03*
X104394000Y-45466000D03*
D13*
X110744000Y-48272000D03*
X110744000Y-49772000D03*
X110744000Y-44970000D03*
X110744000Y-46470000D03*
X107188000Y-44970000D03*
X107188000Y-46470000D03*
X110744000Y-51066000D03*
X110744000Y-52566000D03*
D19*
X108938000Y-61116886D03*
X108938000Y-62437686D03*
X108938000Y-61777286D03*
X110970000Y-62437686D03*
X110970000Y-61116886D03*
X110970000Y-61777286D03*
D18*
X104874000Y-56928426D03*
X104874000Y-66626146D03*
D16*
X108966000Y-38354000D03*
D17*
X108966000Y-40894000D03*
X106426000Y-38354000D03*
X106426000Y-40894000D03*
X103886000Y-38354000D03*
X103886000Y-40894000D03*
D15*
X107922000Y-71237286D03*
X107922000Y-72637286D03*
X105382000Y-72637286D03*
X105382000Y-71237286D03*
D14*
X101064000Y-71187286D03*
X101064000Y-72687286D03*
X112240000Y-71187286D03*
X112240000Y-72687286D03*
X108938000Y-66083286D03*
X108938000Y-64583286D03*
X110970000Y-58971286D03*
X110970000Y-57471286D03*
X108938000Y-58971286D03*
X108938000Y-57471286D03*
D13*
X110744000Y-55360000D03*
X110744000Y-53860000D03*
X108712000Y-53860000D03*
X108712000Y-55360000D03*
X103350000Y-72687286D03*
X103350000Y-71187286D03*
X109954000Y-72687286D03*
X109954000Y-71187286D03*
X101064000Y-69639286D03*
X101064000Y-68139286D03*
X112240000Y-69639286D03*
X112240000Y-68139286D03*
X109954000Y-69639286D03*
X109954000Y-68139286D03*
X101318000Y-62781286D03*
X101318000Y-61281286D03*
M02*
