G04 #@! TF.FileFunction,Copper,L2,Bot,Signal*
%FSLAX46Y46*%
G04 Gerber Fmt 4.6, Leading zero omitted, Abs format (unit mm)*
G04 Created by KiCad (PCBNEW (2015-02-15 BZR 5420)-product) date Tue 17 Feb 2015 11:56:18 AM EET*
%MOMM*%
G01*
G04 APERTURE LIST*
%ADD10C,0.100000*%
%ADD11R,1.727200X1.727200*%
%ADD12O,1.727200X1.727200*%
%ADD13C,0.889000*%
%ADD14C,0.508000*%
%ADD15C,0.254000*%
G04 APERTURE END LIST*
D10*
D11*
X68688000Y-24253286D03*
D12*
X68688000Y-26793286D03*
X66148000Y-24253286D03*
X66148000Y-26793286D03*
X63608000Y-24253286D03*
X63608000Y-26793286D03*
D11*
X83938000Y-24253286D03*
D12*
X83938000Y-26793286D03*
X81398000Y-24253286D03*
X81398000Y-26793286D03*
X78858000Y-24253286D03*
X78858000Y-26793286D03*
D13*
X69704000Y-69973286D03*
X84954000Y-69973286D03*
X67545000Y-57908286D03*
X71990000Y-69973286D03*
X60814000Y-69973286D03*
X66910000Y-63877286D03*
X63100000Y-69973286D03*
X62592000Y-65655286D03*
X82795000Y-57908286D03*
X87240000Y-69973286D03*
X76064000Y-69973286D03*
X82160000Y-63877286D03*
X78350000Y-69973286D03*
X77842000Y-65655286D03*
X62465000Y-64131286D03*
X62211000Y-49399286D03*
X77715000Y-64131286D03*
X77461000Y-49399286D03*
X68434000Y-66417286D03*
X66910000Y-43049286D03*
X83684000Y-66417286D03*
X82160000Y-43049286D03*
X65259000Y-66163286D03*
X63862000Y-45081286D03*
X80509000Y-66163286D03*
X79112000Y-45081286D03*
X68307000Y-36445286D03*
X83557000Y-36445286D03*
D14*
X69704000Y-68449286D02*
X69704000Y-69973286D01*
X84954000Y-68449286D02*
X84954000Y-69973286D01*
D15*
X64370000Y-69973286D02*
X66910000Y-67433286D01*
X66910000Y-67433286D02*
X66910000Y-63877286D01*
X63100000Y-69973286D02*
X64370000Y-69973286D01*
X63100000Y-66163286D02*
X62592000Y-65655286D01*
X63100000Y-69973286D02*
X63100000Y-66163286D01*
X79620000Y-69973286D02*
X82160000Y-67433286D01*
X82160000Y-67433286D02*
X82160000Y-63877286D01*
X78350000Y-69973286D02*
X79620000Y-69973286D01*
X78350000Y-66163286D02*
X77842000Y-65655286D01*
X78350000Y-69973286D02*
X78350000Y-66163286D01*
D14*
X62211000Y-63877286D02*
X62465000Y-64131286D01*
X62211000Y-63877286D02*
X62211000Y-49399286D01*
X77461000Y-63877286D02*
X77715000Y-64131286D01*
X77461000Y-63877286D02*
X77461000Y-49399286D01*
X68434000Y-66417286D02*
X68434000Y-58391396D01*
X68434000Y-58391396D02*
X68472101Y-58353295D01*
X68472101Y-58353295D02*
X68472101Y-49564387D01*
X68472101Y-44611387D02*
X66910000Y-43049286D01*
X68472101Y-49564387D02*
X68472101Y-44611387D01*
X83684000Y-66417286D02*
X83684000Y-58391396D01*
X83684000Y-58391396D02*
X83722101Y-58353295D01*
X83722101Y-58353295D02*
X83722101Y-49564387D01*
X83722101Y-44611387D02*
X82160000Y-43049286D01*
X83722101Y-49564387D02*
X83722101Y-44611387D01*
X65259000Y-50458468D02*
X65259000Y-51431286D01*
X65259000Y-66163286D02*
X65259000Y-51431286D01*
X65259000Y-46478286D02*
X63862000Y-45081286D01*
X65259000Y-50458468D02*
X65259000Y-46478286D01*
X80509000Y-50458468D02*
X80509000Y-51431286D01*
X80509000Y-66163286D02*
X80509000Y-51431286D01*
X80509000Y-46478286D02*
X79112000Y-45081286D01*
X80509000Y-50458468D02*
X80509000Y-46478286D01*
X68307000Y-36445286D02*
X68688000Y-36064286D01*
X68688000Y-36064286D02*
X68688000Y-26793286D01*
X83557000Y-36445286D02*
X83938000Y-36064286D01*
X83938000Y-36064286D02*
X83938000Y-26793286D01*
D15*
G36*
X88156937Y-78681000D02*
X85754239Y-78681000D01*
X85754239Y-69814834D01*
X85632687Y-69520658D01*
X85563600Y-69451450D01*
X85563600Y-68449286D01*
X85517197Y-68216002D01*
X85436600Y-68095380D01*
X85436600Y-25243196D01*
X85436600Y-24990577D01*
X85436600Y-24539036D01*
X85277850Y-24380286D01*
X84065000Y-24380286D01*
X84065000Y-24400286D01*
X83811000Y-24400286D01*
X83811000Y-24380286D01*
X82731817Y-24380286D01*
X82598150Y-24380286D01*
X81525000Y-24380286D01*
X81525000Y-25458817D01*
X81525000Y-25587755D01*
X81525000Y-26666286D01*
X81545000Y-26666286D01*
X81545000Y-26920286D01*
X81525000Y-26920286D01*
X81525000Y-28127755D01*
X81757027Y-28248254D01*
X82286490Y-28000107D01*
X82680688Y-27568233D01*
X82800495Y-27278974D01*
X83052009Y-27655391D01*
X83328400Y-27840069D01*
X83328400Y-35674031D01*
X83104372Y-35766599D01*
X82879104Y-35991474D01*
X82757039Y-36285438D01*
X82756761Y-36603738D01*
X82878313Y-36897914D01*
X83103188Y-37123182D01*
X83397152Y-37245247D01*
X83715452Y-37245525D01*
X84009628Y-37123973D01*
X84234896Y-36899098D01*
X84356961Y-36605134D01*
X84357046Y-36507344D01*
X84369052Y-36495339D01*
X84369052Y-36495338D01*
X84501197Y-36297570D01*
X84547599Y-36064286D01*
X84547600Y-36064286D01*
X84547600Y-27840069D01*
X84823991Y-27655391D01*
X85088280Y-27259854D01*
X85181086Y-26793286D01*
X85088280Y-26326718D01*
X84823991Y-25931181D01*
X84555656Y-25751886D01*
X84927909Y-25751886D01*
X85161298Y-25655213D01*
X85339927Y-25476585D01*
X85436600Y-25243196D01*
X85436600Y-68095380D01*
X85385052Y-68018234D01*
X85187284Y-67886089D01*
X84954000Y-67839686D01*
X84720716Y-67886089D01*
X84522948Y-68018234D01*
X84484239Y-68076165D01*
X84484239Y-66258834D01*
X84362687Y-65964658D01*
X84293600Y-65895450D01*
X84293600Y-58544841D01*
X84331701Y-58353295D01*
X84331701Y-49564387D01*
X84331701Y-44611387D01*
X84285298Y-44378103D01*
X84153153Y-44180335D01*
X84153153Y-44180334D01*
X82960154Y-42987336D01*
X82960239Y-42890834D01*
X82838687Y-42596658D01*
X82613812Y-42371390D01*
X82319848Y-42249325D01*
X82001548Y-42249047D01*
X81707372Y-42370599D01*
X81482104Y-42595474D01*
X81360039Y-42889438D01*
X81359761Y-43207738D01*
X81481313Y-43501914D01*
X81706188Y-43727182D01*
X82000152Y-43849247D01*
X82097942Y-43849332D01*
X83112501Y-44863891D01*
X83112501Y-49564387D01*
X83112501Y-58199849D01*
X83074400Y-58391396D01*
X83074400Y-65895297D01*
X83006104Y-65963474D01*
X82884039Y-66257438D01*
X82883761Y-66575738D01*
X83005313Y-66869914D01*
X83230188Y-67095182D01*
X83524152Y-67217247D01*
X83842452Y-67217525D01*
X84136628Y-67095973D01*
X84361896Y-66871098D01*
X84483961Y-66577134D01*
X84484239Y-66258834D01*
X84484239Y-68076165D01*
X84390803Y-68216002D01*
X84344400Y-68449286D01*
X84344400Y-69451297D01*
X84276104Y-69519474D01*
X84154039Y-69813438D01*
X84153761Y-70131738D01*
X84275313Y-70425914D01*
X84500188Y-70651182D01*
X84794152Y-70773247D01*
X85112452Y-70773525D01*
X85406628Y-70651973D01*
X85631896Y-70427098D01*
X85753961Y-70133134D01*
X85754239Y-69814834D01*
X85754239Y-78681000D01*
X81309239Y-78681000D01*
X81309239Y-66004834D01*
X81187687Y-65710658D01*
X81118600Y-65641450D01*
X81118600Y-51431286D01*
X81118600Y-50458468D01*
X81118600Y-46478286D01*
X81072197Y-46245002D01*
X80940052Y-46047234D01*
X80940052Y-46047233D01*
X79912154Y-45019336D01*
X79912239Y-44922834D01*
X79790687Y-44628658D01*
X79565812Y-44403390D01*
X79271848Y-44281325D01*
X78953548Y-44281047D01*
X78659372Y-44402599D01*
X78434104Y-44627474D01*
X78312039Y-44921438D01*
X78311761Y-45239738D01*
X78433313Y-45533914D01*
X78658188Y-45759182D01*
X78952152Y-45881247D01*
X79049942Y-45881332D01*
X79899400Y-46730790D01*
X79899400Y-50458468D01*
X79899400Y-51431286D01*
X79899400Y-65641297D01*
X79831104Y-65709474D01*
X79709039Y-66003438D01*
X79708761Y-66321738D01*
X79830313Y-66615914D01*
X80055188Y-66841182D01*
X80349152Y-66963247D01*
X80667452Y-66963525D01*
X80961628Y-66841973D01*
X81186896Y-66617098D01*
X81308961Y-66323134D01*
X81309239Y-66004834D01*
X81309239Y-78681000D01*
X78515239Y-78681000D01*
X78515239Y-63972834D01*
X78393687Y-63678658D01*
X78168812Y-63453390D01*
X78070600Y-63412608D01*
X78070600Y-49921274D01*
X78138896Y-49853098D01*
X78260961Y-49559134D01*
X78261239Y-49240834D01*
X78139687Y-48946658D01*
X77914812Y-48721390D01*
X77620848Y-48599325D01*
X77302548Y-48599047D01*
X77008372Y-48720599D01*
X76783104Y-48945474D01*
X76661039Y-49239438D01*
X76660761Y-49557738D01*
X76782313Y-49851914D01*
X76851400Y-49921121D01*
X76851400Y-63877286D01*
X76897803Y-64110570D01*
X76914895Y-64136150D01*
X76914761Y-64289738D01*
X77036313Y-64583914D01*
X77261188Y-64809182D01*
X77555152Y-64931247D01*
X77873452Y-64931525D01*
X78167628Y-64809973D01*
X78392896Y-64585098D01*
X78514961Y-64291134D01*
X78515239Y-63972834D01*
X78515239Y-78681000D01*
X75202937Y-78681000D01*
X75175201Y-22880886D01*
X80862800Y-22880886D01*
X80509510Y-23046465D01*
X80115312Y-23478339D01*
X79995504Y-23767597D01*
X79743991Y-23391181D01*
X79348454Y-23126892D01*
X78881886Y-23034086D01*
X78834114Y-23034086D01*
X78367546Y-23126892D01*
X77972009Y-23391181D01*
X77707720Y-23786718D01*
X77614914Y-24253286D01*
X77707720Y-24719854D01*
X77972009Y-25115391D01*
X78367546Y-25379680D01*
X78834114Y-25472486D01*
X78881886Y-25472486D01*
X79348454Y-25379680D01*
X79743991Y-25115391D01*
X79995504Y-24738974D01*
X80115312Y-25028233D01*
X80509510Y-25460107D01*
X80644312Y-25523286D01*
X80509510Y-25586465D01*
X80115312Y-26018339D01*
X79995504Y-26307597D01*
X79743991Y-25931181D01*
X79348454Y-25666892D01*
X78881886Y-25574086D01*
X78834114Y-25574086D01*
X78367546Y-25666892D01*
X77972009Y-25931181D01*
X77707720Y-26326718D01*
X77614914Y-26793286D01*
X77707720Y-27259854D01*
X77972009Y-27655391D01*
X78367546Y-27919680D01*
X78834114Y-28012486D01*
X78881886Y-28012486D01*
X79348454Y-27919680D01*
X79743991Y-27655391D01*
X79995504Y-27278974D01*
X80115312Y-27568233D01*
X80509510Y-28000107D01*
X81038973Y-28248254D01*
X81271000Y-28127755D01*
X81271000Y-26920286D01*
X81251000Y-26920286D01*
X81251000Y-26666286D01*
X81271000Y-26666286D01*
X81271000Y-25587755D01*
X81271000Y-25458817D01*
X81271000Y-24380286D01*
X81251000Y-24380286D01*
X81251000Y-24126286D01*
X81271000Y-24126286D01*
X81271000Y-24106286D01*
X81525000Y-24106286D01*
X81525000Y-24126286D01*
X82598150Y-24126286D01*
X82731817Y-24126286D01*
X83811000Y-24126286D01*
X83811000Y-24106286D01*
X84065000Y-24106286D01*
X84065000Y-24126286D01*
X85277850Y-24126286D01*
X85436600Y-23967536D01*
X85436600Y-23515995D01*
X85436600Y-23263376D01*
X85339927Y-23029987D01*
X85190825Y-22880886D01*
X88129201Y-22880886D01*
X88156937Y-78681000D01*
X88156937Y-78681000D01*
G37*
X88156937Y-78681000D02*
X85754239Y-78681000D01*
X85754239Y-69814834D01*
X85632687Y-69520658D01*
X85563600Y-69451450D01*
X85563600Y-68449286D01*
X85517197Y-68216002D01*
X85436600Y-68095380D01*
X85436600Y-25243196D01*
X85436600Y-24990577D01*
X85436600Y-24539036D01*
X85277850Y-24380286D01*
X84065000Y-24380286D01*
X84065000Y-24400286D01*
X83811000Y-24400286D01*
X83811000Y-24380286D01*
X82731817Y-24380286D01*
X82598150Y-24380286D01*
X81525000Y-24380286D01*
X81525000Y-25458817D01*
X81525000Y-25587755D01*
X81525000Y-26666286D01*
X81545000Y-26666286D01*
X81545000Y-26920286D01*
X81525000Y-26920286D01*
X81525000Y-28127755D01*
X81757027Y-28248254D01*
X82286490Y-28000107D01*
X82680688Y-27568233D01*
X82800495Y-27278974D01*
X83052009Y-27655391D01*
X83328400Y-27840069D01*
X83328400Y-35674031D01*
X83104372Y-35766599D01*
X82879104Y-35991474D01*
X82757039Y-36285438D01*
X82756761Y-36603738D01*
X82878313Y-36897914D01*
X83103188Y-37123182D01*
X83397152Y-37245247D01*
X83715452Y-37245525D01*
X84009628Y-37123973D01*
X84234896Y-36899098D01*
X84356961Y-36605134D01*
X84357046Y-36507344D01*
X84369052Y-36495339D01*
X84369052Y-36495338D01*
X84501197Y-36297570D01*
X84547599Y-36064286D01*
X84547600Y-36064286D01*
X84547600Y-27840069D01*
X84823991Y-27655391D01*
X85088280Y-27259854D01*
X85181086Y-26793286D01*
X85088280Y-26326718D01*
X84823991Y-25931181D01*
X84555656Y-25751886D01*
X84927909Y-25751886D01*
X85161298Y-25655213D01*
X85339927Y-25476585D01*
X85436600Y-25243196D01*
X85436600Y-68095380D01*
X85385052Y-68018234D01*
X85187284Y-67886089D01*
X84954000Y-67839686D01*
X84720716Y-67886089D01*
X84522948Y-68018234D01*
X84484239Y-68076165D01*
X84484239Y-66258834D01*
X84362687Y-65964658D01*
X84293600Y-65895450D01*
X84293600Y-58544841D01*
X84331701Y-58353295D01*
X84331701Y-49564387D01*
X84331701Y-44611387D01*
X84285298Y-44378103D01*
X84153153Y-44180335D01*
X84153153Y-44180334D01*
X82960154Y-42987336D01*
X82960239Y-42890834D01*
X82838687Y-42596658D01*
X82613812Y-42371390D01*
X82319848Y-42249325D01*
X82001548Y-42249047D01*
X81707372Y-42370599D01*
X81482104Y-42595474D01*
X81360039Y-42889438D01*
X81359761Y-43207738D01*
X81481313Y-43501914D01*
X81706188Y-43727182D01*
X82000152Y-43849247D01*
X82097942Y-43849332D01*
X83112501Y-44863891D01*
X83112501Y-49564387D01*
X83112501Y-58199849D01*
X83074400Y-58391396D01*
X83074400Y-65895297D01*
X83006104Y-65963474D01*
X82884039Y-66257438D01*
X82883761Y-66575738D01*
X83005313Y-66869914D01*
X83230188Y-67095182D01*
X83524152Y-67217247D01*
X83842452Y-67217525D01*
X84136628Y-67095973D01*
X84361896Y-66871098D01*
X84483961Y-66577134D01*
X84484239Y-66258834D01*
X84484239Y-68076165D01*
X84390803Y-68216002D01*
X84344400Y-68449286D01*
X84344400Y-69451297D01*
X84276104Y-69519474D01*
X84154039Y-69813438D01*
X84153761Y-70131738D01*
X84275313Y-70425914D01*
X84500188Y-70651182D01*
X84794152Y-70773247D01*
X85112452Y-70773525D01*
X85406628Y-70651973D01*
X85631896Y-70427098D01*
X85753961Y-70133134D01*
X85754239Y-69814834D01*
X85754239Y-78681000D01*
X81309239Y-78681000D01*
X81309239Y-66004834D01*
X81187687Y-65710658D01*
X81118600Y-65641450D01*
X81118600Y-51431286D01*
X81118600Y-50458468D01*
X81118600Y-46478286D01*
X81072197Y-46245002D01*
X80940052Y-46047234D01*
X80940052Y-46047233D01*
X79912154Y-45019336D01*
X79912239Y-44922834D01*
X79790687Y-44628658D01*
X79565812Y-44403390D01*
X79271848Y-44281325D01*
X78953548Y-44281047D01*
X78659372Y-44402599D01*
X78434104Y-44627474D01*
X78312039Y-44921438D01*
X78311761Y-45239738D01*
X78433313Y-45533914D01*
X78658188Y-45759182D01*
X78952152Y-45881247D01*
X79049942Y-45881332D01*
X79899400Y-46730790D01*
X79899400Y-50458468D01*
X79899400Y-51431286D01*
X79899400Y-65641297D01*
X79831104Y-65709474D01*
X79709039Y-66003438D01*
X79708761Y-66321738D01*
X79830313Y-66615914D01*
X80055188Y-66841182D01*
X80349152Y-66963247D01*
X80667452Y-66963525D01*
X80961628Y-66841973D01*
X81186896Y-66617098D01*
X81308961Y-66323134D01*
X81309239Y-66004834D01*
X81309239Y-78681000D01*
X78515239Y-78681000D01*
X78515239Y-63972834D01*
X78393687Y-63678658D01*
X78168812Y-63453390D01*
X78070600Y-63412608D01*
X78070600Y-49921274D01*
X78138896Y-49853098D01*
X78260961Y-49559134D01*
X78261239Y-49240834D01*
X78139687Y-48946658D01*
X77914812Y-48721390D01*
X77620848Y-48599325D01*
X77302548Y-48599047D01*
X77008372Y-48720599D01*
X76783104Y-48945474D01*
X76661039Y-49239438D01*
X76660761Y-49557738D01*
X76782313Y-49851914D01*
X76851400Y-49921121D01*
X76851400Y-63877286D01*
X76897803Y-64110570D01*
X76914895Y-64136150D01*
X76914761Y-64289738D01*
X77036313Y-64583914D01*
X77261188Y-64809182D01*
X77555152Y-64931247D01*
X77873452Y-64931525D01*
X78167628Y-64809973D01*
X78392896Y-64585098D01*
X78514961Y-64291134D01*
X78515239Y-63972834D01*
X78515239Y-78681000D01*
X75202937Y-78681000D01*
X75175201Y-22880886D01*
X80862800Y-22880886D01*
X80509510Y-23046465D01*
X80115312Y-23478339D01*
X79995504Y-23767597D01*
X79743991Y-23391181D01*
X79348454Y-23126892D01*
X78881886Y-23034086D01*
X78834114Y-23034086D01*
X78367546Y-23126892D01*
X77972009Y-23391181D01*
X77707720Y-23786718D01*
X77614914Y-24253286D01*
X77707720Y-24719854D01*
X77972009Y-25115391D01*
X78367546Y-25379680D01*
X78834114Y-25472486D01*
X78881886Y-25472486D01*
X79348454Y-25379680D01*
X79743991Y-25115391D01*
X79995504Y-24738974D01*
X80115312Y-25028233D01*
X80509510Y-25460107D01*
X80644312Y-25523286D01*
X80509510Y-25586465D01*
X80115312Y-26018339D01*
X79995504Y-26307597D01*
X79743991Y-25931181D01*
X79348454Y-25666892D01*
X78881886Y-25574086D01*
X78834114Y-25574086D01*
X78367546Y-25666892D01*
X77972009Y-25931181D01*
X77707720Y-26326718D01*
X77614914Y-26793286D01*
X77707720Y-27259854D01*
X77972009Y-27655391D01*
X78367546Y-27919680D01*
X78834114Y-28012486D01*
X78881886Y-28012486D01*
X79348454Y-27919680D01*
X79743991Y-27655391D01*
X79995504Y-27278974D01*
X80115312Y-27568233D01*
X80509510Y-28000107D01*
X81038973Y-28248254D01*
X81271000Y-28127755D01*
X81271000Y-26920286D01*
X81251000Y-26920286D01*
X81251000Y-26666286D01*
X81271000Y-26666286D01*
X81271000Y-25587755D01*
X81271000Y-25458817D01*
X81271000Y-24380286D01*
X81251000Y-24380286D01*
X81251000Y-24126286D01*
X81271000Y-24126286D01*
X81271000Y-24106286D01*
X81525000Y-24106286D01*
X81525000Y-24126286D01*
X82598150Y-24126286D01*
X82731817Y-24126286D01*
X83811000Y-24126286D01*
X83811000Y-24106286D01*
X84065000Y-24106286D01*
X84065000Y-24126286D01*
X85277850Y-24126286D01*
X85436600Y-23967536D01*
X85436600Y-23515995D01*
X85436600Y-23263376D01*
X85339927Y-23029987D01*
X85190825Y-22880886D01*
X88129201Y-22880886D01*
X88156937Y-78681000D01*
G36*
X72906937Y-78681000D02*
X70504239Y-78681000D01*
X70504239Y-69814834D01*
X70382687Y-69520658D01*
X70313600Y-69451450D01*
X70313600Y-68449286D01*
X70267197Y-68216002D01*
X70186600Y-68095380D01*
X70186600Y-25243196D01*
X70186600Y-24990577D01*
X70186600Y-24539036D01*
X70027850Y-24380286D01*
X68815000Y-24380286D01*
X68815000Y-24400286D01*
X68561000Y-24400286D01*
X68561000Y-24380286D01*
X67481817Y-24380286D01*
X67348150Y-24380286D01*
X66275000Y-24380286D01*
X66275000Y-25458817D01*
X66275000Y-25587755D01*
X66275000Y-26666286D01*
X66295000Y-26666286D01*
X66295000Y-26920286D01*
X66275000Y-26920286D01*
X66275000Y-28127755D01*
X66507027Y-28248254D01*
X67036490Y-28000107D01*
X67430688Y-27568233D01*
X67550495Y-27278974D01*
X67802009Y-27655391D01*
X68078400Y-27840069D01*
X68078400Y-35674031D01*
X67854372Y-35766599D01*
X67629104Y-35991474D01*
X67507039Y-36285438D01*
X67506761Y-36603738D01*
X67628313Y-36897914D01*
X67853188Y-37123182D01*
X68147152Y-37245247D01*
X68465452Y-37245525D01*
X68759628Y-37123973D01*
X68984896Y-36899098D01*
X69106961Y-36605134D01*
X69107046Y-36507344D01*
X69119052Y-36495339D01*
X69119052Y-36495338D01*
X69251197Y-36297570D01*
X69297599Y-36064286D01*
X69297600Y-36064286D01*
X69297600Y-27840069D01*
X69573991Y-27655391D01*
X69838280Y-27259854D01*
X69931086Y-26793286D01*
X69838280Y-26326718D01*
X69573991Y-25931181D01*
X69305656Y-25751886D01*
X69677909Y-25751886D01*
X69911298Y-25655213D01*
X70089927Y-25476585D01*
X70186600Y-25243196D01*
X70186600Y-68095380D01*
X70135052Y-68018234D01*
X69937284Y-67886089D01*
X69704000Y-67839686D01*
X69470716Y-67886089D01*
X69272948Y-68018234D01*
X69234239Y-68076165D01*
X69234239Y-66258834D01*
X69112687Y-65964658D01*
X69043600Y-65895450D01*
X69043600Y-58544841D01*
X69081701Y-58353295D01*
X69081701Y-49564387D01*
X69081701Y-44611387D01*
X69035298Y-44378103D01*
X68903153Y-44180335D01*
X68903153Y-44180334D01*
X67710154Y-42987336D01*
X67710239Y-42890834D01*
X67588687Y-42596658D01*
X67363812Y-42371390D01*
X67069848Y-42249325D01*
X66751548Y-42249047D01*
X66457372Y-42370599D01*
X66232104Y-42595474D01*
X66110039Y-42889438D01*
X66109761Y-43207738D01*
X66231313Y-43501914D01*
X66456188Y-43727182D01*
X66750152Y-43849247D01*
X66847942Y-43849332D01*
X67862501Y-44863891D01*
X67862501Y-49564387D01*
X67862501Y-58199849D01*
X67824400Y-58391396D01*
X67824400Y-65895297D01*
X67756104Y-65963474D01*
X67634039Y-66257438D01*
X67633761Y-66575738D01*
X67755313Y-66869914D01*
X67980188Y-67095182D01*
X68274152Y-67217247D01*
X68592452Y-67217525D01*
X68886628Y-67095973D01*
X69111896Y-66871098D01*
X69233961Y-66577134D01*
X69234239Y-66258834D01*
X69234239Y-68076165D01*
X69140803Y-68216002D01*
X69094400Y-68449286D01*
X69094400Y-69451297D01*
X69026104Y-69519474D01*
X68904039Y-69813438D01*
X68903761Y-70131738D01*
X69025313Y-70425914D01*
X69250188Y-70651182D01*
X69544152Y-70773247D01*
X69862452Y-70773525D01*
X70156628Y-70651973D01*
X70381896Y-70427098D01*
X70503961Y-70133134D01*
X70504239Y-69814834D01*
X70504239Y-78681000D01*
X66059239Y-78681000D01*
X66059239Y-66004834D01*
X65937687Y-65710658D01*
X65868600Y-65641450D01*
X65868600Y-51431286D01*
X65868600Y-50458468D01*
X65868600Y-46478286D01*
X65822197Y-46245002D01*
X65690052Y-46047234D01*
X65690052Y-46047233D01*
X64662154Y-45019336D01*
X64662239Y-44922834D01*
X64540687Y-44628658D01*
X64315812Y-44403390D01*
X64021848Y-44281325D01*
X63703548Y-44281047D01*
X63409372Y-44402599D01*
X63184104Y-44627474D01*
X63062039Y-44921438D01*
X63061761Y-45239738D01*
X63183313Y-45533914D01*
X63408188Y-45759182D01*
X63702152Y-45881247D01*
X63799942Y-45881332D01*
X64649400Y-46730790D01*
X64649400Y-50458468D01*
X64649400Y-51431286D01*
X64649400Y-65641297D01*
X64581104Y-65709474D01*
X64459039Y-66003438D01*
X64458761Y-66321738D01*
X64580313Y-66615914D01*
X64805188Y-66841182D01*
X65099152Y-66963247D01*
X65417452Y-66963525D01*
X65711628Y-66841973D01*
X65936896Y-66617098D01*
X66058961Y-66323134D01*
X66059239Y-66004834D01*
X66059239Y-78681000D01*
X63265239Y-78681000D01*
X63265239Y-63972834D01*
X63143687Y-63678658D01*
X62918812Y-63453390D01*
X62820600Y-63412608D01*
X62820600Y-49921274D01*
X62888896Y-49853098D01*
X63010961Y-49559134D01*
X63011239Y-49240834D01*
X62889687Y-48946658D01*
X62664812Y-48721390D01*
X62370848Y-48599325D01*
X62052548Y-48599047D01*
X61758372Y-48720599D01*
X61533104Y-48945474D01*
X61411039Y-49239438D01*
X61410761Y-49557738D01*
X61532313Y-49851914D01*
X61601400Y-49921121D01*
X61601400Y-63877286D01*
X61647803Y-64110570D01*
X61664895Y-64136150D01*
X61664761Y-64289738D01*
X61786313Y-64583914D01*
X62011188Y-64809182D01*
X62305152Y-64931247D01*
X62623452Y-64931525D01*
X62917628Y-64809973D01*
X63142896Y-64585098D01*
X63264961Y-64291134D01*
X63265239Y-63972834D01*
X63265239Y-78681000D01*
X59952937Y-78681000D01*
X59925201Y-22880886D01*
X65612800Y-22880886D01*
X65259510Y-23046465D01*
X64865312Y-23478339D01*
X64745504Y-23767597D01*
X64493991Y-23391181D01*
X64098454Y-23126892D01*
X63631886Y-23034086D01*
X63584114Y-23034086D01*
X63117546Y-23126892D01*
X62722009Y-23391181D01*
X62457720Y-23786718D01*
X62364914Y-24253286D01*
X62457720Y-24719854D01*
X62722009Y-25115391D01*
X63117546Y-25379680D01*
X63584114Y-25472486D01*
X63631886Y-25472486D01*
X64098454Y-25379680D01*
X64493991Y-25115391D01*
X64745504Y-24738974D01*
X64865312Y-25028233D01*
X65259510Y-25460107D01*
X65394312Y-25523286D01*
X65259510Y-25586465D01*
X64865312Y-26018339D01*
X64745504Y-26307597D01*
X64493991Y-25931181D01*
X64098454Y-25666892D01*
X63631886Y-25574086D01*
X63584114Y-25574086D01*
X63117546Y-25666892D01*
X62722009Y-25931181D01*
X62457720Y-26326718D01*
X62364914Y-26793286D01*
X62457720Y-27259854D01*
X62722009Y-27655391D01*
X63117546Y-27919680D01*
X63584114Y-28012486D01*
X63631886Y-28012486D01*
X64098454Y-27919680D01*
X64493991Y-27655391D01*
X64745504Y-27278974D01*
X64865312Y-27568233D01*
X65259510Y-28000107D01*
X65788973Y-28248254D01*
X66021000Y-28127755D01*
X66021000Y-26920286D01*
X66001000Y-26920286D01*
X66001000Y-26666286D01*
X66021000Y-26666286D01*
X66021000Y-25587755D01*
X66021000Y-25458817D01*
X66021000Y-24380286D01*
X66001000Y-24380286D01*
X66001000Y-24126286D01*
X66021000Y-24126286D01*
X66021000Y-24106286D01*
X66275000Y-24106286D01*
X66275000Y-24126286D01*
X67348150Y-24126286D01*
X67481817Y-24126286D01*
X68561000Y-24126286D01*
X68561000Y-24106286D01*
X68815000Y-24106286D01*
X68815000Y-24126286D01*
X70027850Y-24126286D01*
X70186600Y-23967536D01*
X70186600Y-23515995D01*
X70186600Y-23263376D01*
X70089927Y-23029987D01*
X69940825Y-22880886D01*
X72879201Y-22880886D01*
X72906937Y-78681000D01*
X72906937Y-78681000D01*
G37*
X72906937Y-78681000D02*
X70504239Y-78681000D01*
X70504239Y-69814834D01*
X70382687Y-69520658D01*
X70313600Y-69451450D01*
X70313600Y-68449286D01*
X70267197Y-68216002D01*
X70186600Y-68095380D01*
X70186600Y-25243196D01*
X70186600Y-24990577D01*
X70186600Y-24539036D01*
X70027850Y-24380286D01*
X68815000Y-24380286D01*
X68815000Y-24400286D01*
X68561000Y-24400286D01*
X68561000Y-24380286D01*
X67481817Y-24380286D01*
X67348150Y-24380286D01*
X66275000Y-24380286D01*
X66275000Y-25458817D01*
X66275000Y-25587755D01*
X66275000Y-26666286D01*
X66295000Y-26666286D01*
X66295000Y-26920286D01*
X66275000Y-26920286D01*
X66275000Y-28127755D01*
X66507027Y-28248254D01*
X67036490Y-28000107D01*
X67430688Y-27568233D01*
X67550495Y-27278974D01*
X67802009Y-27655391D01*
X68078400Y-27840069D01*
X68078400Y-35674031D01*
X67854372Y-35766599D01*
X67629104Y-35991474D01*
X67507039Y-36285438D01*
X67506761Y-36603738D01*
X67628313Y-36897914D01*
X67853188Y-37123182D01*
X68147152Y-37245247D01*
X68465452Y-37245525D01*
X68759628Y-37123973D01*
X68984896Y-36899098D01*
X69106961Y-36605134D01*
X69107046Y-36507344D01*
X69119052Y-36495339D01*
X69119052Y-36495338D01*
X69251197Y-36297570D01*
X69297599Y-36064286D01*
X69297600Y-36064286D01*
X69297600Y-27840069D01*
X69573991Y-27655391D01*
X69838280Y-27259854D01*
X69931086Y-26793286D01*
X69838280Y-26326718D01*
X69573991Y-25931181D01*
X69305656Y-25751886D01*
X69677909Y-25751886D01*
X69911298Y-25655213D01*
X70089927Y-25476585D01*
X70186600Y-25243196D01*
X70186600Y-68095380D01*
X70135052Y-68018234D01*
X69937284Y-67886089D01*
X69704000Y-67839686D01*
X69470716Y-67886089D01*
X69272948Y-68018234D01*
X69234239Y-68076165D01*
X69234239Y-66258834D01*
X69112687Y-65964658D01*
X69043600Y-65895450D01*
X69043600Y-58544841D01*
X69081701Y-58353295D01*
X69081701Y-49564387D01*
X69081701Y-44611387D01*
X69035298Y-44378103D01*
X68903153Y-44180335D01*
X68903153Y-44180334D01*
X67710154Y-42987336D01*
X67710239Y-42890834D01*
X67588687Y-42596658D01*
X67363812Y-42371390D01*
X67069848Y-42249325D01*
X66751548Y-42249047D01*
X66457372Y-42370599D01*
X66232104Y-42595474D01*
X66110039Y-42889438D01*
X66109761Y-43207738D01*
X66231313Y-43501914D01*
X66456188Y-43727182D01*
X66750152Y-43849247D01*
X66847942Y-43849332D01*
X67862501Y-44863891D01*
X67862501Y-49564387D01*
X67862501Y-58199849D01*
X67824400Y-58391396D01*
X67824400Y-65895297D01*
X67756104Y-65963474D01*
X67634039Y-66257438D01*
X67633761Y-66575738D01*
X67755313Y-66869914D01*
X67980188Y-67095182D01*
X68274152Y-67217247D01*
X68592452Y-67217525D01*
X68886628Y-67095973D01*
X69111896Y-66871098D01*
X69233961Y-66577134D01*
X69234239Y-66258834D01*
X69234239Y-68076165D01*
X69140803Y-68216002D01*
X69094400Y-68449286D01*
X69094400Y-69451297D01*
X69026104Y-69519474D01*
X68904039Y-69813438D01*
X68903761Y-70131738D01*
X69025313Y-70425914D01*
X69250188Y-70651182D01*
X69544152Y-70773247D01*
X69862452Y-70773525D01*
X70156628Y-70651973D01*
X70381896Y-70427098D01*
X70503961Y-70133134D01*
X70504239Y-69814834D01*
X70504239Y-78681000D01*
X66059239Y-78681000D01*
X66059239Y-66004834D01*
X65937687Y-65710658D01*
X65868600Y-65641450D01*
X65868600Y-51431286D01*
X65868600Y-50458468D01*
X65868600Y-46478286D01*
X65822197Y-46245002D01*
X65690052Y-46047234D01*
X65690052Y-46047233D01*
X64662154Y-45019336D01*
X64662239Y-44922834D01*
X64540687Y-44628658D01*
X64315812Y-44403390D01*
X64021848Y-44281325D01*
X63703548Y-44281047D01*
X63409372Y-44402599D01*
X63184104Y-44627474D01*
X63062039Y-44921438D01*
X63061761Y-45239738D01*
X63183313Y-45533914D01*
X63408188Y-45759182D01*
X63702152Y-45881247D01*
X63799942Y-45881332D01*
X64649400Y-46730790D01*
X64649400Y-50458468D01*
X64649400Y-51431286D01*
X64649400Y-65641297D01*
X64581104Y-65709474D01*
X64459039Y-66003438D01*
X64458761Y-66321738D01*
X64580313Y-66615914D01*
X64805188Y-66841182D01*
X65099152Y-66963247D01*
X65417452Y-66963525D01*
X65711628Y-66841973D01*
X65936896Y-66617098D01*
X66058961Y-66323134D01*
X66059239Y-66004834D01*
X66059239Y-78681000D01*
X63265239Y-78681000D01*
X63265239Y-63972834D01*
X63143687Y-63678658D01*
X62918812Y-63453390D01*
X62820600Y-63412608D01*
X62820600Y-49921274D01*
X62888896Y-49853098D01*
X63010961Y-49559134D01*
X63011239Y-49240834D01*
X62889687Y-48946658D01*
X62664812Y-48721390D01*
X62370848Y-48599325D01*
X62052548Y-48599047D01*
X61758372Y-48720599D01*
X61533104Y-48945474D01*
X61411039Y-49239438D01*
X61410761Y-49557738D01*
X61532313Y-49851914D01*
X61601400Y-49921121D01*
X61601400Y-63877286D01*
X61647803Y-64110570D01*
X61664895Y-64136150D01*
X61664761Y-64289738D01*
X61786313Y-64583914D01*
X62011188Y-64809182D01*
X62305152Y-64931247D01*
X62623452Y-64931525D01*
X62917628Y-64809973D01*
X63142896Y-64585098D01*
X63264961Y-64291134D01*
X63265239Y-63972834D01*
X63265239Y-78681000D01*
X59952937Y-78681000D01*
X59925201Y-22880886D01*
X65612800Y-22880886D01*
X65259510Y-23046465D01*
X64865312Y-23478339D01*
X64745504Y-23767597D01*
X64493991Y-23391181D01*
X64098454Y-23126892D01*
X63631886Y-23034086D01*
X63584114Y-23034086D01*
X63117546Y-23126892D01*
X62722009Y-23391181D01*
X62457720Y-23786718D01*
X62364914Y-24253286D01*
X62457720Y-24719854D01*
X62722009Y-25115391D01*
X63117546Y-25379680D01*
X63584114Y-25472486D01*
X63631886Y-25472486D01*
X64098454Y-25379680D01*
X64493991Y-25115391D01*
X64745504Y-24738974D01*
X64865312Y-25028233D01*
X65259510Y-25460107D01*
X65394312Y-25523286D01*
X65259510Y-25586465D01*
X64865312Y-26018339D01*
X64745504Y-26307597D01*
X64493991Y-25931181D01*
X64098454Y-25666892D01*
X63631886Y-25574086D01*
X63584114Y-25574086D01*
X63117546Y-25666892D01*
X62722009Y-25931181D01*
X62457720Y-26326718D01*
X62364914Y-26793286D01*
X62457720Y-27259854D01*
X62722009Y-27655391D01*
X63117546Y-27919680D01*
X63584114Y-28012486D01*
X63631886Y-28012486D01*
X64098454Y-27919680D01*
X64493991Y-27655391D01*
X64745504Y-27278974D01*
X64865312Y-27568233D01*
X65259510Y-28000107D01*
X65788973Y-28248254D01*
X66021000Y-28127755D01*
X66021000Y-26920286D01*
X66001000Y-26920286D01*
X66001000Y-26666286D01*
X66021000Y-26666286D01*
X66021000Y-25587755D01*
X66021000Y-25458817D01*
X66021000Y-24380286D01*
X66001000Y-24380286D01*
X66001000Y-24126286D01*
X66021000Y-24126286D01*
X66021000Y-24106286D01*
X66275000Y-24106286D01*
X66275000Y-24126286D01*
X67348150Y-24126286D01*
X67481817Y-24126286D01*
X68561000Y-24126286D01*
X68561000Y-24106286D01*
X68815000Y-24106286D01*
X68815000Y-24126286D01*
X70027850Y-24126286D01*
X70186600Y-23967536D01*
X70186600Y-23515995D01*
X70186600Y-23263376D01*
X70089927Y-23029987D01*
X69940825Y-22880886D01*
X72879201Y-22880886D01*
X72906937Y-78681000D01*
M02*
