G04 #@! TF.FileFunction,Copper,L1,Top,Signal*
%FSLAX46Y46*%
G04 Gerber Fmt 4.6, Leading zero omitted, Abs format (unit mm)*
G04 Created by KiCad (PCBNEW (2015-04-12 BZR 5595)-product) date Mon 20 Apr 2015 09:24:05 PM EEST*
%MOMM*%
G01*
G04 APERTURE LIST*
%ADD10C,0.100000*%
%ADD11C,1.000000*%
%ADD12R,0.900000X0.500000*%
%ADD13R,0.750000X0.800000*%
%ADD14R,0.700000X0.600000*%
%ADD15R,1.727200X1.727200*%
%ADD16O,1.727200X1.727200*%
%ADD17R,2.100580X5.600700*%
%ADD18R,0.660400X0.406400*%
%ADD19R,0.914400X0.914400*%
%ADD20C,2.999740*%
%ADD21R,1.450000X0.450000*%
%ADD22C,0.889000*%
%ADD23C,0.406400*%
%ADD24C,0.254000*%
%ADD25C,0.508000*%
%ADD26C,5.000000*%
G04 APERTURE END LIST*
D10*
D11*
X132016500Y-30480000D03*
X96520000Y-139763500D03*
D12*
X116583400Y-62781286D03*
X116583400Y-61281286D03*
X125219400Y-69639286D03*
X125219400Y-68139286D03*
X127505400Y-69639286D03*
X127505400Y-68139286D03*
X116329400Y-69639286D03*
X116329400Y-68139286D03*
X125219400Y-72687286D03*
X125219400Y-71187286D03*
X118615400Y-72687286D03*
X118615400Y-71187286D03*
X123977400Y-53860000D03*
X123977400Y-55360000D03*
X126009400Y-55360000D03*
X126009400Y-53860000D03*
D13*
X124203400Y-58971286D03*
X124203400Y-57471286D03*
X126235400Y-58971286D03*
X126235400Y-57471286D03*
X124203400Y-66083286D03*
X124203400Y-64583286D03*
X127505400Y-71187286D03*
X127505400Y-72687286D03*
X116329400Y-71187286D03*
X116329400Y-72687286D03*
D14*
X120647400Y-72637286D03*
X120647400Y-71237286D03*
X123187400Y-71237286D03*
X123187400Y-72637286D03*
D15*
X124231400Y-38354000D03*
D16*
X124231400Y-40894000D03*
X121691400Y-38354000D03*
X121691400Y-40894000D03*
X119151400Y-38354000D03*
X119151400Y-40894000D03*
D17*
X120139400Y-56928426D03*
X120139400Y-66626146D03*
D18*
X124203400Y-61116886D03*
X124203400Y-62437686D03*
X124203400Y-61777286D03*
X126235400Y-62437686D03*
X126235400Y-61116886D03*
X126235400Y-61777286D03*
D12*
X126009400Y-51066000D03*
X126009400Y-52566000D03*
X122453400Y-44970000D03*
X122453400Y-46470000D03*
X126009400Y-44970000D03*
X126009400Y-46470000D03*
X126009400Y-48272000D03*
X126009400Y-49772000D03*
D19*
X117627400Y-46355000D03*
X117627400Y-44577000D03*
X119659400Y-45466000D03*
D13*
X116103400Y-46470000D03*
X116103400Y-44970000D03*
X124231400Y-46470000D03*
X124231400Y-44970000D03*
D12*
X120675400Y-44438000D03*
X120675400Y-42938000D03*
D20*
X126537400Y-31218000D03*
X117297400Y-31218000D03*
D21*
X117725400Y-48088000D03*
X117725400Y-48738000D03*
X117725400Y-49388000D03*
X117725400Y-50038000D03*
X117725400Y-50688000D03*
X117725400Y-51338000D03*
X117725400Y-51988000D03*
X123625400Y-51988000D03*
X123625400Y-51338000D03*
X123625400Y-50688000D03*
X123625400Y-50038000D03*
X123625400Y-49388000D03*
X123625400Y-48738000D03*
X123625400Y-48088000D03*
X102460000Y-48088000D03*
X102460000Y-48738000D03*
X102460000Y-49388000D03*
X102460000Y-50038000D03*
X102460000Y-50688000D03*
X102460000Y-51338000D03*
X102460000Y-51988000D03*
X108360000Y-51988000D03*
X108360000Y-51338000D03*
X108360000Y-50688000D03*
X108360000Y-50038000D03*
X108360000Y-49388000D03*
X108360000Y-48738000D03*
X108360000Y-48088000D03*
D20*
X102032000Y-31218000D03*
X111272000Y-31218000D03*
D12*
X105410000Y-44438000D03*
X105410000Y-42938000D03*
D13*
X108966000Y-46470000D03*
X108966000Y-44970000D03*
X100838000Y-46470000D03*
X100838000Y-44970000D03*
D19*
X102362000Y-46355000D03*
X102362000Y-44577000D03*
X104394000Y-45466000D03*
D12*
X110744000Y-48272000D03*
X110744000Y-49772000D03*
X110744000Y-44970000D03*
X110744000Y-46470000D03*
X107188000Y-44970000D03*
X107188000Y-46470000D03*
X110744000Y-51066000D03*
X110744000Y-52566000D03*
D18*
X108938000Y-61116886D03*
X108938000Y-62437686D03*
X108938000Y-61777286D03*
X110970000Y-62437686D03*
X110970000Y-61116886D03*
X110970000Y-61777286D03*
D17*
X104874000Y-56928426D03*
X104874000Y-66626146D03*
D15*
X108966000Y-38354000D03*
D16*
X108966000Y-40894000D03*
X106426000Y-38354000D03*
X106426000Y-40894000D03*
X103886000Y-38354000D03*
X103886000Y-40894000D03*
D14*
X107922000Y-71237286D03*
X107922000Y-72637286D03*
X105382000Y-72637286D03*
X105382000Y-71237286D03*
D13*
X101064000Y-71187286D03*
X101064000Y-72687286D03*
X112240000Y-71187286D03*
X112240000Y-72687286D03*
X108938000Y-66083286D03*
X108938000Y-64583286D03*
X110970000Y-58971286D03*
X110970000Y-57471286D03*
X108938000Y-58971286D03*
X108938000Y-57471286D03*
D12*
X110744000Y-55360000D03*
X110744000Y-53860000D03*
X108712000Y-53860000D03*
X108712000Y-55360000D03*
X103350000Y-72687286D03*
X103350000Y-71187286D03*
X109954000Y-72687286D03*
X109954000Y-71187286D03*
X101064000Y-69639286D03*
X101064000Y-68139286D03*
X112240000Y-69639286D03*
X112240000Y-68139286D03*
X109954000Y-69639286D03*
X109954000Y-68139286D03*
X101318000Y-62781286D03*
X101318000Y-61281286D03*
D22*
X107795000Y-62158286D03*
X102842000Y-69905286D03*
X109982000Y-74168000D03*
X109728000Y-50546000D03*
X112014000Y-53848000D03*
X109982000Y-57538572D03*
X109982000Y-59944000D03*
X106934000Y-50291998D03*
X112240000Y-74223286D03*
X101064000Y-74223286D03*
X107160000Y-68127286D03*
X103350000Y-74223286D03*
X118615400Y-74223286D03*
X122425400Y-68127286D03*
X116329400Y-74223286D03*
X127505400Y-74223286D03*
X122199400Y-50291998D03*
X125247400Y-59944000D03*
X125247400Y-57538572D03*
X127279400Y-53848000D03*
X124993400Y-50546000D03*
X125247400Y-74168000D03*
X118107400Y-69905286D03*
X123060400Y-62158286D03*
X102461000Y-63195939D03*
X102489000Y-59435996D03*
X117754400Y-59435996D03*
X117726400Y-63195939D03*
X106934000Y-51816008D03*
X108684000Y-70667286D03*
X123949400Y-70667286D03*
X122199400Y-51816008D03*
X105509000Y-70413286D03*
X103886000Y-50800000D03*
X119151400Y-50800000D03*
X120774400Y-70413286D03*
X104394000Y-46736000D03*
X119659400Y-46736000D03*
D23*
X108938000Y-61116886D02*
X101470400Y-61116886D01*
X101470400Y-61116886D02*
X101318000Y-61269286D01*
X108938000Y-61116886D02*
X108938000Y-60992426D01*
X108938000Y-59237286D02*
X108060430Y-60114856D01*
X108938000Y-60992426D02*
X108060430Y-60114856D01*
X108938000Y-58983286D02*
X108938000Y-59237286D01*
X108060430Y-60114856D02*
X104874000Y-56928426D01*
X123325830Y-60114856D02*
X120139400Y-56928426D01*
X124203400Y-58983286D02*
X124203400Y-59237286D01*
X124203400Y-60992426D02*
X123325830Y-60114856D01*
X124203400Y-59237286D02*
X123325830Y-60114856D01*
X124203400Y-61116886D02*
X124203400Y-60992426D01*
X116735800Y-61116886D02*
X116583400Y-61269286D01*
X124203400Y-61116886D02*
X116735800Y-61116886D01*
X108938000Y-61777286D02*
X108176000Y-61777286D01*
X108176000Y-61777286D02*
X107795000Y-62158286D01*
D24*
X109954000Y-72687286D02*
X109954000Y-74140000D01*
X109954000Y-74140000D02*
X109982000Y-74168000D01*
X108360000Y-50038000D02*
X109220000Y-50038000D01*
X109220000Y-50038000D02*
X109728000Y-50546000D01*
D25*
X110744000Y-53860000D02*
X112002000Y-53860000D01*
X112002000Y-53860000D02*
X112014000Y-53848000D01*
X108938000Y-57471286D02*
X109914714Y-57471286D01*
X109914714Y-57471286D02*
X109982000Y-57538572D01*
D23*
X106426000Y-38354000D02*
X108966000Y-38354000D01*
X106426000Y-40894000D02*
X106426000Y-38354000D01*
X110049286Y-57471286D02*
X109982000Y-57538572D01*
X109982000Y-57538572D02*
X109982000Y-59944000D01*
X110970000Y-57471286D02*
X110049286Y-57471286D01*
X108360000Y-50038000D02*
X107187998Y-50038000D01*
X107187998Y-50038000D02*
X106934000Y-50291998D01*
D25*
X112240000Y-72699286D02*
X112240000Y-74223286D01*
X101064000Y-72699286D02*
X101064000Y-74223286D01*
X103350000Y-72699286D02*
X103350000Y-74223286D01*
X118615400Y-72699286D02*
X118615400Y-74223286D01*
X116329400Y-72699286D02*
X116329400Y-74223286D01*
X127505400Y-72699286D02*
X127505400Y-74223286D01*
D23*
X122453398Y-50038000D02*
X122199400Y-50291998D01*
X123625400Y-50038000D02*
X122453398Y-50038000D01*
X126235400Y-57471286D02*
X125314686Y-57471286D01*
X125247400Y-57538572D02*
X125247400Y-59944000D01*
X125314686Y-57471286D02*
X125247400Y-57538572D01*
X121691400Y-40894000D02*
X121691400Y-38354000D01*
X121691400Y-38354000D02*
X124231400Y-38354000D01*
D25*
X125180114Y-57471286D02*
X125247400Y-57538572D01*
X124203400Y-57471286D02*
X125180114Y-57471286D01*
X127267400Y-53860000D02*
X127279400Y-53848000D01*
X126009400Y-53860000D02*
X127267400Y-53860000D01*
D24*
X124485400Y-50038000D02*
X124993400Y-50546000D01*
X123625400Y-50038000D02*
X124485400Y-50038000D01*
X125219400Y-74140000D02*
X125247400Y-74168000D01*
X125219400Y-72687286D02*
X125219400Y-74140000D01*
D23*
X123441400Y-61777286D02*
X123060400Y-62158286D01*
X124203400Y-61777286D02*
X123441400Y-61777286D01*
X108938000Y-62437686D02*
X108811000Y-62437686D01*
X108811000Y-62437686D02*
X108214099Y-63034587D01*
D24*
X109801600Y-62437686D02*
X108938000Y-62437686D01*
D23*
X109954000Y-62285286D02*
X109954000Y-65814000D01*
X109954000Y-65814000D02*
X109672714Y-66095286D01*
X109672714Y-66095286D02*
X108950000Y-66095286D01*
X108950000Y-66095286D02*
X108938000Y-66083286D01*
X102613390Y-61751896D02*
X101572000Y-62793286D01*
X101572000Y-62793286D02*
X101318000Y-62793286D01*
X108214099Y-63034587D02*
X107374375Y-63034587D01*
X107374375Y-63034587D02*
X106091684Y-61751896D01*
X106091684Y-61751896D02*
X102613390Y-61751896D01*
X109192000Y-62437686D02*
X109801600Y-62437686D01*
X109801600Y-62437686D02*
X109954000Y-62285286D01*
D24*
X109954000Y-62285286D02*
X109801600Y-62437686D01*
X110233400Y-61116886D02*
X109954000Y-61396286D01*
X109954000Y-61396286D02*
X109954000Y-62285286D01*
X110970000Y-61116886D02*
X110233400Y-61116886D01*
D23*
X108938000Y-66095286D02*
X105404860Y-66095286D01*
D25*
X105404860Y-66349286D02*
X105128000Y-66626146D01*
D23*
X105404860Y-66095286D02*
X104874000Y-66626146D01*
X120670260Y-66095286D02*
X120139400Y-66626146D01*
D25*
X120670260Y-66349286D02*
X120393400Y-66626146D01*
D23*
X124203400Y-66095286D02*
X120670260Y-66095286D01*
D24*
X126235400Y-61116886D02*
X125498800Y-61116886D01*
X125219400Y-61396286D02*
X125219400Y-62285286D01*
X125498800Y-61116886D02*
X125219400Y-61396286D01*
X125219400Y-62285286D02*
X125067000Y-62437686D01*
D23*
X125067000Y-62437686D02*
X125219400Y-62285286D01*
X124457400Y-62437686D02*
X125067000Y-62437686D01*
X121357084Y-61751896D02*
X117878790Y-61751896D01*
X122639775Y-63034587D02*
X121357084Y-61751896D01*
X123479499Y-63034587D02*
X122639775Y-63034587D01*
X116837400Y-62793286D02*
X116583400Y-62793286D01*
X117878790Y-61751896D02*
X116837400Y-62793286D01*
X124215400Y-66095286D02*
X124203400Y-66083286D01*
X124938114Y-66095286D02*
X124215400Y-66095286D01*
X125219400Y-65814000D02*
X124938114Y-66095286D01*
X125219400Y-62285286D02*
X125219400Y-65814000D01*
D24*
X125067000Y-62437686D02*
X124203400Y-62437686D01*
D23*
X124076400Y-62437686D02*
X123479499Y-63034587D01*
X124203400Y-62437686D02*
X124076400Y-62437686D01*
D25*
X100838000Y-52026286D02*
X100838000Y-50031187D01*
X100838000Y-50031187D02*
X100838000Y-46470000D01*
X102460000Y-50038000D02*
X100844813Y-50038000D01*
X100844813Y-50038000D02*
X100838000Y-50031187D01*
D23*
X102461000Y-53649286D02*
X105973262Y-53649286D01*
D25*
X102461000Y-53649286D02*
X100838000Y-52026286D01*
X102461000Y-53649286D02*
X102417286Y-53649286D01*
D23*
X105973262Y-53649286D02*
X106421113Y-54097137D01*
X106421113Y-54097137D02*
X106421113Y-54605113D01*
X106421113Y-54605113D02*
X108108148Y-56292148D01*
X108108148Y-56292148D02*
X112240000Y-56292148D01*
D25*
X102350000Y-46470000D02*
X102362000Y-46482000D01*
X102362000Y-46482000D02*
X102362000Y-46355000D01*
D23*
X101064000Y-68139286D02*
X101064000Y-64592939D01*
X101064000Y-64592939D02*
X102461000Y-63195939D01*
D25*
X112240000Y-56292148D02*
X112240000Y-57967286D01*
X112240000Y-57967286D02*
X111224000Y-58983286D01*
X100838000Y-46470000D02*
X102350000Y-46470000D01*
X100838000Y-46482000D02*
X100838000Y-46470000D01*
X111224000Y-58983286D02*
X110970000Y-58983286D01*
D23*
X110970000Y-61777286D02*
X111706600Y-61777286D01*
X111706600Y-61777286D02*
X111859010Y-61624876D01*
X111859010Y-61624876D02*
X111859010Y-60853857D01*
X111859010Y-60853857D02*
X110970000Y-59964847D01*
X110970000Y-59964847D02*
X110970000Y-58983286D01*
X112240000Y-68044000D02*
X112240000Y-68127286D01*
X111760000Y-67564000D02*
X112240000Y-68044000D01*
X111706600Y-61863644D02*
X111760000Y-61917044D01*
X111760000Y-61917044D02*
X111760000Y-67564000D01*
X111706600Y-61777286D02*
X111706600Y-61863644D01*
X102461000Y-59407996D02*
X102489000Y-59435996D01*
X102461000Y-53649286D02*
X102461000Y-59407996D01*
X117726400Y-53649286D02*
X117726400Y-59407996D01*
X117726400Y-59407996D02*
X117754400Y-59435996D01*
X126972000Y-61777286D02*
X126972000Y-61863644D01*
X127025400Y-61917044D02*
X127025400Y-67564000D01*
X126972000Y-61863644D02*
X127025400Y-61917044D01*
X127025400Y-67564000D02*
X127505400Y-68044000D01*
X127505400Y-68044000D02*
X127505400Y-68127286D01*
X126235400Y-59964847D02*
X126235400Y-58983286D01*
X127124410Y-60853857D02*
X126235400Y-59964847D01*
X127124410Y-61624876D02*
X127124410Y-60853857D01*
X126972000Y-61777286D02*
X127124410Y-61624876D01*
X126235400Y-61777286D02*
X126972000Y-61777286D01*
D25*
X126489400Y-58983286D02*
X126235400Y-58983286D01*
X116103400Y-46482000D02*
X116103400Y-46470000D01*
X116103400Y-46470000D02*
X117615400Y-46470000D01*
X127505400Y-57967286D02*
X126489400Y-58983286D01*
X127505400Y-56292148D02*
X127505400Y-57967286D01*
D23*
X116329400Y-64592939D02*
X117726400Y-63195939D01*
X116329400Y-68139286D02*
X116329400Y-64592939D01*
D25*
X117627400Y-46482000D02*
X117627400Y-46355000D01*
X117615400Y-46470000D02*
X117627400Y-46482000D01*
D23*
X123373548Y-56292148D02*
X127505400Y-56292148D01*
X121686513Y-54605113D02*
X123373548Y-56292148D01*
X121686513Y-54097137D02*
X121686513Y-54605113D01*
X121238662Y-53649286D02*
X121686513Y-54097137D01*
D25*
X117726400Y-53649286D02*
X117682686Y-53649286D01*
X117726400Y-53649286D02*
X116103400Y-52026286D01*
D23*
X117726400Y-53649286D02*
X121238662Y-53649286D01*
D25*
X116110213Y-50038000D02*
X116103400Y-50031187D01*
X117725400Y-50038000D02*
X116110213Y-50038000D01*
X116103400Y-50031187D02*
X116103400Y-46470000D01*
X116103400Y-52026286D02*
X116103400Y-50031187D01*
X107922000Y-71237286D02*
X109638000Y-71237286D01*
X109638000Y-71237286D02*
X109700000Y-71175286D01*
X109700000Y-71175286D02*
X112228000Y-71175286D01*
X112228000Y-71175286D02*
X112240000Y-71187286D01*
D23*
X108360000Y-50688000D02*
X107629798Y-50688000D01*
X107629798Y-50688000D02*
X106934000Y-51383798D01*
X106934000Y-51383798D02*
X106934000Y-51816008D01*
D25*
X112240000Y-69651286D02*
X112240000Y-71175286D01*
X109192000Y-71175286D02*
X108684000Y-70667286D01*
X109954000Y-71175286D02*
X109192000Y-71175286D01*
X125219400Y-71175286D02*
X124457400Y-71175286D01*
X124457400Y-71175286D02*
X123949400Y-70667286D01*
X127505400Y-69651286D02*
X127505400Y-71175286D01*
D23*
X122199400Y-51383798D02*
X122199400Y-51816008D01*
X122895198Y-50688000D02*
X122199400Y-51383798D01*
X123625400Y-50688000D02*
X122895198Y-50688000D01*
D25*
X127493400Y-71175286D02*
X127505400Y-71187286D01*
X124965400Y-71175286D02*
X127493400Y-71175286D01*
X124903400Y-71237286D02*
X124965400Y-71175286D01*
X123187400Y-71237286D02*
X124903400Y-71237286D01*
X105382000Y-71237286D02*
X103666000Y-71237286D01*
X103666000Y-71237286D02*
X103604000Y-71175286D01*
X103604000Y-71175286D02*
X101076000Y-71175286D01*
X101076000Y-71175286D02*
X101064000Y-71187286D01*
X105382000Y-71237286D02*
X105382000Y-70540286D01*
X105382000Y-70540286D02*
X105509000Y-70413286D01*
D23*
X102460000Y-50688000D02*
X103774000Y-50688000D01*
X103774000Y-50688000D02*
X103886000Y-50800000D01*
D25*
X101064000Y-69651286D02*
X101064000Y-71175286D01*
X116329400Y-69651286D02*
X116329400Y-71175286D01*
D23*
X119039400Y-50688000D02*
X119151400Y-50800000D01*
X117725400Y-50688000D02*
X119039400Y-50688000D01*
D25*
X120647400Y-70540286D02*
X120774400Y-70413286D01*
X120647400Y-71237286D02*
X120647400Y-70540286D01*
X116341400Y-71175286D02*
X116329400Y-71187286D01*
X118869400Y-71175286D02*
X116341400Y-71175286D01*
X118931400Y-71237286D02*
X118869400Y-71175286D01*
X120647400Y-71237286D02*
X118931400Y-71237286D01*
D24*
X106652000Y-85145286D02*
X106652000Y-86967000D01*
X106652000Y-86967000D02*
X106680000Y-86995000D01*
D26*
X106680000Y-131445000D02*
X106680000Y-86995000D01*
D25*
X106652000Y-85145286D02*
X106652000Y-72656723D01*
X107668000Y-69651286D02*
X106652000Y-70667286D01*
X109700000Y-69651286D02*
X107668000Y-69651286D01*
X106671437Y-72637286D02*
X106652000Y-72656723D01*
X107922000Y-72637286D02*
X106671437Y-72637286D01*
X106652000Y-70667286D02*
X106652000Y-72656723D01*
X106632563Y-72637286D02*
X106652000Y-72656723D01*
X105382000Y-72637286D02*
X106632563Y-72637286D01*
X120647400Y-72637286D02*
X121897963Y-72637286D01*
X121897963Y-72637286D02*
X121917400Y-72656723D01*
X121917400Y-70667286D02*
X121917400Y-72656723D01*
X123187400Y-72637286D02*
X121936837Y-72637286D01*
X121936837Y-72637286D02*
X121917400Y-72656723D01*
X124965400Y-69651286D02*
X122933400Y-69651286D01*
X122933400Y-69651286D02*
X121917400Y-70667286D01*
X121917400Y-85145286D02*
X121917400Y-72656723D01*
D26*
X121945400Y-131445000D02*
X121945400Y-86995000D01*
D24*
X121917400Y-86967000D02*
X121945400Y-86995000D01*
X121917400Y-85145286D02*
X121917400Y-86967000D01*
D23*
X105410000Y-42938000D02*
X105156000Y-42684000D01*
X105156000Y-42684000D02*
X105156000Y-39624000D01*
X105156000Y-39624000D02*
X103886000Y-38354000D01*
D25*
X102362000Y-44577000D02*
X103771000Y-44577000D01*
X103771000Y-44577000D02*
X105410000Y-42938000D01*
X102362000Y-44577000D02*
X102489000Y-44577000D01*
X117627400Y-44577000D02*
X117754400Y-44577000D01*
X119036400Y-44577000D02*
X120675400Y-42938000D01*
X117627400Y-44577000D02*
X119036400Y-44577000D01*
D23*
X120421400Y-39624000D02*
X119151400Y-38354000D01*
X120421400Y-42684000D02*
X120421400Y-39624000D01*
X120675400Y-42938000D02*
X120421400Y-42684000D01*
D25*
X104394000Y-45466000D02*
X104394000Y-45454000D01*
X104394000Y-45454000D02*
X105410000Y-44438000D01*
D23*
X104394000Y-46736000D02*
X104394000Y-45466000D01*
X119659400Y-46736000D02*
X119659400Y-45466000D01*
D25*
X119659400Y-45454000D02*
X120675400Y-44438000D01*
X119659400Y-45466000D02*
X119659400Y-45454000D01*
D23*
X110970000Y-62437686D02*
X110970000Y-67338000D01*
X110970000Y-67338000D02*
X110168714Y-68139286D01*
X110168714Y-68139286D02*
X109954000Y-68139286D01*
X109700000Y-68127286D02*
X109954000Y-68127286D01*
X124965400Y-68127286D02*
X125219400Y-68127286D01*
X125434114Y-68139286D02*
X125219400Y-68139286D01*
X126235400Y-67338000D02*
X125434114Y-68139286D01*
X126235400Y-62437686D02*
X126235400Y-67338000D01*
D25*
X109279202Y-48738000D02*
X110313202Y-49772000D01*
X110313202Y-49772000D02*
X110744000Y-49772000D01*
X108360000Y-48738000D02*
X109279202Y-48738000D01*
X110744000Y-51066000D02*
X110744000Y-49772000D01*
X126009400Y-51066000D02*
X126009400Y-49772000D01*
X123625400Y-48738000D02*
X124544602Y-48738000D01*
X125578602Y-49772000D02*
X126009400Y-49772000D01*
X124544602Y-48738000D02*
X125578602Y-49772000D01*
D23*
X108360000Y-51988000D02*
X110166000Y-51988000D01*
X110166000Y-51988000D02*
X110744000Y-52566000D01*
X108360000Y-51988000D02*
X108360000Y-51344801D01*
X123625400Y-51988000D02*
X123625400Y-51344801D01*
X125431400Y-51988000D02*
X126009400Y-52566000D01*
X123625400Y-51988000D02*
X125431400Y-51988000D01*
X108712000Y-53848000D02*
X107562059Y-52698059D01*
X110744000Y-55360000D02*
X110224000Y-55360000D01*
X110224000Y-55360000D02*
X108712000Y-53848000D01*
X108712000Y-53848000D02*
X108712000Y-53860000D01*
D24*
X106546059Y-52698059D02*
X105918000Y-52070000D01*
D23*
X105918000Y-52070000D02*
X105918000Y-49911000D01*
D24*
X106546059Y-52698059D02*
X107562059Y-52698059D01*
D23*
X105918000Y-49911000D02*
X106441000Y-49388000D01*
X106441000Y-49388000D02*
X108360000Y-49388000D01*
X121706400Y-49388000D02*
X123625400Y-49388000D01*
X121183400Y-49911000D02*
X121706400Y-49388000D01*
D24*
X121811459Y-52698059D02*
X122827459Y-52698059D01*
D23*
X121183400Y-52070000D02*
X121183400Y-49911000D01*
D24*
X121811459Y-52698059D02*
X121183400Y-52070000D01*
D23*
X123977400Y-53848000D02*
X123977400Y-53860000D01*
X125489400Y-55360000D02*
X123977400Y-53848000D01*
X126009400Y-55360000D02*
X125489400Y-55360000D01*
X123977400Y-53848000D02*
X122827459Y-52698059D01*
D24*
X102460000Y-51988000D02*
X104820000Y-51988000D01*
X104820000Y-51988000D02*
X105950269Y-53118269D01*
X105950269Y-53118269D02*
X106270269Y-53118269D01*
X106270269Y-53118269D02*
X108512000Y-55360000D01*
X108512000Y-55360000D02*
X108712000Y-55360000D01*
D23*
X108446000Y-55360000D02*
X108712000Y-55360000D01*
X108458000Y-55372000D02*
X108700000Y-55372000D01*
X108700000Y-55372000D02*
X108712000Y-55360000D01*
X102460000Y-51338000D02*
X102460000Y-51988000D01*
X117725400Y-51338000D02*
X117725400Y-51988000D01*
X123965400Y-55372000D02*
X123977400Y-55360000D01*
X123723400Y-55372000D02*
X123965400Y-55372000D01*
X123711400Y-55360000D02*
X123977400Y-55360000D01*
D24*
X123777400Y-55360000D02*
X123977400Y-55360000D01*
X121535669Y-53118269D02*
X123777400Y-55360000D01*
X121215669Y-53118269D02*
X121535669Y-53118269D01*
X120085400Y-51988000D02*
X121215669Y-53118269D01*
X117725400Y-51988000D02*
X120085400Y-51988000D01*
D23*
X107188000Y-44970000D02*
X107188000Y-42672000D01*
X107188000Y-42672000D02*
X108966000Y-40894000D01*
X122453400Y-42672000D02*
X124231400Y-40894000D01*
X122453400Y-44970000D02*
X122453400Y-42672000D01*
X108217000Y-47244000D02*
X108966000Y-46495000D01*
X104573000Y-49388000D02*
X103266000Y-49388000D01*
X103266000Y-49388000D02*
X102460000Y-49388000D01*
X104573000Y-49388000D02*
X106717000Y-47244000D01*
X106717000Y-47244000D02*
X108217000Y-47244000D01*
X108966000Y-46495000D02*
X108966000Y-46470000D01*
X108966000Y-46470000D02*
X109244000Y-46470000D01*
X109244000Y-46470000D02*
X110744000Y-44970000D01*
X124509400Y-46470000D02*
X126009400Y-44970000D01*
X124231400Y-46470000D02*
X124509400Y-46470000D01*
X124231400Y-46495000D02*
X124231400Y-46470000D01*
X121982400Y-47244000D02*
X123482400Y-47244000D01*
X119838400Y-49388000D02*
X121982400Y-47244000D01*
X118531400Y-49388000D02*
X117725400Y-49388000D01*
X119838400Y-49388000D02*
X118531400Y-49388000D01*
X123482400Y-47244000D02*
X124231400Y-46495000D01*
D25*
X110560000Y-48088000D02*
X110744000Y-48272000D01*
X108360000Y-48088000D02*
X110560000Y-48088000D01*
X110744000Y-48272000D02*
X110744000Y-46470000D01*
X126009400Y-48272000D02*
X126009400Y-46470000D01*
X123625400Y-48088000D02*
X125825400Y-48088000D01*
X125825400Y-48088000D02*
X126009400Y-48272000D01*
D23*
X106480000Y-46470000D02*
X107188000Y-46470000D01*
X104862000Y-48088000D02*
X104212000Y-48738000D01*
X104212000Y-48738000D02*
X102460000Y-48738000D01*
X104862000Y-48088000D02*
X106480000Y-46470000D01*
X106480000Y-46470000D02*
X106680000Y-46470000D01*
X102460000Y-48738000D02*
X102460000Y-48088000D01*
X117725400Y-48738000D02*
X117725400Y-48088000D01*
X121745400Y-46470000D02*
X121945400Y-46470000D01*
X120127400Y-48088000D02*
X121745400Y-46470000D01*
X119477400Y-48738000D02*
X117725400Y-48738000D01*
X120127400Y-48088000D02*
X119477400Y-48738000D01*
X121745400Y-46470000D02*
X122453400Y-46470000D01*
D24*
G36*
X108507000Y-50100433D02*
X107635000Y-50100433D01*
X107499411Y-50126741D01*
X107463242Y-50150500D01*
X107158750Y-50150500D01*
X107000000Y-50309250D01*
X107000000Y-50389310D01*
X107040485Y-50487050D01*
X106538869Y-50988667D01*
X106476800Y-51081559D01*
X106476800Y-50142462D01*
X106672462Y-49946800D01*
X107494118Y-49946800D01*
X107495201Y-49947531D01*
X107635000Y-49975567D01*
X108507000Y-49975567D01*
X108507000Y-50100433D01*
X108507000Y-50100433D01*
G37*
X108507000Y-50100433D02*
X107635000Y-50100433D01*
X107499411Y-50126741D01*
X107463242Y-50150500D01*
X107158750Y-50150500D01*
X107000000Y-50309250D01*
X107000000Y-50389310D01*
X107040485Y-50487050D01*
X106538869Y-50988667D01*
X106476800Y-51081559D01*
X106476800Y-50142462D01*
X106672462Y-49946800D01*
X107494118Y-49946800D01*
X107495201Y-49947531D01*
X107635000Y-49975567D01*
X108507000Y-49975567D01*
X108507000Y-50100433D01*
G36*
X109085000Y-61871919D02*
X108607800Y-61871919D01*
X108571892Y-61878886D01*
X108131550Y-61878886D01*
X107972800Y-62037636D01*
X107972800Y-62106795D01*
X108069473Y-62340184D01*
X108093856Y-62364567D01*
X107982636Y-62475787D01*
X107605837Y-62475787D01*
X106805735Y-61675686D01*
X108131550Y-61675686D01*
X108573059Y-61675686D01*
X108607800Y-61682653D01*
X109085000Y-61682653D01*
X109085000Y-61871919D01*
X109085000Y-61871919D01*
G37*
X109085000Y-61871919D02*
X108607800Y-61871919D01*
X108571892Y-61878886D01*
X108131550Y-61878886D01*
X107972800Y-62037636D01*
X107972800Y-62106795D01*
X108069473Y-62340184D01*
X108093856Y-62364567D01*
X107982636Y-62475787D01*
X107605837Y-62475787D01*
X106805735Y-61675686D01*
X108131550Y-61675686D01*
X108573059Y-61675686D01*
X108607800Y-61682653D01*
X109085000Y-61682653D01*
X109085000Y-61871919D01*
G36*
X109395200Y-63548286D02*
X109223750Y-63548286D01*
X109065000Y-63707036D01*
X109065000Y-64456286D01*
X109085000Y-64456286D01*
X109085000Y-64710286D01*
X109065000Y-64710286D01*
X109065000Y-64730286D01*
X108811000Y-64730286D01*
X108811000Y-64710286D01*
X108811000Y-64456286D01*
X108811000Y-63707036D01*
X108652250Y-63548286D01*
X108436690Y-63548286D01*
X108203301Y-63644959D01*
X108024673Y-63823588D01*
X107928000Y-64056977D01*
X107928000Y-64297536D01*
X108086750Y-64456286D01*
X108811000Y-64456286D01*
X108811000Y-64710286D01*
X108086750Y-64710286D01*
X107928000Y-64869036D01*
X107928000Y-65109595D01*
X108024673Y-65342984D01*
X108203301Y-65521613D01*
X108234508Y-65534539D01*
X108233194Y-65536486D01*
X106286857Y-65536486D01*
X106286857Y-63825796D01*
X106260549Y-63690207D01*
X106182267Y-63571037D01*
X106064089Y-63491265D01*
X105924290Y-63463229D01*
X103823710Y-63463229D01*
X103688121Y-63489537D01*
X103568951Y-63567819D01*
X103489179Y-63685997D01*
X103461143Y-63825796D01*
X103461143Y-69426496D01*
X103487451Y-69562085D01*
X103565733Y-69681255D01*
X103683911Y-69761027D01*
X103823710Y-69789063D01*
X105001812Y-69789063D01*
X104831104Y-69959474D01*
X104709039Y-70253438D01*
X104708761Y-70571738D01*
X104731878Y-70627686D01*
X103976732Y-70627686D01*
X103939799Y-70602755D01*
X103800000Y-70574719D01*
X103649412Y-70574719D01*
X103604000Y-70565686D01*
X101718758Y-70565686D01*
X101696977Y-70532527D01*
X101673600Y-70516747D01*
X101673600Y-70209772D01*
X101768759Y-70147263D01*
X101848531Y-70029085D01*
X101876567Y-69889286D01*
X101876567Y-69389286D01*
X101850259Y-69253697D01*
X101771977Y-69134527D01*
X101653799Y-69054755D01*
X101514000Y-69026719D01*
X100614000Y-69026719D01*
X100478411Y-69053027D01*
X100359241Y-69131309D01*
X100279469Y-69249487D01*
X100251433Y-69389286D01*
X100251433Y-69889286D01*
X100277741Y-70024875D01*
X100356023Y-70144045D01*
X100454400Y-70210451D01*
X100454400Y-70516066D01*
X100434241Y-70529309D01*
X100354469Y-70647487D01*
X100326433Y-70787286D01*
X100326433Y-71587286D01*
X100352741Y-71722875D01*
X100361196Y-71735747D01*
X100329301Y-71748959D01*
X100175000Y-71903260D01*
X100175000Y-47079054D01*
X100205023Y-47124759D01*
X100228400Y-47140538D01*
X100228400Y-50031187D01*
X100228400Y-52026286D01*
X100274803Y-52259570D01*
X100406948Y-52457338D01*
X101898208Y-53948599D01*
X101902200Y-53954572D01*
X101902200Y-58891246D01*
X101811104Y-58982184D01*
X101689039Y-59276148D01*
X101688761Y-59594448D01*
X101810313Y-59888624D01*
X102035188Y-60113892D01*
X102329152Y-60235957D01*
X102647452Y-60236235D01*
X102941628Y-60114683D01*
X103166896Y-59889808D01*
X103288961Y-59595844D01*
X103289239Y-59277544D01*
X103167687Y-58983368D01*
X103019800Y-58835222D01*
X103019800Y-54208086D01*
X103461143Y-54208086D01*
X103461143Y-59728776D01*
X103487451Y-59864365D01*
X103565733Y-59983535D01*
X103683911Y-60063307D01*
X103823710Y-60091343D01*
X105924290Y-60091343D01*
X106059879Y-60065035D01*
X106179049Y-59986753D01*
X106258821Y-59868575D01*
X106286857Y-59728776D01*
X106286857Y-59131545D01*
X107665299Y-60509988D01*
X107665302Y-60509990D01*
X107713397Y-60558086D01*
X101470400Y-60558086D01*
X101256556Y-60600622D01*
X101154642Y-60668719D01*
X100868000Y-60668719D01*
X100732411Y-60695027D01*
X100613241Y-60773309D01*
X100533469Y-60891487D01*
X100505433Y-61031286D01*
X100505433Y-61531286D01*
X100531741Y-61666875D01*
X100610023Y-61786045D01*
X100728201Y-61865817D01*
X100868000Y-61893853D01*
X101681171Y-61893853D01*
X101406305Y-62168719D01*
X100868000Y-62168719D01*
X100732411Y-62195027D01*
X100613241Y-62273309D01*
X100533469Y-62391487D01*
X100505433Y-62531286D01*
X100505433Y-63031286D01*
X100531741Y-63166875D01*
X100610023Y-63286045D01*
X100728201Y-63365817D01*
X100868000Y-63393853D01*
X101472823Y-63393853D01*
X100668869Y-64197808D01*
X100547736Y-64379095D01*
X100505200Y-64592939D01*
X100505200Y-67547829D01*
X100478411Y-67553027D01*
X100359241Y-67631309D01*
X100279469Y-67749487D01*
X100251433Y-67889286D01*
X100251433Y-68389286D01*
X100277741Y-68524875D01*
X100356023Y-68644045D01*
X100474201Y-68723817D01*
X100614000Y-68751853D01*
X101514000Y-68751853D01*
X101649589Y-68725545D01*
X101768759Y-68647263D01*
X101848531Y-68529085D01*
X101876567Y-68389286D01*
X101876567Y-67889286D01*
X101850259Y-67753697D01*
X101771977Y-67634527D01*
X101653799Y-67554755D01*
X101622800Y-67548538D01*
X101622800Y-64824401D01*
X102451170Y-63996031D01*
X102619452Y-63996178D01*
X102913628Y-63874626D01*
X103138896Y-63649751D01*
X103260961Y-63355787D01*
X103261239Y-63037487D01*
X103139687Y-62743311D01*
X102914812Y-62518043D01*
X102718868Y-62436679D01*
X102844851Y-62310696D01*
X105860222Y-62310696D01*
X106979244Y-63429718D01*
X107160531Y-63550851D01*
X107160532Y-63550851D01*
X107374375Y-63593387D01*
X108214099Y-63593387D01*
X108427942Y-63550851D01*
X108427943Y-63550851D01*
X108609230Y-63429718D01*
X109035495Y-63003453D01*
X109268200Y-63003453D01*
X109304107Y-62996486D01*
X109395200Y-62996486D01*
X109395200Y-63548286D01*
X109395200Y-63548286D01*
G37*
X109395200Y-63548286D02*
X109223750Y-63548286D01*
X109065000Y-63707036D01*
X109065000Y-64456286D01*
X109085000Y-64456286D01*
X109085000Y-64710286D01*
X109065000Y-64710286D01*
X109065000Y-64730286D01*
X108811000Y-64730286D01*
X108811000Y-64710286D01*
X108811000Y-64456286D01*
X108811000Y-63707036D01*
X108652250Y-63548286D01*
X108436690Y-63548286D01*
X108203301Y-63644959D01*
X108024673Y-63823588D01*
X107928000Y-64056977D01*
X107928000Y-64297536D01*
X108086750Y-64456286D01*
X108811000Y-64456286D01*
X108811000Y-64710286D01*
X108086750Y-64710286D01*
X107928000Y-64869036D01*
X107928000Y-65109595D01*
X108024673Y-65342984D01*
X108203301Y-65521613D01*
X108234508Y-65534539D01*
X108233194Y-65536486D01*
X106286857Y-65536486D01*
X106286857Y-63825796D01*
X106260549Y-63690207D01*
X106182267Y-63571037D01*
X106064089Y-63491265D01*
X105924290Y-63463229D01*
X103823710Y-63463229D01*
X103688121Y-63489537D01*
X103568951Y-63567819D01*
X103489179Y-63685997D01*
X103461143Y-63825796D01*
X103461143Y-69426496D01*
X103487451Y-69562085D01*
X103565733Y-69681255D01*
X103683911Y-69761027D01*
X103823710Y-69789063D01*
X105001812Y-69789063D01*
X104831104Y-69959474D01*
X104709039Y-70253438D01*
X104708761Y-70571738D01*
X104731878Y-70627686D01*
X103976732Y-70627686D01*
X103939799Y-70602755D01*
X103800000Y-70574719D01*
X103649412Y-70574719D01*
X103604000Y-70565686D01*
X101718758Y-70565686D01*
X101696977Y-70532527D01*
X101673600Y-70516747D01*
X101673600Y-70209772D01*
X101768759Y-70147263D01*
X101848531Y-70029085D01*
X101876567Y-69889286D01*
X101876567Y-69389286D01*
X101850259Y-69253697D01*
X101771977Y-69134527D01*
X101653799Y-69054755D01*
X101514000Y-69026719D01*
X100614000Y-69026719D01*
X100478411Y-69053027D01*
X100359241Y-69131309D01*
X100279469Y-69249487D01*
X100251433Y-69389286D01*
X100251433Y-69889286D01*
X100277741Y-70024875D01*
X100356023Y-70144045D01*
X100454400Y-70210451D01*
X100454400Y-70516066D01*
X100434241Y-70529309D01*
X100354469Y-70647487D01*
X100326433Y-70787286D01*
X100326433Y-71587286D01*
X100352741Y-71722875D01*
X100361196Y-71735747D01*
X100329301Y-71748959D01*
X100175000Y-71903260D01*
X100175000Y-47079054D01*
X100205023Y-47124759D01*
X100228400Y-47140538D01*
X100228400Y-50031187D01*
X100228400Y-52026286D01*
X100274803Y-52259570D01*
X100406948Y-52457338D01*
X101898208Y-53948599D01*
X101902200Y-53954572D01*
X101902200Y-58891246D01*
X101811104Y-58982184D01*
X101689039Y-59276148D01*
X101688761Y-59594448D01*
X101810313Y-59888624D01*
X102035188Y-60113892D01*
X102329152Y-60235957D01*
X102647452Y-60236235D01*
X102941628Y-60114683D01*
X103166896Y-59889808D01*
X103288961Y-59595844D01*
X103289239Y-59277544D01*
X103167687Y-58983368D01*
X103019800Y-58835222D01*
X103019800Y-54208086D01*
X103461143Y-54208086D01*
X103461143Y-59728776D01*
X103487451Y-59864365D01*
X103565733Y-59983535D01*
X103683911Y-60063307D01*
X103823710Y-60091343D01*
X105924290Y-60091343D01*
X106059879Y-60065035D01*
X106179049Y-59986753D01*
X106258821Y-59868575D01*
X106286857Y-59728776D01*
X106286857Y-59131545D01*
X107665299Y-60509988D01*
X107665302Y-60509990D01*
X107713397Y-60558086D01*
X101470400Y-60558086D01*
X101256556Y-60600622D01*
X101154642Y-60668719D01*
X100868000Y-60668719D01*
X100732411Y-60695027D01*
X100613241Y-60773309D01*
X100533469Y-60891487D01*
X100505433Y-61031286D01*
X100505433Y-61531286D01*
X100531741Y-61666875D01*
X100610023Y-61786045D01*
X100728201Y-61865817D01*
X100868000Y-61893853D01*
X101681171Y-61893853D01*
X101406305Y-62168719D01*
X100868000Y-62168719D01*
X100732411Y-62195027D01*
X100613241Y-62273309D01*
X100533469Y-62391487D01*
X100505433Y-62531286D01*
X100505433Y-63031286D01*
X100531741Y-63166875D01*
X100610023Y-63286045D01*
X100728201Y-63365817D01*
X100868000Y-63393853D01*
X101472823Y-63393853D01*
X100668869Y-64197808D01*
X100547736Y-64379095D01*
X100505200Y-64592939D01*
X100505200Y-67547829D01*
X100478411Y-67553027D01*
X100359241Y-67631309D01*
X100279469Y-67749487D01*
X100251433Y-67889286D01*
X100251433Y-68389286D01*
X100277741Y-68524875D01*
X100356023Y-68644045D01*
X100474201Y-68723817D01*
X100614000Y-68751853D01*
X101514000Y-68751853D01*
X101649589Y-68725545D01*
X101768759Y-68647263D01*
X101848531Y-68529085D01*
X101876567Y-68389286D01*
X101876567Y-67889286D01*
X101850259Y-67753697D01*
X101771977Y-67634527D01*
X101653799Y-67554755D01*
X101622800Y-67548538D01*
X101622800Y-64824401D01*
X102451170Y-63996031D01*
X102619452Y-63996178D01*
X102913628Y-63874626D01*
X103138896Y-63649751D01*
X103260961Y-63355787D01*
X103261239Y-63037487D01*
X103139687Y-62743311D01*
X102914812Y-62518043D01*
X102718868Y-62436679D01*
X102844851Y-62310696D01*
X105860222Y-62310696D01*
X106979244Y-63429718D01*
X107160531Y-63550851D01*
X107160532Y-63550851D01*
X107374375Y-63593387D01*
X108214099Y-63593387D01*
X108427942Y-63550851D01*
X108427943Y-63550851D01*
X108609230Y-63429718D01*
X109035495Y-63003453D01*
X109268200Y-63003453D01*
X109304107Y-62996486D01*
X109395200Y-62996486D01*
X109395200Y-63548286D01*
G36*
X110134400Y-50495513D02*
X110039241Y-50558023D01*
X109959469Y-50676201D01*
X109931433Y-50816000D01*
X109931433Y-51316000D01*
X109953396Y-51429200D01*
X109447567Y-51429200D01*
X109447567Y-51113000D01*
X109427843Y-51011348D01*
X109447567Y-50913000D01*
X109447567Y-50798458D01*
X109623327Y-50622699D01*
X109720000Y-50389310D01*
X109720000Y-50309250D01*
X109575752Y-50165002D01*
X109720000Y-50165002D01*
X109720000Y-50040902D01*
X109882150Y-50203052D01*
X110079918Y-50335197D01*
X110134400Y-50346034D01*
X110134400Y-50495513D01*
X110134400Y-50495513D01*
G37*
X110134400Y-50495513D02*
X110039241Y-50558023D01*
X109959469Y-50676201D01*
X109931433Y-50816000D01*
X109931433Y-51316000D01*
X109953396Y-51429200D01*
X109447567Y-51429200D01*
X109447567Y-51113000D01*
X109427843Y-51011348D01*
X109447567Y-50913000D01*
X109447567Y-50798458D01*
X109623327Y-50622699D01*
X109720000Y-50389310D01*
X109720000Y-50309250D01*
X109575752Y-50165002D01*
X109720000Y-50165002D01*
X109720000Y-50040902D01*
X109882150Y-50203052D01*
X110079918Y-50335197D01*
X110134400Y-50346034D01*
X110134400Y-50495513D01*
G36*
X111117000Y-57598286D02*
X111097000Y-57598286D01*
X111097000Y-57618286D01*
X110843000Y-57618286D01*
X110843000Y-57598286D01*
X110118750Y-57598286D01*
X109960000Y-57757036D01*
X109960000Y-57997595D01*
X110056673Y-58230984D01*
X110235301Y-58409613D01*
X110266508Y-58422539D01*
X110260469Y-58431487D01*
X110232433Y-58571286D01*
X110232433Y-59371286D01*
X110258741Y-59506875D01*
X110337023Y-59626045D01*
X110411200Y-59676115D01*
X110411200Y-59964847D01*
X110453736Y-60178691D01*
X110574869Y-60359978D01*
X110766010Y-60551119D01*
X110639800Y-60551119D01*
X110504211Y-60577427D01*
X110417653Y-60634286D01*
X110233400Y-60634286D01*
X110048717Y-60671022D01*
X109892150Y-60775636D01*
X109630767Y-61037019D01*
X109630767Y-60913686D01*
X109604459Y-60778097D01*
X109526177Y-60658927D01*
X109407999Y-60579155D01*
X109291660Y-60555823D01*
X108850692Y-60114855D01*
X109231695Y-59733853D01*
X109313000Y-59733853D01*
X109448589Y-59707545D01*
X109567759Y-59629263D01*
X109647531Y-59511085D01*
X109675567Y-59371286D01*
X109675567Y-58571286D01*
X109649259Y-58435697D01*
X109640803Y-58422824D01*
X109672699Y-58409613D01*
X109851327Y-58230984D01*
X109948000Y-57997595D01*
X109948000Y-57757036D01*
X109789250Y-57598286D01*
X109065000Y-57598286D01*
X109065000Y-57618286D01*
X108811000Y-57618286D01*
X108811000Y-57598286D01*
X108086750Y-57598286D01*
X107928000Y-57757036D01*
X107928000Y-57997595D01*
X108024673Y-58230984D01*
X108203301Y-58409613D01*
X108234508Y-58422539D01*
X108228469Y-58431487D01*
X108200433Y-58571286D01*
X108200433Y-59184590D01*
X108060430Y-59324593D01*
X106286857Y-57551020D01*
X106286857Y-55261119D01*
X107713017Y-56687279D01*
X107894304Y-56808412D01*
X107894305Y-56808412D01*
X107977696Y-56824999D01*
X107928000Y-56944977D01*
X107928000Y-57185536D01*
X108086750Y-57344286D01*
X108811000Y-57344286D01*
X108811000Y-57324286D01*
X109065000Y-57324286D01*
X109065000Y-57344286D01*
X109789250Y-57344286D01*
X109948000Y-57185536D01*
X109948000Y-56944977D01*
X109909051Y-56850948D01*
X109998948Y-56850948D01*
X109960000Y-56944977D01*
X109960000Y-57185536D01*
X110118750Y-57344286D01*
X110843000Y-57344286D01*
X110843000Y-57324286D01*
X111097000Y-57324286D01*
X111097000Y-57344286D01*
X111117000Y-57344286D01*
X111117000Y-57598286D01*
X111117000Y-57598286D01*
G37*
X111117000Y-57598286D02*
X111097000Y-57598286D01*
X111097000Y-57618286D01*
X110843000Y-57618286D01*
X110843000Y-57598286D01*
X110118750Y-57598286D01*
X109960000Y-57757036D01*
X109960000Y-57997595D01*
X110056673Y-58230984D01*
X110235301Y-58409613D01*
X110266508Y-58422539D01*
X110260469Y-58431487D01*
X110232433Y-58571286D01*
X110232433Y-59371286D01*
X110258741Y-59506875D01*
X110337023Y-59626045D01*
X110411200Y-59676115D01*
X110411200Y-59964847D01*
X110453736Y-60178691D01*
X110574869Y-60359978D01*
X110766010Y-60551119D01*
X110639800Y-60551119D01*
X110504211Y-60577427D01*
X110417653Y-60634286D01*
X110233400Y-60634286D01*
X110048717Y-60671022D01*
X109892150Y-60775636D01*
X109630767Y-61037019D01*
X109630767Y-60913686D01*
X109604459Y-60778097D01*
X109526177Y-60658927D01*
X109407999Y-60579155D01*
X109291660Y-60555823D01*
X108850692Y-60114855D01*
X109231695Y-59733853D01*
X109313000Y-59733853D01*
X109448589Y-59707545D01*
X109567759Y-59629263D01*
X109647531Y-59511085D01*
X109675567Y-59371286D01*
X109675567Y-58571286D01*
X109649259Y-58435697D01*
X109640803Y-58422824D01*
X109672699Y-58409613D01*
X109851327Y-58230984D01*
X109948000Y-57997595D01*
X109948000Y-57757036D01*
X109789250Y-57598286D01*
X109065000Y-57598286D01*
X109065000Y-57618286D01*
X108811000Y-57618286D01*
X108811000Y-57598286D01*
X108086750Y-57598286D01*
X107928000Y-57757036D01*
X107928000Y-57997595D01*
X108024673Y-58230984D01*
X108203301Y-58409613D01*
X108234508Y-58422539D01*
X108228469Y-58431487D01*
X108200433Y-58571286D01*
X108200433Y-59184590D01*
X108060430Y-59324593D01*
X106286857Y-57551020D01*
X106286857Y-55261119D01*
X107713017Y-56687279D01*
X107894304Y-56808412D01*
X107894305Y-56808412D01*
X107977696Y-56824999D01*
X107928000Y-56944977D01*
X107928000Y-57185536D01*
X108086750Y-57344286D01*
X108811000Y-57344286D01*
X108811000Y-57324286D01*
X109065000Y-57324286D01*
X109065000Y-57344286D01*
X109789250Y-57344286D01*
X109948000Y-57185536D01*
X109948000Y-56944977D01*
X109909051Y-56850948D01*
X109998948Y-56850948D01*
X109960000Y-56944977D01*
X109960000Y-57185536D01*
X110118750Y-57344286D01*
X110843000Y-57344286D01*
X110843000Y-57324286D01*
X111097000Y-57324286D01*
X111097000Y-57344286D01*
X111117000Y-57344286D01*
X111117000Y-57598286D01*
G36*
X113129000Y-71903260D02*
X113127792Y-71902052D01*
X113127792Y-30850543D01*
X112845908Y-30168334D01*
X112324412Y-29645926D01*
X111642695Y-29362853D01*
X110904543Y-29362208D01*
X110222334Y-29644092D01*
X109699926Y-30165588D01*
X109416853Y-30847305D01*
X109416208Y-31585457D01*
X109698092Y-32267666D01*
X110219588Y-32790074D01*
X110901305Y-33073147D01*
X111639457Y-33073792D01*
X112321666Y-32791908D01*
X112844074Y-32270412D01*
X113127147Y-31588695D01*
X113127792Y-30850543D01*
X113127792Y-71902052D01*
X112974699Y-71748959D01*
X112943491Y-71736032D01*
X112949531Y-71727085D01*
X112977567Y-71587286D01*
X112977567Y-70787286D01*
X112951259Y-70651697D01*
X112872977Y-70532527D01*
X112849600Y-70516747D01*
X112849600Y-70209772D01*
X112944759Y-70147263D01*
X113024531Y-70029085D01*
X113052567Y-69889286D01*
X113052567Y-69389286D01*
X113026259Y-69253697D01*
X112947977Y-69134527D01*
X112829799Y-69054755D01*
X112690000Y-69026719D01*
X111790000Y-69026719D01*
X111654411Y-69053027D01*
X111535241Y-69131309D01*
X111455469Y-69249487D01*
X111427433Y-69389286D01*
X111427433Y-69889286D01*
X111453741Y-70024875D01*
X111532023Y-70144045D01*
X111630400Y-70210451D01*
X111630400Y-70516066D01*
X111610241Y-70529309D01*
X111585685Y-70565686D01*
X109954000Y-70565686D01*
X109700000Y-70565686D01*
X109484189Y-70565686D01*
X109484239Y-70508834D01*
X109381788Y-70260886D01*
X109700000Y-70260886D01*
X109745412Y-70251853D01*
X110404000Y-70251853D01*
X110539589Y-70225545D01*
X110658759Y-70147263D01*
X110738531Y-70029085D01*
X110766567Y-69889286D01*
X110766567Y-69389286D01*
X110740259Y-69253697D01*
X110661977Y-69134527D01*
X110543799Y-69054755D01*
X110404000Y-69026719D01*
X109504000Y-69026719D01*
X109426861Y-69041686D01*
X107668000Y-69041686D01*
X107434716Y-69088089D01*
X107236948Y-69220234D01*
X106277985Y-70179196D01*
X106187687Y-69960658D01*
X106001446Y-69774092D01*
X106059879Y-69762755D01*
X106179049Y-69684473D01*
X106258821Y-69566295D01*
X106286857Y-69426496D01*
X106286857Y-66654086D01*
X108249870Y-66654086D01*
X108305023Y-66738045D01*
X108423201Y-66817817D01*
X108563000Y-66845853D01*
X109313000Y-66845853D01*
X109448589Y-66819545D01*
X109567759Y-66741263D01*
X109626604Y-66654086D01*
X109672714Y-66654086D01*
X109886557Y-66611550D01*
X109886558Y-66611550D01*
X110067845Y-66490417D01*
X110349131Y-66209132D01*
X110349131Y-66209131D01*
X110411200Y-66116239D01*
X110411200Y-67106537D01*
X109991018Y-67526719D01*
X109504000Y-67526719D01*
X109368411Y-67553027D01*
X109249241Y-67631309D01*
X109169469Y-67749487D01*
X109141433Y-67889286D01*
X109141433Y-68126114D01*
X109141200Y-68127286D01*
X109141433Y-68128457D01*
X109141433Y-68389286D01*
X109167741Y-68524875D01*
X109246023Y-68644045D01*
X109364201Y-68723817D01*
X109504000Y-68751853D01*
X110404000Y-68751853D01*
X110539589Y-68725545D01*
X110658759Y-68647263D01*
X110738531Y-68529085D01*
X110766567Y-68389286D01*
X110766567Y-68331695D01*
X111274450Y-67823811D01*
X111274451Y-67823811D01*
X111364869Y-67959131D01*
X111427433Y-68021695D01*
X111427433Y-68389286D01*
X111453741Y-68524875D01*
X111532023Y-68644045D01*
X111650201Y-68723817D01*
X111790000Y-68751853D01*
X112690000Y-68751853D01*
X112825589Y-68725545D01*
X112944759Y-68647263D01*
X113024531Y-68529085D01*
X113052567Y-68389286D01*
X113052567Y-67889286D01*
X113026259Y-67753697D01*
X112947977Y-67634527D01*
X112829799Y-67554755D01*
X112690000Y-67526719D01*
X112512981Y-67526719D01*
X112318800Y-67332537D01*
X112318800Y-61923238D01*
X112375274Y-61838720D01*
X112375274Y-61838719D01*
X112417809Y-61624876D01*
X112417810Y-61624876D01*
X112417810Y-60853857D01*
X112375274Y-60640014D01*
X112375274Y-60640013D01*
X112254141Y-60458726D01*
X111528800Y-59733385D01*
X111528800Y-59675875D01*
X111599759Y-59629263D01*
X111679531Y-59511085D01*
X111707567Y-59371286D01*
X111707567Y-59361823D01*
X112671052Y-58398338D01*
X112803197Y-58200570D01*
X112849600Y-57967286D01*
X112849600Y-56292148D01*
X112803197Y-56058864D01*
X112671052Y-55861096D01*
X112473284Y-55728951D01*
X112240000Y-55682548D01*
X112006716Y-55728951D01*
X112000135Y-55733348D01*
X111829000Y-55733348D01*
X111829000Y-54236309D01*
X111829000Y-54143750D01*
X111670250Y-53985000D01*
X110871000Y-53985000D01*
X110871000Y-54586250D01*
X111029750Y-54745000D01*
X111067691Y-54745000D01*
X111320310Y-54745000D01*
X111553699Y-54648327D01*
X111732327Y-54469698D01*
X111829000Y-54236309D01*
X111829000Y-55733348D01*
X111531830Y-55733348D01*
X111556567Y-55610000D01*
X111556567Y-55110000D01*
X111530259Y-54974411D01*
X111451977Y-54855241D01*
X111333799Y-54775469D01*
X111194000Y-54747433D01*
X110401695Y-54747433D01*
X110399262Y-54745000D01*
X110420309Y-54745000D01*
X110458250Y-54745000D01*
X110617000Y-54586250D01*
X110617000Y-53985000D01*
X109817750Y-53985000D01*
X109728506Y-54074244D01*
X109524567Y-53870305D01*
X109524567Y-53610000D01*
X109498259Y-53474411D01*
X109419977Y-53355241D01*
X109301799Y-53275469D01*
X109162000Y-53247433D01*
X108901695Y-53247433D01*
X108229829Y-52575567D01*
X109085000Y-52575567D01*
X109220589Y-52549259D01*
X109224332Y-52546800D01*
X109931433Y-52546800D01*
X109931433Y-52816000D01*
X109957741Y-52951589D01*
X110014737Y-53038355D01*
X109934301Y-53071673D01*
X109755673Y-53250302D01*
X109659000Y-53483691D01*
X109659000Y-53576250D01*
X109817750Y-53735000D01*
X110617000Y-53735000D01*
X110617000Y-53713000D01*
X110871000Y-53713000D01*
X110871000Y-53735000D01*
X111670250Y-53735000D01*
X111829000Y-53576250D01*
X111829000Y-53483691D01*
X111732327Y-53250302D01*
X111553699Y-53071673D01*
X111472904Y-53038206D01*
X111528531Y-52955799D01*
X111556567Y-52816000D01*
X111556567Y-52316000D01*
X111530259Y-52180411D01*
X111451977Y-52061241D01*
X111333799Y-51981469D01*
X111194000Y-51953433D01*
X110921695Y-51953433D01*
X110646829Y-51678567D01*
X111194000Y-51678567D01*
X111329589Y-51652259D01*
X111448759Y-51573977D01*
X111528531Y-51455799D01*
X111556567Y-51316000D01*
X111556567Y-50816000D01*
X111530259Y-50680411D01*
X111451977Y-50561241D01*
X111353600Y-50494834D01*
X111353600Y-50342486D01*
X111448759Y-50279977D01*
X111528531Y-50161799D01*
X111556567Y-50022000D01*
X111556567Y-49522000D01*
X111530259Y-49386411D01*
X111451977Y-49267241D01*
X111333799Y-49187469D01*
X111194000Y-49159433D01*
X110562739Y-49159433D01*
X110286336Y-48883030D01*
X110294000Y-48884567D01*
X111194000Y-48884567D01*
X111329589Y-48858259D01*
X111448759Y-48779977D01*
X111528531Y-48661799D01*
X111556567Y-48522000D01*
X111556567Y-48022000D01*
X111530259Y-47886411D01*
X111451977Y-47767241D01*
X111353600Y-47700834D01*
X111353600Y-47040486D01*
X111448759Y-46977977D01*
X111528531Y-46859799D01*
X111556567Y-46720000D01*
X111556567Y-46220000D01*
X111530259Y-46084411D01*
X111451977Y-45965241D01*
X111333799Y-45885469D01*
X111194000Y-45857433D01*
X110646829Y-45857433D01*
X110921695Y-45582567D01*
X111194000Y-45582567D01*
X111329589Y-45556259D01*
X111448759Y-45477977D01*
X111528531Y-45359799D01*
X111556567Y-45220000D01*
X111556567Y-44720000D01*
X111530259Y-44584411D01*
X111451977Y-44465241D01*
X111333799Y-44385469D01*
X111194000Y-44357433D01*
X110294000Y-44357433D01*
X110158411Y-44383741D01*
X110039241Y-44462023D01*
X109976000Y-44555711D01*
X109976000Y-44443691D01*
X109879327Y-44210302D01*
X109700699Y-44031673D01*
X109467310Y-43935000D01*
X109251750Y-43935000D01*
X109093000Y-44093750D01*
X109093000Y-44843000D01*
X109113000Y-44843000D01*
X109113000Y-45097000D01*
X109093000Y-45097000D01*
X109093000Y-45117000D01*
X108839000Y-45117000D01*
X108839000Y-45097000D01*
X108819000Y-45097000D01*
X108819000Y-44843000D01*
X108839000Y-44843000D01*
X108839000Y-44093750D01*
X108680250Y-43935000D01*
X108464690Y-43935000D01*
X108231301Y-44031673D01*
X108052673Y-44210302D01*
X107956000Y-44443691D01*
X107956000Y-44556615D01*
X107895977Y-44465241D01*
X107777799Y-44385469D01*
X107746800Y-44379252D01*
X107746800Y-42903462D01*
X108604264Y-42045997D01*
X108942114Y-42113200D01*
X108989886Y-42113200D01*
X109456454Y-42020394D01*
X109851991Y-41756105D01*
X110116280Y-41360568D01*
X110209086Y-40894000D01*
X110116280Y-40427432D01*
X109851991Y-40031895D01*
X109583656Y-39852600D01*
X109955909Y-39852600D01*
X110189298Y-39755927D01*
X110367927Y-39577299D01*
X110464600Y-39343910D01*
X110464600Y-39091291D01*
X110464600Y-38639750D01*
X110464600Y-38068250D01*
X110464600Y-37616709D01*
X110464600Y-37364090D01*
X110367927Y-37130701D01*
X110189298Y-36952073D01*
X109955909Y-36855400D01*
X109251750Y-36855400D01*
X109093000Y-37014150D01*
X109093000Y-38227000D01*
X110305850Y-38227000D01*
X110464600Y-38068250D01*
X110464600Y-38639750D01*
X110305850Y-38481000D01*
X109093000Y-38481000D01*
X109093000Y-38501000D01*
X108839000Y-38501000D01*
X108839000Y-38481000D01*
X108839000Y-38227000D01*
X108839000Y-37014150D01*
X108680250Y-36855400D01*
X107976091Y-36855400D01*
X107742702Y-36952073D01*
X107564073Y-37130701D01*
X107481471Y-37330119D01*
X107314490Y-37147179D01*
X106785027Y-36899032D01*
X106553000Y-37019531D01*
X106553000Y-38227000D01*
X107626150Y-38227000D01*
X107759817Y-38227000D01*
X108839000Y-38227000D01*
X108839000Y-38481000D01*
X107759817Y-38481000D01*
X107626150Y-38481000D01*
X106553000Y-38481000D01*
X106553000Y-39559531D01*
X106553000Y-39688469D01*
X106553000Y-40767000D01*
X106573000Y-40767000D01*
X106573000Y-41021000D01*
X106553000Y-41021000D01*
X106553000Y-42228469D01*
X106755084Y-42333417D01*
X106671736Y-42458156D01*
X106629200Y-42672000D01*
X106629200Y-44378543D01*
X106602411Y-44383741D01*
X106483241Y-44462023D01*
X106403469Y-44580201D01*
X106375433Y-44720000D01*
X106375433Y-45220000D01*
X106401741Y-45355589D01*
X106480023Y-45474759D01*
X106598201Y-45554531D01*
X106738000Y-45582567D01*
X107638000Y-45582567D01*
X107773589Y-45556259D01*
X107892759Y-45477977D01*
X107956000Y-45384288D01*
X107956000Y-45496309D01*
X108052673Y-45729698D01*
X108231301Y-45908327D01*
X108262508Y-45921253D01*
X108256469Y-45930201D01*
X108228433Y-46070000D01*
X108228433Y-46442305D01*
X108000567Y-46670171D01*
X108000567Y-46220000D01*
X107974259Y-46084411D01*
X107895977Y-45965241D01*
X107777799Y-45885469D01*
X107638000Y-45857433D01*
X106738000Y-45857433D01*
X106602411Y-45883741D01*
X106560609Y-45911200D01*
X106480000Y-45911200D01*
X106266157Y-45953735D01*
X106084869Y-46074868D01*
X105144304Y-47015432D01*
X105193961Y-46895848D01*
X105194239Y-46577548D01*
X105072687Y-46283372D01*
X105024250Y-46234850D01*
X105105959Y-46181177D01*
X105185731Y-46062999D01*
X105213767Y-45923200D01*
X105213767Y-45496337D01*
X105659537Y-45050567D01*
X105860000Y-45050567D01*
X105995589Y-45024259D01*
X106114759Y-44945977D01*
X106194531Y-44827799D01*
X106222567Y-44688000D01*
X106222567Y-44188000D01*
X106196259Y-44052411D01*
X106117977Y-43933241D01*
X105999799Y-43853469D01*
X105860000Y-43825433D01*
X105384671Y-43825433D01*
X105659537Y-43550567D01*
X105860000Y-43550567D01*
X105995589Y-43524259D01*
X106114759Y-43445977D01*
X106194531Y-43327799D01*
X106222567Y-43188000D01*
X106222567Y-42688000D01*
X106196259Y-42552411D01*
X106117977Y-42433241D01*
X105999799Y-42353469D01*
X105860000Y-42325433D01*
X105714800Y-42325433D01*
X105714800Y-42183912D01*
X106066973Y-42348968D01*
X106299000Y-42228469D01*
X106299000Y-41021000D01*
X106279000Y-41021000D01*
X106279000Y-40767000D01*
X106299000Y-40767000D01*
X106299000Y-39688469D01*
X106299000Y-39559531D01*
X106299000Y-38481000D01*
X106279000Y-38481000D01*
X106279000Y-38227000D01*
X106299000Y-38227000D01*
X106299000Y-37019531D01*
X106066973Y-36899032D01*
X105537510Y-37147179D01*
X105143312Y-37579053D01*
X105023504Y-37868311D01*
X104771991Y-37491895D01*
X104376454Y-37227606D01*
X103909886Y-37134800D01*
X103887792Y-37134800D01*
X103887792Y-30850543D01*
X103605908Y-30168334D01*
X103084412Y-29645926D01*
X102402695Y-29362853D01*
X101664543Y-29362208D01*
X100982334Y-29644092D01*
X100459926Y-30165588D01*
X100176853Y-30847305D01*
X100176208Y-31585457D01*
X100458092Y-32267666D01*
X100979588Y-32790074D01*
X101661305Y-33073147D01*
X102399457Y-33073792D01*
X103081666Y-32791908D01*
X103604074Y-32270412D01*
X103887147Y-31588695D01*
X103887792Y-30850543D01*
X103887792Y-37134800D01*
X103862114Y-37134800D01*
X103395546Y-37227606D01*
X103000009Y-37491895D01*
X102735720Y-37887432D01*
X102642914Y-38354000D01*
X102735720Y-38820568D01*
X103000009Y-39216105D01*
X103395546Y-39480394D01*
X103862114Y-39573200D01*
X103909886Y-39573200D01*
X104247735Y-39505997D01*
X104597200Y-39855462D01*
X104597200Y-39915103D01*
X104376454Y-39767606D01*
X103909886Y-39674800D01*
X103862114Y-39674800D01*
X103395546Y-39767606D01*
X103000009Y-40031895D01*
X102735720Y-40427432D01*
X102642914Y-40894000D01*
X102735720Y-41360568D01*
X103000009Y-41756105D01*
X103395546Y-42020394D01*
X103862114Y-42113200D01*
X103909886Y-42113200D01*
X104376454Y-42020394D01*
X104597200Y-41872896D01*
X104597200Y-42684000D01*
X104597715Y-42686591D01*
X104597433Y-42688000D01*
X104597433Y-42888463D01*
X103518496Y-43967400D01*
X103144415Y-43967400D01*
X103077177Y-43865041D01*
X102958999Y-43785269D01*
X102819200Y-43757233D01*
X101904800Y-43757233D01*
X101769211Y-43783541D01*
X101650041Y-43861823D01*
X101570269Y-43980001D01*
X101560887Y-44026780D01*
X101339310Y-43935000D01*
X101123750Y-43935000D01*
X100965000Y-44093750D01*
X100965000Y-44843000D01*
X100985000Y-44843000D01*
X100985000Y-45097000D01*
X100965000Y-45097000D01*
X100965000Y-45117000D01*
X100711000Y-45117000D01*
X100711000Y-45097000D01*
X100691000Y-45097000D01*
X100691000Y-44843000D01*
X100711000Y-44843000D01*
X100711000Y-44093750D01*
X100552250Y-43935000D01*
X100336690Y-43935000D01*
X100175000Y-44001974D01*
X100175000Y-28630886D01*
X113129000Y-28630886D01*
X113129000Y-71903260D01*
X113129000Y-71903260D01*
G37*
X113129000Y-71903260D02*
X113127792Y-71902052D01*
X113127792Y-30850543D01*
X112845908Y-30168334D01*
X112324412Y-29645926D01*
X111642695Y-29362853D01*
X110904543Y-29362208D01*
X110222334Y-29644092D01*
X109699926Y-30165588D01*
X109416853Y-30847305D01*
X109416208Y-31585457D01*
X109698092Y-32267666D01*
X110219588Y-32790074D01*
X110901305Y-33073147D01*
X111639457Y-33073792D01*
X112321666Y-32791908D01*
X112844074Y-32270412D01*
X113127147Y-31588695D01*
X113127792Y-30850543D01*
X113127792Y-71902052D01*
X112974699Y-71748959D01*
X112943491Y-71736032D01*
X112949531Y-71727085D01*
X112977567Y-71587286D01*
X112977567Y-70787286D01*
X112951259Y-70651697D01*
X112872977Y-70532527D01*
X112849600Y-70516747D01*
X112849600Y-70209772D01*
X112944759Y-70147263D01*
X113024531Y-70029085D01*
X113052567Y-69889286D01*
X113052567Y-69389286D01*
X113026259Y-69253697D01*
X112947977Y-69134527D01*
X112829799Y-69054755D01*
X112690000Y-69026719D01*
X111790000Y-69026719D01*
X111654411Y-69053027D01*
X111535241Y-69131309D01*
X111455469Y-69249487D01*
X111427433Y-69389286D01*
X111427433Y-69889286D01*
X111453741Y-70024875D01*
X111532023Y-70144045D01*
X111630400Y-70210451D01*
X111630400Y-70516066D01*
X111610241Y-70529309D01*
X111585685Y-70565686D01*
X109954000Y-70565686D01*
X109700000Y-70565686D01*
X109484189Y-70565686D01*
X109484239Y-70508834D01*
X109381788Y-70260886D01*
X109700000Y-70260886D01*
X109745412Y-70251853D01*
X110404000Y-70251853D01*
X110539589Y-70225545D01*
X110658759Y-70147263D01*
X110738531Y-70029085D01*
X110766567Y-69889286D01*
X110766567Y-69389286D01*
X110740259Y-69253697D01*
X110661977Y-69134527D01*
X110543799Y-69054755D01*
X110404000Y-69026719D01*
X109504000Y-69026719D01*
X109426861Y-69041686D01*
X107668000Y-69041686D01*
X107434716Y-69088089D01*
X107236948Y-69220234D01*
X106277985Y-70179196D01*
X106187687Y-69960658D01*
X106001446Y-69774092D01*
X106059879Y-69762755D01*
X106179049Y-69684473D01*
X106258821Y-69566295D01*
X106286857Y-69426496D01*
X106286857Y-66654086D01*
X108249870Y-66654086D01*
X108305023Y-66738045D01*
X108423201Y-66817817D01*
X108563000Y-66845853D01*
X109313000Y-66845853D01*
X109448589Y-66819545D01*
X109567759Y-66741263D01*
X109626604Y-66654086D01*
X109672714Y-66654086D01*
X109886557Y-66611550D01*
X109886558Y-66611550D01*
X110067845Y-66490417D01*
X110349131Y-66209132D01*
X110349131Y-66209131D01*
X110411200Y-66116239D01*
X110411200Y-67106537D01*
X109991018Y-67526719D01*
X109504000Y-67526719D01*
X109368411Y-67553027D01*
X109249241Y-67631309D01*
X109169469Y-67749487D01*
X109141433Y-67889286D01*
X109141433Y-68126114D01*
X109141200Y-68127286D01*
X109141433Y-68128457D01*
X109141433Y-68389286D01*
X109167741Y-68524875D01*
X109246023Y-68644045D01*
X109364201Y-68723817D01*
X109504000Y-68751853D01*
X110404000Y-68751853D01*
X110539589Y-68725545D01*
X110658759Y-68647263D01*
X110738531Y-68529085D01*
X110766567Y-68389286D01*
X110766567Y-68331695D01*
X111274450Y-67823811D01*
X111274451Y-67823811D01*
X111364869Y-67959131D01*
X111427433Y-68021695D01*
X111427433Y-68389286D01*
X111453741Y-68524875D01*
X111532023Y-68644045D01*
X111650201Y-68723817D01*
X111790000Y-68751853D01*
X112690000Y-68751853D01*
X112825589Y-68725545D01*
X112944759Y-68647263D01*
X113024531Y-68529085D01*
X113052567Y-68389286D01*
X113052567Y-67889286D01*
X113026259Y-67753697D01*
X112947977Y-67634527D01*
X112829799Y-67554755D01*
X112690000Y-67526719D01*
X112512981Y-67526719D01*
X112318800Y-67332537D01*
X112318800Y-61923238D01*
X112375274Y-61838720D01*
X112375274Y-61838719D01*
X112417809Y-61624876D01*
X112417810Y-61624876D01*
X112417810Y-60853857D01*
X112375274Y-60640014D01*
X112375274Y-60640013D01*
X112254141Y-60458726D01*
X111528800Y-59733385D01*
X111528800Y-59675875D01*
X111599759Y-59629263D01*
X111679531Y-59511085D01*
X111707567Y-59371286D01*
X111707567Y-59361823D01*
X112671052Y-58398338D01*
X112803197Y-58200570D01*
X112849600Y-57967286D01*
X112849600Y-56292148D01*
X112803197Y-56058864D01*
X112671052Y-55861096D01*
X112473284Y-55728951D01*
X112240000Y-55682548D01*
X112006716Y-55728951D01*
X112000135Y-55733348D01*
X111829000Y-55733348D01*
X111829000Y-54236309D01*
X111829000Y-54143750D01*
X111670250Y-53985000D01*
X110871000Y-53985000D01*
X110871000Y-54586250D01*
X111029750Y-54745000D01*
X111067691Y-54745000D01*
X111320310Y-54745000D01*
X111553699Y-54648327D01*
X111732327Y-54469698D01*
X111829000Y-54236309D01*
X111829000Y-55733348D01*
X111531830Y-55733348D01*
X111556567Y-55610000D01*
X111556567Y-55110000D01*
X111530259Y-54974411D01*
X111451977Y-54855241D01*
X111333799Y-54775469D01*
X111194000Y-54747433D01*
X110401695Y-54747433D01*
X110399262Y-54745000D01*
X110420309Y-54745000D01*
X110458250Y-54745000D01*
X110617000Y-54586250D01*
X110617000Y-53985000D01*
X109817750Y-53985000D01*
X109728506Y-54074244D01*
X109524567Y-53870305D01*
X109524567Y-53610000D01*
X109498259Y-53474411D01*
X109419977Y-53355241D01*
X109301799Y-53275469D01*
X109162000Y-53247433D01*
X108901695Y-53247433D01*
X108229829Y-52575567D01*
X109085000Y-52575567D01*
X109220589Y-52549259D01*
X109224332Y-52546800D01*
X109931433Y-52546800D01*
X109931433Y-52816000D01*
X109957741Y-52951589D01*
X110014737Y-53038355D01*
X109934301Y-53071673D01*
X109755673Y-53250302D01*
X109659000Y-53483691D01*
X109659000Y-53576250D01*
X109817750Y-53735000D01*
X110617000Y-53735000D01*
X110617000Y-53713000D01*
X110871000Y-53713000D01*
X110871000Y-53735000D01*
X111670250Y-53735000D01*
X111829000Y-53576250D01*
X111829000Y-53483691D01*
X111732327Y-53250302D01*
X111553699Y-53071673D01*
X111472904Y-53038206D01*
X111528531Y-52955799D01*
X111556567Y-52816000D01*
X111556567Y-52316000D01*
X111530259Y-52180411D01*
X111451977Y-52061241D01*
X111333799Y-51981469D01*
X111194000Y-51953433D01*
X110921695Y-51953433D01*
X110646829Y-51678567D01*
X111194000Y-51678567D01*
X111329589Y-51652259D01*
X111448759Y-51573977D01*
X111528531Y-51455799D01*
X111556567Y-51316000D01*
X111556567Y-50816000D01*
X111530259Y-50680411D01*
X111451977Y-50561241D01*
X111353600Y-50494834D01*
X111353600Y-50342486D01*
X111448759Y-50279977D01*
X111528531Y-50161799D01*
X111556567Y-50022000D01*
X111556567Y-49522000D01*
X111530259Y-49386411D01*
X111451977Y-49267241D01*
X111333799Y-49187469D01*
X111194000Y-49159433D01*
X110562739Y-49159433D01*
X110286336Y-48883030D01*
X110294000Y-48884567D01*
X111194000Y-48884567D01*
X111329589Y-48858259D01*
X111448759Y-48779977D01*
X111528531Y-48661799D01*
X111556567Y-48522000D01*
X111556567Y-48022000D01*
X111530259Y-47886411D01*
X111451977Y-47767241D01*
X111353600Y-47700834D01*
X111353600Y-47040486D01*
X111448759Y-46977977D01*
X111528531Y-46859799D01*
X111556567Y-46720000D01*
X111556567Y-46220000D01*
X111530259Y-46084411D01*
X111451977Y-45965241D01*
X111333799Y-45885469D01*
X111194000Y-45857433D01*
X110646829Y-45857433D01*
X110921695Y-45582567D01*
X111194000Y-45582567D01*
X111329589Y-45556259D01*
X111448759Y-45477977D01*
X111528531Y-45359799D01*
X111556567Y-45220000D01*
X111556567Y-44720000D01*
X111530259Y-44584411D01*
X111451977Y-44465241D01*
X111333799Y-44385469D01*
X111194000Y-44357433D01*
X110294000Y-44357433D01*
X110158411Y-44383741D01*
X110039241Y-44462023D01*
X109976000Y-44555711D01*
X109976000Y-44443691D01*
X109879327Y-44210302D01*
X109700699Y-44031673D01*
X109467310Y-43935000D01*
X109251750Y-43935000D01*
X109093000Y-44093750D01*
X109093000Y-44843000D01*
X109113000Y-44843000D01*
X109113000Y-45097000D01*
X109093000Y-45097000D01*
X109093000Y-45117000D01*
X108839000Y-45117000D01*
X108839000Y-45097000D01*
X108819000Y-45097000D01*
X108819000Y-44843000D01*
X108839000Y-44843000D01*
X108839000Y-44093750D01*
X108680250Y-43935000D01*
X108464690Y-43935000D01*
X108231301Y-44031673D01*
X108052673Y-44210302D01*
X107956000Y-44443691D01*
X107956000Y-44556615D01*
X107895977Y-44465241D01*
X107777799Y-44385469D01*
X107746800Y-44379252D01*
X107746800Y-42903462D01*
X108604264Y-42045997D01*
X108942114Y-42113200D01*
X108989886Y-42113200D01*
X109456454Y-42020394D01*
X109851991Y-41756105D01*
X110116280Y-41360568D01*
X110209086Y-40894000D01*
X110116280Y-40427432D01*
X109851991Y-40031895D01*
X109583656Y-39852600D01*
X109955909Y-39852600D01*
X110189298Y-39755927D01*
X110367927Y-39577299D01*
X110464600Y-39343910D01*
X110464600Y-39091291D01*
X110464600Y-38639750D01*
X110464600Y-38068250D01*
X110464600Y-37616709D01*
X110464600Y-37364090D01*
X110367927Y-37130701D01*
X110189298Y-36952073D01*
X109955909Y-36855400D01*
X109251750Y-36855400D01*
X109093000Y-37014150D01*
X109093000Y-38227000D01*
X110305850Y-38227000D01*
X110464600Y-38068250D01*
X110464600Y-38639750D01*
X110305850Y-38481000D01*
X109093000Y-38481000D01*
X109093000Y-38501000D01*
X108839000Y-38501000D01*
X108839000Y-38481000D01*
X108839000Y-38227000D01*
X108839000Y-37014150D01*
X108680250Y-36855400D01*
X107976091Y-36855400D01*
X107742702Y-36952073D01*
X107564073Y-37130701D01*
X107481471Y-37330119D01*
X107314490Y-37147179D01*
X106785027Y-36899032D01*
X106553000Y-37019531D01*
X106553000Y-38227000D01*
X107626150Y-38227000D01*
X107759817Y-38227000D01*
X108839000Y-38227000D01*
X108839000Y-38481000D01*
X107759817Y-38481000D01*
X107626150Y-38481000D01*
X106553000Y-38481000D01*
X106553000Y-39559531D01*
X106553000Y-39688469D01*
X106553000Y-40767000D01*
X106573000Y-40767000D01*
X106573000Y-41021000D01*
X106553000Y-41021000D01*
X106553000Y-42228469D01*
X106755084Y-42333417D01*
X106671736Y-42458156D01*
X106629200Y-42672000D01*
X106629200Y-44378543D01*
X106602411Y-44383741D01*
X106483241Y-44462023D01*
X106403469Y-44580201D01*
X106375433Y-44720000D01*
X106375433Y-45220000D01*
X106401741Y-45355589D01*
X106480023Y-45474759D01*
X106598201Y-45554531D01*
X106738000Y-45582567D01*
X107638000Y-45582567D01*
X107773589Y-45556259D01*
X107892759Y-45477977D01*
X107956000Y-45384288D01*
X107956000Y-45496309D01*
X108052673Y-45729698D01*
X108231301Y-45908327D01*
X108262508Y-45921253D01*
X108256469Y-45930201D01*
X108228433Y-46070000D01*
X108228433Y-46442305D01*
X108000567Y-46670171D01*
X108000567Y-46220000D01*
X107974259Y-46084411D01*
X107895977Y-45965241D01*
X107777799Y-45885469D01*
X107638000Y-45857433D01*
X106738000Y-45857433D01*
X106602411Y-45883741D01*
X106560609Y-45911200D01*
X106480000Y-45911200D01*
X106266157Y-45953735D01*
X106084869Y-46074868D01*
X105144304Y-47015432D01*
X105193961Y-46895848D01*
X105194239Y-46577548D01*
X105072687Y-46283372D01*
X105024250Y-46234850D01*
X105105959Y-46181177D01*
X105185731Y-46062999D01*
X105213767Y-45923200D01*
X105213767Y-45496337D01*
X105659537Y-45050567D01*
X105860000Y-45050567D01*
X105995589Y-45024259D01*
X106114759Y-44945977D01*
X106194531Y-44827799D01*
X106222567Y-44688000D01*
X106222567Y-44188000D01*
X106196259Y-44052411D01*
X106117977Y-43933241D01*
X105999799Y-43853469D01*
X105860000Y-43825433D01*
X105384671Y-43825433D01*
X105659537Y-43550567D01*
X105860000Y-43550567D01*
X105995589Y-43524259D01*
X106114759Y-43445977D01*
X106194531Y-43327799D01*
X106222567Y-43188000D01*
X106222567Y-42688000D01*
X106196259Y-42552411D01*
X106117977Y-42433241D01*
X105999799Y-42353469D01*
X105860000Y-42325433D01*
X105714800Y-42325433D01*
X105714800Y-42183912D01*
X106066973Y-42348968D01*
X106299000Y-42228469D01*
X106299000Y-41021000D01*
X106279000Y-41021000D01*
X106279000Y-40767000D01*
X106299000Y-40767000D01*
X106299000Y-39688469D01*
X106299000Y-39559531D01*
X106299000Y-38481000D01*
X106279000Y-38481000D01*
X106279000Y-38227000D01*
X106299000Y-38227000D01*
X106299000Y-37019531D01*
X106066973Y-36899032D01*
X105537510Y-37147179D01*
X105143312Y-37579053D01*
X105023504Y-37868311D01*
X104771991Y-37491895D01*
X104376454Y-37227606D01*
X103909886Y-37134800D01*
X103887792Y-37134800D01*
X103887792Y-30850543D01*
X103605908Y-30168334D01*
X103084412Y-29645926D01*
X102402695Y-29362853D01*
X101664543Y-29362208D01*
X100982334Y-29644092D01*
X100459926Y-30165588D01*
X100176853Y-30847305D01*
X100176208Y-31585457D01*
X100458092Y-32267666D01*
X100979588Y-32790074D01*
X101661305Y-33073147D01*
X102399457Y-33073792D01*
X103081666Y-32791908D01*
X103604074Y-32270412D01*
X103887147Y-31588695D01*
X103887792Y-30850543D01*
X103887792Y-37134800D01*
X103862114Y-37134800D01*
X103395546Y-37227606D01*
X103000009Y-37491895D01*
X102735720Y-37887432D01*
X102642914Y-38354000D01*
X102735720Y-38820568D01*
X103000009Y-39216105D01*
X103395546Y-39480394D01*
X103862114Y-39573200D01*
X103909886Y-39573200D01*
X104247735Y-39505997D01*
X104597200Y-39855462D01*
X104597200Y-39915103D01*
X104376454Y-39767606D01*
X103909886Y-39674800D01*
X103862114Y-39674800D01*
X103395546Y-39767606D01*
X103000009Y-40031895D01*
X102735720Y-40427432D01*
X102642914Y-40894000D01*
X102735720Y-41360568D01*
X103000009Y-41756105D01*
X103395546Y-42020394D01*
X103862114Y-42113200D01*
X103909886Y-42113200D01*
X104376454Y-42020394D01*
X104597200Y-41872896D01*
X104597200Y-42684000D01*
X104597715Y-42686591D01*
X104597433Y-42688000D01*
X104597433Y-42888463D01*
X103518496Y-43967400D01*
X103144415Y-43967400D01*
X103077177Y-43865041D01*
X102958999Y-43785269D01*
X102819200Y-43757233D01*
X101904800Y-43757233D01*
X101769211Y-43783541D01*
X101650041Y-43861823D01*
X101570269Y-43980001D01*
X101560887Y-44026780D01*
X101339310Y-43935000D01*
X101123750Y-43935000D01*
X100965000Y-44093750D01*
X100965000Y-44843000D01*
X100985000Y-44843000D01*
X100985000Y-45097000D01*
X100965000Y-45097000D01*
X100965000Y-45117000D01*
X100711000Y-45117000D01*
X100711000Y-45097000D01*
X100691000Y-45097000D01*
X100691000Y-44843000D01*
X100711000Y-44843000D01*
X100711000Y-44093750D01*
X100552250Y-43935000D01*
X100336690Y-43935000D01*
X100175000Y-44001974D01*
X100175000Y-28630886D01*
X113129000Y-28630886D01*
X113129000Y-71903260D01*
G36*
X113156976Y-131974280D02*
X112113000Y-133369594D01*
X112113000Y-73563536D01*
X112113000Y-72814286D01*
X111388750Y-72814286D01*
X111230000Y-72973036D01*
X111230000Y-73213595D01*
X111326673Y-73446984D01*
X111505301Y-73625613D01*
X111738690Y-73722286D01*
X111954250Y-73722286D01*
X112113000Y-73563536D01*
X112113000Y-133369594D01*
X111039000Y-134805036D01*
X111039000Y-73063595D01*
X111039000Y-72971036D01*
X111039000Y-72403536D01*
X111039000Y-72310977D01*
X110942327Y-72077588D01*
X110763699Y-71898959D01*
X110530310Y-71802286D01*
X110277691Y-71802286D01*
X110239750Y-71802286D01*
X110081000Y-71961036D01*
X110081000Y-72562286D01*
X110880250Y-72562286D01*
X111039000Y-72403536D01*
X111039000Y-72971036D01*
X110880250Y-72812286D01*
X110081000Y-72812286D01*
X110081000Y-73413536D01*
X110239750Y-73572286D01*
X110277691Y-73572286D01*
X110530310Y-73572286D01*
X110763699Y-73475613D01*
X110942327Y-73296984D01*
X111039000Y-73063595D01*
X111039000Y-134805036D01*
X106680492Y-140630350D01*
X102074000Y-134413821D01*
X102074000Y-73213595D01*
X102074000Y-72973036D01*
X101915250Y-72814286D01*
X101191000Y-72814286D01*
X101191000Y-73563536D01*
X101349750Y-73722286D01*
X101565310Y-73722286D01*
X101798699Y-73625613D01*
X101977327Y-73446984D01*
X102074000Y-73213595D01*
X102074000Y-134413821D01*
X100266422Y-131974468D01*
X100175000Y-83057881D01*
X100175000Y-73471311D01*
X100329301Y-73625613D01*
X100562690Y-73722286D01*
X100778250Y-73722286D01*
X100937000Y-73563536D01*
X100937000Y-72814286D01*
X100917000Y-72814286D01*
X100917000Y-72560286D01*
X100937000Y-72560286D01*
X100937000Y-72540286D01*
X101191000Y-72540286D01*
X101191000Y-72560286D01*
X101915250Y-72560286D01*
X102074000Y-72401536D01*
X102074000Y-72160977D01*
X101977327Y-71927588D01*
X101834625Y-71784886D01*
X102825368Y-71784886D01*
X102900000Y-71799853D01*
X103431773Y-71799853D01*
X103432716Y-71800483D01*
X103603568Y-71834467D01*
X103477000Y-71961036D01*
X103477000Y-72562286D01*
X104276250Y-72562286D01*
X104435000Y-72403536D01*
X104435000Y-72310977D01*
X104338327Y-72077588D01*
X104159699Y-71898959D01*
X104033983Y-71846886D01*
X104855267Y-71846886D01*
X104892201Y-71871817D01*
X105032000Y-71899853D01*
X105732000Y-71899853D01*
X105867589Y-71873545D01*
X105986759Y-71795263D01*
X106042400Y-71712833D01*
X106042400Y-72027686D01*
X105908732Y-72027686D01*
X105871799Y-72002755D01*
X105732000Y-71974719D01*
X105032000Y-71974719D01*
X104896411Y-72001027D01*
X104777241Y-72079309D01*
X104697469Y-72197487D01*
X104669433Y-72337286D01*
X104669433Y-72937286D01*
X104695741Y-73072875D01*
X104774023Y-73192045D01*
X104892201Y-73271817D01*
X105032000Y-73299853D01*
X105732000Y-73299853D01*
X105867589Y-73273545D01*
X105908172Y-73246886D01*
X106042400Y-73246886D01*
X106042400Y-83981000D01*
X104435000Y-83981000D01*
X104435000Y-73063595D01*
X104435000Y-72971036D01*
X104276250Y-72812286D01*
X103477000Y-72812286D01*
X103477000Y-73413536D01*
X103635750Y-73572286D01*
X103673691Y-73572286D01*
X103926310Y-73572286D01*
X104159699Y-73475613D01*
X104338327Y-73296984D01*
X104435000Y-73063595D01*
X104435000Y-83981000D01*
X103223000Y-83981000D01*
X103223000Y-73413536D01*
X103223000Y-72812286D01*
X103223000Y-72562286D01*
X103223000Y-71961036D01*
X103064250Y-71802286D01*
X103026309Y-71802286D01*
X102773690Y-71802286D01*
X102540301Y-71898959D01*
X102361673Y-72077588D01*
X102265000Y-72310977D01*
X102265000Y-72403536D01*
X102423750Y-72562286D01*
X103223000Y-72562286D01*
X103223000Y-72812286D01*
X102423750Y-72812286D01*
X102265000Y-72971036D01*
X102265000Y-73063595D01*
X102361673Y-73296984D01*
X102540301Y-73475613D01*
X102773690Y-73572286D01*
X103026309Y-73572286D01*
X103064250Y-73572286D01*
X103223000Y-73413536D01*
X103223000Y-83981000D01*
X102505000Y-83981000D01*
X102505000Y-132146453D01*
X104564032Y-135235000D01*
X108699968Y-135235000D01*
X110759000Y-132146453D01*
X110759000Y-83981000D01*
X109827000Y-83981000D01*
X109827000Y-73413536D01*
X109827000Y-72812286D01*
X109027750Y-72812286D01*
X108869000Y-72971036D01*
X108869000Y-73063595D01*
X108965673Y-73296984D01*
X109144301Y-73475613D01*
X109377690Y-73572286D01*
X109630309Y-73572286D01*
X109668250Y-73572286D01*
X109827000Y-73413536D01*
X109827000Y-83981000D01*
X107261600Y-83981000D01*
X107261600Y-73246886D01*
X107395267Y-73246886D01*
X107432201Y-73271817D01*
X107572000Y-73299853D01*
X108272000Y-73299853D01*
X108407589Y-73273545D01*
X108526759Y-73195263D01*
X108606531Y-73077085D01*
X108634567Y-72937286D01*
X108634567Y-72337286D01*
X108608259Y-72201697D01*
X108529977Y-72082527D01*
X108411799Y-72002755D01*
X108272000Y-71974719D01*
X107572000Y-71974719D01*
X107436411Y-72001027D01*
X107395827Y-72027686D01*
X107261600Y-72027686D01*
X107261600Y-71712240D01*
X107314023Y-71792045D01*
X107432201Y-71871817D01*
X107572000Y-71899853D01*
X108272000Y-71899853D01*
X108407589Y-71873545D01*
X108448172Y-71846886D01*
X109270016Y-71846886D01*
X109144301Y-71898959D01*
X108965673Y-72077588D01*
X108869000Y-72310977D01*
X108869000Y-72403536D01*
X109027750Y-72562286D01*
X109827000Y-72562286D01*
X109827000Y-71961036D01*
X109700431Y-71834467D01*
X109871284Y-71800483D01*
X109872226Y-71799853D01*
X110404000Y-71799853D01*
X110481138Y-71784886D01*
X111469374Y-71784886D01*
X111326673Y-71927588D01*
X111230000Y-72160977D01*
X111230000Y-72401536D01*
X111388750Y-72560286D01*
X112113000Y-72560286D01*
X112113000Y-72540286D01*
X112367000Y-72540286D01*
X112367000Y-72560286D01*
X112387000Y-72560286D01*
X112387000Y-72814286D01*
X112367000Y-72814286D01*
X112367000Y-73563536D01*
X112525750Y-73722286D01*
X112741310Y-73722286D01*
X112974699Y-73625613D01*
X113129000Y-73471311D01*
X113129000Y-82804000D01*
X113129000Y-83058036D01*
X113156976Y-131974280D01*
X113156976Y-131974280D01*
G37*
X113156976Y-131974280D02*
X112113000Y-133369594D01*
X112113000Y-73563536D01*
X112113000Y-72814286D01*
X111388750Y-72814286D01*
X111230000Y-72973036D01*
X111230000Y-73213595D01*
X111326673Y-73446984D01*
X111505301Y-73625613D01*
X111738690Y-73722286D01*
X111954250Y-73722286D01*
X112113000Y-73563536D01*
X112113000Y-133369594D01*
X111039000Y-134805036D01*
X111039000Y-73063595D01*
X111039000Y-72971036D01*
X111039000Y-72403536D01*
X111039000Y-72310977D01*
X110942327Y-72077588D01*
X110763699Y-71898959D01*
X110530310Y-71802286D01*
X110277691Y-71802286D01*
X110239750Y-71802286D01*
X110081000Y-71961036D01*
X110081000Y-72562286D01*
X110880250Y-72562286D01*
X111039000Y-72403536D01*
X111039000Y-72971036D01*
X110880250Y-72812286D01*
X110081000Y-72812286D01*
X110081000Y-73413536D01*
X110239750Y-73572286D01*
X110277691Y-73572286D01*
X110530310Y-73572286D01*
X110763699Y-73475613D01*
X110942327Y-73296984D01*
X111039000Y-73063595D01*
X111039000Y-134805036D01*
X106680492Y-140630350D01*
X102074000Y-134413821D01*
X102074000Y-73213595D01*
X102074000Y-72973036D01*
X101915250Y-72814286D01*
X101191000Y-72814286D01*
X101191000Y-73563536D01*
X101349750Y-73722286D01*
X101565310Y-73722286D01*
X101798699Y-73625613D01*
X101977327Y-73446984D01*
X102074000Y-73213595D01*
X102074000Y-134413821D01*
X100266422Y-131974468D01*
X100175000Y-83057881D01*
X100175000Y-73471311D01*
X100329301Y-73625613D01*
X100562690Y-73722286D01*
X100778250Y-73722286D01*
X100937000Y-73563536D01*
X100937000Y-72814286D01*
X100917000Y-72814286D01*
X100917000Y-72560286D01*
X100937000Y-72560286D01*
X100937000Y-72540286D01*
X101191000Y-72540286D01*
X101191000Y-72560286D01*
X101915250Y-72560286D01*
X102074000Y-72401536D01*
X102074000Y-72160977D01*
X101977327Y-71927588D01*
X101834625Y-71784886D01*
X102825368Y-71784886D01*
X102900000Y-71799853D01*
X103431773Y-71799853D01*
X103432716Y-71800483D01*
X103603568Y-71834467D01*
X103477000Y-71961036D01*
X103477000Y-72562286D01*
X104276250Y-72562286D01*
X104435000Y-72403536D01*
X104435000Y-72310977D01*
X104338327Y-72077588D01*
X104159699Y-71898959D01*
X104033983Y-71846886D01*
X104855267Y-71846886D01*
X104892201Y-71871817D01*
X105032000Y-71899853D01*
X105732000Y-71899853D01*
X105867589Y-71873545D01*
X105986759Y-71795263D01*
X106042400Y-71712833D01*
X106042400Y-72027686D01*
X105908732Y-72027686D01*
X105871799Y-72002755D01*
X105732000Y-71974719D01*
X105032000Y-71974719D01*
X104896411Y-72001027D01*
X104777241Y-72079309D01*
X104697469Y-72197487D01*
X104669433Y-72337286D01*
X104669433Y-72937286D01*
X104695741Y-73072875D01*
X104774023Y-73192045D01*
X104892201Y-73271817D01*
X105032000Y-73299853D01*
X105732000Y-73299853D01*
X105867589Y-73273545D01*
X105908172Y-73246886D01*
X106042400Y-73246886D01*
X106042400Y-83981000D01*
X104435000Y-83981000D01*
X104435000Y-73063595D01*
X104435000Y-72971036D01*
X104276250Y-72812286D01*
X103477000Y-72812286D01*
X103477000Y-73413536D01*
X103635750Y-73572286D01*
X103673691Y-73572286D01*
X103926310Y-73572286D01*
X104159699Y-73475613D01*
X104338327Y-73296984D01*
X104435000Y-73063595D01*
X104435000Y-83981000D01*
X103223000Y-83981000D01*
X103223000Y-73413536D01*
X103223000Y-72812286D01*
X103223000Y-72562286D01*
X103223000Y-71961036D01*
X103064250Y-71802286D01*
X103026309Y-71802286D01*
X102773690Y-71802286D01*
X102540301Y-71898959D01*
X102361673Y-72077588D01*
X102265000Y-72310977D01*
X102265000Y-72403536D01*
X102423750Y-72562286D01*
X103223000Y-72562286D01*
X103223000Y-72812286D01*
X102423750Y-72812286D01*
X102265000Y-72971036D01*
X102265000Y-73063595D01*
X102361673Y-73296984D01*
X102540301Y-73475613D01*
X102773690Y-73572286D01*
X103026309Y-73572286D01*
X103064250Y-73572286D01*
X103223000Y-73413536D01*
X103223000Y-83981000D01*
X102505000Y-83981000D01*
X102505000Y-132146453D01*
X104564032Y-135235000D01*
X108699968Y-135235000D01*
X110759000Y-132146453D01*
X110759000Y-83981000D01*
X109827000Y-83981000D01*
X109827000Y-73413536D01*
X109827000Y-72812286D01*
X109027750Y-72812286D01*
X108869000Y-72971036D01*
X108869000Y-73063595D01*
X108965673Y-73296984D01*
X109144301Y-73475613D01*
X109377690Y-73572286D01*
X109630309Y-73572286D01*
X109668250Y-73572286D01*
X109827000Y-73413536D01*
X109827000Y-83981000D01*
X107261600Y-83981000D01*
X107261600Y-73246886D01*
X107395267Y-73246886D01*
X107432201Y-73271817D01*
X107572000Y-73299853D01*
X108272000Y-73299853D01*
X108407589Y-73273545D01*
X108526759Y-73195263D01*
X108606531Y-73077085D01*
X108634567Y-72937286D01*
X108634567Y-72337286D01*
X108608259Y-72201697D01*
X108529977Y-72082527D01*
X108411799Y-72002755D01*
X108272000Y-71974719D01*
X107572000Y-71974719D01*
X107436411Y-72001027D01*
X107395827Y-72027686D01*
X107261600Y-72027686D01*
X107261600Y-71712240D01*
X107314023Y-71792045D01*
X107432201Y-71871817D01*
X107572000Y-71899853D01*
X108272000Y-71899853D01*
X108407589Y-71873545D01*
X108448172Y-71846886D01*
X109270016Y-71846886D01*
X109144301Y-71898959D01*
X108965673Y-72077588D01*
X108869000Y-72310977D01*
X108869000Y-72403536D01*
X109027750Y-72562286D01*
X109827000Y-72562286D01*
X109827000Y-71961036D01*
X109700431Y-71834467D01*
X109871284Y-71800483D01*
X109872226Y-71799853D01*
X110404000Y-71799853D01*
X110481138Y-71784886D01*
X111469374Y-71784886D01*
X111326673Y-71927588D01*
X111230000Y-72160977D01*
X111230000Y-72401536D01*
X111388750Y-72560286D01*
X112113000Y-72560286D01*
X112113000Y-72540286D01*
X112367000Y-72540286D01*
X112367000Y-72560286D01*
X112387000Y-72560286D01*
X112387000Y-72814286D01*
X112367000Y-72814286D01*
X112367000Y-73563536D01*
X112525750Y-73722286D01*
X112741310Y-73722286D01*
X112974699Y-73625613D01*
X113129000Y-73471311D01*
X113129000Y-82804000D01*
X113129000Y-83058036D01*
X113156976Y-131974280D01*
G36*
X123772400Y-50100433D02*
X122900400Y-50100433D01*
X122764811Y-50126741D01*
X122728642Y-50150500D01*
X122424150Y-50150500D01*
X122265400Y-50309250D01*
X122265400Y-50389310D01*
X122305885Y-50487050D01*
X121804269Y-50988667D01*
X121742200Y-51081559D01*
X121742200Y-50142462D01*
X121937862Y-49946800D01*
X122759518Y-49946800D01*
X122760601Y-49947531D01*
X122900400Y-49975567D01*
X123772400Y-49975567D01*
X123772400Y-50100433D01*
X123772400Y-50100433D01*
G37*
X123772400Y-50100433D02*
X122900400Y-50100433D01*
X122764811Y-50126741D01*
X122728642Y-50150500D01*
X122424150Y-50150500D01*
X122265400Y-50309250D01*
X122265400Y-50389310D01*
X122305885Y-50487050D01*
X121804269Y-50988667D01*
X121742200Y-51081559D01*
X121742200Y-50142462D01*
X121937862Y-49946800D01*
X122759518Y-49946800D01*
X122760601Y-49947531D01*
X122900400Y-49975567D01*
X123772400Y-49975567D01*
X123772400Y-50100433D01*
G36*
X124350400Y-61871919D02*
X123873200Y-61871919D01*
X123837292Y-61878886D01*
X123396950Y-61878886D01*
X123238200Y-62037636D01*
X123238200Y-62106795D01*
X123334873Y-62340184D01*
X123359256Y-62364567D01*
X123248036Y-62475787D01*
X122871237Y-62475787D01*
X122071135Y-61675686D01*
X123396950Y-61675686D01*
X123838459Y-61675686D01*
X123873200Y-61682653D01*
X124350400Y-61682653D01*
X124350400Y-61871919D01*
X124350400Y-61871919D01*
G37*
X124350400Y-61871919D02*
X123873200Y-61871919D01*
X123837292Y-61878886D01*
X123396950Y-61878886D01*
X123238200Y-62037636D01*
X123238200Y-62106795D01*
X123334873Y-62340184D01*
X123359256Y-62364567D01*
X123248036Y-62475787D01*
X122871237Y-62475787D01*
X122071135Y-61675686D01*
X123396950Y-61675686D01*
X123838459Y-61675686D01*
X123873200Y-61682653D01*
X124350400Y-61682653D01*
X124350400Y-61871919D01*
G36*
X124660600Y-63548286D02*
X124489150Y-63548286D01*
X124330400Y-63707036D01*
X124330400Y-64456286D01*
X124350400Y-64456286D01*
X124350400Y-64710286D01*
X124330400Y-64710286D01*
X124330400Y-64730286D01*
X124076400Y-64730286D01*
X124076400Y-64710286D01*
X124076400Y-64456286D01*
X124076400Y-63707036D01*
X123917650Y-63548286D01*
X123702090Y-63548286D01*
X123468701Y-63644959D01*
X123290073Y-63823588D01*
X123193400Y-64056977D01*
X123193400Y-64297536D01*
X123352150Y-64456286D01*
X124076400Y-64456286D01*
X124076400Y-64710286D01*
X123352150Y-64710286D01*
X123193400Y-64869036D01*
X123193400Y-65109595D01*
X123290073Y-65342984D01*
X123468701Y-65521613D01*
X123499908Y-65534539D01*
X123498594Y-65536486D01*
X121552257Y-65536486D01*
X121552257Y-63825796D01*
X121525949Y-63690207D01*
X121447667Y-63571037D01*
X121329489Y-63491265D01*
X121189690Y-63463229D01*
X119089110Y-63463229D01*
X118953521Y-63489537D01*
X118834351Y-63567819D01*
X118754579Y-63685997D01*
X118726543Y-63825796D01*
X118726543Y-69426496D01*
X118752851Y-69562085D01*
X118831133Y-69681255D01*
X118949311Y-69761027D01*
X119089110Y-69789063D01*
X120267212Y-69789063D01*
X120096504Y-69959474D01*
X119974439Y-70253438D01*
X119974161Y-70571738D01*
X119997278Y-70627686D01*
X119242132Y-70627686D01*
X119205199Y-70602755D01*
X119065400Y-70574719D01*
X118914812Y-70574719D01*
X118869400Y-70565686D01*
X116984158Y-70565686D01*
X116962377Y-70532527D01*
X116939000Y-70516747D01*
X116939000Y-70209772D01*
X117034159Y-70147263D01*
X117113931Y-70029085D01*
X117141967Y-69889286D01*
X117141967Y-69389286D01*
X117115659Y-69253697D01*
X117037377Y-69134527D01*
X116919199Y-69054755D01*
X116779400Y-69026719D01*
X115879400Y-69026719D01*
X115743811Y-69053027D01*
X115624641Y-69131309D01*
X115544869Y-69249487D01*
X115516833Y-69389286D01*
X115516833Y-69889286D01*
X115543141Y-70024875D01*
X115621423Y-70144045D01*
X115719800Y-70210451D01*
X115719800Y-70516066D01*
X115699641Y-70529309D01*
X115619869Y-70647487D01*
X115591833Y-70787286D01*
X115591833Y-71587286D01*
X115618141Y-71722875D01*
X115626596Y-71735747D01*
X115594701Y-71748959D01*
X115440400Y-71903260D01*
X115440400Y-47079054D01*
X115470423Y-47124759D01*
X115493800Y-47140538D01*
X115493800Y-50031187D01*
X115493800Y-52026286D01*
X115540203Y-52259570D01*
X115672348Y-52457338D01*
X117163608Y-53948599D01*
X117167600Y-53954572D01*
X117167600Y-58891246D01*
X117076504Y-58982184D01*
X116954439Y-59276148D01*
X116954161Y-59594448D01*
X117075713Y-59888624D01*
X117300588Y-60113892D01*
X117594552Y-60235957D01*
X117912852Y-60236235D01*
X118207028Y-60114683D01*
X118432296Y-59889808D01*
X118554361Y-59595844D01*
X118554639Y-59277544D01*
X118433087Y-58983368D01*
X118285200Y-58835222D01*
X118285200Y-54208086D01*
X118726543Y-54208086D01*
X118726543Y-59728776D01*
X118752851Y-59864365D01*
X118831133Y-59983535D01*
X118949311Y-60063307D01*
X119089110Y-60091343D01*
X121189690Y-60091343D01*
X121325279Y-60065035D01*
X121444449Y-59986753D01*
X121524221Y-59868575D01*
X121552257Y-59728776D01*
X121552257Y-59131545D01*
X122930699Y-60509988D01*
X122930702Y-60509990D01*
X122978797Y-60558086D01*
X116735800Y-60558086D01*
X116521956Y-60600622D01*
X116420042Y-60668719D01*
X116133400Y-60668719D01*
X115997811Y-60695027D01*
X115878641Y-60773309D01*
X115798869Y-60891487D01*
X115770833Y-61031286D01*
X115770833Y-61531286D01*
X115797141Y-61666875D01*
X115875423Y-61786045D01*
X115993601Y-61865817D01*
X116133400Y-61893853D01*
X116946571Y-61893853D01*
X116671705Y-62168719D01*
X116133400Y-62168719D01*
X115997811Y-62195027D01*
X115878641Y-62273309D01*
X115798869Y-62391487D01*
X115770833Y-62531286D01*
X115770833Y-63031286D01*
X115797141Y-63166875D01*
X115875423Y-63286045D01*
X115993601Y-63365817D01*
X116133400Y-63393853D01*
X116738223Y-63393853D01*
X115934269Y-64197808D01*
X115813136Y-64379095D01*
X115770600Y-64592939D01*
X115770600Y-67547829D01*
X115743811Y-67553027D01*
X115624641Y-67631309D01*
X115544869Y-67749487D01*
X115516833Y-67889286D01*
X115516833Y-68389286D01*
X115543141Y-68524875D01*
X115621423Y-68644045D01*
X115739601Y-68723817D01*
X115879400Y-68751853D01*
X116779400Y-68751853D01*
X116914989Y-68725545D01*
X117034159Y-68647263D01*
X117113931Y-68529085D01*
X117141967Y-68389286D01*
X117141967Y-67889286D01*
X117115659Y-67753697D01*
X117037377Y-67634527D01*
X116919199Y-67554755D01*
X116888200Y-67548538D01*
X116888200Y-64824401D01*
X117716570Y-63996031D01*
X117884852Y-63996178D01*
X118179028Y-63874626D01*
X118404296Y-63649751D01*
X118526361Y-63355787D01*
X118526639Y-63037487D01*
X118405087Y-62743311D01*
X118180212Y-62518043D01*
X117984268Y-62436679D01*
X118110252Y-62310696D01*
X121125622Y-62310696D01*
X122244644Y-63429718D01*
X122425931Y-63550851D01*
X122425932Y-63550851D01*
X122639775Y-63593387D01*
X123479499Y-63593387D01*
X123693342Y-63550851D01*
X123693343Y-63550851D01*
X123874630Y-63429718D01*
X124300895Y-63003453D01*
X124533600Y-63003453D01*
X124569507Y-62996486D01*
X124660600Y-62996486D01*
X124660600Y-63548286D01*
X124660600Y-63548286D01*
G37*
X124660600Y-63548286D02*
X124489150Y-63548286D01*
X124330400Y-63707036D01*
X124330400Y-64456286D01*
X124350400Y-64456286D01*
X124350400Y-64710286D01*
X124330400Y-64710286D01*
X124330400Y-64730286D01*
X124076400Y-64730286D01*
X124076400Y-64710286D01*
X124076400Y-64456286D01*
X124076400Y-63707036D01*
X123917650Y-63548286D01*
X123702090Y-63548286D01*
X123468701Y-63644959D01*
X123290073Y-63823588D01*
X123193400Y-64056977D01*
X123193400Y-64297536D01*
X123352150Y-64456286D01*
X124076400Y-64456286D01*
X124076400Y-64710286D01*
X123352150Y-64710286D01*
X123193400Y-64869036D01*
X123193400Y-65109595D01*
X123290073Y-65342984D01*
X123468701Y-65521613D01*
X123499908Y-65534539D01*
X123498594Y-65536486D01*
X121552257Y-65536486D01*
X121552257Y-63825796D01*
X121525949Y-63690207D01*
X121447667Y-63571037D01*
X121329489Y-63491265D01*
X121189690Y-63463229D01*
X119089110Y-63463229D01*
X118953521Y-63489537D01*
X118834351Y-63567819D01*
X118754579Y-63685997D01*
X118726543Y-63825796D01*
X118726543Y-69426496D01*
X118752851Y-69562085D01*
X118831133Y-69681255D01*
X118949311Y-69761027D01*
X119089110Y-69789063D01*
X120267212Y-69789063D01*
X120096504Y-69959474D01*
X119974439Y-70253438D01*
X119974161Y-70571738D01*
X119997278Y-70627686D01*
X119242132Y-70627686D01*
X119205199Y-70602755D01*
X119065400Y-70574719D01*
X118914812Y-70574719D01*
X118869400Y-70565686D01*
X116984158Y-70565686D01*
X116962377Y-70532527D01*
X116939000Y-70516747D01*
X116939000Y-70209772D01*
X117034159Y-70147263D01*
X117113931Y-70029085D01*
X117141967Y-69889286D01*
X117141967Y-69389286D01*
X117115659Y-69253697D01*
X117037377Y-69134527D01*
X116919199Y-69054755D01*
X116779400Y-69026719D01*
X115879400Y-69026719D01*
X115743811Y-69053027D01*
X115624641Y-69131309D01*
X115544869Y-69249487D01*
X115516833Y-69389286D01*
X115516833Y-69889286D01*
X115543141Y-70024875D01*
X115621423Y-70144045D01*
X115719800Y-70210451D01*
X115719800Y-70516066D01*
X115699641Y-70529309D01*
X115619869Y-70647487D01*
X115591833Y-70787286D01*
X115591833Y-71587286D01*
X115618141Y-71722875D01*
X115626596Y-71735747D01*
X115594701Y-71748959D01*
X115440400Y-71903260D01*
X115440400Y-47079054D01*
X115470423Y-47124759D01*
X115493800Y-47140538D01*
X115493800Y-50031187D01*
X115493800Y-52026286D01*
X115540203Y-52259570D01*
X115672348Y-52457338D01*
X117163608Y-53948599D01*
X117167600Y-53954572D01*
X117167600Y-58891246D01*
X117076504Y-58982184D01*
X116954439Y-59276148D01*
X116954161Y-59594448D01*
X117075713Y-59888624D01*
X117300588Y-60113892D01*
X117594552Y-60235957D01*
X117912852Y-60236235D01*
X118207028Y-60114683D01*
X118432296Y-59889808D01*
X118554361Y-59595844D01*
X118554639Y-59277544D01*
X118433087Y-58983368D01*
X118285200Y-58835222D01*
X118285200Y-54208086D01*
X118726543Y-54208086D01*
X118726543Y-59728776D01*
X118752851Y-59864365D01*
X118831133Y-59983535D01*
X118949311Y-60063307D01*
X119089110Y-60091343D01*
X121189690Y-60091343D01*
X121325279Y-60065035D01*
X121444449Y-59986753D01*
X121524221Y-59868575D01*
X121552257Y-59728776D01*
X121552257Y-59131545D01*
X122930699Y-60509988D01*
X122930702Y-60509990D01*
X122978797Y-60558086D01*
X116735800Y-60558086D01*
X116521956Y-60600622D01*
X116420042Y-60668719D01*
X116133400Y-60668719D01*
X115997811Y-60695027D01*
X115878641Y-60773309D01*
X115798869Y-60891487D01*
X115770833Y-61031286D01*
X115770833Y-61531286D01*
X115797141Y-61666875D01*
X115875423Y-61786045D01*
X115993601Y-61865817D01*
X116133400Y-61893853D01*
X116946571Y-61893853D01*
X116671705Y-62168719D01*
X116133400Y-62168719D01*
X115997811Y-62195027D01*
X115878641Y-62273309D01*
X115798869Y-62391487D01*
X115770833Y-62531286D01*
X115770833Y-63031286D01*
X115797141Y-63166875D01*
X115875423Y-63286045D01*
X115993601Y-63365817D01*
X116133400Y-63393853D01*
X116738223Y-63393853D01*
X115934269Y-64197808D01*
X115813136Y-64379095D01*
X115770600Y-64592939D01*
X115770600Y-67547829D01*
X115743811Y-67553027D01*
X115624641Y-67631309D01*
X115544869Y-67749487D01*
X115516833Y-67889286D01*
X115516833Y-68389286D01*
X115543141Y-68524875D01*
X115621423Y-68644045D01*
X115739601Y-68723817D01*
X115879400Y-68751853D01*
X116779400Y-68751853D01*
X116914989Y-68725545D01*
X117034159Y-68647263D01*
X117113931Y-68529085D01*
X117141967Y-68389286D01*
X117141967Y-67889286D01*
X117115659Y-67753697D01*
X117037377Y-67634527D01*
X116919199Y-67554755D01*
X116888200Y-67548538D01*
X116888200Y-64824401D01*
X117716570Y-63996031D01*
X117884852Y-63996178D01*
X118179028Y-63874626D01*
X118404296Y-63649751D01*
X118526361Y-63355787D01*
X118526639Y-63037487D01*
X118405087Y-62743311D01*
X118180212Y-62518043D01*
X117984268Y-62436679D01*
X118110252Y-62310696D01*
X121125622Y-62310696D01*
X122244644Y-63429718D01*
X122425931Y-63550851D01*
X122425932Y-63550851D01*
X122639775Y-63593387D01*
X123479499Y-63593387D01*
X123693342Y-63550851D01*
X123693343Y-63550851D01*
X123874630Y-63429718D01*
X124300895Y-63003453D01*
X124533600Y-63003453D01*
X124569507Y-62996486D01*
X124660600Y-62996486D01*
X124660600Y-63548286D01*
G36*
X125399800Y-50495513D02*
X125304641Y-50558023D01*
X125224869Y-50676201D01*
X125196833Y-50816000D01*
X125196833Y-51316000D01*
X125218796Y-51429200D01*
X124712967Y-51429200D01*
X124712967Y-51113000D01*
X124693243Y-51011348D01*
X124712967Y-50913000D01*
X124712967Y-50798458D01*
X124888727Y-50622699D01*
X124985400Y-50389310D01*
X124985400Y-50309250D01*
X124841152Y-50165002D01*
X124985400Y-50165002D01*
X124985400Y-50040902D01*
X125147550Y-50203052D01*
X125345318Y-50335197D01*
X125399800Y-50346034D01*
X125399800Y-50495513D01*
X125399800Y-50495513D01*
G37*
X125399800Y-50495513D02*
X125304641Y-50558023D01*
X125224869Y-50676201D01*
X125196833Y-50816000D01*
X125196833Y-51316000D01*
X125218796Y-51429200D01*
X124712967Y-51429200D01*
X124712967Y-51113000D01*
X124693243Y-51011348D01*
X124712967Y-50913000D01*
X124712967Y-50798458D01*
X124888727Y-50622699D01*
X124985400Y-50389310D01*
X124985400Y-50309250D01*
X124841152Y-50165002D01*
X124985400Y-50165002D01*
X124985400Y-50040902D01*
X125147550Y-50203052D01*
X125345318Y-50335197D01*
X125399800Y-50346034D01*
X125399800Y-50495513D01*
G36*
X126382400Y-57598286D02*
X126362400Y-57598286D01*
X126362400Y-57618286D01*
X126108400Y-57618286D01*
X126108400Y-57598286D01*
X125384150Y-57598286D01*
X125225400Y-57757036D01*
X125225400Y-57997595D01*
X125322073Y-58230984D01*
X125500701Y-58409613D01*
X125531908Y-58422539D01*
X125525869Y-58431487D01*
X125497833Y-58571286D01*
X125497833Y-59371286D01*
X125524141Y-59506875D01*
X125602423Y-59626045D01*
X125676600Y-59676115D01*
X125676600Y-59964847D01*
X125719136Y-60178691D01*
X125840269Y-60359978D01*
X126031410Y-60551119D01*
X125905200Y-60551119D01*
X125769611Y-60577427D01*
X125683053Y-60634286D01*
X125498800Y-60634286D01*
X125314117Y-60671022D01*
X125157550Y-60775636D01*
X124896167Y-61037019D01*
X124896167Y-60913686D01*
X124869859Y-60778097D01*
X124791577Y-60658927D01*
X124673399Y-60579155D01*
X124557060Y-60555823D01*
X124116092Y-60114856D01*
X124497095Y-59733853D01*
X124578400Y-59733853D01*
X124713989Y-59707545D01*
X124833159Y-59629263D01*
X124912931Y-59511085D01*
X124940967Y-59371286D01*
X124940967Y-58571286D01*
X124914659Y-58435697D01*
X124906203Y-58422824D01*
X124938099Y-58409613D01*
X125116727Y-58230984D01*
X125213400Y-57997595D01*
X125213400Y-57757036D01*
X125054650Y-57598286D01*
X124330400Y-57598286D01*
X124330400Y-57618286D01*
X124076400Y-57618286D01*
X124076400Y-57598286D01*
X123352150Y-57598286D01*
X123193400Y-57757036D01*
X123193400Y-57997595D01*
X123290073Y-58230984D01*
X123468701Y-58409613D01*
X123499908Y-58422539D01*
X123493869Y-58431487D01*
X123465833Y-58571286D01*
X123465833Y-59184590D01*
X123325830Y-59324593D01*
X121552257Y-57551020D01*
X121552257Y-55261119D01*
X122978417Y-56687279D01*
X123159704Y-56808412D01*
X123159705Y-56808412D01*
X123243096Y-56824999D01*
X123193400Y-56944977D01*
X123193400Y-57185536D01*
X123352150Y-57344286D01*
X124076400Y-57344286D01*
X124076400Y-57324286D01*
X124330400Y-57324286D01*
X124330400Y-57344286D01*
X125054650Y-57344286D01*
X125213400Y-57185536D01*
X125213400Y-56944977D01*
X125174451Y-56850948D01*
X125264348Y-56850948D01*
X125225400Y-56944977D01*
X125225400Y-57185536D01*
X125384150Y-57344286D01*
X126108400Y-57344286D01*
X126108400Y-57324286D01*
X126362400Y-57324286D01*
X126362400Y-57344286D01*
X126382400Y-57344286D01*
X126382400Y-57598286D01*
X126382400Y-57598286D01*
G37*
X126382400Y-57598286D02*
X126362400Y-57598286D01*
X126362400Y-57618286D01*
X126108400Y-57618286D01*
X126108400Y-57598286D01*
X125384150Y-57598286D01*
X125225400Y-57757036D01*
X125225400Y-57997595D01*
X125322073Y-58230984D01*
X125500701Y-58409613D01*
X125531908Y-58422539D01*
X125525869Y-58431487D01*
X125497833Y-58571286D01*
X125497833Y-59371286D01*
X125524141Y-59506875D01*
X125602423Y-59626045D01*
X125676600Y-59676115D01*
X125676600Y-59964847D01*
X125719136Y-60178691D01*
X125840269Y-60359978D01*
X126031410Y-60551119D01*
X125905200Y-60551119D01*
X125769611Y-60577427D01*
X125683053Y-60634286D01*
X125498800Y-60634286D01*
X125314117Y-60671022D01*
X125157550Y-60775636D01*
X124896167Y-61037019D01*
X124896167Y-60913686D01*
X124869859Y-60778097D01*
X124791577Y-60658927D01*
X124673399Y-60579155D01*
X124557060Y-60555823D01*
X124116092Y-60114856D01*
X124497095Y-59733853D01*
X124578400Y-59733853D01*
X124713989Y-59707545D01*
X124833159Y-59629263D01*
X124912931Y-59511085D01*
X124940967Y-59371286D01*
X124940967Y-58571286D01*
X124914659Y-58435697D01*
X124906203Y-58422824D01*
X124938099Y-58409613D01*
X125116727Y-58230984D01*
X125213400Y-57997595D01*
X125213400Y-57757036D01*
X125054650Y-57598286D01*
X124330400Y-57598286D01*
X124330400Y-57618286D01*
X124076400Y-57618286D01*
X124076400Y-57598286D01*
X123352150Y-57598286D01*
X123193400Y-57757036D01*
X123193400Y-57997595D01*
X123290073Y-58230984D01*
X123468701Y-58409613D01*
X123499908Y-58422539D01*
X123493869Y-58431487D01*
X123465833Y-58571286D01*
X123465833Y-59184590D01*
X123325830Y-59324593D01*
X121552257Y-57551020D01*
X121552257Y-55261119D01*
X122978417Y-56687279D01*
X123159704Y-56808412D01*
X123159705Y-56808412D01*
X123243096Y-56824999D01*
X123193400Y-56944977D01*
X123193400Y-57185536D01*
X123352150Y-57344286D01*
X124076400Y-57344286D01*
X124076400Y-57324286D01*
X124330400Y-57324286D01*
X124330400Y-57344286D01*
X125054650Y-57344286D01*
X125213400Y-57185536D01*
X125213400Y-56944977D01*
X125174451Y-56850948D01*
X125264348Y-56850948D01*
X125225400Y-56944977D01*
X125225400Y-57185536D01*
X125384150Y-57344286D01*
X126108400Y-57344286D01*
X126108400Y-57324286D01*
X126362400Y-57324286D01*
X126362400Y-57344286D01*
X126382400Y-57344286D01*
X126382400Y-57598286D01*
G36*
X128394400Y-71903260D02*
X128393192Y-71902052D01*
X128393192Y-30850543D01*
X128111308Y-30168334D01*
X127589812Y-29645926D01*
X126908095Y-29362853D01*
X126169943Y-29362208D01*
X125487734Y-29644092D01*
X124965326Y-30165588D01*
X124682253Y-30847305D01*
X124681608Y-31585457D01*
X124963492Y-32267666D01*
X125484988Y-32790074D01*
X126166705Y-33073147D01*
X126904857Y-33073792D01*
X127587066Y-32791908D01*
X128109474Y-32270412D01*
X128392547Y-31588695D01*
X128393192Y-30850543D01*
X128393192Y-71902052D01*
X128240099Y-71748959D01*
X128208891Y-71736032D01*
X128214931Y-71727085D01*
X128242967Y-71587286D01*
X128242967Y-70787286D01*
X128216659Y-70651697D01*
X128138377Y-70532527D01*
X128115000Y-70516747D01*
X128115000Y-70209772D01*
X128210159Y-70147263D01*
X128289931Y-70029085D01*
X128317967Y-69889286D01*
X128317967Y-69389286D01*
X128291659Y-69253697D01*
X128213377Y-69134527D01*
X128095199Y-69054755D01*
X127955400Y-69026719D01*
X127055400Y-69026719D01*
X126919811Y-69053027D01*
X126800641Y-69131309D01*
X126720869Y-69249487D01*
X126692833Y-69389286D01*
X126692833Y-69889286D01*
X126719141Y-70024875D01*
X126797423Y-70144045D01*
X126895800Y-70210451D01*
X126895800Y-70516066D01*
X126875641Y-70529309D01*
X126851085Y-70565686D01*
X125219400Y-70565686D01*
X124965400Y-70565686D01*
X124749589Y-70565686D01*
X124749639Y-70508834D01*
X124647188Y-70260886D01*
X124965400Y-70260886D01*
X125010812Y-70251853D01*
X125669400Y-70251853D01*
X125804989Y-70225545D01*
X125924159Y-70147263D01*
X126003931Y-70029085D01*
X126031967Y-69889286D01*
X126031967Y-69389286D01*
X126005659Y-69253697D01*
X125927377Y-69134527D01*
X125809199Y-69054755D01*
X125669400Y-69026719D01*
X124769400Y-69026719D01*
X124692261Y-69041686D01*
X122933400Y-69041686D01*
X122700116Y-69088089D01*
X122502348Y-69220234D01*
X121543385Y-70179196D01*
X121453087Y-69960658D01*
X121266846Y-69774092D01*
X121325279Y-69762755D01*
X121444449Y-69684473D01*
X121524221Y-69566295D01*
X121552257Y-69426496D01*
X121552257Y-66654086D01*
X123515270Y-66654086D01*
X123570423Y-66738045D01*
X123688601Y-66817817D01*
X123828400Y-66845853D01*
X124578400Y-66845853D01*
X124713989Y-66819545D01*
X124833159Y-66741263D01*
X124892004Y-66654086D01*
X124938114Y-66654086D01*
X125151957Y-66611550D01*
X125151958Y-66611550D01*
X125333245Y-66490417D01*
X125614531Y-66209132D01*
X125614531Y-66209131D01*
X125676600Y-66116239D01*
X125676600Y-67106537D01*
X125256418Y-67526719D01*
X124769400Y-67526719D01*
X124633811Y-67553027D01*
X124514641Y-67631309D01*
X124434869Y-67749487D01*
X124406833Y-67889286D01*
X124406833Y-68126114D01*
X124406600Y-68127286D01*
X124406833Y-68128457D01*
X124406833Y-68389286D01*
X124433141Y-68524875D01*
X124511423Y-68644045D01*
X124629601Y-68723817D01*
X124769400Y-68751853D01*
X125669400Y-68751853D01*
X125804989Y-68725545D01*
X125924159Y-68647263D01*
X126003931Y-68529085D01*
X126031967Y-68389286D01*
X126031967Y-68331695D01*
X126539850Y-67823811D01*
X126539851Y-67823811D01*
X126630269Y-67959131D01*
X126692833Y-68021695D01*
X126692833Y-68389286D01*
X126719141Y-68524875D01*
X126797423Y-68644045D01*
X126915601Y-68723817D01*
X127055400Y-68751853D01*
X127955400Y-68751853D01*
X128090989Y-68725545D01*
X128210159Y-68647263D01*
X128289931Y-68529085D01*
X128317967Y-68389286D01*
X128317967Y-67889286D01*
X128291659Y-67753697D01*
X128213377Y-67634527D01*
X128095199Y-67554755D01*
X127955400Y-67526719D01*
X127778381Y-67526719D01*
X127584200Y-67332537D01*
X127584200Y-61923238D01*
X127640674Y-61838720D01*
X127640674Y-61838719D01*
X127683209Y-61624876D01*
X127683210Y-61624876D01*
X127683210Y-60853857D01*
X127640674Y-60640014D01*
X127640674Y-60640013D01*
X127519541Y-60458726D01*
X126794200Y-59733385D01*
X126794200Y-59675875D01*
X126865159Y-59629263D01*
X126944931Y-59511085D01*
X126972967Y-59371286D01*
X126972967Y-59361823D01*
X127936452Y-58398338D01*
X128068597Y-58200570D01*
X128115000Y-57967286D01*
X128115000Y-56292148D01*
X128068597Y-56058864D01*
X127936452Y-55861096D01*
X127738684Y-55728951D01*
X127505400Y-55682548D01*
X127272116Y-55728951D01*
X127265535Y-55733348D01*
X127094400Y-55733348D01*
X127094400Y-54236309D01*
X127094400Y-54143750D01*
X126935650Y-53985000D01*
X126136400Y-53985000D01*
X126136400Y-54586250D01*
X126295150Y-54745000D01*
X126333091Y-54745000D01*
X126585710Y-54745000D01*
X126819099Y-54648327D01*
X126997727Y-54469698D01*
X127094400Y-54236309D01*
X127094400Y-55733348D01*
X126797230Y-55733348D01*
X126821967Y-55610000D01*
X126821967Y-55110000D01*
X126795659Y-54974411D01*
X126717377Y-54855241D01*
X126599199Y-54775469D01*
X126459400Y-54747433D01*
X125667095Y-54747433D01*
X125664662Y-54745000D01*
X125685709Y-54745000D01*
X125723650Y-54745000D01*
X125882400Y-54586250D01*
X125882400Y-53985000D01*
X125083150Y-53985000D01*
X124993906Y-54074244D01*
X124789967Y-53870305D01*
X124789967Y-53610000D01*
X124763659Y-53474411D01*
X124685377Y-53355241D01*
X124567199Y-53275469D01*
X124427400Y-53247433D01*
X124167095Y-53247433D01*
X123495229Y-52575567D01*
X124350400Y-52575567D01*
X124485989Y-52549259D01*
X124489732Y-52546800D01*
X125196833Y-52546800D01*
X125196833Y-52816000D01*
X125223141Y-52951589D01*
X125280137Y-53038355D01*
X125199701Y-53071673D01*
X125021073Y-53250302D01*
X124924400Y-53483691D01*
X124924400Y-53576250D01*
X125083150Y-53735000D01*
X125882400Y-53735000D01*
X125882400Y-53713000D01*
X126136400Y-53713000D01*
X126136400Y-53735000D01*
X126935650Y-53735000D01*
X127094400Y-53576250D01*
X127094400Y-53483691D01*
X126997727Y-53250302D01*
X126819099Y-53071673D01*
X126738304Y-53038206D01*
X126793931Y-52955799D01*
X126821967Y-52816000D01*
X126821967Y-52316000D01*
X126795659Y-52180411D01*
X126717377Y-52061241D01*
X126599199Y-51981469D01*
X126459400Y-51953433D01*
X126187095Y-51953433D01*
X125912229Y-51678567D01*
X126459400Y-51678567D01*
X126594989Y-51652259D01*
X126714159Y-51573977D01*
X126793931Y-51455799D01*
X126821967Y-51316000D01*
X126821967Y-50816000D01*
X126795659Y-50680411D01*
X126717377Y-50561241D01*
X126619000Y-50494834D01*
X126619000Y-50342486D01*
X126714159Y-50279977D01*
X126793931Y-50161799D01*
X126821967Y-50022000D01*
X126821967Y-49522000D01*
X126795659Y-49386411D01*
X126717377Y-49267241D01*
X126599199Y-49187469D01*
X126459400Y-49159433D01*
X125828139Y-49159433D01*
X125551736Y-48883030D01*
X125559400Y-48884567D01*
X126459400Y-48884567D01*
X126594989Y-48858259D01*
X126714159Y-48779977D01*
X126793931Y-48661799D01*
X126821967Y-48522000D01*
X126821967Y-48022000D01*
X126795659Y-47886411D01*
X126717377Y-47767241D01*
X126619000Y-47700834D01*
X126619000Y-47040486D01*
X126714159Y-46977977D01*
X126793931Y-46859799D01*
X126821967Y-46720000D01*
X126821967Y-46220000D01*
X126795659Y-46084411D01*
X126717377Y-45965241D01*
X126599199Y-45885469D01*
X126459400Y-45857433D01*
X125912229Y-45857433D01*
X126187095Y-45582567D01*
X126459400Y-45582567D01*
X126594989Y-45556259D01*
X126714159Y-45477977D01*
X126793931Y-45359799D01*
X126821967Y-45220000D01*
X126821967Y-44720000D01*
X126795659Y-44584411D01*
X126717377Y-44465241D01*
X126599199Y-44385469D01*
X126459400Y-44357433D01*
X125559400Y-44357433D01*
X125423811Y-44383741D01*
X125304641Y-44462023D01*
X125241400Y-44555711D01*
X125241400Y-44443691D01*
X125144727Y-44210302D01*
X124966099Y-44031673D01*
X124732710Y-43935000D01*
X124517150Y-43935000D01*
X124358400Y-44093750D01*
X124358400Y-44843000D01*
X124378400Y-44843000D01*
X124378400Y-45097000D01*
X124358400Y-45097000D01*
X124358400Y-45117000D01*
X124104400Y-45117000D01*
X124104400Y-45097000D01*
X124084400Y-45097000D01*
X124084400Y-44843000D01*
X124104400Y-44843000D01*
X124104400Y-44093750D01*
X123945650Y-43935000D01*
X123730090Y-43935000D01*
X123496701Y-44031673D01*
X123318073Y-44210302D01*
X123221400Y-44443691D01*
X123221400Y-44556615D01*
X123161377Y-44465241D01*
X123043199Y-44385469D01*
X123012200Y-44379252D01*
X123012200Y-42903462D01*
X123869664Y-42045997D01*
X124207514Y-42113200D01*
X124255286Y-42113200D01*
X124721854Y-42020394D01*
X125117391Y-41756105D01*
X125381680Y-41360568D01*
X125474486Y-40894000D01*
X125381680Y-40427432D01*
X125117391Y-40031895D01*
X124849056Y-39852600D01*
X125221309Y-39852600D01*
X125454698Y-39755927D01*
X125633327Y-39577299D01*
X125730000Y-39343910D01*
X125730000Y-39091291D01*
X125730000Y-38639750D01*
X125730000Y-38068250D01*
X125730000Y-37616709D01*
X125730000Y-37364090D01*
X125633327Y-37130701D01*
X125454698Y-36952073D01*
X125221309Y-36855400D01*
X124517150Y-36855400D01*
X124358400Y-37014150D01*
X124358400Y-38227000D01*
X125571250Y-38227000D01*
X125730000Y-38068250D01*
X125730000Y-38639750D01*
X125571250Y-38481000D01*
X124358400Y-38481000D01*
X124358400Y-38501000D01*
X124104400Y-38501000D01*
X124104400Y-38481000D01*
X124104400Y-38227000D01*
X124104400Y-37014150D01*
X123945650Y-36855400D01*
X123241491Y-36855400D01*
X123008102Y-36952073D01*
X122829473Y-37130701D01*
X122746871Y-37330119D01*
X122579890Y-37147179D01*
X122050427Y-36899032D01*
X121818400Y-37019531D01*
X121818400Y-38227000D01*
X122891550Y-38227000D01*
X123025217Y-38227000D01*
X124104400Y-38227000D01*
X124104400Y-38481000D01*
X123025217Y-38481000D01*
X122891550Y-38481000D01*
X121818400Y-38481000D01*
X121818400Y-39559531D01*
X121818400Y-39688469D01*
X121818400Y-40767000D01*
X121838400Y-40767000D01*
X121838400Y-41021000D01*
X121818400Y-41021000D01*
X121818400Y-42228469D01*
X122020484Y-42333417D01*
X121937136Y-42458156D01*
X121894600Y-42672000D01*
X121894600Y-44378543D01*
X121867811Y-44383741D01*
X121748641Y-44462023D01*
X121668869Y-44580201D01*
X121640833Y-44720000D01*
X121640833Y-45220000D01*
X121667141Y-45355589D01*
X121745423Y-45474759D01*
X121863601Y-45554531D01*
X122003400Y-45582567D01*
X122903400Y-45582567D01*
X123038989Y-45556259D01*
X123158159Y-45477977D01*
X123221400Y-45384288D01*
X123221400Y-45496309D01*
X123318073Y-45729698D01*
X123496701Y-45908327D01*
X123527908Y-45921253D01*
X123521869Y-45930201D01*
X123493833Y-46070000D01*
X123493833Y-46442305D01*
X123265967Y-46670171D01*
X123265967Y-46220000D01*
X123239659Y-46084411D01*
X123161377Y-45965241D01*
X123043199Y-45885469D01*
X122903400Y-45857433D01*
X122003400Y-45857433D01*
X121867811Y-45883741D01*
X121826009Y-45911200D01*
X121745400Y-45911200D01*
X121531557Y-45953735D01*
X121350269Y-46074868D01*
X120409704Y-47015432D01*
X120459361Y-46895848D01*
X120459639Y-46577548D01*
X120338087Y-46283372D01*
X120289650Y-46234850D01*
X120371359Y-46181177D01*
X120451131Y-46062999D01*
X120479167Y-45923200D01*
X120479167Y-45496337D01*
X120924937Y-45050567D01*
X121125400Y-45050567D01*
X121260989Y-45024259D01*
X121380159Y-44945977D01*
X121459931Y-44827799D01*
X121487967Y-44688000D01*
X121487967Y-44188000D01*
X121461659Y-44052411D01*
X121383377Y-43933241D01*
X121265199Y-43853469D01*
X121125400Y-43825433D01*
X120650071Y-43825433D01*
X120924937Y-43550567D01*
X121125400Y-43550567D01*
X121260989Y-43524259D01*
X121380159Y-43445977D01*
X121459931Y-43327799D01*
X121487967Y-43188000D01*
X121487967Y-42688000D01*
X121461659Y-42552411D01*
X121383377Y-42433241D01*
X121265199Y-42353469D01*
X121125400Y-42325433D01*
X120980200Y-42325433D01*
X120980200Y-42183912D01*
X121332373Y-42348968D01*
X121564400Y-42228469D01*
X121564400Y-41021000D01*
X121544400Y-41021000D01*
X121544400Y-40767000D01*
X121564400Y-40767000D01*
X121564400Y-39688469D01*
X121564400Y-39559531D01*
X121564400Y-38481000D01*
X121544400Y-38481000D01*
X121544400Y-38227000D01*
X121564400Y-38227000D01*
X121564400Y-37019531D01*
X121332373Y-36899032D01*
X120802910Y-37147179D01*
X120408712Y-37579053D01*
X120288904Y-37868311D01*
X120037391Y-37491895D01*
X119641854Y-37227606D01*
X119175286Y-37134800D01*
X119153192Y-37134800D01*
X119153192Y-30850543D01*
X118871308Y-30168334D01*
X118349812Y-29645926D01*
X117668095Y-29362853D01*
X116929943Y-29362208D01*
X116247734Y-29644092D01*
X115725326Y-30165588D01*
X115442253Y-30847305D01*
X115441608Y-31585457D01*
X115723492Y-32267666D01*
X116244988Y-32790074D01*
X116926705Y-33073147D01*
X117664857Y-33073792D01*
X118347066Y-32791908D01*
X118869474Y-32270412D01*
X119152547Y-31588695D01*
X119153192Y-30850543D01*
X119153192Y-37134800D01*
X119127514Y-37134800D01*
X118660946Y-37227606D01*
X118265409Y-37491895D01*
X118001120Y-37887432D01*
X117908314Y-38354000D01*
X118001120Y-38820568D01*
X118265409Y-39216105D01*
X118660946Y-39480394D01*
X119127514Y-39573200D01*
X119175286Y-39573200D01*
X119513135Y-39505997D01*
X119862600Y-39855462D01*
X119862600Y-39915103D01*
X119641854Y-39767606D01*
X119175286Y-39674800D01*
X119127514Y-39674800D01*
X118660946Y-39767606D01*
X118265409Y-40031895D01*
X118001120Y-40427432D01*
X117908314Y-40894000D01*
X118001120Y-41360568D01*
X118265409Y-41756105D01*
X118660946Y-42020394D01*
X119127514Y-42113200D01*
X119175286Y-42113200D01*
X119641854Y-42020394D01*
X119862600Y-41872896D01*
X119862600Y-42684000D01*
X119863115Y-42686591D01*
X119862833Y-42688000D01*
X119862833Y-42888463D01*
X118783896Y-43967400D01*
X118409815Y-43967400D01*
X118342577Y-43865041D01*
X118224399Y-43785269D01*
X118084600Y-43757233D01*
X117170200Y-43757233D01*
X117034611Y-43783541D01*
X116915441Y-43861823D01*
X116835669Y-43980001D01*
X116826287Y-44026780D01*
X116604710Y-43935000D01*
X116389150Y-43935000D01*
X116230400Y-44093750D01*
X116230400Y-44843000D01*
X116250400Y-44843000D01*
X116250400Y-45097000D01*
X116230400Y-45097000D01*
X116230400Y-45117000D01*
X115976400Y-45117000D01*
X115976400Y-45097000D01*
X115956400Y-45097000D01*
X115956400Y-44843000D01*
X115976400Y-44843000D01*
X115976400Y-44093750D01*
X115817650Y-43935000D01*
X115602090Y-43935000D01*
X115440400Y-44001974D01*
X115440400Y-28630886D01*
X128394400Y-28630886D01*
X128394400Y-71903260D01*
X128394400Y-71903260D01*
G37*
X128394400Y-71903260D02*
X128393192Y-71902052D01*
X128393192Y-30850543D01*
X128111308Y-30168334D01*
X127589812Y-29645926D01*
X126908095Y-29362853D01*
X126169943Y-29362208D01*
X125487734Y-29644092D01*
X124965326Y-30165588D01*
X124682253Y-30847305D01*
X124681608Y-31585457D01*
X124963492Y-32267666D01*
X125484988Y-32790074D01*
X126166705Y-33073147D01*
X126904857Y-33073792D01*
X127587066Y-32791908D01*
X128109474Y-32270412D01*
X128392547Y-31588695D01*
X128393192Y-30850543D01*
X128393192Y-71902052D01*
X128240099Y-71748959D01*
X128208891Y-71736032D01*
X128214931Y-71727085D01*
X128242967Y-71587286D01*
X128242967Y-70787286D01*
X128216659Y-70651697D01*
X128138377Y-70532527D01*
X128115000Y-70516747D01*
X128115000Y-70209772D01*
X128210159Y-70147263D01*
X128289931Y-70029085D01*
X128317967Y-69889286D01*
X128317967Y-69389286D01*
X128291659Y-69253697D01*
X128213377Y-69134527D01*
X128095199Y-69054755D01*
X127955400Y-69026719D01*
X127055400Y-69026719D01*
X126919811Y-69053027D01*
X126800641Y-69131309D01*
X126720869Y-69249487D01*
X126692833Y-69389286D01*
X126692833Y-69889286D01*
X126719141Y-70024875D01*
X126797423Y-70144045D01*
X126895800Y-70210451D01*
X126895800Y-70516066D01*
X126875641Y-70529309D01*
X126851085Y-70565686D01*
X125219400Y-70565686D01*
X124965400Y-70565686D01*
X124749589Y-70565686D01*
X124749639Y-70508834D01*
X124647188Y-70260886D01*
X124965400Y-70260886D01*
X125010812Y-70251853D01*
X125669400Y-70251853D01*
X125804989Y-70225545D01*
X125924159Y-70147263D01*
X126003931Y-70029085D01*
X126031967Y-69889286D01*
X126031967Y-69389286D01*
X126005659Y-69253697D01*
X125927377Y-69134527D01*
X125809199Y-69054755D01*
X125669400Y-69026719D01*
X124769400Y-69026719D01*
X124692261Y-69041686D01*
X122933400Y-69041686D01*
X122700116Y-69088089D01*
X122502348Y-69220234D01*
X121543385Y-70179196D01*
X121453087Y-69960658D01*
X121266846Y-69774092D01*
X121325279Y-69762755D01*
X121444449Y-69684473D01*
X121524221Y-69566295D01*
X121552257Y-69426496D01*
X121552257Y-66654086D01*
X123515270Y-66654086D01*
X123570423Y-66738045D01*
X123688601Y-66817817D01*
X123828400Y-66845853D01*
X124578400Y-66845853D01*
X124713989Y-66819545D01*
X124833159Y-66741263D01*
X124892004Y-66654086D01*
X124938114Y-66654086D01*
X125151957Y-66611550D01*
X125151958Y-66611550D01*
X125333245Y-66490417D01*
X125614531Y-66209132D01*
X125614531Y-66209131D01*
X125676600Y-66116239D01*
X125676600Y-67106537D01*
X125256418Y-67526719D01*
X124769400Y-67526719D01*
X124633811Y-67553027D01*
X124514641Y-67631309D01*
X124434869Y-67749487D01*
X124406833Y-67889286D01*
X124406833Y-68126114D01*
X124406600Y-68127286D01*
X124406833Y-68128457D01*
X124406833Y-68389286D01*
X124433141Y-68524875D01*
X124511423Y-68644045D01*
X124629601Y-68723817D01*
X124769400Y-68751853D01*
X125669400Y-68751853D01*
X125804989Y-68725545D01*
X125924159Y-68647263D01*
X126003931Y-68529085D01*
X126031967Y-68389286D01*
X126031967Y-68331695D01*
X126539850Y-67823811D01*
X126539851Y-67823811D01*
X126630269Y-67959131D01*
X126692833Y-68021695D01*
X126692833Y-68389286D01*
X126719141Y-68524875D01*
X126797423Y-68644045D01*
X126915601Y-68723817D01*
X127055400Y-68751853D01*
X127955400Y-68751853D01*
X128090989Y-68725545D01*
X128210159Y-68647263D01*
X128289931Y-68529085D01*
X128317967Y-68389286D01*
X128317967Y-67889286D01*
X128291659Y-67753697D01*
X128213377Y-67634527D01*
X128095199Y-67554755D01*
X127955400Y-67526719D01*
X127778381Y-67526719D01*
X127584200Y-67332537D01*
X127584200Y-61923238D01*
X127640674Y-61838720D01*
X127640674Y-61838719D01*
X127683209Y-61624876D01*
X127683210Y-61624876D01*
X127683210Y-60853857D01*
X127640674Y-60640014D01*
X127640674Y-60640013D01*
X127519541Y-60458726D01*
X126794200Y-59733385D01*
X126794200Y-59675875D01*
X126865159Y-59629263D01*
X126944931Y-59511085D01*
X126972967Y-59371286D01*
X126972967Y-59361823D01*
X127936452Y-58398338D01*
X128068597Y-58200570D01*
X128115000Y-57967286D01*
X128115000Y-56292148D01*
X128068597Y-56058864D01*
X127936452Y-55861096D01*
X127738684Y-55728951D01*
X127505400Y-55682548D01*
X127272116Y-55728951D01*
X127265535Y-55733348D01*
X127094400Y-55733348D01*
X127094400Y-54236309D01*
X127094400Y-54143750D01*
X126935650Y-53985000D01*
X126136400Y-53985000D01*
X126136400Y-54586250D01*
X126295150Y-54745000D01*
X126333091Y-54745000D01*
X126585710Y-54745000D01*
X126819099Y-54648327D01*
X126997727Y-54469698D01*
X127094400Y-54236309D01*
X127094400Y-55733348D01*
X126797230Y-55733348D01*
X126821967Y-55610000D01*
X126821967Y-55110000D01*
X126795659Y-54974411D01*
X126717377Y-54855241D01*
X126599199Y-54775469D01*
X126459400Y-54747433D01*
X125667095Y-54747433D01*
X125664662Y-54745000D01*
X125685709Y-54745000D01*
X125723650Y-54745000D01*
X125882400Y-54586250D01*
X125882400Y-53985000D01*
X125083150Y-53985000D01*
X124993906Y-54074244D01*
X124789967Y-53870305D01*
X124789967Y-53610000D01*
X124763659Y-53474411D01*
X124685377Y-53355241D01*
X124567199Y-53275469D01*
X124427400Y-53247433D01*
X124167095Y-53247433D01*
X123495229Y-52575567D01*
X124350400Y-52575567D01*
X124485989Y-52549259D01*
X124489732Y-52546800D01*
X125196833Y-52546800D01*
X125196833Y-52816000D01*
X125223141Y-52951589D01*
X125280137Y-53038355D01*
X125199701Y-53071673D01*
X125021073Y-53250302D01*
X124924400Y-53483691D01*
X124924400Y-53576250D01*
X125083150Y-53735000D01*
X125882400Y-53735000D01*
X125882400Y-53713000D01*
X126136400Y-53713000D01*
X126136400Y-53735000D01*
X126935650Y-53735000D01*
X127094400Y-53576250D01*
X127094400Y-53483691D01*
X126997727Y-53250302D01*
X126819099Y-53071673D01*
X126738304Y-53038206D01*
X126793931Y-52955799D01*
X126821967Y-52816000D01*
X126821967Y-52316000D01*
X126795659Y-52180411D01*
X126717377Y-52061241D01*
X126599199Y-51981469D01*
X126459400Y-51953433D01*
X126187095Y-51953433D01*
X125912229Y-51678567D01*
X126459400Y-51678567D01*
X126594989Y-51652259D01*
X126714159Y-51573977D01*
X126793931Y-51455799D01*
X126821967Y-51316000D01*
X126821967Y-50816000D01*
X126795659Y-50680411D01*
X126717377Y-50561241D01*
X126619000Y-50494834D01*
X126619000Y-50342486D01*
X126714159Y-50279977D01*
X126793931Y-50161799D01*
X126821967Y-50022000D01*
X126821967Y-49522000D01*
X126795659Y-49386411D01*
X126717377Y-49267241D01*
X126599199Y-49187469D01*
X126459400Y-49159433D01*
X125828139Y-49159433D01*
X125551736Y-48883030D01*
X125559400Y-48884567D01*
X126459400Y-48884567D01*
X126594989Y-48858259D01*
X126714159Y-48779977D01*
X126793931Y-48661799D01*
X126821967Y-48522000D01*
X126821967Y-48022000D01*
X126795659Y-47886411D01*
X126717377Y-47767241D01*
X126619000Y-47700834D01*
X126619000Y-47040486D01*
X126714159Y-46977977D01*
X126793931Y-46859799D01*
X126821967Y-46720000D01*
X126821967Y-46220000D01*
X126795659Y-46084411D01*
X126717377Y-45965241D01*
X126599199Y-45885469D01*
X126459400Y-45857433D01*
X125912229Y-45857433D01*
X126187095Y-45582567D01*
X126459400Y-45582567D01*
X126594989Y-45556259D01*
X126714159Y-45477977D01*
X126793931Y-45359799D01*
X126821967Y-45220000D01*
X126821967Y-44720000D01*
X126795659Y-44584411D01*
X126717377Y-44465241D01*
X126599199Y-44385469D01*
X126459400Y-44357433D01*
X125559400Y-44357433D01*
X125423811Y-44383741D01*
X125304641Y-44462023D01*
X125241400Y-44555711D01*
X125241400Y-44443691D01*
X125144727Y-44210302D01*
X124966099Y-44031673D01*
X124732710Y-43935000D01*
X124517150Y-43935000D01*
X124358400Y-44093750D01*
X124358400Y-44843000D01*
X124378400Y-44843000D01*
X124378400Y-45097000D01*
X124358400Y-45097000D01*
X124358400Y-45117000D01*
X124104400Y-45117000D01*
X124104400Y-45097000D01*
X124084400Y-45097000D01*
X124084400Y-44843000D01*
X124104400Y-44843000D01*
X124104400Y-44093750D01*
X123945650Y-43935000D01*
X123730090Y-43935000D01*
X123496701Y-44031673D01*
X123318073Y-44210302D01*
X123221400Y-44443691D01*
X123221400Y-44556615D01*
X123161377Y-44465241D01*
X123043199Y-44385469D01*
X123012200Y-44379252D01*
X123012200Y-42903462D01*
X123869664Y-42045997D01*
X124207514Y-42113200D01*
X124255286Y-42113200D01*
X124721854Y-42020394D01*
X125117391Y-41756105D01*
X125381680Y-41360568D01*
X125474486Y-40894000D01*
X125381680Y-40427432D01*
X125117391Y-40031895D01*
X124849056Y-39852600D01*
X125221309Y-39852600D01*
X125454698Y-39755927D01*
X125633327Y-39577299D01*
X125730000Y-39343910D01*
X125730000Y-39091291D01*
X125730000Y-38639750D01*
X125730000Y-38068250D01*
X125730000Y-37616709D01*
X125730000Y-37364090D01*
X125633327Y-37130701D01*
X125454698Y-36952073D01*
X125221309Y-36855400D01*
X124517150Y-36855400D01*
X124358400Y-37014150D01*
X124358400Y-38227000D01*
X125571250Y-38227000D01*
X125730000Y-38068250D01*
X125730000Y-38639750D01*
X125571250Y-38481000D01*
X124358400Y-38481000D01*
X124358400Y-38501000D01*
X124104400Y-38501000D01*
X124104400Y-38481000D01*
X124104400Y-38227000D01*
X124104400Y-37014150D01*
X123945650Y-36855400D01*
X123241491Y-36855400D01*
X123008102Y-36952073D01*
X122829473Y-37130701D01*
X122746871Y-37330119D01*
X122579890Y-37147179D01*
X122050427Y-36899032D01*
X121818400Y-37019531D01*
X121818400Y-38227000D01*
X122891550Y-38227000D01*
X123025217Y-38227000D01*
X124104400Y-38227000D01*
X124104400Y-38481000D01*
X123025217Y-38481000D01*
X122891550Y-38481000D01*
X121818400Y-38481000D01*
X121818400Y-39559531D01*
X121818400Y-39688469D01*
X121818400Y-40767000D01*
X121838400Y-40767000D01*
X121838400Y-41021000D01*
X121818400Y-41021000D01*
X121818400Y-42228469D01*
X122020484Y-42333417D01*
X121937136Y-42458156D01*
X121894600Y-42672000D01*
X121894600Y-44378543D01*
X121867811Y-44383741D01*
X121748641Y-44462023D01*
X121668869Y-44580201D01*
X121640833Y-44720000D01*
X121640833Y-45220000D01*
X121667141Y-45355589D01*
X121745423Y-45474759D01*
X121863601Y-45554531D01*
X122003400Y-45582567D01*
X122903400Y-45582567D01*
X123038989Y-45556259D01*
X123158159Y-45477977D01*
X123221400Y-45384288D01*
X123221400Y-45496309D01*
X123318073Y-45729698D01*
X123496701Y-45908327D01*
X123527908Y-45921253D01*
X123521869Y-45930201D01*
X123493833Y-46070000D01*
X123493833Y-46442305D01*
X123265967Y-46670171D01*
X123265967Y-46220000D01*
X123239659Y-46084411D01*
X123161377Y-45965241D01*
X123043199Y-45885469D01*
X122903400Y-45857433D01*
X122003400Y-45857433D01*
X121867811Y-45883741D01*
X121826009Y-45911200D01*
X121745400Y-45911200D01*
X121531557Y-45953735D01*
X121350269Y-46074868D01*
X120409704Y-47015432D01*
X120459361Y-46895848D01*
X120459639Y-46577548D01*
X120338087Y-46283372D01*
X120289650Y-46234850D01*
X120371359Y-46181177D01*
X120451131Y-46062999D01*
X120479167Y-45923200D01*
X120479167Y-45496337D01*
X120924937Y-45050567D01*
X121125400Y-45050567D01*
X121260989Y-45024259D01*
X121380159Y-44945977D01*
X121459931Y-44827799D01*
X121487967Y-44688000D01*
X121487967Y-44188000D01*
X121461659Y-44052411D01*
X121383377Y-43933241D01*
X121265199Y-43853469D01*
X121125400Y-43825433D01*
X120650071Y-43825433D01*
X120924937Y-43550567D01*
X121125400Y-43550567D01*
X121260989Y-43524259D01*
X121380159Y-43445977D01*
X121459931Y-43327799D01*
X121487967Y-43188000D01*
X121487967Y-42688000D01*
X121461659Y-42552411D01*
X121383377Y-42433241D01*
X121265199Y-42353469D01*
X121125400Y-42325433D01*
X120980200Y-42325433D01*
X120980200Y-42183912D01*
X121332373Y-42348968D01*
X121564400Y-42228469D01*
X121564400Y-41021000D01*
X121544400Y-41021000D01*
X121544400Y-40767000D01*
X121564400Y-40767000D01*
X121564400Y-39688469D01*
X121564400Y-39559531D01*
X121564400Y-38481000D01*
X121544400Y-38481000D01*
X121544400Y-38227000D01*
X121564400Y-38227000D01*
X121564400Y-37019531D01*
X121332373Y-36899032D01*
X120802910Y-37147179D01*
X120408712Y-37579053D01*
X120288904Y-37868311D01*
X120037391Y-37491895D01*
X119641854Y-37227606D01*
X119175286Y-37134800D01*
X119153192Y-37134800D01*
X119153192Y-30850543D01*
X118871308Y-30168334D01*
X118349812Y-29645926D01*
X117668095Y-29362853D01*
X116929943Y-29362208D01*
X116247734Y-29644092D01*
X115725326Y-30165588D01*
X115442253Y-30847305D01*
X115441608Y-31585457D01*
X115723492Y-32267666D01*
X116244988Y-32790074D01*
X116926705Y-33073147D01*
X117664857Y-33073792D01*
X118347066Y-32791908D01*
X118869474Y-32270412D01*
X119152547Y-31588695D01*
X119153192Y-30850543D01*
X119153192Y-37134800D01*
X119127514Y-37134800D01*
X118660946Y-37227606D01*
X118265409Y-37491895D01*
X118001120Y-37887432D01*
X117908314Y-38354000D01*
X118001120Y-38820568D01*
X118265409Y-39216105D01*
X118660946Y-39480394D01*
X119127514Y-39573200D01*
X119175286Y-39573200D01*
X119513135Y-39505997D01*
X119862600Y-39855462D01*
X119862600Y-39915103D01*
X119641854Y-39767606D01*
X119175286Y-39674800D01*
X119127514Y-39674800D01*
X118660946Y-39767606D01*
X118265409Y-40031895D01*
X118001120Y-40427432D01*
X117908314Y-40894000D01*
X118001120Y-41360568D01*
X118265409Y-41756105D01*
X118660946Y-42020394D01*
X119127514Y-42113200D01*
X119175286Y-42113200D01*
X119641854Y-42020394D01*
X119862600Y-41872896D01*
X119862600Y-42684000D01*
X119863115Y-42686591D01*
X119862833Y-42688000D01*
X119862833Y-42888463D01*
X118783896Y-43967400D01*
X118409815Y-43967400D01*
X118342577Y-43865041D01*
X118224399Y-43785269D01*
X118084600Y-43757233D01*
X117170200Y-43757233D01*
X117034611Y-43783541D01*
X116915441Y-43861823D01*
X116835669Y-43980001D01*
X116826287Y-44026780D01*
X116604710Y-43935000D01*
X116389150Y-43935000D01*
X116230400Y-44093750D01*
X116230400Y-44843000D01*
X116250400Y-44843000D01*
X116250400Y-45097000D01*
X116230400Y-45097000D01*
X116230400Y-45117000D01*
X115976400Y-45117000D01*
X115976400Y-45097000D01*
X115956400Y-45097000D01*
X115956400Y-44843000D01*
X115976400Y-44843000D01*
X115976400Y-44093750D01*
X115817650Y-43935000D01*
X115602090Y-43935000D01*
X115440400Y-44001974D01*
X115440400Y-28630886D01*
X128394400Y-28630886D01*
X128394400Y-71903260D01*
G36*
X128396998Y-132037993D02*
X127378400Y-133409182D01*
X127378400Y-73563536D01*
X127378400Y-72814286D01*
X126654150Y-72814286D01*
X126495400Y-72973036D01*
X126495400Y-73213595D01*
X126592073Y-73446984D01*
X126770701Y-73625613D01*
X127004090Y-73722286D01*
X127219650Y-73722286D01*
X127378400Y-73563536D01*
X127378400Y-133409182D01*
X126304400Y-134854951D01*
X126304400Y-73063595D01*
X126304400Y-72971036D01*
X126304400Y-72403536D01*
X126304400Y-72310977D01*
X126207727Y-72077588D01*
X126029099Y-71898959D01*
X125795710Y-71802286D01*
X125543091Y-71802286D01*
X125505150Y-71802286D01*
X125346400Y-71961036D01*
X125346400Y-72562286D01*
X126145650Y-72562286D01*
X126304400Y-72403536D01*
X126304400Y-72971036D01*
X126145650Y-72812286D01*
X125346400Y-72812286D01*
X125346400Y-73413536D01*
X125505150Y-73572286D01*
X125543091Y-73572286D01*
X125795710Y-73572286D01*
X126029099Y-73475613D01*
X126207727Y-73296984D01*
X126304400Y-73063595D01*
X126304400Y-134854951D01*
X121920000Y-140757029D01*
X117339400Y-134590836D01*
X117339400Y-73213595D01*
X117339400Y-72973036D01*
X117180650Y-72814286D01*
X116456400Y-72814286D01*
X116456400Y-73563536D01*
X116615150Y-73722286D01*
X116830710Y-73722286D01*
X117064099Y-73625613D01*
X117242727Y-73446984D01*
X117339400Y-73213595D01*
X117339400Y-134590836D01*
X115442998Y-132037987D01*
X115440400Y-83057997D01*
X115440400Y-73471311D01*
X115594701Y-73625613D01*
X115828090Y-73722286D01*
X116043650Y-73722286D01*
X116202400Y-73563536D01*
X116202400Y-72814286D01*
X116182400Y-72814286D01*
X116182400Y-72560286D01*
X116202400Y-72560286D01*
X116202400Y-72540286D01*
X116456400Y-72540286D01*
X116456400Y-72560286D01*
X117180650Y-72560286D01*
X117339400Y-72401536D01*
X117339400Y-72160977D01*
X117242727Y-71927588D01*
X117100025Y-71784886D01*
X118090768Y-71784886D01*
X118165400Y-71799853D01*
X118697173Y-71799853D01*
X118698116Y-71800483D01*
X118868968Y-71834467D01*
X118742400Y-71961036D01*
X118742400Y-72562286D01*
X119541650Y-72562286D01*
X119700400Y-72403536D01*
X119700400Y-72310977D01*
X119603727Y-72077588D01*
X119425099Y-71898959D01*
X119299383Y-71846886D01*
X120120667Y-71846886D01*
X120157601Y-71871817D01*
X120297400Y-71899853D01*
X120997400Y-71899853D01*
X121132989Y-71873545D01*
X121252159Y-71795263D01*
X121307800Y-71712833D01*
X121307800Y-72027686D01*
X121174132Y-72027686D01*
X121137199Y-72002755D01*
X120997400Y-71974719D01*
X120297400Y-71974719D01*
X120161811Y-72001027D01*
X120042641Y-72079309D01*
X119962869Y-72197487D01*
X119934833Y-72337286D01*
X119934833Y-72937286D01*
X119961141Y-73072875D01*
X120039423Y-73192045D01*
X120157601Y-73271817D01*
X120297400Y-73299853D01*
X120997400Y-73299853D01*
X121132989Y-73273545D01*
X121173572Y-73246886D01*
X121307800Y-73246886D01*
X121307800Y-83981000D01*
X119700400Y-83981000D01*
X119700400Y-73063595D01*
X119700400Y-72971036D01*
X119541650Y-72812286D01*
X118742400Y-72812286D01*
X118742400Y-73413536D01*
X118901150Y-73572286D01*
X118939091Y-73572286D01*
X119191710Y-73572286D01*
X119425099Y-73475613D01*
X119603727Y-73296984D01*
X119700400Y-73063595D01*
X119700400Y-83981000D01*
X118488400Y-83981000D01*
X118488400Y-73413536D01*
X118488400Y-72812286D01*
X118488400Y-72562286D01*
X118488400Y-71961036D01*
X118329650Y-71802286D01*
X118291709Y-71802286D01*
X118039090Y-71802286D01*
X117805701Y-71898959D01*
X117627073Y-72077588D01*
X117530400Y-72310977D01*
X117530400Y-72403536D01*
X117689150Y-72562286D01*
X118488400Y-72562286D01*
X118488400Y-72812286D01*
X117689150Y-72812286D01*
X117530400Y-72971036D01*
X117530400Y-73063595D01*
X117627073Y-73296984D01*
X117805701Y-73475613D01*
X118039090Y-73572286D01*
X118291709Y-73572286D01*
X118329650Y-73572286D01*
X118488400Y-73413536D01*
X118488400Y-83981000D01*
X117770400Y-83981000D01*
X117770400Y-132146453D01*
X119829432Y-135235000D01*
X123965368Y-135235000D01*
X126024400Y-132146453D01*
X126024400Y-83981000D01*
X125092400Y-83981000D01*
X125092400Y-73413536D01*
X125092400Y-72812286D01*
X124293150Y-72812286D01*
X124134400Y-72971036D01*
X124134400Y-73063595D01*
X124231073Y-73296984D01*
X124409701Y-73475613D01*
X124643090Y-73572286D01*
X124895709Y-73572286D01*
X124933650Y-73572286D01*
X125092400Y-73413536D01*
X125092400Y-83981000D01*
X122527000Y-83981000D01*
X122527000Y-73246886D01*
X122660667Y-73246886D01*
X122697601Y-73271817D01*
X122837400Y-73299853D01*
X123537400Y-73299853D01*
X123672989Y-73273545D01*
X123792159Y-73195263D01*
X123871931Y-73077085D01*
X123899967Y-72937286D01*
X123899967Y-72337286D01*
X123873659Y-72201697D01*
X123795377Y-72082527D01*
X123677199Y-72002755D01*
X123537400Y-71974719D01*
X122837400Y-71974719D01*
X122701811Y-72001027D01*
X122661227Y-72027686D01*
X122527000Y-72027686D01*
X122527000Y-71712240D01*
X122579423Y-71792045D01*
X122697601Y-71871817D01*
X122837400Y-71899853D01*
X123537400Y-71899853D01*
X123672989Y-71873545D01*
X123713572Y-71846886D01*
X124535416Y-71846886D01*
X124409701Y-71898959D01*
X124231073Y-72077588D01*
X124134400Y-72310977D01*
X124134400Y-72403536D01*
X124293150Y-72562286D01*
X125092400Y-72562286D01*
X125092400Y-71961036D01*
X124965831Y-71834467D01*
X125136684Y-71800483D01*
X125137626Y-71799853D01*
X125669400Y-71799853D01*
X125746538Y-71784886D01*
X126734774Y-71784886D01*
X126592073Y-71927588D01*
X126495400Y-72160977D01*
X126495400Y-72401536D01*
X126654150Y-72560286D01*
X127378400Y-72560286D01*
X127378400Y-72540286D01*
X127632400Y-72540286D01*
X127632400Y-72560286D01*
X127652400Y-72560286D01*
X127652400Y-72814286D01*
X127632400Y-72814286D01*
X127632400Y-73563536D01*
X127791150Y-73722286D01*
X128006710Y-73722286D01*
X128240099Y-73625613D01*
X128394400Y-73471311D01*
X128394400Y-82804000D01*
X128394400Y-83058003D01*
X128396998Y-132037993D01*
X128396998Y-132037993D01*
G37*
X128396998Y-132037993D02*
X127378400Y-133409182D01*
X127378400Y-73563536D01*
X127378400Y-72814286D01*
X126654150Y-72814286D01*
X126495400Y-72973036D01*
X126495400Y-73213595D01*
X126592073Y-73446984D01*
X126770701Y-73625613D01*
X127004090Y-73722286D01*
X127219650Y-73722286D01*
X127378400Y-73563536D01*
X127378400Y-133409182D01*
X126304400Y-134854951D01*
X126304400Y-73063595D01*
X126304400Y-72971036D01*
X126304400Y-72403536D01*
X126304400Y-72310977D01*
X126207727Y-72077588D01*
X126029099Y-71898959D01*
X125795710Y-71802286D01*
X125543091Y-71802286D01*
X125505150Y-71802286D01*
X125346400Y-71961036D01*
X125346400Y-72562286D01*
X126145650Y-72562286D01*
X126304400Y-72403536D01*
X126304400Y-72971036D01*
X126145650Y-72812286D01*
X125346400Y-72812286D01*
X125346400Y-73413536D01*
X125505150Y-73572286D01*
X125543091Y-73572286D01*
X125795710Y-73572286D01*
X126029099Y-73475613D01*
X126207727Y-73296984D01*
X126304400Y-73063595D01*
X126304400Y-134854951D01*
X121920000Y-140757029D01*
X117339400Y-134590836D01*
X117339400Y-73213595D01*
X117339400Y-72973036D01*
X117180650Y-72814286D01*
X116456400Y-72814286D01*
X116456400Y-73563536D01*
X116615150Y-73722286D01*
X116830710Y-73722286D01*
X117064099Y-73625613D01*
X117242727Y-73446984D01*
X117339400Y-73213595D01*
X117339400Y-134590836D01*
X115442998Y-132037987D01*
X115440400Y-83057997D01*
X115440400Y-73471311D01*
X115594701Y-73625613D01*
X115828090Y-73722286D01*
X116043650Y-73722286D01*
X116202400Y-73563536D01*
X116202400Y-72814286D01*
X116182400Y-72814286D01*
X116182400Y-72560286D01*
X116202400Y-72560286D01*
X116202400Y-72540286D01*
X116456400Y-72540286D01*
X116456400Y-72560286D01*
X117180650Y-72560286D01*
X117339400Y-72401536D01*
X117339400Y-72160977D01*
X117242727Y-71927588D01*
X117100025Y-71784886D01*
X118090768Y-71784886D01*
X118165400Y-71799853D01*
X118697173Y-71799853D01*
X118698116Y-71800483D01*
X118868968Y-71834467D01*
X118742400Y-71961036D01*
X118742400Y-72562286D01*
X119541650Y-72562286D01*
X119700400Y-72403536D01*
X119700400Y-72310977D01*
X119603727Y-72077588D01*
X119425099Y-71898959D01*
X119299383Y-71846886D01*
X120120667Y-71846886D01*
X120157601Y-71871817D01*
X120297400Y-71899853D01*
X120997400Y-71899853D01*
X121132989Y-71873545D01*
X121252159Y-71795263D01*
X121307800Y-71712833D01*
X121307800Y-72027686D01*
X121174132Y-72027686D01*
X121137199Y-72002755D01*
X120997400Y-71974719D01*
X120297400Y-71974719D01*
X120161811Y-72001027D01*
X120042641Y-72079309D01*
X119962869Y-72197487D01*
X119934833Y-72337286D01*
X119934833Y-72937286D01*
X119961141Y-73072875D01*
X120039423Y-73192045D01*
X120157601Y-73271817D01*
X120297400Y-73299853D01*
X120997400Y-73299853D01*
X121132989Y-73273545D01*
X121173572Y-73246886D01*
X121307800Y-73246886D01*
X121307800Y-83981000D01*
X119700400Y-83981000D01*
X119700400Y-73063595D01*
X119700400Y-72971036D01*
X119541650Y-72812286D01*
X118742400Y-72812286D01*
X118742400Y-73413536D01*
X118901150Y-73572286D01*
X118939091Y-73572286D01*
X119191710Y-73572286D01*
X119425099Y-73475613D01*
X119603727Y-73296984D01*
X119700400Y-73063595D01*
X119700400Y-83981000D01*
X118488400Y-83981000D01*
X118488400Y-73413536D01*
X118488400Y-72812286D01*
X118488400Y-72562286D01*
X118488400Y-71961036D01*
X118329650Y-71802286D01*
X118291709Y-71802286D01*
X118039090Y-71802286D01*
X117805701Y-71898959D01*
X117627073Y-72077588D01*
X117530400Y-72310977D01*
X117530400Y-72403536D01*
X117689150Y-72562286D01*
X118488400Y-72562286D01*
X118488400Y-72812286D01*
X117689150Y-72812286D01*
X117530400Y-72971036D01*
X117530400Y-73063595D01*
X117627073Y-73296984D01*
X117805701Y-73475613D01*
X118039090Y-73572286D01*
X118291709Y-73572286D01*
X118329650Y-73572286D01*
X118488400Y-73413536D01*
X118488400Y-83981000D01*
X117770400Y-83981000D01*
X117770400Y-132146453D01*
X119829432Y-135235000D01*
X123965368Y-135235000D01*
X126024400Y-132146453D01*
X126024400Y-83981000D01*
X125092400Y-83981000D01*
X125092400Y-73413536D01*
X125092400Y-72812286D01*
X124293150Y-72812286D01*
X124134400Y-72971036D01*
X124134400Y-73063595D01*
X124231073Y-73296984D01*
X124409701Y-73475613D01*
X124643090Y-73572286D01*
X124895709Y-73572286D01*
X124933650Y-73572286D01*
X125092400Y-73413536D01*
X125092400Y-83981000D01*
X122527000Y-83981000D01*
X122527000Y-73246886D01*
X122660667Y-73246886D01*
X122697601Y-73271817D01*
X122837400Y-73299853D01*
X123537400Y-73299853D01*
X123672989Y-73273545D01*
X123792159Y-73195263D01*
X123871931Y-73077085D01*
X123899967Y-72937286D01*
X123899967Y-72337286D01*
X123873659Y-72201697D01*
X123795377Y-72082527D01*
X123677199Y-72002755D01*
X123537400Y-71974719D01*
X122837400Y-71974719D01*
X122701811Y-72001027D01*
X122661227Y-72027686D01*
X122527000Y-72027686D01*
X122527000Y-71712240D01*
X122579423Y-71792045D01*
X122697601Y-71871817D01*
X122837400Y-71899853D01*
X123537400Y-71899853D01*
X123672989Y-71873545D01*
X123713572Y-71846886D01*
X124535416Y-71846886D01*
X124409701Y-71898959D01*
X124231073Y-72077588D01*
X124134400Y-72310977D01*
X124134400Y-72403536D01*
X124293150Y-72562286D01*
X125092400Y-72562286D01*
X125092400Y-71961036D01*
X124965831Y-71834467D01*
X125136684Y-71800483D01*
X125137626Y-71799853D01*
X125669400Y-71799853D01*
X125746538Y-71784886D01*
X126734774Y-71784886D01*
X126592073Y-71927588D01*
X126495400Y-72160977D01*
X126495400Y-72401536D01*
X126654150Y-72560286D01*
X127378400Y-72560286D01*
X127378400Y-72540286D01*
X127632400Y-72540286D01*
X127632400Y-72560286D01*
X127652400Y-72560286D01*
X127652400Y-72814286D01*
X127632400Y-72814286D01*
X127632400Y-73563536D01*
X127791150Y-73722286D01*
X128006710Y-73722286D01*
X128240099Y-73625613D01*
X128394400Y-73471311D01*
X128394400Y-82804000D01*
X128394400Y-83058003D01*
X128396998Y-132037993D01*
M02*
