G04 #@! TF.FileFunction,Legend,Bot*
%FSLAX46Y46*%
G04 Gerber Fmt 4.6, Leading zero omitted, Abs format (unit mm)*
G04 Created by KiCad (PCBNEW (2015-02-15 BZR 5420)-product) date Tue 17 Feb 2015 11:56:18 AM EET*
%MOMM*%
G01*
G04 APERTURE LIST*
%ADD10C,0.100000*%
%ADD11C,0.300000*%
G04 APERTURE END LIST*
D10*
D11*
X83900000Y-70178571D02*
X83900000Y-69464285D01*
X83471429Y-70321428D02*
X84971429Y-69821428D01*
X83471429Y-69321428D01*
X84471429Y-68821428D02*
X83471429Y-68821428D01*
X84328571Y-68821428D02*
X84400000Y-68750000D01*
X84471429Y-68607142D01*
X84471429Y-68392857D01*
X84400000Y-68250000D01*
X84257143Y-68178571D01*
X83471429Y-68178571D01*
X83471429Y-66821428D02*
X84257143Y-66821428D01*
X84400000Y-66892857D01*
X84471429Y-67035714D01*
X84471429Y-67321428D01*
X84400000Y-67464285D01*
X83542857Y-66821428D02*
X83471429Y-66964285D01*
X83471429Y-67321428D01*
X83542857Y-67464285D01*
X83685714Y-67535714D01*
X83828571Y-67535714D01*
X83971429Y-67464285D01*
X84042857Y-67321428D01*
X84042857Y-66964285D01*
X84114286Y-66821428D01*
X83471429Y-65892856D02*
X83542857Y-66035714D01*
X83685714Y-66107142D01*
X84971429Y-66107142D01*
X83471429Y-65107142D02*
X83542857Y-65250000D01*
X83614286Y-65321428D01*
X83757143Y-65392857D01*
X84185714Y-65392857D01*
X84328571Y-65321428D01*
X84400000Y-65250000D01*
X84471429Y-65107142D01*
X84471429Y-64892857D01*
X84400000Y-64750000D01*
X84328571Y-64678571D01*
X84185714Y-64607142D01*
X83757143Y-64607142D01*
X83614286Y-64678571D01*
X83542857Y-64750000D01*
X83471429Y-64892857D01*
X83471429Y-65107142D01*
X84471429Y-63321428D02*
X83257143Y-63321428D01*
X83114286Y-63392857D01*
X83042857Y-63464285D01*
X82971429Y-63607142D01*
X82971429Y-63821428D01*
X83042857Y-63964285D01*
X83542857Y-63321428D02*
X83471429Y-63464285D01*
X83471429Y-63749999D01*
X83542857Y-63892857D01*
X83614286Y-63964285D01*
X83757143Y-64035714D01*
X84185714Y-64035714D01*
X84328571Y-63964285D01*
X84400000Y-63892857D01*
X84471429Y-63749999D01*
X84471429Y-63464285D01*
X84400000Y-63321428D01*
X83542857Y-61535714D02*
X83471429Y-61392857D01*
X83471429Y-61107142D01*
X83542857Y-60964285D01*
X83685714Y-60892857D01*
X83757143Y-60892857D01*
X83900000Y-60964285D01*
X83971429Y-61107142D01*
X83971429Y-61321428D01*
X84042857Y-61464285D01*
X84185714Y-61535714D01*
X84257143Y-61535714D01*
X84400000Y-61464285D01*
X84471429Y-61321428D01*
X84471429Y-61107142D01*
X84400000Y-60964285D01*
X83471429Y-60035713D02*
X83542857Y-60178571D01*
X83614286Y-60249999D01*
X83757143Y-60321428D01*
X84185714Y-60321428D01*
X84328571Y-60249999D01*
X84400000Y-60178571D01*
X84471429Y-60035713D01*
X84471429Y-59821428D01*
X84400000Y-59678571D01*
X84328571Y-59607142D01*
X84185714Y-59535713D01*
X83757143Y-59535713D01*
X83614286Y-59607142D01*
X83542857Y-59678571D01*
X83471429Y-59821428D01*
X83471429Y-60035713D01*
X83471429Y-58892856D02*
X84471429Y-58892856D01*
X84971429Y-58892856D02*
X84900000Y-58964285D01*
X84828571Y-58892856D01*
X84900000Y-58821428D01*
X84971429Y-58892856D01*
X84828571Y-58892856D01*
X83471429Y-57964284D02*
X83542857Y-58107142D01*
X83685714Y-58178570D01*
X84971429Y-58178570D01*
X83471429Y-56249999D02*
X84471429Y-56249999D01*
X84328571Y-56249999D02*
X84400000Y-56178571D01*
X84471429Y-56035713D01*
X84471429Y-55821428D01*
X84400000Y-55678571D01*
X84257143Y-55607142D01*
X83471429Y-55607142D01*
X84257143Y-55607142D02*
X84400000Y-55535713D01*
X84471429Y-55392856D01*
X84471429Y-55178571D01*
X84400000Y-55035713D01*
X84257143Y-54964285D01*
X83471429Y-54964285D01*
X83471429Y-54035713D02*
X83542857Y-54178571D01*
X83614286Y-54249999D01*
X83757143Y-54321428D01*
X84185714Y-54321428D01*
X84328571Y-54249999D01*
X84400000Y-54178571D01*
X84471429Y-54035713D01*
X84471429Y-53821428D01*
X84400000Y-53678571D01*
X84328571Y-53607142D01*
X84185714Y-53535713D01*
X83757143Y-53535713D01*
X83614286Y-53607142D01*
X83542857Y-53678571D01*
X83471429Y-53821428D01*
X83471429Y-54035713D01*
X83471429Y-52892856D02*
X84471429Y-52892856D01*
X84971429Y-52892856D02*
X84900000Y-52964285D01*
X84828571Y-52892856D01*
X84900000Y-52821428D01*
X84971429Y-52892856D01*
X84828571Y-52892856D01*
X83542857Y-52249999D02*
X83471429Y-52107142D01*
X83471429Y-51821427D01*
X83542857Y-51678570D01*
X83685714Y-51607142D01*
X83757143Y-51607142D01*
X83900000Y-51678570D01*
X83971429Y-51821427D01*
X83971429Y-52035713D01*
X84042857Y-52178570D01*
X84185714Y-52249999D01*
X84257143Y-52249999D01*
X84400000Y-52178570D01*
X84471429Y-52035713D01*
X84471429Y-51821427D01*
X84400000Y-51678570D01*
X84471429Y-51178570D02*
X84471429Y-50607141D01*
X84971429Y-50964284D02*
X83685714Y-50964284D01*
X83542857Y-50892856D01*
X83471429Y-50749998D01*
X83471429Y-50607141D01*
X84471429Y-49464284D02*
X83471429Y-49464284D01*
X84471429Y-50107141D02*
X83685714Y-50107141D01*
X83542857Y-50035713D01*
X83471429Y-49892855D01*
X83471429Y-49678570D01*
X83542857Y-49535713D01*
X83614286Y-49464284D01*
X83471429Y-48749998D02*
X84471429Y-48749998D01*
X84185714Y-48749998D02*
X84328571Y-48678570D01*
X84400000Y-48607141D01*
X84471429Y-48464284D01*
X84471429Y-48321427D01*
X83542857Y-47249999D02*
X83471429Y-47392856D01*
X83471429Y-47678570D01*
X83542857Y-47821427D01*
X83685714Y-47892856D01*
X84257143Y-47892856D01*
X84400000Y-47821427D01*
X84471429Y-47678570D01*
X84471429Y-47392856D01*
X84400000Y-47249999D01*
X84257143Y-47178570D01*
X84114286Y-47178570D01*
X83971429Y-47892856D01*
X83542857Y-45464285D02*
X83471429Y-45321428D01*
X83471429Y-45035713D01*
X83542857Y-44892856D01*
X83685714Y-44821428D01*
X83757143Y-44821428D01*
X83900000Y-44892856D01*
X83971429Y-45035713D01*
X83971429Y-45249999D01*
X84042857Y-45392856D01*
X84185714Y-45464285D01*
X84257143Y-45464285D01*
X84400000Y-45392856D01*
X84471429Y-45249999D01*
X84471429Y-45035713D01*
X84400000Y-44892856D01*
X83542857Y-43607142D02*
X83471429Y-43749999D01*
X83471429Y-44035713D01*
X83542857Y-44178570D01*
X83685714Y-44249999D01*
X84257143Y-44249999D01*
X84400000Y-44178570D01*
X84471429Y-44035713D01*
X84471429Y-43749999D01*
X84400000Y-43607142D01*
X84257143Y-43535713D01*
X84114286Y-43535713D01*
X83971429Y-44249999D01*
X84471429Y-42892856D02*
X83471429Y-42892856D01*
X84328571Y-42892856D02*
X84400000Y-42821428D01*
X84471429Y-42678570D01*
X84471429Y-42464285D01*
X84400000Y-42321428D01*
X84257143Y-42249999D01*
X83471429Y-42249999D01*
X83542857Y-41607142D02*
X83471429Y-41464285D01*
X83471429Y-41178570D01*
X83542857Y-41035713D01*
X83685714Y-40964285D01*
X83757143Y-40964285D01*
X83900000Y-41035713D01*
X83971429Y-41178570D01*
X83971429Y-41392856D01*
X84042857Y-41535713D01*
X84185714Y-41607142D01*
X84257143Y-41607142D01*
X84400000Y-41535713D01*
X84471429Y-41392856D01*
X84471429Y-41178570D01*
X84400000Y-41035713D01*
X83471429Y-40107141D02*
X83542857Y-40249999D01*
X83614286Y-40321427D01*
X83757143Y-40392856D01*
X84185714Y-40392856D01*
X84328571Y-40321427D01*
X84400000Y-40249999D01*
X84471429Y-40107141D01*
X84471429Y-39892856D01*
X84400000Y-39749999D01*
X84328571Y-39678570D01*
X84185714Y-39607141D01*
X83757143Y-39607141D01*
X83614286Y-39678570D01*
X83542857Y-39749999D01*
X83471429Y-39892856D01*
X83471429Y-40107141D01*
X83471429Y-38964284D02*
X84471429Y-38964284D01*
X84185714Y-38964284D02*
X84328571Y-38892856D01*
X84400000Y-38821427D01*
X84471429Y-38678570D01*
X84471429Y-38535713D01*
X84471429Y-37035713D02*
X83471429Y-36678570D01*
X84471429Y-36321428D01*
X84971429Y-35892856D02*
X84971429Y-34964285D01*
X84400000Y-35464285D01*
X84400000Y-35249999D01*
X84328571Y-35107142D01*
X84257143Y-35035713D01*
X84114286Y-34964285D01*
X83757143Y-34964285D01*
X83614286Y-35035713D01*
X83542857Y-35107142D01*
X83471429Y-35249999D01*
X83471429Y-35678571D01*
X83542857Y-35821428D01*
X83614286Y-35892856D01*
X83614286Y-34321428D02*
X83542857Y-34250000D01*
X83471429Y-34321428D01*
X83542857Y-34392857D01*
X83614286Y-34321428D01*
X83471429Y-34321428D01*
X84971429Y-33321428D02*
X84971429Y-33178571D01*
X84900000Y-33035714D01*
X84828571Y-32964285D01*
X84685714Y-32892856D01*
X84400000Y-32821428D01*
X84042857Y-32821428D01*
X83757143Y-32892856D01*
X83614286Y-32964285D01*
X83542857Y-33035714D01*
X83471429Y-33178571D01*
X83471429Y-33321428D01*
X83542857Y-33464285D01*
X83614286Y-33535714D01*
X83757143Y-33607142D01*
X84042857Y-33678571D01*
X84400000Y-33678571D01*
X84685714Y-33607142D01*
X84828571Y-33535714D01*
X84900000Y-33464285D01*
X84971429Y-33321428D01*
X81500000Y-61392857D02*
X81500000Y-60678571D01*
X81071429Y-61535714D02*
X82571429Y-61035714D01*
X81071429Y-60535714D01*
X81071429Y-59821428D02*
X81142857Y-59964286D01*
X81285714Y-60035714D01*
X82571429Y-60035714D01*
X81071429Y-59250000D02*
X82571429Y-59250000D01*
X82000000Y-59250000D02*
X82071429Y-59107143D01*
X82071429Y-58821429D01*
X82000000Y-58678572D01*
X81928571Y-58607143D01*
X81785714Y-58535714D01*
X81357143Y-58535714D01*
X81214286Y-58607143D01*
X81142857Y-58678572D01*
X81071429Y-58821429D01*
X81071429Y-59107143D01*
X81142857Y-59250000D01*
X81142857Y-57321429D02*
X81071429Y-57464286D01*
X81071429Y-57750000D01*
X81142857Y-57892857D01*
X81285714Y-57964286D01*
X81857143Y-57964286D01*
X82000000Y-57892857D01*
X82071429Y-57750000D01*
X82071429Y-57464286D01*
X82000000Y-57321429D01*
X81857143Y-57250000D01*
X81714286Y-57250000D01*
X81571429Y-57964286D01*
X81071429Y-56607143D02*
X82071429Y-56607143D01*
X81785714Y-56607143D02*
X81928571Y-56535715D01*
X82000000Y-56464286D01*
X82071429Y-56321429D01*
X82071429Y-56178572D01*
X82071429Y-55892858D02*
X82071429Y-55321429D01*
X82571429Y-55678572D02*
X81285714Y-55678572D01*
X81142857Y-55607144D01*
X81071429Y-55464286D01*
X81071429Y-55321429D01*
X81071429Y-54178572D02*
X81857143Y-54178572D01*
X82000000Y-54250001D01*
X82071429Y-54392858D01*
X82071429Y-54678572D01*
X82000000Y-54821429D01*
X81142857Y-54178572D02*
X81071429Y-54321429D01*
X81071429Y-54678572D01*
X81142857Y-54821429D01*
X81285714Y-54892858D01*
X81428571Y-54892858D01*
X81571429Y-54821429D01*
X81642857Y-54678572D01*
X81642857Y-54321429D01*
X81714286Y-54178572D01*
X81142857Y-53535715D02*
X81071429Y-53392858D01*
X81071429Y-53107143D01*
X81142857Y-52964286D01*
X81285714Y-52892858D01*
X81357143Y-52892858D01*
X81500000Y-52964286D01*
X81571429Y-53107143D01*
X81571429Y-53321429D01*
X81642857Y-53464286D01*
X81785714Y-53535715D01*
X81857143Y-53535715D01*
X82000000Y-53464286D01*
X82071429Y-53321429D01*
X82071429Y-53107143D01*
X82000000Y-52964286D01*
X81071429Y-51107143D02*
X82571429Y-51107143D01*
X81500000Y-50607143D01*
X82571429Y-50107143D01*
X81071429Y-50107143D01*
X81071429Y-49392857D02*
X82071429Y-49392857D01*
X82571429Y-49392857D02*
X82500000Y-49464286D01*
X82428571Y-49392857D01*
X82500000Y-49321429D01*
X82571429Y-49392857D01*
X82428571Y-49392857D01*
X81142857Y-48035714D02*
X81071429Y-48178571D01*
X81071429Y-48464285D01*
X81142857Y-48607143D01*
X81214286Y-48678571D01*
X81357143Y-48750000D01*
X81785714Y-48750000D01*
X81928571Y-48678571D01*
X82000000Y-48607143D01*
X82071429Y-48464285D01*
X82071429Y-48178571D01*
X82000000Y-48035714D01*
X81071429Y-47392857D02*
X82571429Y-47392857D01*
X81642857Y-47250000D02*
X81071429Y-46821429D01*
X82071429Y-46821429D02*
X81500000Y-47392857D01*
X81142857Y-45607143D02*
X81071429Y-45750000D01*
X81071429Y-46035714D01*
X81142857Y-46178571D01*
X81285714Y-46250000D01*
X81857143Y-46250000D01*
X82000000Y-46178571D01*
X82071429Y-46035714D01*
X82071429Y-45750000D01*
X82000000Y-45607143D01*
X81857143Y-45535714D01*
X81714286Y-45535714D01*
X81571429Y-46250000D01*
X82071429Y-44892857D02*
X81071429Y-44892857D01*
X81928571Y-44892857D02*
X82000000Y-44821429D01*
X82071429Y-44678571D01*
X82071429Y-44464286D01*
X82000000Y-44321429D01*
X81857143Y-44250000D01*
X81071429Y-44250000D01*
X81071429Y-42892857D02*
X81857143Y-42892857D01*
X82000000Y-42964286D01*
X82071429Y-43107143D01*
X82071429Y-43392857D01*
X82000000Y-43535714D01*
X81142857Y-42892857D02*
X81071429Y-43035714D01*
X81071429Y-43392857D01*
X81142857Y-43535714D01*
X81285714Y-43607143D01*
X81428571Y-43607143D01*
X81571429Y-43535714D01*
X81642857Y-43392857D01*
X81642857Y-43035714D01*
X81714286Y-42892857D01*
X81142857Y-42250000D02*
X81071429Y-42107143D01*
X81071429Y-41821428D01*
X81142857Y-41678571D01*
X81285714Y-41607143D01*
X81357143Y-41607143D01*
X81500000Y-41678571D01*
X81571429Y-41821428D01*
X81571429Y-42035714D01*
X81642857Y-42178571D01*
X81785714Y-42250000D01*
X81857143Y-42250000D01*
X82000000Y-42178571D01*
X82071429Y-42035714D01*
X82071429Y-41821428D01*
X82000000Y-41678571D01*
X78671429Y-64000000D02*
X79671429Y-64000000D01*
X79528571Y-64000000D02*
X79600000Y-63928572D01*
X79671429Y-63785714D01*
X79671429Y-63571429D01*
X79600000Y-63428572D01*
X79457143Y-63357143D01*
X78671429Y-63357143D01*
X79457143Y-63357143D02*
X79600000Y-63285714D01*
X79671429Y-63142857D01*
X79671429Y-62928572D01*
X79600000Y-62785714D01*
X79457143Y-62714286D01*
X78671429Y-62714286D01*
X78671429Y-62000000D02*
X79671429Y-62000000D01*
X80171429Y-62000000D02*
X80100000Y-62071429D01*
X80028571Y-62000000D01*
X80100000Y-61928572D01*
X80171429Y-62000000D01*
X80028571Y-62000000D01*
X78742857Y-60642857D02*
X78671429Y-60785714D01*
X78671429Y-61071428D01*
X78742857Y-61214286D01*
X78814286Y-61285714D01*
X78957143Y-61357143D01*
X79385714Y-61357143D01*
X79528571Y-61285714D01*
X79600000Y-61214286D01*
X79671429Y-61071428D01*
X79671429Y-60785714D01*
X79600000Y-60642857D01*
X79385714Y-59071429D02*
X79457143Y-59142857D01*
X79528571Y-59285714D01*
X79528571Y-59428572D01*
X79457143Y-59571429D01*
X79385714Y-59642857D01*
X79242857Y-59714286D01*
X79100000Y-59714286D01*
X78957143Y-59642857D01*
X78885714Y-59571429D01*
X78814286Y-59428572D01*
X78814286Y-59285714D01*
X78885714Y-59142857D01*
X78957143Y-59071429D01*
X79528571Y-59071429D02*
X78957143Y-59071429D01*
X78885714Y-59000000D01*
X78885714Y-58928572D01*
X78957143Y-58785714D01*
X79100000Y-58714286D01*
X79457143Y-58714286D01*
X79671429Y-58857143D01*
X79814286Y-59071429D01*
X79885714Y-59357143D01*
X79814286Y-59642857D01*
X79671429Y-59857143D01*
X79457143Y-60000000D01*
X79171429Y-60071429D01*
X78885714Y-60000000D01*
X78671429Y-59857143D01*
X78528571Y-59642857D01*
X78457143Y-59357143D01*
X78528571Y-59071429D01*
X78671429Y-58857143D01*
X79671429Y-58214286D02*
X78671429Y-57928572D01*
X79385714Y-57642858D01*
X78671429Y-57357143D01*
X79671429Y-57071429D01*
X78742857Y-55928572D02*
X78671429Y-56071429D01*
X78671429Y-56357143D01*
X78742857Y-56500000D01*
X78885714Y-56571429D01*
X79457143Y-56571429D01*
X79600000Y-56500000D01*
X79671429Y-56357143D01*
X79671429Y-56071429D01*
X79600000Y-55928572D01*
X79457143Y-55857143D01*
X79314286Y-55857143D01*
X79171429Y-56571429D01*
X78671429Y-55214286D02*
X79671429Y-55214286D01*
X79528571Y-55214286D02*
X79600000Y-55142858D01*
X79671429Y-55000000D01*
X79671429Y-54785715D01*
X79600000Y-54642858D01*
X79457143Y-54571429D01*
X78671429Y-54571429D01*
X79457143Y-54571429D02*
X79600000Y-54500000D01*
X79671429Y-54357143D01*
X79671429Y-54142858D01*
X79600000Y-54000000D01*
X79457143Y-53928572D01*
X78671429Y-53928572D01*
X78671429Y-52571429D02*
X79457143Y-52571429D01*
X79600000Y-52642858D01*
X79671429Y-52785715D01*
X79671429Y-53071429D01*
X79600000Y-53214286D01*
X78742857Y-52571429D02*
X78671429Y-52714286D01*
X78671429Y-53071429D01*
X78742857Y-53214286D01*
X78885714Y-53285715D01*
X79028571Y-53285715D01*
X79171429Y-53214286D01*
X79242857Y-53071429D01*
X79242857Y-52714286D01*
X79314286Y-52571429D01*
X78671429Y-51857143D02*
X80171429Y-51857143D01*
X79242857Y-51714286D02*
X78671429Y-51285715D01*
X79671429Y-51285715D02*
X79100000Y-51857143D01*
X78742857Y-50071429D02*
X78671429Y-50214286D01*
X78671429Y-50500000D01*
X78742857Y-50642857D01*
X78885714Y-50714286D01*
X79457143Y-50714286D01*
X79600000Y-50642857D01*
X79671429Y-50500000D01*
X79671429Y-50214286D01*
X79600000Y-50071429D01*
X79457143Y-50000000D01*
X79314286Y-50000000D01*
X79171429Y-50714286D01*
X79671429Y-49571429D02*
X79671429Y-49000000D01*
X80171429Y-49357143D02*
X78885714Y-49357143D01*
X78742857Y-49285715D01*
X78671429Y-49142857D01*
X78671429Y-49000000D01*
X78671429Y-48500000D02*
X80171429Y-48500000D01*
X78671429Y-47857143D02*
X79457143Y-47857143D01*
X79600000Y-47928572D01*
X79671429Y-48071429D01*
X79671429Y-48285714D01*
X79600000Y-48428572D01*
X79528571Y-48500000D01*
X78671429Y-47142857D02*
X79671429Y-47142857D01*
X80171429Y-47142857D02*
X80100000Y-47214286D01*
X80028571Y-47142857D01*
X80100000Y-47071429D01*
X80171429Y-47142857D01*
X80028571Y-47142857D01*
X79671429Y-46428571D02*
X78671429Y-46428571D01*
X79528571Y-46428571D02*
X79600000Y-46357143D01*
X79671429Y-46214285D01*
X79671429Y-46000000D01*
X79600000Y-45857143D01*
X79457143Y-45785714D01*
X78671429Y-45785714D01*
X79671429Y-44428571D02*
X78457143Y-44428571D01*
X78314286Y-44500000D01*
X78242857Y-44571428D01*
X78171429Y-44714285D01*
X78171429Y-44928571D01*
X78242857Y-45071428D01*
X78742857Y-44428571D02*
X78671429Y-44571428D01*
X78671429Y-44857142D01*
X78742857Y-45000000D01*
X78814286Y-45071428D01*
X78957143Y-45142857D01*
X79385714Y-45142857D01*
X79528571Y-45071428D01*
X79600000Y-45000000D01*
X79671429Y-44857142D01*
X79671429Y-44571428D01*
X79600000Y-44428571D01*
X78742857Y-43785714D02*
X78671429Y-43642857D01*
X78671429Y-43357142D01*
X78742857Y-43214285D01*
X78885714Y-43142857D01*
X78957143Y-43142857D01*
X79100000Y-43214285D01*
X79171429Y-43357142D01*
X79171429Y-43571428D01*
X79242857Y-43714285D01*
X79385714Y-43785714D01*
X79457143Y-43785714D01*
X79600000Y-43714285D01*
X79671429Y-43571428D01*
X79671429Y-43357142D01*
X79600000Y-43214285D01*
X78814286Y-42499999D02*
X78742857Y-42428571D01*
X78671429Y-42499999D01*
X78742857Y-42571428D01*
X78814286Y-42499999D01*
X78671429Y-42499999D01*
X79671429Y-41785713D02*
X78671429Y-41785713D01*
X79528571Y-41785713D02*
X79600000Y-41714285D01*
X79671429Y-41571427D01*
X79671429Y-41357142D01*
X79600000Y-41214285D01*
X79457143Y-41142856D01*
X78671429Y-41142856D01*
X78742857Y-39857142D02*
X78671429Y-39999999D01*
X78671429Y-40285713D01*
X78742857Y-40428570D01*
X78885714Y-40499999D01*
X79457143Y-40499999D01*
X79600000Y-40428570D01*
X79671429Y-40285713D01*
X79671429Y-39999999D01*
X79600000Y-39857142D01*
X79457143Y-39785713D01*
X79314286Y-39785713D01*
X79171429Y-40499999D01*
X79671429Y-39357142D02*
X79671429Y-38785713D01*
X80171429Y-39142856D02*
X78885714Y-39142856D01*
X78742857Y-39071428D01*
X78671429Y-38928570D01*
X78671429Y-38785713D01*
X69150000Y-70178571D02*
X69150000Y-69464285D01*
X68721429Y-70321428D02*
X70221429Y-69821428D01*
X68721429Y-69321428D01*
X69721429Y-68821428D02*
X68721429Y-68821428D01*
X69578571Y-68821428D02*
X69650000Y-68750000D01*
X69721429Y-68607142D01*
X69721429Y-68392857D01*
X69650000Y-68250000D01*
X69507143Y-68178571D01*
X68721429Y-68178571D01*
X68721429Y-66821428D02*
X69507143Y-66821428D01*
X69650000Y-66892857D01*
X69721429Y-67035714D01*
X69721429Y-67321428D01*
X69650000Y-67464285D01*
X68792857Y-66821428D02*
X68721429Y-66964285D01*
X68721429Y-67321428D01*
X68792857Y-67464285D01*
X68935714Y-67535714D01*
X69078571Y-67535714D01*
X69221429Y-67464285D01*
X69292857Y-67321428D01*
X69292857Y-66964285D01*
X69364286Y-66821428D01*
X68721429Y-65892856D02*
X68792857Y-66035714D01*
X68935714Y-66107142D01*
X70221429Y-66107142D01*
X68721429Y-65107142D02*
X68792857Y-65250000D01*
X68864286Y-65321428D01*
X69007143Y-65392857D01*
X69435714Y-65392857D01*
X69578571Y-65321428D01*
X69650000Y-65250000D01*
X69721429Y-65107142D01*
X69721429Y-64892857D01*
X69650000Y-64750000D01*
X69578571Y-64678571D01*
X69435714Y-64607142D01*
X69007143Y-64607142D01*
X68864286Y-64678571D01*
X68792857Y-64750000D01*
X68721429Y-64892857D01*
X68721429Y-65107142D01*
X69721429Y-63321428D02*
X68507143Y-63321428D01*
X68364286Y-63392857D01*
X68292857Y-63464285D01*
X68221429Y-63607142D01*
X68221429Y-63821428D01*
X68292857Y-63964285D01*
X68792857Y-63321428D02*
X68721429Y-63464285D01*
X68721429Y-63749999D01*
X68792857Y-63892857D01*
X68864286Y-63964285D01*
X69007143Y-64035714D01*
X69435714Y-64035714D01*
X69578571Y-63964285D01*
X69650000Y-63892857D01*
X69721429Y-63749999D01*
X69721429Y-63464285D01*
X69650000Y-63321428D01*
X68792857Y-61535714D02*
X68721429Y-61392857D01*
X68721429Y-61107142D01*
X68792857Y-60964285D01*
X68935714Y-60892857D01*
X69007143Y-60892857D01*
X69150000Y-60964285D01*
X69221429Y-61107142D01*
X69221429Y-61321428D01*
X69292857Y-61464285D01*
X69435714Y-61535714D01*
X69507143Y-61535714D01*
X69650000Y-61464285D01*
X69721429Y-61321428D01*
X69721429Y-61107142D01*
X69650000Y-60964285D01*
X68721429Y-60035713D02*
X68792857Y-60178571D01*
X68864286Y-60249999D01*
X69007143Y-60321428D01*
X69435714Y-60321428D01*
X69578571Y-60249999D01*
X69650000Y-60178571D01*
X69721429Y-60035713D01*
X69721429Y-59821428D01*
X69650000Y-59678571D01*
X69578571Y-59607142D01*
X69435714Y-59535713D01*
X69007143Y-59535713D01*
X68864286Y-59607142D01*
X68792857Y-59678571D01*
X68721429Y-59821428D01*
X68721429Y-60035713D01*
X68721429Y-58892856D02*
X69721429Y-58892856D01*
X70221429Y-58892856D02*
X70150000Y-58964285D01*
X70078571Y-58892856D01*
X70150000Y-58821428D01*
X70221429Y-58892856D01*
X70078571Y-58892856D01*
X68721429Y-57964284D02*
X68792857Y-58107142D01*
X68935714Y-58178570D01*
X70221429Y-58178570D01*
X68721429Y-56249999D02*
X69721429Y-56249999D01*
X69578571Y-56249999D02*
X69650000Y-56178571D01*
X69721429Y-56035713D01*
X69721429Y-55821428D01*
X69650000Y-55678571D01*
X69507143Y-55607142D01*
X68721429Y-55607142D01*
X69507143Y-55607142D02*
X69650000Y-55535713D01*
X69721429Y-55392856D01*
X69721429Y-55178571D01*
X69650000Y-55035713D01*
X69507143Y-54964285D01*
X68721429Y-54964285D01*
X68721429Y-54035713D02*
X68792857Y-54178571D01*
X68864286Y-54249999D01*
X69007143Y-54321428D01*
X69435714Y-54321428D01*
X69578571Y-54249999D01*
X69650000Y-54178571D01*
X69721429Y-54035713D01*
X69721429Y-53821428D01*
X69650000Y-53678571D01*
X69578571Y-53607142D01*
X69435714Y-53535713D01*
X69007143Y-53535713D01*
X68864286Y-53607142D01*
X68792857Y-53678571D01*
X68721429Y-53821428D01*
X68721429Y-54035713D01*
X68721429Y-52892856D02*
X69721429Y-52892856D01*
X70221429Y-52892856D02*
X70150000Y-52964285D01*
X70078571Y-52892856D01*
X70150000Y-52821428D01*
X70221429Y-52892856D01*
X70078571Y-52892856D01*
X68792857Y-52249999D02*
X68721429Y-52107142D01*
X68721429Y-51821427D01*
X68792857Y-51678570D01*
X68935714Y-51607142D01*
X69007143Y-51607142D01*
X69150000Y-51678570D01*
X69221429Y-51821427D01*
X69221429Y-52035713D01*
X69292857Y-52178570D01*
X69435714Y-52249999D01*
X69507143Y-52249999D01*
X69650000Y-52178570D01*
X69721429Y-52035713D01*
X69721429Y-51821427D01*
X69650000Y-51678570D01*
X69721429Y-51178570D02*
X69721429Y-50607141D01*
X70221429Y-50964284D02*
X68935714Y-50964284D01*
X68792857Y-50892856D01*
X68721429Y-50749998D01*
X68721429Y-50607141D01*
X69721429Y-49464284D02*
X68721429Y-49464284D01*
X69721429Y-50107141D02*
X68935714Y-50107141D01*
X68792857Y-50035713D01*
X68721429Y-49892855D01*
X68721429Y-49678570D01*
X68792857Y-49535713D01*
X68864286Y-49464284D01*
X68721429Y-48749998D02*
X69721429Y-48749998D01*
X69435714Y-48749998D02*
X69578571Y-48678570D01*
X69650000Y-48607141D01*
X69721429Y-48464284D01*
X69721429Y-48321427D01*
X68792857Y-47249999D02*
X68721429Y-47392856D01*
X68721429Y-47678570D01*
X68792857Y-47821427D01*
X68935714Y-47892856D01*
X69507143Y-47892856D01*
X69650000Y-47821427D01*
X69721429Y-47678570D01*
X69721429Y-47392856D01*
X69650000Y-47249999D01*
X69507143Y-47178570D01*
X69364286Y-47178570D01*
X69221429Y-47892856D01*
X68792857Y-45464285D02*
X68721429Y-45321428D01*
X68721429Y-45035713D01*
X68792857Y-44892856D01*
X68935714Y-44821428D01*
X69007143Y-44821428D01*
X69150000Y-44892856D01*
X69221429Y-45035713D01*
X69221429Y-45249999D01*
X69292857Y-45392856D01*
X69435714Y-45464285D01*
X69507143Y-45464285D01*
X69650000Y-45392856D01*
X69721429Y-45249999D01*
X69721429Y-45035713D01*
X69650000Y-44892856D01*
X68792857Y-43607142D02*
X68721429Y-43749999D01*
X68721429Y-44035713D01*
X68792857Y-44178570D01*
X68935714Y-44249999D01*
X69507143Y-44249999D01*
X69650000Y-44178570D01*
X69721429Y-44035713D01*
X69721429Y-43749999D01*
X69650000Y-43607142D01*
X69507143Y-43535713D01*
X69364286Y-43535713D01*
X69221429Y-44249999D01*
X69721429Y-42892856D02*
X68721429Y-42892856D01*
X69578571Y-42892856D02*
X69650000Y-42821428D01*
X69721429Y-42678570D01*
X69721429Y-42464285D01*
X69650000Y-42321428D01*
X69507143Y-42249999D01*
X68721429Y-42249999D01*
X68792857Y-41607142D02*
X68721429Y-41464285D01*
X68721429Y-41178570D01*
X68792857Y-41035713D01*
X68935714Y-40964285D01*
X69007143Y-40964285D01*
X69150000Y-41035713D01*
X69221429Y-41178570D01*
X69221429Y-41392856D01*
X69292857Y-41535713D01*
X69435714Y-41607142D01*
X69507143Y-41607142D01*
X69650000Y-41535713D01*
X69721429Y-41392856D01*
X69721429Y-41178570D01*
X69650000Y-41035713D01*
X68721429Y-40107141D02*
X68792857Y-40249999D01*
X68864286Y-40321427D01*
X69007143Y-40392856D01*
X69435714Y-40392856D01*
X69578571Y-40321427D01*
X69650000Y-40249999D01*
X69721429Y-40107141D01*
X69721429Y-39892856D01*
X69650000Y-39749999D01*
X69578571Y-39678570D01*
X69435714Y-39607141D01*
X69007143Y-39607141D01*
X68864286Y-39678570D01*
X68792857Y-39749999D01*
X68721429Y-39892856D01*
X68721429Y-40107141D01*
X68721429Y-38964284D02*
X69721429Y-38964284D01*
X69435714Y-38964284D02*
X69578571Y-38892856D01*
X69650000Y-38821427D01*
X69721429Y-38678570D01*
X69721429Y-38535713D01*
X69721429Y-37035713D02*
X68721429Y-36678570D01*
X69721429Y-36321428D01*
X70221429Y-35892856D02*
X70221429Y-34964285D01*
X69650000Y-35464285D01*
X69650000Y-35249999D01*
X69578571Y-35107142D01*
X69507143Y-35035713D01*
X69364286Y-34964285D01*
X69007143Y-34964285D01*
X68864286Y-35035713D01*
X68792857Y-35107142D01*
X68721429Y-35249999D01*
X68721429Y-35678571D01*
X68792857Y-35821428D01*
X68864286Y-35892856D01*
X68864286Y-34321428D02*
X68792857Y-34250000D01*
X68721429Y-34321428D01*
X68792857Y-34392857D01*
X68864286Y-34321428D01*
X68721429Y-34321428D01*
X70221429Y-33321428D02*
X70221429Y-33178571D01*
X70150000Y-33035714D01*
X70078571Y-32964285D01*
X69935714Y-32892856D01*
X69650000Y-32821428D01*
X69292857Y-32821428D01*
X69007143Y-32892856D01*
X68864286Y-32964285D01*
X68792857Y-33035714D01*
X68721429Y-33178571D01*
X68721429Y-33321428D01*
X68792857Y-33464285D01*
X68864286Y-33535714D01*
X69007143Y-33607142D01*
X69292857Y-33678571D01*
X69650000Y-33678571D01*
X69935714Y-33607142D01*
X70078571Y-33535714D01*
X70150000Y-33464285D01*
X70221429Y-33321428D01*
X66750000Y-61392857D02*
X66750000Y-60678571D01*
X66321429Y-61535714D02*
X67821429Y-61035714D01*
X66321429Y-60535714D01*
X66321429Y-59821428D02*
X66392857Y-59964286D01*
X66535714Y-60035714D01*
X67821429Y-60035714D01*
X66321429Y-59250000D02*
X67821429Y-59250000D01*
X67250000Y-59250000D02*
X67321429Y-59107143D01*
X67321429Y-58821429D01*
X67250000Y-58678572D01*
X67178571Y-58607143D01*
X67035714Y-58535714D01*
X66607143Y-58535714D01*
X66464286Y-58607143D01*
X66392857Y-58678572D01*
X66321429Y-58821429D01*
X66321429Y-59107143D01*
X66392857Y-59250000D01*
X66392857Y-57321429D02*
X66321429Y-57464286D01*
X66321429Y-57750000D01*
X66392857Y-57892857D01*
X66535714Y-57964286D01*
X67107143Y-57964286D01*
X67250000Y-57892857D01*
X67321429Y-57750000D01*
X67321429Y-57464286D01*
X67250000Y-57321429D01*
X67107143Y-57250000D01*
X66964286Y-57250000D01*
X66821429Y-57964286D01*
X66321429Y-56607143D02*
X67321429Y-56607143D01*
X67035714Y-56607143D02*
X67178571Y-56535715D01*
X67250000Y-56464286D01*
X67321429Y-56321429D01*
X67321429Y-56178572D01*
X67321429Y-55892858D02*
X67321429Y-55321429D01*
X67821429Y-55678572D02*
X66535714Y-55678572D01*
X66392857Y-55607144D01*
X66321429Y-55464286D01*
X66321429Y-55321429D01*
X66321429Y-54178572D02*
X67107143Y-54178572D01*
X67250000Y-54250001D01*
X67321429Y-54392858D01*
X67321429Y-54678572D01*
X67250000Y-54821429D01*
X66392857Y-54178572D02*
X66321429Y-54321429D01*
X66321429Y-54678572D01*
X66392857Y-54821429D01*
X66535714Y-54892858D01*
X66678571Y-54892858D01*
X66821429Y-54821429D01*
X66892857Y-54678572D01*
X66892857Y-54321429D01*
X66964286Y-54178572D01*
X66392857Y-53535715D02*
X66321429Y-53392858D01*
X66321429Y-53107143D01*
X66392857Y-52964286D01*
X66535714Y-52892858D01*
X66607143Y-52892858D01*
X66750000Y-52964286D01*
X66821429Y-53107143D01*
X66821429Y-53321429D01*
X66892857Y-53464286D01*
X67035714Y-53535715D01*
X67107143Y-53535715D01*
X67250000Y-53464286D01*
X67321429Y-53321429D01*
X67321429Y-53107143D01*
X67250000Y-52964286D01*
X66321429Y-51107143D02*
X67821429Y-51107143D01*
X66750000Y-50607143D01*
X67821429Y-50107143D01*
X66321429Y-50107143D01*
X66321429Y-49392857D02*
X67321429Y-49392857D01*
X67821429Y-49392857D02*
X67750000Y-49464286D01*
X67678571Y-49392857D01*
X67750000Y-49321429D01*
X67821429Y-49392857D01*
X67678571Y-49392857D01*
X66392857Y-48035714D02*
X66321429Y-48178571D01*
X66321429Y-48464285D01*
X66392857Y-48607143D01*
X66464286Y-48678571D01*
X66607143Y-48750000D01*
X67035714Y-48750000D01*
X67178571Y-48678571D01*
X67250000Y-48607143D01*
X67321429Y-48464285D01*
X67321429Y-48178571D01*
X67250000Y-48035714D01*
X66321429Y-47392857D02*
X67821429Y-47392857D01*
X66892857Y-47250000D02*
X66321429Y-46821429D01*
X67321429Y-46821429D02*
X66750000Y-47392857D01*
X66392857Y-45607143D02*
X66321429Y-45750000D01*
X66321429Y-46035714D01*
X66392857Y-46178571D01*
X66535714Y-46250000D01*
X67107143Y-46250000D01*
X67250000Y-46178571D01*
X67321429Y-46035714D01*
X67321429Y-45750000D01*
X67250000Y-45607143D01*
X67107143Y-45535714D01*
X66964286Y-45535714D01*
X66821429Y-46250000D01*
X67321429Y-44892857D02*
X66321429Y-44892857D01*
X67178571Y-44892857D02*
X67250000Y-44821429D01*
X67321429Y-44678571D01*
X67321429Y-44464286D01*
X67250000Y-44321429D01*
X67107143Y-44250000D01*
X66321429Y-44250000D01*
X66321429Y-42892857D02*
X67107143Y-42892857D01*
X67250000Y-42964286D01*
X67321429Y-43107143D01*
X67321429Y-43392857D01*
X67250000Y-43535714D01*
X66392857Y-42892857D02*
X66321429Y-43035714D01*
X66321429Y-43392857D01*
X66392857Y-43535714D01*
X66535714Y-43607143D01*
X66678571Y-43607143D01*
X66821429Y-43535714D01*
X66892857Y-43392857D01*
X66892857Y-43035714D01*
X66964286Y-42892857D01*
X66392857Y-42250000D02*
X66321429Y-42107143D01*
X66321429Y-41821428D01*
X66392857Y-41678571D01*
X66535714Y-41607143D01*
X66607143Y-41607143D01*
X66750000Y-41678571D01*
X66821429Y-41821428D01*
X66821429Y-42035714D01*
X66892857Y-42178571D01*
X67035714Y-42250000D01*
X67107143Y-42250000D01*
X67250000Y-42178571D01*
X67321429Y-42035714D01*
X67321429Y-41821428D01*
X67250000Y-41678571D01*
X63921429Y-64000000D02*
X64921429Y-64000000D01*
X64778571Y-64000000D02*
X64850000Y-63928572D01*
X64921429Y-63785714D01*
X64921429Y-63571429D01*
X64850000Y-63428572D01*
X64707143Y-63357143D01*
X63921429Y-63357143D01*
X64707143Y-63357143D02*
X64850000Y-63285714D01*
X64921429Y-63142857D01*
X64921429Y-62928572D01*
X64850000Y-62785714D01*
X64707143Y-62714286D01*
X63921429Y-62714286D01*
X63921429Y-62000000D02*
X64921429Y-62000000D01*
X65421429Y-62000000D02*
X65350000Y-62071429D01*
X65278571Y-62000000D01*
X65350000Y-61928572D01*
X65421429Y-62000000D01*
X65278571Y-62000000D01*
X63992857Y-60642857D02*
X63921429Y-60785714D01*
X63921429Y-61071428D01*
X63992857Y-61214286D01*
X64064286Y-61285714D01*
X64207143Y-61357143D01*
X64635714Y-61357143D01*
X64778571Y-61285714D01*
X64850000Y-61214286D01*
X64921429Y-61071428D01*
X64921429Y-60785714D01*
X64850000Y-60642857D01*
X64635714Y-59071429D02*
X64707143Y-59142857D01*
X64778571Y-59285714D01*
X64778571Y-59428572D01*
X64707143Y-59571429D01*
X64635714Y-59642857D01*
X64492857Y-59714286D01*
X64350000Y-59714286D01*
X64207143Y-59642857D01*
X64135714Y-59571429D01*
X64064286Y-59428572D01*
X64064286Y-59285714D01*
X64135714Y-59142857D01*
X64207143Y-59071429D01*
X64778571Y-59071429D02*
X64207143Y-59071429D01*
X64135714Y-59000000D01*
X64135714Y-58928572D01*
X64207143Y-58785714D01*
X64350000Y-58714286D01*
X64707143Y-58714286D01*
X64921429Y-58857143D01*
X65064286Y-59071429D01*
X65135714Y-59357143D01*
X65064286Y-59642857D01*
X64921429Y-59857143D01*
X64707143Y-60000000D01*
X64421429Y-60071429D01*
X64135714Y-60000000D01*
X63921429Y-59857143D01*
X63778571Y-59642857D01*
X63707143Y-59357143D01*
X63778571Y-59071429D01*
X63921429Y-58857143D01*
X64921429Y-58214286D02*
X63921429Y-57928572D01*
X64635714Y-57642858D01*
X63921429Y-57357143D01*
X64921429Y-57071429D01*
X63992857Y-55928572D02*
X63921429Y-56071429D01*
X63921429Y-56357143D01*
X63992857Y-56500000D01*
X64135714Y-56571429D01*
X64707143Y-56571429D01*
X64850000Y-56500000D01*
X64921429Y-56357143D01*
X64921429Y-56071429D01*
X64850000Y-55928572D01*
X64707143Y-55857143D01*
X64564286Y-55857143D01*
X64421429Y-56571429D01*
X63921429Y-55214286D02*
X64921429Y-55214286D01*
X64778571Y-55214286D02*
X64850000Y-55142858D01*
X64921429Y-55000000D01*
X64921429Y-54785715D01*
X64850000Y-54642858D01*
X64707143Y-54571429D01*
X63921429Y-54571429D01*
X64707143Y-54571429D02*
X64850000Y-54500000D01*
X64921429Y-54357143D01*
X64921429Y-54142858D01*
X64850000Y-54000000D01*
X64707143Y-53928572D01*
X63921429Y-53928572D01*
X63921429Y-52571429D02*
X64707143Y-52571429D01*
X64850000Y-52642858D01*
X64921429Y-52785715D01*
X64921429Y-53071429D01*
X64850000Y-53214286D01*
X63992857Y-52571429D02*
X63921429Y-52714286D01*
X63921429Y-53071429D01*
X63992857Y-53214286D01*
X64135714Y-53285715D01*
X64278571Y-53285715D01*
X64421429Y-53214286D01*
X64492857Y-53071429D01*
X64492857Y-52714286D01*
X64564286Y-52571429D01*
X63921429Y-51857143D02*
X65421429Y-51857143D01*
X64492857Y-51714286D02*
X63921429Y-51285715D01*
X64921429Y-51285715D02*
X64350000Y-51857143D01*
X63992857Y-50071429D02*
X63921429Y-50214286D01*
X63921429Y-50500000D01*
X63992857Y-50642857D01*
X64135714Y-50714286D01*
X64707143Y-50714286D01*
X64850000Y-50642857D01*
X64921429Y-50500000D01*
X64921429Y-50214286D01*
X64850000Y-50071429D01*
X64707143Y-50000000D01*
X64564286Y-50000000D01*
X64421429Y-50714286D01*
X64921429Y-49571429D02*
X64921429Y-49000000D01*
X65421429Y-49357143D02*
X64135714Y-49357143D01*
X63992857Y-49285715D01*
X63921429Y-49142857D01*
X63921429Y-49000000D01*
X63921429Y-48500000D02*
X65421429Y-48500000D01*
X63921429Y-47857143D02*
X64707143Y-47857143D01*
X64850000Y-47928572D01*
X64921429Y-48071429D01*
X64921429Y-48285714D01*
X64850000Y-48428572D01*
X64778571Y-48500000D01*
X63921429Y-47142857D02*
X64921429Y-47142857D01*
X65421429Y-47142857D02*
X65350000Y-47214286D01*
X65278571Y-47142857D01*
X65350000Y-47071429D01*
X65421429Y-47142857D01*
X65278571Y-47142857D01*
X64921429Y-46428571D02*
X63921429Y-46428571D01*
X64778571Y-46428571D02*
X64850000Y-46357143D01*
X64921429Y-46214285D01*
X64921429Y-46000000D01*
X64850000Y-45857143D01*
X64707143Y-45785714D01*
X63921429Y-45785714D01*
X64921429Y-44428571D02*
X63707143Y-44428571D01*
X63564286Y-44500000D01*
X63492857Y-44571428D01*
X63421429Y-44714285D01*
X63421429Y-44928571D01*
X63492857Y-45071428D01*
X63992857Y-44428571D02*
X63921429Y-44571428D01*
X63921429Y-44857142D01*
X63992857Y-45000000D01*
X64064286Y-45071428D01*
X64207143Y-45142857D01*
X64635714Y-45142857D01*
X64778571Y-45071428D01*
X64850000Y-45000000D01*
X64921429Y-44857142D01*
X64921429Y-44571428D01*
X64850000Y-44428571D01*
X63992857Y-43785714D02*
X63921429Y-43642857D01*
X63921429Y-43357142D01*
X63992857Y-43214285D01*
X64135714Y-43142857D01*
X64207143Y-43142857D01*
X64350000Y-43214285D01*
X64421429Y-43357142D01*
X64421429Y-43571428D01*
X64492857Y-43714285D01*
X64635714Y-43785714D01*
X64707143Y-43785714D01*
X64850000Y-43714285D01*
X64921429Y-43571428D01*
X64921429Y-43357142D01*
X64850000Y-43214285D01*
X64064286Y-42499999D02*
X63992857Y-42428571D01*
X63921429Y-42499999D01*
X63992857Y-42571428D01*
X64064286Y-42499999D01*
X63921429Y-42499999D01*
X64921429Y-41785713D02*
X63921429Y-41785713D01*
X64778571Y-41785713D02*
X64850000Y-41714285D01*
X64921429Y-41571427D01*
X64921429Y-41357142D01*
X64850000Y-41214285D01*
X64707143Y-41142856D01*
X63921429Y-41142856D01*
X63992857Y-39857142D02*
X63921429Y-39999999D01*
X63921429Y-40285713D01*
X63992857Y-40428570D01*
X64135714Y-40499999D01*
X64707143Y-40499999D01*
X64850000Y-40428570D01*
X64921429Y-40285713D01*
X64921429Y-39999999D01*
X64850000Y-39857142D01*
X64707143Y-39785713D01*
X64564286Y-39785713D01*
X64421429Y-40499999D01*
X64921429Y-39357142D02*
X64921429Y-38785713D01*
X65421429Y-39142856D02*
X64135714Y-39142856D01*
X63992857Y-39071428D01*
X63921429Y-38928570D01*
X63921429Y-38785713D01*
M02*
