%FSLAX45Y45*%
G04 Gerber Fmt 4.5, Leading zero omitted, Abs format (unit mm)*
G04 Created by KiCad (PCBNEW (2015-02-15 BZR 5420)-product) date Tue 17 Feb 2015 11:56:43 AM EET*
%MOMM*%
G01*
G04 APERTURE LIST*
%ADD10C,0.127000*%
%ADD11C,0.100000*%
%ADD12C,0.200000*%
%ADD13C,0.300000*%
G04 APERTURE END LIST*
D10*
D11*
X8925000Y-2250000D02*
X9425000Y-2250000D01*
X5375000Y-2250000D02*
X8925000Y-2250000D01*
X9425000Y-13825000D02*
X8975000Y-13825000D01*
X9425000Y-2250000D02*
X9425000Y-13825000D01*
X5375000Y-13825000D02*
X8975000Y-13825000D01*
X5375000Y-2250000D02*
X5375000Y-13825000D01*
X6640200Y-13817229D02*
X7400000Y-12800000D01*
X5375000Y-12150000D02*
X6640200Y-13817229D01*
X7402200Y-2628529D02*
X7402200Y-2247529D01*
X7402200Y-2628529D02*
X7402200Y-2882529D01*
X5875000Y-12825000D02*
X5875000Y-2250000D01*
X7402200Y-2882529D02*
X7402200Y-6692529D01*
X8165200Y-13817229D02*
X9425000Y-12125000D01*
X7400000Y-12800000D02*
X8165200Y-13817229D01*
X7403200Y-2628529D02*
X7403200Y-2247529D01*
X7403200Y-2882529D02*
X7403200Y-2628529D01*
X7400000Y-12825000D02*
X7403200Y-6692529D01*
X7403200Y-6692529D02*
X7403200Y-2882529D01*
X8925000Y-12825000D02*
X8925000Y-2250000D01*
D12*
X6061400Y-6977329D02*
X6101400Y-7017329D01*
X6101400Y-6977329D02*
X6061400Y-7017329D01*
X6201100Y-4919929D02*
X6241100Y-4959929D01*
X6241100Y-4919929D02*
X6201100Y-4959929D01*
X6226500Y-6393129D02*
X6266500Y-6433129D01*
X6266500Y-6393129D02*
X6226500Y-6433129D01*
X6239200Y-6545529D02*
X6279200Y-6585529D01*
X6279200Y-6545529D02*
X6239200Y-6585529D01*
X6290000Y-6977329D02*
X6330000Y-7017329D01*
X6330000Y-6977329D02*
X6290000Y-7017329D01*
X6366200Y-4488129D02*
X6406200Y-4528129D01*
X6406200Y-4488129D02*
X6366200Y-4528129D01*
X6505900Y-6596329D02*
X6545900Y-6636329D01*
X6545900Y-6596329D02*
X6505900Y-6636329D01*
X6671000Y-4284929D02*
X6711000Y-4324929D01*
X6711000Y-4284929D02*
X6671000Y-4324929D01*
X6671000Y-6367729D02*
X6711000Y-6407729D01*
X6711000Y-6367729D02*
X6671000Y-6407729D01*
X6734500Y-5770829D02*
X6774500Y-5810829D01*
X6774500Y-5770829D02*
X6734500Y-5810829D01*
X6810700Y-3624529D02*
X6850700Y-3664529D01*
X6850700Y-3624529D02*
X6810700Y-3664529D01*
X6823400Y-6621729D02*
X6863400Y-6661729D01*
X6863400Y-6621729D02*
X6823400Y-6661729D01*
X6950400Y-6977329D02*
X6990400Y-7017329D01*
X6990400Y-6977329D02*
X6950400Y-7017329D01*
X7179000Y-6977329D02*
X7219000Y-7017329D01*
X7219000Y-6977329D02*
X7179000Y-7017329D01*
X7586400Y-6977329D02*
X7626400Y-7017329D01*
X7626400Y-6977329D02*
X7586400Y-7017329D01*
X7726100Y-4919929D02*
X7766100Y-4959929D01*
X7766100Y-4919929D02*
X7726100Y-4959929D01*
X7751500Y-6393129D02*
X7791500Y-6433129D01*
X7791500Y-6393129D02*
X7751500Y-6433129D01*
X7764200Y-6545529D02*
X7804200Y-6585529D01*
X7804200Y-6545529D02*
X7764200Y-6585529D01*
X7815000Y-6977329D02*
X7855000Y-7017329D01*
X7855000Y-6977329D02*
X7815000Y-7017329D01*
X7891200Y-4488129D02*
X7931200Y-4528129D01*
X7931200Y-4488129D02*
X7891200Y-4528129D01*
X8030900Y-6596329D02*
X8070900Y-6636329D01*
X8070900Y-6596329D02*
X8030900Y-6636329D01*
X8196000Y-4284929D02*
X8236000Y-4324929D01*
X8236000Y-4284929D02*
X8196000Y-4324929D01*
X8196000Y-6367729D02*
X8236000Y-6407729D01*
X8236000Y-6367729D02*
X8196000Y-6407729D01*
X8259500Y-5770829D02*
X8299500Y-5810829D01*
X8299500Y-5770829D02*
X8259500Y-5810829D01*
X8335700Y-3624529D02*
X8375700Y-3664529D01*
X8375700Y-3624529D02*
X8335700Y-3664529D01*
X8348400Y-6621729D02*
X8388400Y-6661729D01*
X8388400Y-6621729D02*
X8348400Y-6661729D01*
X8475400Y-6977329D02*
X8515400Y-7017329D01*
X8515400Y-6977329D02*
X8475400Y-7017329D01*
X8704000Y-6977329D02*
X8744000Y-7017329D01*
X8744000Y-6977329D02*
X8704000Y-7017329D01*
X6411600Y-2425329D02*
G75*
G03X6411600Y-2425329I-50800J0D01*
G01*
X6411600Y-2679329D02*
G75*
G03X6411600Y-2679329I-50800J0D01*
G01*
X6665600Y-2425329D02*
G75*
G03X6665600Y-2425329I-50800J0D01*
G01*
X6665600Y-2679329D02*
G75*
G03X6665600Y-2679329I-50800J0D01*
G01*
X6919600Y-2425329D02*
G75*
G03X6919600Y-2425329I-50800J0D01*
G01*
X6919600Y-2679329D02*
G75*
G03X6919600Y-2679329I-50800J0D01*
G01*
X7936600Y-2425329D02*
G75*
G03X7936600Y-2425329I-50800J0D01*
G01*
X7936600Y-2679329D02*
G75*
G03X7936600Y-2679329I-50800J0D01*
G01*
X8190600Y-2425329D02*
G75*
G03X8190600Y-2425329I-50800J0D01*
G01*
X8190600Y-2679329D02*
G75*
G03X8190600Y-2679329I-50800J0D01*
G01*
X8444600Y-2425329D02*
G75*
G03X8444600Y-2425329I-50800J0D01*
G01*
X8444600Y-2679329D02*
G75*
G03X8444600Y-2679329I-50800J0D01*
G01*
D13*
X5641428Y-14295714D02*
X5641428Y-13995714D01*
X5712857Y-13995714D01*
X5755714Y-14010000D01*
X5784286Y-14038571D01*
X5798571Y-14067143D01*
X5812857Y-14124286D01*
X5812857Y-14167143D01*
X5798571Y-14224286D01*
X5784286Y-14252857D01*
X5755714Y-14281429D01*
X5712857Y-14295714D01*
X5641428Y-14295714D01*
X5941428Y-14295714D02*
X5941428Y-14095714D01*
X5941428Y-14152857D02*
X5955714Y-14124286D01*
X5970000Y-14110000D01*
X5998571Y-14095714D01*
X6027143Y-14095714D01*
X6127143Y-14295714D02*
X6127143Y-14095714D01*
X6127143Y-13995714D02*
X6112857Y-14010000D01*
X6127143Y-14024286D01*
X6141428Y-14010000D01*
X6127143Y-13995714D01*
X6127143Y-14024286D01*
X6312857Y-14295714D02*
X6284286Y-14281429D01*
X6270000Y-14252857D01*
X6270000Y-13995714D01*
X6470000Y-14295714D02*
X6441428Y-14281429D01*
X6427143Y-14252857D01*
X6427143Y-13995714D01*
X6812857Y-14295714D02*
X6812857Y-13995714D01*
X6912857Y-14210000D01*
X7012857Y-13995714D01*
X7012857Y-14295714D01*
X7284286Y-14295714D02*
X7284286Y-14138571D01*
X7270000Y-14110000D01*
X7241428Y-14095714D01*
X7184286Y-14095714D01*
X7155714Y-14110000D01*
X7284286Y-14281429D02*
X7255714Y-14295714D01*
X7184286Y-14295714D01*
X7155714Y-14281429D01*
X7141428Y-14252857D01*
X7141428Y-14224286D01*
X7155714Y-14195714D01*
X7184286Y-14181429D01*
X7255714Y-14181429D01*
X7284286Y-14167143D01*
X7427143Y-14095714D02*
X7427143Y-14395714D01*
X7427143Y-14110000D02*
X7455714Y-14095714D01*
X7512857Y-14095714D01*
X7541428Y-14110000D01*
X7555714Y-14124286D01*
X7570000Y-14152857D01*
X7570000Y-14238571D01*
X7555714Y-14267143D01*
X7541428Y-14281429D01*
X7512857Y-14295714D01*
X7455714Y-14295714D01*
X7427143Y-14281429D01*
X7698571Y-14267143D02*
X7712857Y-14281429D01*
X7698571Y-14295714D01*
X7684286Y-14281429D01*
X7698571Y-14267143D01*
X7698571Y-14295714D01*
X7698571Y-14110000D02*
X7712857Y-14124286D01*
X7698571Y-14138571D01*
X7684286Y-14124286D01*
X7698571Y-14110000D01*
X7698571Y-14138571D01*
X5330000Y-14770000D02*
X5370000Y-14810000D01*
X5370000Y-14770000D02*
X5330000Y-14810000D01*
X5698571Y-14625714D02*
X5727143Y-14625714D01*
X5755714Y-14640000D01*
X5770000Y-14654286D01*
X5784286Y-14682857D01*
X5798571Y-14740000D01*
X5798571Y-14811429D01*
X5784286Y-14868571D01*
X5770000Y-14897143D01*
X5755714Y-14911429D01*
X5727143Y-14925714D01*
X5698571Y-14925714D01*
X5670000Y-14911429D01*
X5655714Y-14897143D01*
X5641428Y-14868571D01*
X5627143Y-14811429D01*
X5627143Y-14740000D01*
X5641428Y-14682857D01*
X5655714Y-14654286D01*
X5670000Y-14640000D01*
X5698571Y-14625714D01*
X5927143Y-14897143D02*
X5941428Y-14911429D01*
X5927143Y-14925714D01*
X5912857Y-14911429D01*
X5927143Y-14897143D01*
X5927143Y-14925714D01*
X6198571Y-14725714D02*
X6198571Y-14925714D01*
X6127143Y-14611429D02*
X6055714Y-14825714D01*
X6241428Y-14825714D01*
X6412857Y-14625714D02*
X6441428Y-14625714D01*
X6470000Y-14640000D01*
X6484286Y-14654286D01*
X6498571Y-14682857D01*
X6512857Y-14740000D01*
X6512857Y-14811429D01*
X6498571Y-14868571D01*
X6484286Y-14897143D01*
X6470000Y-14911429D01*
X6441428Y-14925714D01*
X6412857Y-14925714D01*
X6384286Y-14911429D01*
X6370000Y-14897143D01*
X6355714Y-14868571D01*
X6341428Y-14811429D01*
X6341428Y-14740000D01*
X6355714Y-14682857D01*
X6370000Y-14654286D01*
X6384286Y-14640000D01*
X6412857Y-14625714D01*
X6641428Y-14925714D02*
X6641428Y-14725714D01*
X6641428Y-14754286D02*
X6655714Y-14740000D01*
X6684286Y-14725714D01*
X6727143Y-14725714D01*
X6755714Y-14740000D01*
X6770000Y-14768571D01*
X6770000Y-14925714D01*
X6770000Y-14768571D02*
X6784286Y-14740000D01*
X6812857Y-14725714D01*
X6855714Y-14725714D01*
X6884286Y-14740000D01*
X6898571Y-14768571D01*
X6898571Y-14925714D01*
X7041428Y-14925714D02*
X7041428Y-14725714D01*
X7041428Y-14754286D02*
X7055714Y-14740000D01*
X7084286Y-14725714D01*
X7127143Y-14725714D01*
X7155714Y-14740000D01*
X7170000Y-14768571D01*
X7170000Y-14925714D01*
X7170000Y-14768571D02*
X7184286Y-14740000D01*
X7212857Y-14725714D01*
X7255714Y-14725714D01*
X7284286Y-14740000D01*
X7298571Y-14768571D01*
X7298571Y-14925714D01*
X7884286Y-14611429D02*
X7627143Y-14997143D01*
X8270000Y-14625714D02*
X8298571Y-14625714D01*
X8327143Y-14640000D01*
X8341428Y-14654286D01*
X8355714Y-14682857D01*
X8370000Y-14740000D01*
X8370000Y-14811429D01*
X8355714Y-14868571D01*
X8341428Y-14897143D01*
X8327143Y-14911429D01*
X8298571Y-14925714D01*
X8270000Y-14925714D01*
X8241428Y-14911429D01*
X8227143Y-14897143D01*
X8212857Y-14868571D01*
X8198571Y-14811429D01*
X8198571Y-14740000D01*
X8212857Y-14682857D01*
X8227143Y-14654286D01*
X8241428Y-14640000D01*
X8270000Y-14625714D01*
X8498571Y-14897143D02*
X8512857Y-14911429D01*
X8498571Y-14925714D01*
X8484286Y-14911429D01*
X8498571Y-14897143D01*
X8498571Y-14925714D01*
X8698571Y-14625714D02*
X8727143Y-14625714D01*
X8755714Y-14640000D01*
X8770000Y-14654286D01*
X8784286Y-14682857D01*
X8798571Y-14740000D01*
X8798571Y-14811429D01*
X8784286Y-14868571D01*
X8770000Y-14897143D01*
X8755714Y-14911429D01*
X8727143Y-14925714D01*
X8698571Y-14925714D01*
X8670000Y-14911429D01*
X8655714Y-14897143D01*
X8641428Y-14868571D01*
X8627143Y-14811429D01*
X8627143Y-14740000D01*
X8641428Y-14682857D01*
X8655714Y-14654286D01*
X8670000Y-14640000D01*
X8698571Y-14625714D01*
X9084286Y-14925714D02*
X8912857Y-14925714D01*
X8998571Y-14925714D02*
X8998571Y-14625714D01*
X8970000Y-14668571D01*
X8941428Y-14697143D01*
X8912857Y-14711429D01*
X9341428Y-14625714D02*
X9284286Y-14625714D01*
X9255714Y-14640000D01*
X9241428Y-14654286D01*
X9212857Y-14697143D01*
X9198571Y-14754286D01*
X9198571Y-14868571D01*
X9212857Y-14897143D01*
X9227143Y-14911429D01*
X9255714Y-14925714D01*
X9312857Y-14925714D01*
X9341428Y-14911429D01*
X9355714Y-14897143D01*
X9370000Y-14868571D01*
X9370000Y-14797143D01*
X9355714Y-14768571D01*
X9341428Y-14754286D01*
X9312857Y-14740000D01*
X9255714Y-14740000D01*
X9227143Y-14754286D01*
X9212857Y-14768571D01*
X9198571Y-14797143D01*
X9484286Y-14625714D02*
X9484286Y-14682857D01*
X9598571Y-14625714D02*
X9598571Y-14682857D01*
X10041428Y-15040000D02*
X10027143Y-15025714D01*
X9998571Y-14982857D01*
X9984286Y-14954286D01*
X9970000Y-14911429D01*
X9955714Y-14840000D01*
X9955714Y-14782857D01*
X9970000Y-14711429D01*
X9984286Y-14668571D01*
X9998571Y-14640000D01*
X10027143Y-14597143D01*
X10041428Y-14582857D01*
X10141428Y-14654286D02*
X10155714Y-14640000D01*
X10184286Y-14625714D01*
X10255714Y-14625714D01*
X10284286Y-14640000D01*
X10298571Y-14654286D01*
X10312857Y-14682857D01*
X10312857Y-14711429D01*
X10298571Y-14754286D01*
X10127143Y-14925714D01*
X10312857Y-14925714D01*
X10484286Y-14754286D02*
X10455714Y-14740000D01*
X10441428Y-14725714D01*
X10427143Y-14697143D01*
X10427143Y-14682857D01*
X10441428Y-14654286D01*
X10455714Y-14640000D01*
X10484286Y-14625714D01*
X10541428Y-14625714D01*
X10570000Y-14640000D01*
X10584286Y-14654286D01*
X10598571Y-14682857D01*
X10598571Y-14697143D01*
X10584286Y-14725714D01*
X10570000Y-14740000D01*
X10541428Y-14754286D01*
X10484286Y-14754286D01*
X10455714Y-14768571D01*
X10441428Y-14782857D01*
X10427143Y-14811429D01*
X10427143Y-14868571D01*
X10441428Y-14897143D01*
X10455714Y-14911429D01*
X10484286Y-14925714D01*
X10541428Y-14925714D01*
X10570000Y-14911429D01*
X10584286Y-14897143D01*
X10598571Y-14868571D01*
X10598571Y-14811429D01*
X10584286Y-14782857D01*
X10570000Y-14768571D01*
X10541428Y-14754286D01*
X10955714Y-14925714D02*
X10955714Y-14625714D01*
X11084286Y-14925714D02*
X11084286Y-14768571D01*
X11070000Y-14740000D01*
X11041428Y-14725714D01*
X10998571Y-14725714D01*
X10970000Y-14740000D01*
X10955714Y-14754286D01*
X11270000Y-14925714D02*
X11241428Y-14911429D01*
X11227143Y-14897143D01*
X11212857Y-14868571D01*
X11212857Y-14782857D01*
X11227143Y-14754286D01*
X11241428Y-14740000D01*
X11270000Y-14725714D01*
X11312857Y-14725714D01*
X11341428Y-14740000D01*
X11355714Y-14754286D01*
X11370000Y-14782857D01*
X11370000Y-14868571D01*
X11355714Y-14897143D01*
X11341428Y-14911429D01*
X11312857Y-14925714D01*
X11270000Y-14925714D01*
X11541428Y-14925714D02*
X11512857Y-14911429D01*
X11498571Y-14882857D01*
X11498571Y-14625714D01*
X11770000Y-14911429D02*
X11741428Y-14925714D01*
X11684286Y-14925714D01*
X11655714Y-14911429D01*
X11641428Y-14882857D01*
X11641428Y-14768571D01*
X11655714Y-14740000D01*
X11684286Y-14725714D01*
X11741428Y-14725714D01*
X11770000Y-14740000D01*
X11784286Y-14768571D01*
X11784286Y-14797143D01*
X11641428Y-14825714D01*
X11898571Y-14911429D02*
X11927143Y-14925714D01*
X11984286Y-14925714D01*
X12012857Y-14911429D01*
X12027143Y-14882857D01*
X12027143Y-14868571D01*
X12012857Y-14840000D01*
X11984286Y-14825714D01*
X11941428Y-14825714D01*
X11912857Y-14811429D01*
X11898571Y-14782857D01*
X11898571Y-14768571D01*
X11912857Y-14740000D01*
X11941428Y-14725714D01*
X11984286Y-14725714D01*
X12012857Y-14740000D01*
X12127143Y-15040000D02*
X12141428Y-15025714D01*
X12170000Y-14982857D01*
X12184286Y-14954286D01*
X12198571Y-14911429D01*
X12212857Y-14840000D01*
X12212857Y-14782857D01*
X12198571Y-14711429D01*
X12184286Y-14668571D01*
X12170000Y-14640000D01*
X12141428Y-14597143D01*
X12127143Y-14582857D01*
X5370000Y-15186000D02*
G75*
G03X5370000Y-15186000I-50800J0D01*
G01*
X5798571Y-15321714D02*
X5627143Y-15321714D01*
X5712857Y-15321714D02*
X5712857Y-15021714D01*
X5684286Y-15064571D01*
X5655714Y-15093143D01*
X5627143Y-15107429D01*
X5927143Y-15293143D02*
X5941428Y-15307429D01*
X5927143Y-15321714D01*
X5912857Y-15307429D01*
X5927143Y-15293143D01*
X5927143Y-15321714D01*
X6127143Y-15021714D02*
X6155714Y-15021714D01*
X6184286Y-15036000D01*
X6198571Y-15050286D01*
X6212857Y-15078857D01*
X6227143Y-15136000D01*
X6227143Y-15207429D01*
X6212857Y-15264571D01*
X6198571Y-15293143D01*
X6184286Y-15307429D01*
X6155714Y-15321714D01*
X6127143Y-15321714D01*
X6098571Y-15307429D01*
X6084286Y-15293143D01*
X6070000Y-15264571D01*
X6055714Y-15207429D01*
X6055714Y-15136000D01*
X6070000Y-15078857D01*
X6084286Y-15050286D01*
X6098571Y-15036000D01*
X6127143Y-15021714D01*
X6341428Y-15050286D02*
X6355714Y-15036000D01*
X6384286Y-15021714D01*
X6455714Y-15021714D01*
X6484286Y-15036000D01*
X6498571Y-15050286D01*
X6512857Y-15078857D01*
X6512857Y-15107429D01*
X6498571Y-15150286D01*
X6327143Y-15321714D01*
X6512857Y-15321714D01*
X6641428Y-15321714D02*
X6641428Y-15121714D01*
X6641428Y-15150286D02*
X6655714Y-15136000D01*
X6684286Y-15121714D01*
X6727143Y-15121714D01*
X6755714Y-15136000D01*
X6770000Y-15164571D01*
X6770000Y-15321714D01*
X6770000Y-15164571D02*
X6784286Y-15136000D01*
X6812857Y-15121714D01*
X6855714Y-15121714D01*
X6884286Y-15136000D01*
X6898571Y-15164571D01*
X6898571Y-15321714D01*
X7041428Y-15321714D02*
X7041428Y-15121714D01*
X7041428Y-15150286D02*
X7055714Y-15136000D01*
X7084286Y-15121714D01*
X7127143Y-15121714D01*
X7155714Y-15136000D01*
X7170000Y-15164571D01*
X7170000Y-15321714D01*
X7170000Y-15164571D02*
X7184286Y-15136000D01*
X7212857Y-15121714D01*
X7255714Y-15121714D01*
X7284286Y-15136000D01*
X7298571Y-15164571D01*
X7298571Y-15321714D01*
X7884286Y-15007429D02*
X7627143Y-15393143D01*
X8270000Y-15021714D02*
X8298571Y-15021714D01*
X8327143Y-15036000D01*
X8341428Y-15050286D01*
X8355714Y-15078857D01*
X8370000Y-15136000D01*
X8370000Y-15207429D01*
X8355714Y-15264571D01*
X8341428Y-15293143D01*
X8327143Y-15307429D01*
X8298571Y-15321714D01*
X8270000Y-15321714D01*
X8241428Y-15307429D01*
X8227143Y-15293143D01*
X8212857Y-15264571D01*
X8198571Y-15207429D01*
X8198571Y-15136000D01*
X8212857Y-15078857D01*
X8227143Y-15050286D01*
X8241428Y-15036000D01*
X8270000Y-15021714D01*
X8498571Y-15293143D02*
X8512857Y-15307429D01*
X8498571Y-15321714D01*
X8484286Y-15307429D01*
X8498571Y-15293143D01*
X8498571Y-15321714D01*
X8698571Y-15021714D02*
X8727143Y-15021714D01*
X8755714Y-15036000D01*
X8770000Y-15050286D01*
X8784286Y-15078857D01*
X8798571Y-15136000D01*
X8798571Y-15207429D01*
X8784286Y-15264571D01*
X8770000Y-15293143D01*
X8755714Y-15307429D01*
X8727143Y-15321714D01*
X8698571Y-15321714D01*
X8670000Y-15307429D01*
X8655714Y-15293143D01*
X8641428Y-15264571D01*
X8627143Y-15207429D01*
X8627143Y-15136000D01*
X8641428Y-15078857D01*
X8655714Y-15050286D01*
X8670000Y-15036000D01*
X8698571Y-15021714D01*
X9055714Y-15121714D02*
X9055714Y-15321714D01*
X8984286Y-15007429D02*
X8912857Y-15221714D01*
X9098571Y-15221714D01*
X9270000Y-15021714D02*
X9298571Y-15021714D01*
X9327143Y-15036000D01*
X9341428Y-15050286D01*
X9355714Y-15078857D01*
X9370000Y-15136000D01*
X9370000Y-15207429D01*
X9355714Y-15264571D01*
X9341428Y-15293143D01*
X9327143Y-15307429D01*
X9298571Y-15321714D01*
X9270000Y-15321714D01*
X9241428Y-15307429D01*
X9227143Y-15293143D01*
X9212857Y-15264571D01*
X9198571Y-15207429D01*
X9198571Y-15136000D01*
X9212857Y-15078857D01*
X9227143Y-15050286D01*
X9241428Y-15036000D01*
X9270000Y-15021714D01*
X9484286Y-15021714D02*
X9484286Y-15078857D01*
X9598571Y-15021714D02*
X9598571Y-15078857D01*
X10041428Y-15436000D02*
X10027143Y-15421714D01*
X9998571Y-15378857D01*
X9984286Y-15350286D01*
X9970000Y-15307429D01*
X9955714Y-15236000D01*
X9955714Y-15178857D01*
X9970000Y-15107429D01*
X9984286Y-15064571D01*
X9998571Y-15036000D01*
X10027143Y-14993143D01*
X10041428Y-14978857D01*
X10312857Y-15321714D02*
X10141428Y-15321714D01*
X10227143Y-15321714D02*
X10227143Y-15021714D01*
X10198571Y-15064571D01*
X10170000Y-15093143D01*
X10141428Y-15107429D01*
X10427143Y-15050286D02*
X10441428Y-15036000D01*
X10470000Y-15021714D01*
X10541428Y-15021714D01*
X10570000Y-15036000D01*
X10584286Y-15050286D01*
X10598571Y-15078857D01*
X10598571Y-15107429D01*
X10584286Y-15150286D01*
X10412857Y-15321714D01*
X10598571Y-15321714D01*
X10955714Y-15321714D02*
X10955714Y-15021714D01*
X11084286Y-15321714D02*
X11084286Y-15164571D01*
X11070000Y-15136000D01*
X11041428Y-15121714D01*
X10998571Y-15121714D01*
X10970000Y-15136000D01*
X10955714Y-15150286D01*
X11270000Y-15321714D02*
X11241428Y-15307429D01*
X11227143Y-15293143D01*
X11212857Y-15264571D01*
X11212857Y-15178857D01*
X11227143Y-15150286D01*
X11241428Y-15136000D01*
X11270000Y-15121714D01*
X11312857Y-15121714D01*
X11341428Y-15136000D01*
X11355714Y-15150286D01*
X11370000Y-15178857D01*
X11370000Y-15264571D01*
X11355714Y-15293143D01*
X11341428Y-15307429D01*
X11312857Y-15321714D01*
X11270000Y-15321714D01*
X11541428Y-15321714D02*
X11512857Y-15307429D01*
X11498571Y-15278857D01*
X11498571Y-15021714D01*
X11770000Y-15307429D02*
X11741428Y-15321714D01*
X11684286Y-15321714D01*
X11655714Y-15307429D01*
X11641428Y-15278857D01*
X11641428Y-15164571D01*
X11655714Y-15136000D01*
X11684286Y-15121714D01*
X11741428Y-15121714D01*
X11770000Y-15136000D01*
X11784286Y-15164571D01*
X11784286Y-15193143D01*
X11641428Y-15221714D01*
X11898571Y-15307429D02*
X11927143Y-15321714D01*
X11984286Y-15321714D01*
X12012857Y-15307429D01*
X12027143Y-15278857D01*
X12027143Y-15264571D01*
X12012857Y-15236000D01*
X11984286Y-15221714D01*
X11941428Y-15221714D01*
X11912857Y-15207429D01*
X11898571Y-15178857D01*
X11898571Y-15164571D01*
X11912857Y-15136000D01*
X11941428Y-15121714D01*
X11984286Y-15121714D01*
X12012857Y-15136000D01*
X12127143Y-15436000D02*
X12141428Y-15421714D01*
X12170000Y-15378857D01*
X12184286Y-15350286D01*
X12198571Y-15307429D01*
X12212857Y-15236000D01*
X12212857Y-15178857D01*
X12198571Y-15107429D01*
X12184286Y-15064571D01*
X12170000Y-15036000D01*
X12141428Y-14993143D01*
X12127143Y-14978857D01*
M02*
