M48
;DRILL file {pcbnew (2015-02-15 BZR 5420)-product} date Tue 17 Feb 2015 11:56:42 AM EET
;FORMAT={-:-/ absolute / metric / decimal}
FMAT,2
METRIC,TZ
T1C0.400
T2C1.016
%
G90
G05
M71
T1
X60.814Y-69.973
X62.211Y-49.399
X62.465Y-64.131
X62.592Y-65.655
X63.1Y-69.973
X63.862Y-45.081
X65.259Y-66.163
X66.91Y-43.049
X66.91Y-63.877
X67.545Y-57.908
X68.307Y-36.445
X68.434Y-66.417
X69.704Y-69.973
X71.99Y-69.973
X76.064Y-69.973
X77.461Y-49.399
X77.715Y-64.131
X77.842Y-65.655
X78.35Y-69.973
X79.112Y-45.081
X80.509Y-66.163
X82.16Y-43.049
X82.16Y-63.877
X82.795Y-57.908
X83.557Y-36.445
X83.684Y-66.417
X84.954Y-69.973
X87.24Y-69.973
T2
X63.608Y-24.253
X63.608Y-26.793
X66.148Y-24.253
X66.148Y-26.793
X68.688Y-24.253
X68.688Y-26.793
X78.858Y-24.253
X78.858Y-26.793
X81.398Y-24.253
X81.398Y-26.793
X83.938Y-24.253
X83.938Y-26.793
T0
M30
