G04 #@! TF.FileFunction,Legend,Top*
%FSLAX46Y46*%
G04 Gerber Fmt 4.6, Leading zero omitted, Abs format (unit mm)*
G04 Created by KiCad (PCBNEW (2015-02-15 BZR 5420)-product) date Tue 17 Feb 2015 11:56:18 AM EET*
%MOMM*%
G01*
G04 APERTURE LIST*
%ADD10C,0.100000*%
%ADD11C,0.150000*%
G04 APERTURE END LIST*
D10*
D11*
X69338240Y-53470906D02*
X69338240Y-52772406D01*
X69338240Y-54471666D02*
X69338240Y-55170166D01*
X68037760Y-53470906D02*
X68037760Y-52772406D01*
X68037760Y-55170166D02*
X68037760Y-54471666D01*
X68053000Y-52772406D02*
X69323000Y-52772406D01*
X69323000Y-55170166D02*
X68053000Y-55170166D01*
X69404000Y-56427286D02*
X69404000Y-56727286D01*
X69404000Y-56727286D02*
X69104000Y-56727286D01*
X69104000Y-58627286D02*
X70304000Y-58627286D01*
X70304000Y-56427286D02*
X69104000Y-56427286D01*
X69104000Y-56427286D02*
X69104000Y-58627286D01*
X70304000Y-58627286D02*
X70304000Y-56427286D01*
X60369500Y-58281666D02*
X60369500Y-58987786D01*
X60369500Y-58987786D02*
X61766500Y-58987786D01*
X61766500Y-58987786D02*
X61766500Y-58281666D01*
X60369500Y-56574786D02*
X60369500Y-57280906D01*
X60369500Y-56574786D02*
X61766500Y-56574786D01*
X61766500Y-56574786D02*
X61766500Y-57280906D01*
X71370240Y-53470906D02*
X71370240Y-52772406D01*
X71370240Y-54471666D02*
X71370240Y-55170166D01*
X70069760Y-53470906D02*
X70069760Y-52772406D01*
X70069760Y-55170166D02*
X70069760Y-54471666D01*
X70085000Y-52772406D02*
X71355000Y-52772406D01*
X71355000Y-55170166D02*
X70085000Y-55170166D01*
X62124640Y-51677666D02*
X62124640Y-63376906D01*
X67123360Y-63376906D02*
X67123360Y-51677666D01*
X62124640Y-63376906D02*
X62973000Y-63376906D01*
X67123360Y-63376906D02*
X66275000Y-63376906D01*
X62124640Y-51677666D02*
X62973000Y-51677666D01*
X67123360Y-51677666D02*
X66275000Y-51677666D01*
X69338240Y-60582906D02*
X69338240Y-59884406D01*
X69338240Y-61583666D02*
X69338240Y-62282166D01*
X68037760Y-60582906D02*
X68037760Y-59884406D01*
X68037760Y-62282166D02*
X68037760Y-61583666D01*
X68053000Y-59884406D02*
X69323000Y-59884406D01*
X69323000Y-62282166D02*
X68053000Y-62282166D01*
X71418500Y-60582906D02*
X71418500Y-59876786D01*
X71418500Y-59876786D02*
X70021500Y-59876786D01*
X70021500Y-59876786D02*
X70021500Y-60582906D01*
X71418500Y-62289786D02*
X71418500Y-61583666D01*
X71418500Y-62289786D02*
X70021500Y-62289786D01*
X70021500Y-62289786D02*
X70021500Y-61583666D01*
X69005500Y-65139666D02*
X69005500Y-65845786D01*
X69005500Y-65845786D02*
X70402500Y-65845786D01*
X70402500Y-65845786D02*
X70402500Y-65139666D01*
X69005500Y-63432786D02*
X69005500Y-64138906D01*
X69005500Y-63432786D02*
X70402500Y-63432786D01*
X70402500Y-63432786D02*
X70402500Y-64138906D01*
X71339760Y-68187666D02*
X71339760Y-68886166D01*
X71339760Y-67186906D02*
X71339760Y-66488406D01*
X72640240Y-68187666D02*
X72640240Y-68886166D01*
X72640240Y-66488406D02*
X72640240Y-67186906D01*
X72625000Y-68886166D02*
X71355000Y-68886166D01*
X71355000Y-66488406D02*
X72625000Y-66488406D01*
X60163760Y-68187666D02*
X60163760Y-68886166D01*
X60163760Y-67186906D02*
X60163760Y-66488406D01*
X61464240Y-68187666D02*
X61464240Y-68886166D01*
X61464240Y-66488406D02*
X61464240Y-67186906D01*
X61449000Y-68886166D02*
X60179000Y-68886166D01*
X60179000Y-66488406D02*
X61449000Y-66488406D01*
X69958000Y-25523286D02*
X67418000Y-25523286D01*
X67418000Y-25523286D02*
X67418000Y-22983286D01*
X69958000Y-22983286D02*
X62338000Y-22983286D01*
X62338000Y-22983286D02*
X62338000Y-28063286D01*
X62338000Y-28063286D02*
X67418000Y-28063286D01*
X69958000Y-22983286D02*
X69958000Y-25523286D01*
X69958000Y-28063286D02*
X69958000Y-25523286D01*
X67418000Y-28063286D02*
X69958000Y-28063286D01*
X66656000Y-33270286D02*
X63608000Y-33270286D01*
X63608000Y-33270286D02*
X63608000Y-32508286D01*
X63608000Y-32508286D02*
X66656000Y-32508286D01*
X66656000Y-32508286D02*
X66656000Y-33270286D01*
X63036500Y-32642906D02*
X63036500Y-31936786D01*
X63036500Y-31936786D02*
X61639500Y-31936786D01*
X61639500Y-31936786D02*
X61639500Y-32642906D01*
X63036500Y-34349786D02*
X63036500Y-33643666D01*
X63036500Y-34349786D02*
X61639500Y-34349786D01*
X61639500Y-34349786D02*
X61639500Y-33643666D01*
X71291500Y-65139666D02*
X71291500Y-65845786D01*
X71291500Y-65845786D02*
X72688500Y-65845786D01*
X72688500Y-65845786D02*
X72688500Y-65139666D01*
X71291500Y-63432786D02*
X71291500Y-64138906D01*
X71291500Y-63432786D02*
X72688500Y-63432786D01*
X72688500Y-63432786D02*
X72688500Y-64138906D01*
X60115500Y-65139666D02*
X60115500Y-65845786D01*
X60115500Y-65845786D02*
X61512500Y-65845786D01*
X61512500Y-65845786D02*
X61512500Y-65139666D01*
X60115500Y-63432786D02*
X60115500Y-64138906D01*
X60115500Y-63432786D02*
X61512500Y-63432786D01*
X61512500Y-63432786D02*
X61512500Y-64138906D01*
X69005500Y-68187666D02*
X69005500Y-68893786D01*
X69005500Y-68893786D02*
X70402500Y-68893786D01*
X70402500Y-68893786D02*
X70402500Y-68187666D01*
X69005500Y-66480786D02*
X69005500Y-67186906D01*
X69005500Y-66480786D02*
X70402500Y-66480786D01*
X70402500Y-66480786D02*
X70402500Y-67186906D01*
X62401500Y-68187666D02*
X62401500Y-68893786D01*
X62401500Y-68893786D02*
X63798500Y-68893786D01*
X63798500Y-68893786D02*
X63798500Y-68187666D01*
X62401500Y-66480786D02*
X62401500Y-67186906D01*
X62401500Y-66480786D02*
X63798500Y-66480786D01*
X63798500Y-66480786D02*
X63798500Y-67186906D01*
X69338240Y-33404906D02*
X69338240Y-32706406D01*
X69338240Y-34405666D02*
X69338240Y-35104166D01*
X68037760Y-33404906D02*
X68037760Y-32706406D01*
X68037760Y-35104166D02*
X68037760Y-34405666D01*
X68053000Y-32706406D02*
X69323000Y-32706406D01*
X69323000Y-35104166D02*
X68053000Y-35104166D01*
X67072000Y-67287286D02*
X67072000Y-68837286D01*
X68272000Y-67287286D02*
X68272000Y-68837286D01*
X65732000Y-68087286D02*
X65732000Y-66537286D01*
X64532000Y-68087286D02*
X64532000Y-66537286D01*
X70656500Y-44326906D02*
X70656500Y-43620786D01*
X70656500Y-43620786D02*
X69259500Y-43620786D01*
X69259500Y-43620786D02*
X69259500Y-44326906D01*
X70656500Y-46033786D02*
X70656500Y-45327666D01*
X70656500Y-46033786D02*
X69259500Y-46033786D01*
X69259500Y-46033786D02*
X69259500Y-45327666D01*
X65632380Y-48573786D02*
X66338500Y-48573786D01*
X66338500Y-48573786D02*
X66338500Y-47176786D01*
X66338500Y-47176786D02*
X65632380Y-47176786D01*
X63925500Y-48573786D02*
X64631620Y-48573786D01*
X63925500Y-48573786D02*
X63925500Y-47176786D01*
X63925500Y-47176786D02*
X64631620Y-47176786D01*
X67679620Y-47176786D02*
X66973500Y-47176786D01*
X66973500Y-47176786D02*
X66973500Y-48573786D01*
X66973500Y-48573786D02*
X67679620Y-48573786D01*
X69386500Y-47176786D02*
X68680380Y-47176786D01*
X69386500Y-47176786D02*
X69386500Y-48573786D01*
X69386500Y-48573786D02*
X68680380Y-48573786D01*
X70656500Y-37976906D02*
X70656500Y-37270786D01*
X70656500Y-37270786D02*
X69259500Y-37270786D01*
X69259500Y-37270786D02*
X69259500Y-37976906D01*
X70656500Y-39683786D02*
X70656500Y-38977666D01*
X70656500Y-39683786D02*
X69259500Y-39683786D01*
X69259500Y-39683786D02*
X69259500Y-38977666D01*
X67164000Y-36953286D02*
X67164000Y-46605286D01*
X67164000Y-46605286D02*
X63354000Y-46605286D01*
X63354000Y-46605286D02*
X63354000Y-36953286D01*
X63354000Y-36953286D02*
X67164000Y-36953286D01*
X65894000Y-36953286D02*
X65894000Y-37715286D01*
X65894000Y-37715286D02*
X64878000Y-37715286D01*
X64878000Y-37715286D02*
X64878000Y-36953286D01*
X84588240Y-53470906D02*
X84588240Y-52772406D01*
X84588240Y-54471666D02*
X84588240Y-55170166D01*
X83287760Y-53470906D02*
X83287760Y-52772406D01*
X83287760Y-55170166D02*
X83287760Y-54471666D01*
X83303000Y-52772406D02*
X84573000Y-52772406D01*
X84573000Y-55170166D02*
X83303000Y-55170166D01*
X84654000Y-56427286D02*
X84654000Y-56727286D01*
X84654000Y-56727286D02*
X84354000Y-56727286D01*
X84354000Y-58627286D02*
X85554000Y-58627286D01*
X85554000Y-56427286D02*
X84354000Y-56427286D01*
X84354000Y-56427286D02*
X84354000Y-58627286D01*
X85554000Y-58627286D02*
X85554000Y-56427286D01*
X75619500Y-58281666D02*
X75619500Y-58987786D01*
X75619500Y-58987786D02*
X77016500Y-58987786D01*
X77016500Y-58987786D02*
X77016500Y-58281666D01*
X75619500Y-56574786D02*
X75619500Y-57280906D01*
X75619500Y-56574786D02*
X77016500Y-56574786D01*
X77016500Y-56574786D02*
X77016500Y-57280906D01*
X86620240Y-53470906D02*
X86620240Y-52772406D01*
X86620240Y-54471666D02*
X86620240Y-55170166D01*
X85319760Y-53470906D02*
X85319760Y-52772406D01*
X85319760Y-55170166D02*
X85319760Y-54471666D01*
X85335000Y-52772406D02*
X86605000Y-52772406D01*
X86605000Y-55170166D02*
X85335000Y-55170166D01*
X77374640Y-51677666D02*
X77374640Y-63376906D01*
X82373360Y-63376906D02*
X82373360Y-51677666D01*
X77374640Y-63376906D02*
X78223000Y-63376906D01*
X82373360Y-63376906D02*
X81525000Y-63376906D01*
X77374640Y-51677666D02*
X78223000Y-51677666D01*
X82373360Y-51677666D02*
X81525000Y-51677666D01*
X84588240Y-60582906D02*
X84588240Y-59884406D01*
X84588240Y-61583666D02*
X84588240Y-62282166D01*
X83287760Y-60582906D02*
X83287760Y-59884406D01*
X83287760Y-62282166D02*
X83287760Y-61583666D01*
X83303000Y-59884406D02*
X84573000Y-59884406D01*
X84573000Y-62282166D02*
X83303000Y-62282166D01*
X86668500Y-60582906D02*
X86668500Y-59876786D01*
X86668500Y-59876786D02*
X85271500Y-59876786D01*
X85271500Y-59876786D02*
X85271500Y-60582906D01*
X86668500Y-62289786D02*
X86668500Y-61583666D01*
X86668500Y-62289786D02*
X85271500Y-62289786D01*
X85271500Y-62289786D02*
X85271500Y-61583666D01*
X84255500Y-65139666D02*
X84255500Y-65845786D01*
X84255500Y-65845786D02*
X85652500Y-65845786D01*
X85652500Y-65845786D02*
X85652500Y-65139666D01*
X84255500Y-63432786D02*
X84255500Y-64138906D01*
X84255500Y-63432786D02*
X85652500Y-63432786D01*
X85652500Y-63432786D02*
X85652500Y-64138906D01*
X86589760Y-68187666D02*
X86589760Y-68886166D01*
X86589760Y-67186906D02*
X86589760Y-66488406D01*
X87890240Y-68187666D02*
X87890240Y-68886166D01*
X87890240Y-66488406D02*
X87890240Y-67186906D01*
X87875000Y-68886166D02*
X86605000Y-68886166D01*
X86605000Y-66488406D02*
X87875000Y-66488406D01*
X75413760Y-68187666D02*
X75413760Y-68886166D01*
X75413760Y-67186906D02*
X75413760Y-66488406D01*
X76714240Y-68187666D02*
X76714240Y-68886166D01*
X76714240Y-66488406D02*
X76714240Y-67186906D01*
X76699000Y-68886166D02*
X75429000Y-68886166D01*
X75429000Y-66488406D02*
X76699000Y-66488406D01*
X85208000Y-25523286D02*
X82668000Y-25523286D01*
X82668000Y-25523286D02*
X82668000Y-22983286D01*
X85208000Y-22983286D02*
X77588000Y-22983286D01*
X77588000Y-22983286D02*
X77588000Y-28063286D01*
X77588000Y-28063286D02*
X82668000Y-28063286D01*
X85208000Y-22983286D02*
X85208000Y-25523286D01*
X85208000Y-28063286D02*
X85208000Y-25523286D01*
X82668000Y-28063286D02*
X85208000Y-28063286D01*
X81906000Y-33270286D02*
X78858000Y-33270286D01*
X78858000Y-33270286D02*
X78858000Y-32508286D01*
X78858000Y-32508286D02*
X81906000Y-32508286D01*
X81906000Y-32508286D02*
X81906000Y-33270286D01*
X78286500Y-32642906D02*
X78286500Y-31936786D01*
X78286500Y-31936786D02*
X76889500Y-31936786D01*
X76889500Y-31936786D02*
X76889500Y-32642906D01*
X78286500Y-34349786D02*
X78286500Y-33643666D01*
X78286500Y-34349786D02*
X76889500Y-34349786D01*
X76889500Y-34349786D02*
X76889500Y-33643666D01*
X86541500Y-65139666D02*
X86541500Y-65845786D01*
X86541500Y-65845786D02*
X87938500Y-65845786D01*
X87938500Y-65845786D02*
X87938500Y-65139666D01*
X86541500Y-63432786D02*
X86541500Y-64138906D01*
X86541500Y-63432786D02*
X87938500Y-63432786D01*
X87938500Y-63432786D02*
X87938500Y-64138906D01*
X75365500Y-65139666D02*
X75365500Y-65845786D01*
X75365500Y-65845786D02*
X76762500Y-65845786D01*
X76762500Y-65845786D02*
X76762500Y-65139666D01*
X75365500Y-63432786D02*
X75365500Y-64138906D01*
X75365500Y-63432786D02*
X76762500Y-63432786D01*
X76762500Y-63432786D02*
X76762500Y-64138906D01*
X84255500Y-68187666D02*
X84255500Y-68893786D01*
X84255500Y-68893786D02*
X85652500Y-68893786D01*
X85652500Y-68893786D02*
X85652500Y-68187666D01*
X84255500Y-66480786D02*
X84255500Y-67186906D01*
X84255500Y-66480786D02*
X85652500Y-66480786D01*
X85652500Y-66480786D02*
X85652500Y-67186906D01*
X77651500Y-68187666D02*
X77651500Y-68893786D01*
X77651500Y-68893786D02*
X79048500Y-68893786D01*
X79048500Y-68893786D02*
X79048500Y-68187666D01*
X77651500Y-66480786D02*
X77651500Y-67186906D01*
X77651500Y-66480786D02*
X79048500Y-66480786D01*
X79048500Y-66480786D02*
X79048500Y-67186906D01*
X84588240Y-33404906D02*
X84588240Y-32706406D01*
X84588240Y-34405666D02*
X84588240Y-35104166D01*
X83287760Y-33404906D02*
X83287760Y-32706406D01*
X83287760Y-35104166D02*
X83287760Y-34405666D01*
X83303000Y-32706406D02*
X84573000Y-32706406D01*
X84573000Y-35104166D02*
X83303000Y-35104166D01*
X82322000Y-67287286D02*
X82322000Y-68837286D01*
X83522000Y-67287286D02*
X83522000Y-68837286D01*
X80982000Y-68087286D02*
X80982000Y-66537286D01*
X79782000Y-68087286D02*
X79782000Y-66537286D01*
X85906500Y-44326906D02*
X85906500Y-43620786D01*
X85906500Y-43620786D02*
X84509500Y-43620786D01*
X84509500Y-43620786D02*
X84509500Y-44326906D01*
X85906500Y-46033786D02*
X85906500Y-45327666D01*
X85906500Y-46033786D02*
X84509500Y-46033786D01*
X84509500Y-46033786D02*
X84509500Y-45327666D01*
X80882380Y-48573786D02*
X81588500Y-48573786D01*
X81588500Y-48573786D02*
X81588500Y-47176786D01*
X81588500Y-47176786D02*
X80882380Y-47176786D01*
X79175500Y-48573786D02*
X79881620Y-48573786D01*
X79175500Y-48573786D02*
X79175500Y-47176786D01*
X79175500Y-47176786D02*
X79881620Y-47176786D01*
X82929620Y-47176786D02*
X82223500Y-47176786D01*
X82223500Y-47176786D02*
X82223500Y-48573786D01*
X82223500Y-48573786D02*
X82929620Y-48573786D01*
X84636500Y-47176786D02*
X83930380Y-47176786D01*
X84636500Y-47176786D02*
X84636500Y-48573786D01*
X84636500Y-48573786D02*
X83930380Y-48573786D01*
X85906500Y-37976906D02*
X85906500Y-37270786D01*
X85906500Y-37270786D02*
X84509500Y-37270786D01*
X84509500Y-37270786D02*
X84509500Y-37976906D01*
X85906500Y-39683786D02*
X85906500Y-38977666D01*
X85906500Y-39683786D02*
X84509500Y-39683786D01*
X84509500Y-39683786D02*
X84509500Y-38977666D01*
X82414000Y-36953286D02*
X82414000Y-46605286D01*
X82414000Y-46605286D02*
X78604000Y-46605286D01*
X78604000Y-46605286D02*
X78604000Y-36953286D01*
X78604000Y-36953286D02*
X82414000Y-36953286D01*
X81144000Y-36953286D02*
X81144000Y-37715286D01*
X81144000Y-37715286D02*
X80128000Y-37715286D01*
X80128000Y-37715286D02*
X80128000Y-36953286D01*
X68521334Y-54328429D02*
X68473715Y-54376048D01*
X68330858Y-54423667D01*
X68235620Y-54423667D01*
X68092762Y-54376048D01*
X67997524Y-54280810D01*
X67949905Y-54185572D01*
X67902286Y-53995096D01*
X67902286Y-53852238D01*
X67949905Y-53661762D01*
X67997524Y-53566524D01*
X68092762Y-53471286D01*
X68235620Y-53423667D01*
X68330858Y-53423667D01*
X68473715Y-53471286D01*
X68521334Y-53518905D01*
X69473715Y-54423667D02*
X68902286Y-54423667D01*
X69188000Y-54423667D02*
X69188000Y-53423667D01*
X69092762Y-53566524D01*
X68997524Y-53661762D01*
X68902286Y-53709381D01*
X68045143Y-56074667D02*
X67473714Y-56074667D01*
X67759428Y-56074667D02*
X67759428Y-55074667D01*
X67664190Y-55217524D01*
X67568952Y-55312762D01*
X67473714Y-55360381D01*
X68616571Y-55503238D02*
X68521333Y-55455619D01*
X68473714Y-55408000D01*
X68426095Y-55312762D01*
X68426095Y-55265143D01*
X68473714Y-55169905D01*
X68521333Y-55122286D01*
X68616571Y-55074667D01*
X68807048Y-55074667D01*
X68902286Y-55122286D01*
X68949905Y-55169905D01*
X68997524Y-55265143D01*
X68997524Y-55312762D01*
X68949905Y-55408000D01*
X68902286Y-55455619D01*
X68807048Y-55503238D01*
X68616571Y-55503238D01*
X68521333Y-55550857D01*
X68473714Y-55598476D01*
X68426095Y-55693715D01*
X68426095Y-55884191D01*
X68473714Y-55979429D01*
X68521333Y-56027048D01*
X68616571Y-56074667D01*
X68807048Y-56074667D01*
X68902286Y-56027048D01*
X68949905Y-55979429D01*
X68997524Y-55884191D01*
X68997524Y-55693715D01*
X68949905Y-55598476D01*
X68902286Y-55550857D01*
X68807048Y-55503238D01*
X69426095Y-55408000D02*
X69426095Y-56408000D01*
X69426095Y-55455619D02*
X69521333Y-55408000D01*
X69711810Y-55408000D01*
X69807048Y-55455619D01*
X69854667Y-55503238D01*
X69902286Y-55598476D01*
X69902286Y-55884191D01*
X69854667Y-55979429D01*
X69807048Y-56027048D01*
X69711810Y-56074667D01*
X69521333Y-56074667D01*
X69426095Y-56027048D01*
X69556381Y-59689191D02*
X70365905Y-59689191D01*
X70461143Y-59641572D01*
X70508762Y-59593953D01*
X70556381Y-59498715D01*
X70556381Y-59308238D01*
X70508762Y-59213000D01*
X70461143Y-59165381D01*
X70365905Y-59117762D01*
X69556381Y-59117762D01*
X70556381Y-58117762D02*
X70556381Y-58689191D01*
X70556381Y-58403477D02*
X69556381Y-58403477D01*
X69699238Y-58498715D01*
X69794476Y-58593953D01*
X69842095Y-58689191D01*
X60837834Y-58170167D02*
X60504500Y-57693976D01*
X60266405Y-58170167D02*
X60266405Y-57170167D01*
X60647358Y-57170167D01*
X60742596Y-57217786D01*
X60790215Y-57265405D01*
X60837834Y-57360643D01*
X60837834Y-57503500D01*
X60790215Y-57598738D01*
X60742596Y-57646357D01*
X60647358Y-57693976D01*
X60266405Y-57693976D01*
X61790215Y-58170167D02*
X61218786Y-58170167D01*
X61504500Y-58170167D02*
X61504500Y-57170167D01*
X61409262Y-57313024D01*
X61314024Y-57408262D01*
X61218786Y-57455881D01*
X60782286Y-59932927D02*
X60210857Y-59932927D01*
X60496571Y-59932927D02*
X60496571Y-58932927D01*
X60401333Y-59075784D01*
X60306095Y-59171022D01*
X60210857Y-59218641D01*
X61210857Y-59932927D02*
X61210857Y-58932927D01*
X61544191Y-59647213D01*
X61877524Y-58932927D01*
X61877524Y-59932927D01*
X70553334Y-54328429D02*
X70505715Y-54376048D01*
X70362858Y-54423667D01*
X70267620Y-54423667D01*
X70124762Y-54376048D01*
X70029524Y-54280810D01*
X69981905Y-54185572D01*
X69934286Y-53995096D01*
X69934286Y-53852238D01*
X69981905Y-53661762D01*
X70029524Y-53566524D01*
X70124762Y-53471286D01*
X70267620Y-53423667D01*
X70362858Y-53423667D01*
X70505715Y-53471286D01*
X70553334Y-53518905D01*
X70886667Y-53423667D02*
X71505715Y-53423667D01*
X71172381Y-53804619D01*
X71315239Y-53804619D01*
X71410477Y-53852238D01*
X71458096Y-53899857D01*
X71505715Y-53995096D01*
X71505715Y-54233191D01*
X71458096Y-54328429D01*
X71410477Y-54376048D01*
X71315239Y-54423667D01*
X71029524Y-54423667D01*
X70934286Y-54376048D01*
X70886667Y-54328429D01*
X70553334Y-56074667D02*
X69981905Y-56074667D01*
X70267619Y-56074667D02*
X70267619Y-55074667D01*
X70172381Y-55217524D01*
X70077143Y-55312762D01*
X69981905Y-55360381D01*
X71410477Y-55408000D02*
X71410477Y-56074667D01*
X70981905Y-55408000D02*
X70981905Y-55931810D01*
X71029524Y-56027048D01*
X71124762Y-56074667D01*
X71267620Y-56074667D01*
X71362858Y-56027048D01*
X71410477Y-55979429D01*
X69156381Y-58336810D02*
X70156381Y-57670143D01*
X69156381Y-57670143D02*
X70156381Y-58336810D01*
X70156381Y-56765381D02*
X70156381Y-57336810D01*
X70156381Y-57051096D02*
X69156381Y-57051096D01*
X69299238Y-57146334D01*
X69394476Y-57241572D01*
X69442095Y-57336810D01*
X68521334Y-61440429D02*
X68473715Y-61488048D01*
X68330858Y-61535667D01*
X68235620Y-61535667D01*
X68092762Y-61488048D01*
X67997524Y-61392810D01*
X67949905Y-61297572D01*
X67902286Y-61107096D01*
X67902286Y-60964238D01*
X67949905Y-60773762D01*
X67997524Y-60678524D01*
X68092762Y-60583286D01*
X68235620Y-60535667D01*
X68330858Y-60535667D01*
X68473715Y-60583286D01*
X68521334Y-60630905D01*
X68902286Y-60630905D02*
X68949905Y-60583286D01*
X69045143Y-60535667D01*
X69283239Y-60535667D01*
X69378477Y-60583286D01*
X69426096Y-60630905D01*
X69473715Y-60726143D01*
X69473715Y-60821381D01*
X69426096Y-60964238D01*
X68854667Y-61535667D01*
X69473715Y-61535667D01*
X68045143Y-63186667D02*
X67473714Y-63186667D01*
X67759428Y-63186667D02*
X67759428Y-62186667D01*
X67664190Y-62329524D01*
X67568952Y-62424762D01*
X67473714Y-62472381D01*
X68616571Y-62615238D02*
X68521333Y-62567619D01*
X68473714Y-62520000D01*
X68426095Y-62424762D01*
X68426095Y-62377143D01*
X68473714Y-62281905D01*
X68521333Y-62234286D01*
X68616571Y-62186667D01*
X68807048Y-62186667D01*
X68902286Y-62234286D01*
X68949905Y-62281905D01*
X68997524Y-62377143D01*
X68997524Y-62424762D01*
X68949905Y-62520000D01*
X68902286Y-62567619D01*
X68807048Y-62615238D01*
X68616571Y-62615238D01*
X68521333Y-62662857D01*
X68473714Y-62710476D01*
X68426095Y-62805715D01*
X68426095Y-62996191D01*
X68473714Y-63091429D01*
X68521333Y-63139048D01*
X68616571Y-63186667D01*
X68807048Y-63186667D01*
X68902286Y-63139048D01*
X68949905Y-63091429D01*
X68997524Y-62996191D01*
X68997524Y-62805715D01*
X68949905Y-62710476D01*
X68902286Y-62662857D01*
X68807048Y-62615238D01*
X69426095Y-62520000D02*
X69426095Y-63520000D01*
X69426095Y-62567619D02*
X69521333Y-62520000D01*
X69711810Y-62520000D01*
X69807048Y-62567619D01*
X69854667Y-62615238D01*
X69902286Y-62710476D01*
X69902286Y-62996191D01*
X69854667Y-63091429D01*
X69807048Y-63139048D01*
X69711810Y-63186667D01*
X69521333Y-63186667D01*
X69426095Y-63139048D01*
X70616834Y-61599167D02*
X70283500Y-61122976D01*
X70045405Y-61599167D02*
X70045405Y-60599167D01*
X70426358Y-60599167D01*
X70521596Y-60646786D01*
X70569215Y-60694405D01*
X70616834Y-60789643D01*
X70616834Y-60932500D01*
X70569215Y-61027738D01*
X70521596Y-61075357D01*
X70426358Y-61122976D01*
X70045405Y-61122976D01*
X70997786Y-60694405D02*
X71045405Y-60646786D01*
X71140643Y-60599167D01*
X71378739Y-60599167D01*
X71473977Y-60646786D01*
X71521596Y-60694405D01*
X71569215Y-60789643D01*
X71569215Y-60884881D01*
X71521596Y-61027738D01*
X70950167Y-61599167D01*
X71569215Y-61599167D01*
X70172381Y-58836407D02*
X70267620Y-58836407D01*
X70362858Y-58884026D01*
X70410477Y-58931645D01*
X70458096Y-59026883D01*
X70505715Y-59217359D01*
X70505715Y-59455455D01*
X70458096Y-59645931D01*
X70410477Y-59741169D01*
X70362858Y-59788788D01*
X70267620Y-59836407D01*
X70172381Y-59836407D01*
X70077143Y-59788788D01*
X70029524Y-59741169D01*
X69981905Y-59645931D01*
X69934286Y-59455455D01*
X69934286Y-59217359D01*
X69981905Y-59026883D01*
X70029524Y-58931645D01*
X70077143Y-58884026D01*
X70172381Y-58836407D01*
X71505715Y-59836407D02*
X71172381Y-59360216D01*
X70934286Y-59836407D02*
X70934286Y-58836407D01*
X71315239Y-58836407D01*
X71410477Y-58884026D01*
X71458096Y-58931645D01*
X71505715Y-59026883D01*
X71505715Y-59169740D01*
X71458096Y-59264978D01*
X71410477Y-59312597D01*
X71315239Y-59360216D01*
X70934286Y-59360216D01*
X69537334Y-65091667D02*
X69204000Y-64615476D01*
X68965905Y-65091667D02*
X68965905Y-64091667D01*
X69346858Y-64091667D01*
X69442096Y-64139286D01*
X69489715Y-64186905D01*
X69537334Y-64282143D01*
X69537334Y-64425000D01*
X69489715Y-64520238D01*
X69442096Y-64567857D01*
X69346858Y-64615476D01*
X68965905Y-64615476D01*
X70394477Y-64425000D02*
X70394477Y-65091667D01*
X70156381Y-64044048D02*
X69918286Y-64758334D01*
X70537334Y-64758334D01*
X70013524Y-66790927D02*
X69680190Y-66314736D01*
X69442095Y-66790927D02*
X69442095Y-65790927D01*
X69823048Y-65790927D01*
X69918286Y-65838546D01*
X69965905Y-65886165D01*
X70013524Y-65981403D01*
X70013524Y-66124260D01*
X69965905Y-66219498D01*
X69918286Y-66267117D01*
X69823048Y-66314736D01*
X69442095Y-66314736D01*
X71823334Y-70076429D02*
X71775715Y-70124048D01*
X71632858Y-70171667D01*
X71537620Y-70171667D01*
X71394762Y-70124048D01*
X71299524Y-70028810D01*
X71251905Y-69933572D01*
X71204286Y-69743096D01*
X71204286Y-69600238D01*
X71251905Y-69409762D01*
X71299524Y-69314524D01*
X71394762Y-69219286D01*
X71537620Y-69171667D01*
X71632858Y-69171667D01*
X71775715Y-69219286D01*
X71823334Y-69266905D01*
X72680477Y-69505000D02*
X72680477Y-70171667D01*
X72442381Y-69124048D02*
X72204286Y-69838334D01*
X72823334Y-69838334D01*
X71823334Y-66488667D02*
X71251905Y-66488667D01*
X71537619Y-66488667D02*
X71537619Y-65488667D01*
X71442381Y-65631524D01*
X71347143Y-65726762D01*
X71251905Y-65774381D01*
X72251905Y-65822000D02*
X72251905Y-66488667D01*
X72251905Y-65917238D02*
X72299524Y-65869619D01*
X72394762Y-65822000D01*
X72537620Y-65822000D01*
X72632858Y-65869619D01*
X72680477Y-65964857D01*
X72680477Y-66488667D01*
X60647334Y-70076429D02*
X60599715Y-70124048D01*
X60456858Y-70171667D01*
X60361620Y-70171667D01*
X60218762Y-70124048D01*
X60123524Y-70028810D01*
X60075905Y-69933572D01*
X60028286Y-69743096D01*
X60028286Y-69600238D01*
X60075905Y-69409762D01*
X60123524Y-69314524D01*
X60218762Y-69219286D01*
X60361620Y-69171667D01*
X60456858Y-69171667D01*
X60599715Y-69219286D01*
X60647334Y-69266905D01*
X61552096Y-69171667D02*
X61075905Y-69171667D01*
X61028286Y-69647857D01*
X61075905Y-69600238D01*
X61171143Y-69552619D01*
X61409239Y-69552619D01*
X61504477Y-69600238D01*
X61552096Y-69647857D01*
X61599715Y-69743096D01*
X61599715Y-69981191D01*
X61552096Y-70076429D01*
X61504477Y-70124048D01*
X61409239Y-70171667D01*
X61171143Y-70171667D01*
X61075905Y-70124048D01*
X61028286Y-70076429D01*
X60647334Y-66488667D02*
X60075905Y-66488667D01*
X60361619Y-66488667D02*
X60361619Y-65488667D01*
X60266381Y-65631524D01*
X60171143Y-65726762D01*
X60075905Y-65774381D01*
X61075905Y-65822000D02*
X61075905Y-66488667D01*
X61075905Y-65917238D02*
X61123524Y-65869619D01*
X61218762Y-65822000D01*
X61361620Y-65822000D01*
X61456858Y-65869619D01*
X61504477Y-65964857D01*
X61504477Y-66488667D01*
X65409905Y-29785667D02*
X65409905Y-28785667D01*
X65790858Y-28785667D01*
X65886096Y-28833286D01*
X65933715Y-28880905D01*
X65981334Y-28976143D01*
X65981334Y-29119000D01*
X65933715Y-29214238D01*
X65886096Y-29261857D01*
X65790858Y-29309476D01*
X65409905Y-29309476D01*
X66933715Y-29785667D02*
X66362286Y-29785667D01*
X66648000Y-29785667D02*
X66648000Y-28785667D01*
X66552762Y-28928524D01*
X66457524Y-29023762D01*
X66362286Y-29071381D01*
X65036762Y-35595905D02*
X64941524Y-35548286D01*
X64846286Y-35453048D01*
X64703429Y-35310191D01*
X64608190Y-35262572D01*
X64512952Y-35262572D01*
X64560571Y-35500667D02*
X64465333Y-35453048D01*
X64370095Y-35357810D01*
X64322476Y-35167334D01*
X64322476Y-34834000D01*
X64370095Y-34643524D01*
X64465333Y-34548286D01*
X64560571Y-34500667D01*
X64751048Y-34500667D01*
X64846286Y-34548286D01*
X64941524Y-34643524D01*
X64989143Y-34834000D01*
X64989143Y-35167334D01*
X64941524Y-35357810D01*
X64846286Y-35453048D01*
X64751048Y-35500667D01*
X64560571Y-35500667D01*
X65941524Y-35500667D02*
X65370095Y-35500667D01*
X65655809Y-35500667D02*
X65655809Y-34500667D01*
X65560571Y-34643524D01*
X65465333Y-34738762D01*
X65370095Y-34786381D01*
X61655809Y-33341667D02*
X61655809Y-32341667D01*
X61989143Y-33055953D01*
X62322476Y-32341667D01*
X62322476Y-33341667D01*
X62989142Y-32341667D02*
X63179619Y-32341667D01*
X63274857Y-32389286D01*
X63370095Y-32484524D01*
X63417714Y-32675000D01*
X63417714Y-33008334D01*
X63370095Y-33198810D01*
X63274857Y-33294048D01*
X63179619Y-33341667D01*
X62989142Y-33341667D01*
X62893904Y-33294048D01*
X62798666Y-33198810D01*
X62751047Y-33008334D01*
X62751047Y-32675000D01*
X62798666Y-32484524D01*
X62893904Y-32389286D01*
X62989142Y-32341667D01*
X63798666Y-33294048D02*
X63941523Y-33341667D01*
X64179619Y-33341667D01*
X64274857Y-33294048D01*
X64322476Y-33246429D01*
X64370095Y-33151191D01*
X64370095Y-33055953D01*
X64322476Y-32960715D01*
X64274857Y-32913096D01*
X64179619Y-32865476D01*
X63989142Y-32817857D01*
X63893904Y-32770238D01*
X63846285Y-32722619D01*
X63798666Y-32627381D01*
X63798666Y-32532143D01*
X63846285Y-32436905D01*
X63893904Y-32389286D01*
X63989142Y-32341667D01*
X64227238Y-32341667D01*
X64370095Y-32389286D01*
X65132000Y-32817857D02*
X64798666Y-32817857D01*
X64798666Y-33341667D02*
X64798666Y-32341667D01*
X65274857Y-32341667D01*
X65655809Y-32817857D02*
X65989143Y-32817857D01*
X66132000Y-33341667D02*
X65655809Y-33341667D01*
X65655809Y-32341667D01*
X66132000Y-32341667D01*
X66417714Y-32341667D02*
X66989143Y-32341667D01*
X66703428Y-33341667D02*
X66703428Y-32341667D01*
X67084381Y-33436905D02*
X67846286Y-33436905D01*
X68084381Y-33341667D02*
X68084381Y-32341667D01*
X68465334Y-32341667D01*
X68560572Y-32389286D01*
X68608191Y-32436905D01*
X68655810Y-32532143D01*
X68655810Y-32675000D01*
X68608191Y-32770238D01*
X68560572Y-32817857D01*
X68465334Y-32865476D01*
X68084381Y-32865476D01*
X62171334Y-33595667D02*
X61838000Y-33119476D01*
X61599905Y-33595667D02*
X61599905Y-32595667D01*
X61980858Y-32595667D01*
X62076096Y-32643286D01*
X62123715Y-32690905D01*
X62171334Y-32786143D01*
X62171334Y-32929000D01*
X62123715Y-33024238D01*
X62076096Y-33071857D01*
X61980858Y-33119476D01*
X61599905Y-33119476D01*
X62504667Y-32595667D02*
X63123715Y-32595667D01*
X62790381Y-32976619D01*
X62933239Y-32976619D01*
X63028477Y-33024238D01*
X63076096Y-33071857D01*
X63123715Y-33167096D01*
X63123715Y-33405191D01*
X63076096Y-33500429D01*
X63028477Y-33548048D01*
X62933239Y-33595667D01*
X62647524Y-33595667D01*
X62552286Y-33548048D01*
X62504667Y-33500429D01*
X62052286Y-31896407D02*
X61480857Y-31896407D01*
X61766571Y-31896407D02*
X61766571Y-30896407D01*
X61671333Y-31039264D01*
X61576095Y-31134502D01*
X61480857Y-31182121D01*
X62480857Y-31896407D02*
X62480857Y-30896407D01*
X62814191Y-31610693D01*
X63147524Y-30896407D01*
X63147524Y-31896407D01*
X71823334Y-65091667D02*
X71490000Y-64615476D01*
X71251905Y-65091667D02*
X71251905Y-64091667D01*
X71632858Y-64091667D01*
X71728096Y-64139286D01*
X71775715Y-64186905D01*
X71823334Y-64282143D01*
X71823334Y-64425000D01*
X71775715Y-64520238D01*
X71728096Y-64567857D01*
X71632858Y-64615476D01*
X71251905Y-64615476D01*
X72728096Y-64091667D02*
X72251905Y-64091667D01*
X72204286Y-64567857D01*
X72251905Y-64520238D01*
X72347143Y-64472619D01*
X72585239Y-64472619D01*
X72680477Y-64520238D01*
X72728096Y-64567857D01*
X72775715Y-64663096D01*
X72775715Y-64901191D01*
X72728096Y-64996429D01*
X72680477Y-65044048D01*
X72585239Y-65091667D01*
X72347143Y-65091667D01*
X72251905Y-65044048D01*
X72204286Y-64996429D01*
X71704286Y-66790927D02*
X71132857Y-66790927D01*
X71418571Y-66790927D02*
X71418571Y-65790927D01*
X71323333Y-65933784D01*
X71228095Y-66029022D01*
X71132857Y-66076641D01*
X72132857Y-66790927D02*
X72132857Y-65790927D01*
X72466191Y-66505213D01*
X72799524Y-65790927D01*
X72799524Y-66790927D01*
X60647334Y-65091667D02*
X60314000Y-64615476D01*
X60075905Y-65091667D02*
X60075905Y-64091667D01*
X60456858Y-64091667D01*
X60552096Y-64139286D01*
X60599715Y-64186905D01*
X60647334Y-64282143D01*
X60647334Y-64425000D01*
X60599715Y-64520238D01*
X60552096Y-64567857D01*
X60456858Y-64615476D01*
X60075905Y-64615476D01*
X61504477Y-64091667D02*
X61314000Y-64091667D01*
X61218762Y-64139286D01*
X61171143Y-64186905D01*
X61075905Y-64329762D01*
X61028286Y-64520238D01*
X61028286Y-64901191D01*
X61075905Y-64996429D01*
X61123524Y-65044048D01*
X61218762Y-65091667D01*
X61409239Y-65091667D01*
X61504477Y-65044048D01*
X61552096Y-64996429D01*
X61599715Y-64901191D01*
X61599715Y-64663096D01*
X61552096Y-64567857D01*
X61504477Y-64520238D01*
X61409239Y-64472619D01*
X61218762Y-64472619D01*
X61123524Y-64520238D01*
X61075905Y-64567857D01*
X61028286Y-64663096D01*
X60528286Y-66790927D02*
X59956857Y-66790927D01*
X60242571Y-66790927D02*
X60242571Y-65790927D01*
X60147333Y-65933784D01*
X60052095Y-66029022D01*
X59956857Y-66076641D01*
X60956857Y-66790927D02*
X60956857Y-65790927D01*
X61290191Y-66505213D01*
X61623524Y-65790927D01*
X61623524Y-66790927D01*
X69537334Y-70171667D02*
X69204000Y-69695476D01*
X68965905Y-70171667D02*
X68965905Y-69171667D01*
X69346858Y-69171667D01*
X69442096Y-69219286D01*
X69489715Y-69266905D01*
X69537334Y-69362143D01*
X69537334Y-69505000D01*
X69489715Y-69600238D01*
X69442096Y-69647857D01*
X69346858Y-69695476D01*
X68965905Y-69695476D01*
X69870667Y-69171667D02*
X70537334Y-69171667D01*
X70108762Y-70171667D01*
X69418286Y-69838927D02*
X68846857Y-69838927D01*
X69132571Y-69838927D02*
X69132571Y-68838927D01*
X69037333Y-68981784D01*
X68942095Y-69077022D01*
X68846857Y-69124641D01*
X69846857Y-69838927D02*
X69846857Y-68838927D01*
X70180191Y-69553213D01*
X70513524Y-68838927D01*
X70513524Y-69838927D01*
X62933334Y-70171667D02*
X62600000Y-69695476D01*
X62361905Y-70171667D02*
X62361905Y-69171667D01*
X62742858Y-69171667D01*
X62838096Y-69219286D01*
X62885715Y-69266905D01*
X62933334Y-69362143D01*
X62933334Y-69505000D01*
X62885715Y-69600238D01*
X62838096Y-69647857D01*
X62742858Y-69695476D01*
X62361905Y-69695476D01*
X63504762Y-69600238D02*
X63409524Y-69552619D01*
X63361905Y-69505000D01*
X63314286Y-69409762D01*
X63314286Y-69362143D01*
X63361905Y-69266905D01*
X63409524Y-69219286D01*
X63504762Y-69171667D01*
X63695239Y-69171667D01*
X63790477Y-69219286D01*
X63838096Y-69266905D01*
X63885715Y-69362143D01*
X63885715Y-69409762D01*
X63838096Y-69505000D01*
X63790477Y-69552619D01*
X63695239Y-69600238D01*
X63504762Y-69600238D01*
X63409524Y-69647857D01*
X63361905Y-69695476D01*
X63314286Y-69790715D01*
X63314286Y-69981191D01*
X63361905Y-70076429D01*
X63409524Y-70124048D01*
X63504762Y-70171667D01*
X63695239Y-70171667D01*
X63790477Y-70124048D01*
X63838096Y-70076429D01*
X63885715Y-69981191D01*
X63885715Y-69790715D01*
X63838096Y-69695476D01*
X63790477Y-69647857D01*
X63695239Y-69600238D01*
X62814286Y-69838927D02*
X62242857Y-69838927D01*
X62528571Y-69838927D02*
X62528571Y-68838927D01*
X62433333Y-68981784D01*
X62338095Y-69077022D01*
X62242857Y-69124641D01*
X63242857Y-69838927D02*
X63242857Y-68838927D01*
X63576191Y-69553213D01*
X63909524Y-68838927D01*
X63909524Y-69838927D01*
X68521334Y-34262429D02*
X68473715Y-34310048D01*
X68330858Y-34357667D01*
X68235620Y-34357667D01*
X68092762Y-34310048D01*
X67997524Y-34214810D01*
X67949905Y-34119572D01*
X67902286Y-33929096D01*
X67902286Y-33786238D01*
X67949905Y-33595762D01*
X67997524Y-33500524D01*
X68092762Y-33405286D01*
X68235620Y-33357667D01*
X68330858Y-33357667D01*
X68473715Y-33405286D01*
X68521334Y-33452905D01*
X69378477Y-33357667D02*
X69188000Y-33357667D01*
X69092762Y-33405286D01*
X69045143Y-33452905D01*
X68949905Y-33595762D01*
X68902286Y-33786238D01*
X68902286Y-34167191D01*
X68949905Y-34262429D01*
X68997524Y-34310048D01*
X69092762Y-34357667D01*
X69283239Y-34357667D01*
X69378477Y-34310048D01*
X69426096Y-34262429D01*
X69473715Y-34167191D01*
X69473715Y-33929096D01*
X69426096Y-33833857D01*
X69378477Y-33786238D01*
X69283239Y-33738619D01*
X69092762Y-33738619D01*
X68997524Y-33786238D01*
X68949905Y-33833857D01*
X68902286Y-33929096D01*
X68521334Y-36008667D02*
X67949905Y-36008667D01*
X68235619Y-36008667D02*
X68235619Y-35008667D01*
X68140381Y-35151524D01*
X68045143Y-35246762D01*
X67949905Y-35294381D01*
X69378477Y-35342000D02*
X69378477Y-36008667D01*
X68949905Y-35342000D02*
X68949905Y-35865810D01*
X68997524Y-35961048D01*
X69092762Y-36008667D01*
X69235620Y-36008667D01*
X69330858Y-35961048D01*
X69378477Y-35913429D01*
X66933905Y-70171667D02*
X66933905Y-69171667D01*
X67172000Y-69171667D01*
X67314858Y-69219286D01*
X67410096Y-69314524D01*
X67457715Y-69409762D01*
X67505334Y-69600238D01*
X67505334Y-69743096D01*
X67457715Y-69933572D01*
X67410096Y-70028810D01*
X67314858Y-70124048D01*
X67172000Y-70171667D01*
X66933905Y-70171667D01*
X68457715Y-70171667D02*
X67886286Y-70171667D01*
X68172000Y-70171667D02*
X68172000Y-69171667D01*
X68076762Y-69314524D01*
X67981524Y-69409762D01*
X67886286Y-69457381D01*
X66424381Y-71163476D02*
X65424381Y-71163476D01*
X65424381Y-70925381D01*
X65472000Y-70782523D01*
X65567238Y-70687285D01*
X65662476Y-70639666D01*
X65852952Y-70592047D01*
X65995810Y-70592047D01*
X66186286Y-70639666D01*
X66281524Y-70687285D01*
X66376762Y-70782523D01*
X66424381Y-70925381D01*
X66424381Y-71163476D01*
X66424381Y-70163476D02*
X65424381Y-70163476D01*
X65424381Y-69496810D02*
X65424381Y-69306333D01*
X65472000Y-69211095D01*
X65567238Y-69115857D01*
X65757714Y-69068238D01*
X66091048Y-69068238D01*
X66281524Y-69115857D01*
X66376762Y-69211095D01*
X66424381Y-69306333D01*
X66424381Y-69496810D01*
X66376762Y-69592048D01*
X66281524Y-69687286D01*
X66091048Y-69734905D01*
X65757714Y-69734905D01*
X65567238Y-69687286D01*
X65472000Y-69592048D01*
X65424381Y-69496810D01*
X66424381Y-68639667D02*
X65424381Y-68639667D01*
X65424381Y-68401572D01*
X65472000Y-68258714D01*
X65567238Y-68163476D01*
X65662476Y-68115857D01*
X65852952Y-68068238D01*
X65995810Y-68068238D01*
X66186286Y-68115857D01*
X66281524Y-68163476D01*
X66376762Y-68258714D01*
X66424381Y-68401572D01*
X66424381Y-68639667D01*
X65900571Y-67639667D02*
X65900571Y-67306333D01*
X66424381Y-67163476D02*
X66424381Y-67639667D01*
X65424381Y-67639667D01*
X65424381Y-67163476D01*
X66376762Y-66782524D02*
X66424381Y-66639667D01*
X66424381Y-66401571D01*
X66376762Y-66306333D01*
X66329143Y-66258714D01*
X66233905Y-66211095D01*
X66138667Y-66211095D01*
X66043429Y-66258714D01*
X65995810Y-66306333D01*
X65948190Y-66401571D01*
X65900571Y-66592048D01*
X65852952Y-66687286D01*
X65805333Y-66734905D01*
X65710095Y-66782524D01*
X65614857Y-66782524D01*
X65519619Y-66734905D01*
X65472000Y-66687286D01*
X65424381Y-66592048D01*
X65424381Y-66353952D01*
X65472000Y-66211095D01*
X66329143Y-65211095D02*
X66376762Y-65258714D01*
X66424381Y-65401571D01*
X66424381Y-65496809D01*
X66376762Y-65639667D01*
X66281524Y-65734905D01*
X66186286Y-65782524D01*
X65995810Y-65830143D01*
X65852952Y-65830143D01*
X65662476Y-65782524D01*
X65567238Y-65734905D01*
X65472000Y-65639667D01*
X65424381Y-65496809D01*
X65424381Y-65401571D01*
X65472000Y-65258714D01*
X65519619Y-65211095D01*
X66424381Y-64782524D02*
X65424381Y-64782524D01*
X65900571Y-64782524D02*
X65900571Y-64211095D01*
X66424381Y-64211095D02*
X65424381Y-64211095D01*
X64393905Y-70171667D02*
X64393905Y-69171667D01*
X64632000Y-69171667D01*
X64774858Y-69219286D01*
X64870096Y-69314524D01*
X64917715Y-69409762D01*
X64965334Y-69600238D01*
X64965334Y-69743096D01*
X64917715Y-69933572D01*
X64870096Y-70028810D01*
X64774858Y-70124048D01*
X64632000Y-70171667D01*
X64393905Y-70171667D01*
X65346286Y-69266905D02*
X65393905Y-69219286D01*
X65489143Y-69171667D01*
X65727239Y-69171667D01*
X65822477Y-69219286D01*
X65870096Y-69266905D01*
X65917715Y-69362143D01*
X65917715Y-69457381D01*
X65870096Y-69600238D01*
X65298667Y-70171667D01*
X65917715Y-70171667D01*
X67284381Y-71163476D02*
X66284381Y-71163476D01*
X66284381Y-70925381D01*
X66332000Y-70782523D01*
X66427238Y-70687285D01*
X66522476Y-70639666D01*
X66712952Y-70592047D01*
X66855810Y-70592047D01*
X67046286Y-70639666D01*
X67141524Y-70687285D01*
X67236762Y-70782523D01*
X67284381Y-70925381D01*
X67284381Y-71163476D01*
X67284381Y-70163476D02*
X66284381Y-70163476D01*
X66284381Y-69496810D02*
X66284381Y-69306333D01*
X66332000Y-69211095D01*
X66427238Y-69115857D01*
X66617714Y-69068238D01*
X66951048Y-69068238D01*
X67141524Y-69115857D01*
X67236762Y-69211095D01*
X67284381Y-69306333D01*
X67284381Y-69496810D01*
X67236762Y-69592048D01*
X67141524Y-69687286D01*
X66951048Y-69734905D01*
X66617714Y-69734905D01*
X66427238Y-69687286D01*
X66332000Y-69592048D01*
X66284381Y-69496810D01*
X67284381Y-68639667D02*
X66284381Y-68639667D01*
X66284381Y-68401572D01*
X66332000Y-68258714D01*
X66427238Y-68163476D01*
X66522476Y-68115857D01*
X66712952Y-68068238D01*
X66855810Y-68068238D01*
X67046286Y-68115857D01*
X67141524Y-68163476D01*
X67236762Y-68258714D01*
X67284381Y-68401572D01*
X67284381Y-68639667D01*
X66760571Y-67639667D02*
X66760571Y-67306333D01*
X67284381Y-67163476D02*
X67284381Y-67639667D01*
X66284381Y-67639667D01*
X66284381Y-67163476D01*
X67236762Y-66782524D02*
X67284381Y-66639667D01*
X67284381Y-66401571D01*
X67236762Y-66306333D01*
X67189143Y-66258714D01*
X67093905Y-66211095D01*
X66998667Y-66211095D01*
X66903429Y-66258714D01*
X66855810Y-66306333D01*
X66808190Y-66401571D01*
X66760571Y-66592048D01*
X66712952Y-66687286D01*
X66665333Y-66734905D01*
X66570095Y-66782524D01*
X66474857Y-66782524D01*
X66379619Y-66734905D01*
X66332000Y-66687286D01*
X66284381Y-66592048D01*
X66284381Y-66353952D01*
X66332000Y-66211095D01*
X67189143Y-65211095D02*
X67236762Y-65258714D01*
X67284381Y-65401571D01*
X67284381Y-65496809D01*
X67236762Y-65639667D01*
X67141524Y-65734905D01*
X67046286Y-65782524D01*
X66855810Y-65830143D01*
X66712952Y-65830143D01*
X66522476Y-65782524D01*
X66427238Y-65734905D01*
X66332000Y-65639667D01*
X66284381Y-65496809D01*
X66284381Y-65401571D01*
X66332000Y-65258714D01*
X66379619Y-65211095D01*
X67284381Y-64782524D02*
X66284381Y-64782524D01*
X66760571Y-64782524D02*
X66760571Y-64211095D01*
X67284381Y-64211095D02*
X66284381Y-64211095D01*
X69854834Y-45343167D02*
X69521500Y-44866976D01*
X69283405Y-45343167D02*
X69283405Y-44343167D01*
X69664358Y-44343167D01*
X69759596Y-44390786D01*
X69807215Y-44438405D01*
X69854834Y-44533643D01*
X69854834Y-44676500D01*
X69807215Y-44771738D01*
X69759596Y-44819357D01*
X69664358Y-44866976D01*
X69283405Y-44866976D01*
X70331024Y-45343167D02*
X70521500Y-45343167D01*
X70616739Y-45295548D01*
X70664358Y-45247929D01*
X70759596Y-45105072D01*
X70807215Y-44914596D01*
X70807215Y-44533643D01*
X70759596Y-44438405D01*
X70711977Y-44390786D01*
X70616739Y-44343167D01*
X70426262Y-44343167D01*
X70331024Y-44390786D01*
X70283405Y-44438405D01*
X70235786Y-44533643D01*
X70235786Y-44771738D01*
X70283405Y-44866976D01*
X70331024Y-44914596D01*
X70426262Y-44962215D01*
X70616739Y-44962215D01*
X70711977Y-44914596D01*
X70759596Y-44866976D01*
X70807215Y-44771738D01*
X70267524Y-43580407D02*
X69934190Y-43104216D01*
X69696095Y-43580407D02*
X69696095Y-42580407D01*
X70077048Y-42580407D01*
X70172286Y-42628026D01*
X70219905Y-42675645D01*
X70267524Y-42770883D01*
X70267524Y-42913740D01*
X70219905Y-43008978D01*
X70172286Y-43056597D01*
X70077048Y-43104216D01*
X69696095Y-43104216D01*
X65520881Y-48581643D02*
X65044690Y-48914977D01*
X65520881Y-49153072D02*
X64520881Y-49153072D01*
X64520881Y-48772119D01*
X64568500Y-48676881D01*
X64616119Y-48629262D01*
X64711357Y-48581643D01*
X64854214Y-48581643D01*
X64949452Y-48629262D01*
X64997071Y-48676881D01*
X65044690Y-48772119D01*
X65044690Y-49153072D01*
X65520881Y-47629262D02*
X65520881Y-48200691D01*
X65520881Y-47914977D02*
X64520881Y-47914977D01*
X64663738Y-48010215D01*
X64758976Y-48105453D01*
X64806595Y-48200691D01*
X64520881Y-47010215D02*
X64520881Y-46914976D01*
X64568500Y-46819738D01*
X64616119Y-46772119D01*
X64711357Y-46724500D01*
X64901833Y-46676881D01*
X65139929Y-46676881D01*
X65330405Y-46724500D01*
X65425643Y-46772119D01*
X65473262Y-46819738D01*
X65520881Y-46914976D01*
X65520881Y-47010215D01*
X65473262Y-47105453D01*
X65425643Y-47153072D01*
X65330405Y-47200691D01*
X65139929Y-47248310D01*
X64901833Y-47248310D01*
X64711357Y-47200691D01*
X64616119Y-47153072D01*
X64568500Y-47105453D01*
X64520881Y-47010215D01*
X67283641Y-47565762D02*
X66807450Y-47899096D01*
X67283641Y-48137191D02*
X66283641Y-48137191D01*
X66283641Y-47756238D01*
X66331260Y-47661000D01*
X66378879Y-47613381D01*
X66474117Y-47565762D01*
X66616974Y-47565762D01*
X66712212Y-47613381D01*
X66759831Y-47661000D01*
X66807450Y-47756238D01*
X66807450Y-48137191D01*
X68695881Y-48454643D02*
X68219690Y-48787977D01*
X68695881Y-49026072D02*
X67695881Y-49026072D01*
X67695881Y-48645119D01*
X67743500Y-48549881D01*
X67791119Y-48502262D01*
X67886357Y-48454643D01*
X68029214Y-48454643D01*
X68124452Y-48502262D01*
X68172071Y-48549881D01*
X68219690Y-48645119D01*
X68219690Y-49026072D01*
X68695881Y-47502262D02*
X68695881Y-48073691D01*
X68695881Y-47787977D02*
X67695881Y-47787977D01*
X67838738Y-47883215D01*
X67933976Y-47978453D01*
X67981595Y-48073691D01*
X68695881Y-46549881D02*
X68695881Y-47121310D01*
X68695881Y-46835596D02*
X67695881Y-46835596D01*
X67838738Y-46930834D01*
X67933976Y-47026072D01*
X67981595Y-47121310D01*
X66933121Y-47565762D02*
X66456930Y-47899096D01*
X66933121Y-48137191D02*
X65933121Y-48137191D01*
X65933121Y-47756238D01*
X65980740Y-47661000D01*
X66028359Y-47613381D01*
X66123597Y-47565762D01*
X66266454Y-47565762D01*
X66361692Y-47613381D01*
X66409311Y-47661000D01*
X66456930Y-47756238D01*
X66456930Y-48137191D01*
X69378643Y-38993167D02*
X69045309Y-38516976D01*
X68807214Y-38993167D02*
X68807214Y-37993167D01*
X69188167Y-37993167D01*
X69283405Y-38040786D01*
X69331024Y-38088405D01*
X69378643Y-38183643D01*
X69378643Y-38326500D01*
X69331024Y-38421738D01*
X69283405Y-38469357D01*
X69188167Y-38516976D01*
X68807214Y-38516976D01*
X70331024Y-38993167D02*
X69759595Y-38993167D01*
X70045309Y-38993167D02*
X70045309Y-37993167D01*
X69950071Y-38136024D01*
X69854833Y-38231262D01*
X69759595Y-38278881D01*
X70711976Y-38088405D02*
X70759595Y-38040786D01*
X70854833Y-37993167D01*
X71092929Y-37993167D01*
X71188167Y-38040786D01*
X71235786Y-38088405D01*
X71283405Y-38183643D01*
X71283405Y-38278881D01*
X71235786Y-38421738D01*
X70664357Y-38993167D01*
X71283405Y-38993167D01*
X70267524Y-37230407D02*
X69934190Y-36754216D01*
X69696095Y-37230407D02*
X69696095Y-36230407D01*
X70077048Y-36230407D01*
X70172286Y-36278026D01*
X70219905Y-36325645D01*
X70267524Y-36420883D01*
X70267524Y-36563740D01*
X70219905Y-36658978D01*
X70172286Y-36706597D01*
X70077048Y-36754216D01*
X69696095Y-36754216D01*
X65600381Y-42541191D02*
X66409905Y-42541191D01*
X66505143Y-42493572D01*
X66552762Y-42445953D01*
X66600381Y-42350715D01*
X66600381Y-42160238D01*
X66552762Y-42065000D01*
X66505143Y-42017381D01*
X66409905Y-41969762D01*
X65600381Y-41969762D01*
X65695619Y-41541191D02*
X65648000Y-41493572D01*
X65600381Y-41398334D01*
X65600381Y-41160238D01*
X65648000Y-41065000D01*
X65695619Y-41017381D01*
X65790857Y-40969762D01*
X65886095Y-40969762D01*
X66028952Y-41017381D01*
X66600381Y-41588810D01*
X66600381Y-40969762D01*
X64822381Y-43469762D02*
X64822381Y-43945953D01*
X63822381Y-43945953D01*
X64822381Y-43136429D02*
X63822381Y-43136429D01*
X64536667Y-42803095D01*
X63822381Y-42469762D01*
X64822381Y-42469762D01*
X63822381Y-42088810D02*
X63822381Y-41469762D01*
X64203333Y-41803096D01*
X64203333Y-41660238D01*
X64250952Y-41565000D01*
X64298571Y-41517381D01*
X64393810Y-41469762D01*
X64631905Y-41469762D01*
X64727143Y-41517381D01*
X64774762Y-41565000D01*
X64822381Y-41660238D01*
X64822381Y-41945953D01*
X64774762Y-42041191D01*
X64727143Y-42088810D01*
X63917619Y-41088810D02*
X63870000Y-41041191D01*
X63822381Y-40945953D01*
X63822381Y-40707857D01*
X63870000Y-40612619D01*
X63917619Y-40565000D01*
X64012857Y-40517381D01*
X64108095Y-40517381D01*
X64250952Y-40565000D01*
X64822381Y-41136429D01*
X64822381Y-40517381D01*
X64155714Y-39660238D02*
X64822381Y-39660238D01*
X63774762Y-39898334D02*
X64489048Y-40136429D01*
X64489048Y-39517381D01*
X83771334Y-54328429D02*
X83723715Y-54376048D01*
X83580858Y-54423667D01*
X83485620Y-54423667D01*
X83342762Y-54376048D01*
X83247524Y-54280810D01*
X83199905Y-54185572D01*
X83152286Y-53995096D01*
X83152286Y-53852238D01*
X83199905Y-53661762D01*
X83247524Y-53566524D01*
X83342762Y-53471286D01*
X83485620Y-53423667D01*
X83580858Y-53423667D01*
X83723715Y-53471286D01*
X83771334Y-53518905D01*
X84723715Y-54423667D02*
X84152286Y-54423667D01*
X84438000Y-54423667D02*
X84438000Y-53423667D01*
X84342762Y-53566524D01*
X84247524Y-53661762D01*
X84152286Y-53709381D01*
X83295143Y-56074667D02*
X82723714Y-56074667D01*
X83009428Y-56074667D02*
X83009428Y-55074667D01*
X82914190Y-55217524D01*
X82818952Y-55312762D01*
X82723714Y-55360381D01*
X83866571Y-55503238D02*
X83771333Y-55455619D01*
X83723714Y-55408000D01*
X83676095Y-55312762D01*
X83676095Y-55265143D01*
X83723714Y-55169905D01*
X83771333Y-55122286D01*
X83866571Y-55074667D01*
X84057048Y-55074667D01*
X84152286Y-55122286D01*
X84199905Y-55169905D01*
X84247524Y-55265143D01*
X84247524Y-55312762D01*
X84199905Y-55408000D01*
X84152286Y-55455619D01*
X84057048Y-55503238D01*
X83866571Y-55503238D01*
X83771333Y-55550857D01*
X83723714Y-55598476D01*
X83676095Y-55693715D01*
X83676095Y-55884191D01*
X83723714Y-55979429D01*
X83771333Y-56027048D01*
X83866571Y-56074667D01*
X84057048Y-56074667D01*
X84152286Y-56027048D01*
X84199905Y-55979429D01*
X84247524Y-55884191D01*
X84247524Y-55693715D01*
X84199905Y-55598476D01*
X84152286Y-55550857D01*
X84057048Y-55503238D01*
X84676095Y-55408000D02*
X84676095Y-56408000D01*
X84676095Y-55455619D02*
X84771333Y-55408000D01*
X84961810Y-55408000D01*
X85057048Y-55455619D01*
X85104667Y-55503238D01*
X85152286Y-55598476D01*
X85152286Y-55884191D01*
X85104667Y-55979429D01*
X85057048Y-56027048D01*
X84961810Y-56074667D01*
X84771333Y-56074667D01*
X84676095Y-56027048D01*
X84806381Y-59689191D02*
X85615905Y-59689191D01*
X85711143Y-59641572D01*
X85758762Y-59593953D01*
X85806381Y-59498715D01*
X85806381Y-59308238D01*
X85758762Y-59213000D01*
X85711143Y-59165381D01*
X85615905Y-59117762D01*
X84806381Y-59117762D01*
X85806381Y-58117762D02*
X85806381Y-58689191D01*
X85806381Y-58403477D02*
X84806381Y-58403477D01*
X84949238Y-58498715D01*
X85044476Y-58593953D01*
X85092095Y-58689191D01*
X76087834Y-58170167D02*
X75754500Y-57693976D01*
X75516405Y-58170167D02*
X75516405Y-57170167D01*
X75897358Y-57170167D01*
X75992596Y-57217786D01*
X76040215Y-57265405D01*
X76087834Y-57360643D01*
X76087834Y-57503500D01*
X76040215Y-57598738D01*
X75992596Y-57646357D01*
X75897358Y-57693976D01*
X75516405Y-57693976D01*
X77040215Y-58170167D02*
X76468786Y-58170167D01*
X76754500Y-58170167D02*
X76754500Y-57170167D01*
X76659262Y-57313024D01*
X76564024Y-57408262D01*
X76468786Y-57455881D01*
X76032286Y-59932927D02*
X75460857Y-59932927D01*
X75746571Y-59932927D02*
X75746571Y-58932927D01*
X75651333Y-59075784D01*
X75556095Y-59171022D01*
X75460857Y-59218641D01*
X76460857Y-59932927D02*
X76460857Y-58932927D01*
X76794191Y-59647213D01*
X77127524Y-58932927D01*
X77127524Y-59932927D01*
X85803334Y-54328429D02*
X85755715Y-54376048D01*
X85612858Y-54423667D01*
X85517620Y-54423667D01*
X85374762Y-54376048D01*
X85279524Y-54280810D01*
X85231905Y-54185572D01*
X85184286Y-53995096D01*
X85184286Y-53852238D01*
X85231905Y-53661762D01*
X85279524Y-53566524D01*
X85374762Y-53471286D01*
X85517620Y-53423667D01*
X85612858Y-53423667D01*
X85755715Y-53471286D01*
X85803334Y-53518905D01*
X86136667Y-53423667D02*
X86755715Y-53423667D01*
X86422381Y-53804619D01*
X86565239Y-53804619D01*
X86660477Y-53852238D01*
X86708096Y-53899857D01*
X86755715Y-53995096D01*
X86755715Y-54233191D01*
X86708096Y-54328429D01*
X86660477Y-54376048D01*
X86565239Y-54423667D01*
X86279524Y-54423667D01*
X86184286Y-54376048D01*
X86136667Y-54328429D01*
X85803334Y-56074667D02*
X85231905Y-56074667D01*
X85517619Y-56074667D02*
X85517619Y-55074667D01*
X85422381Y-55217524D01*
X85327143Y-55312762D01*
X85231905Y-55360381D01*
X86660477Y-55408000D02*
X86660477Y-56074667D01*
X86231905Y-55408000D02*
X86231905Y-55931810D01*
X86279524Y-56027048D01*
X86374762Y-56074667D01*
X86517620Y-56074667D01*
X86612858Y-56027048D01*
X86660477Y-55979429D01*
X84406381Y-58336810D02*
X85406381Y-57670143D01*
X84406381Y-57670143D02*
X85406381Y-58336810D01*
X85406381Y-56765381D02*
X85406381Y-57336810D01*
X85406381Y-57051096D02*
X84406381Y-57051096D01*
X84549238Y-57146334D01*
X84644476Y-57241572D01*
X84692095Y-57336810D01*
X83771334Y-61440429D02*
X83723715Y-61488048D01*
X83580858Y-61535667D01*
X83485620Y-61535667D01*
X83342762Y-61488048D01*
X83247524Y-61392810D01*
X83199905Y-61297572D01*
X83152286Y-61107096D01*
X83152286Y-60964238D01*
X83199905Y-60773762D01*
X83247524Y-60678524D01*
X83342762Y-60583286D01*
X83485620Y-60535667D01*
X83580858Y-60535667D01*
X83723715Y-60583286D01*
X83771334Y-60630905D01*
X84152286Y-60630905D02*
X84199905Y-60583286D01*
X84295143Y-60535667D01*
X84533239Y-60535667D01*
X84628477Y-60583286D01*
X84676096Y-60630905D01*
X84723715Y-60726143D01*
X84723715Y-60821381D01*
X84676096Y-60964238D01*
X84104667Y-61535667D01*
X84723715Y-61535667D01*
X83295143Y-63186667D02*
X82723714Y-63186667D01*
X83009428Y-63186667D02*
X83009428Y-62186667D01*
X82914190Y-62329524D01*
X82818952Y-62424762D01*
X82723714Y-62472381D01*
X83866571Y-62615238D02*
X83771333Y-62567619D01*
X83723714Y-62520000D01*
X83676095Y-62424762D01*
X83676095Y-62377143D01*
X83723714Y-62281905D01*
X83771333Y-62234286D01*
X83866571Y-62186667D01*
X84057048Y-62186667D01*
X84152286Y-62234286D01*
X84199905Y-62281905D01*
X84247524Y-62377143D01*
X84247524Y-62424762D01*
X84199905Y-62520000D01*
X84152286Y-62567619D01*
X84057048Y-62615238D01*
X83866571Y-62615238D01*
X83771333Y-62662857D01*
X83723714Y-62710476D01*
X83676095Y-62805715D01*
X83676095Y-62996191D01*
X83723714Y-63091429D01*
X83771333Y-63139048D01*
X83866571Y-63186667D01*
X84057048Y-63186667D01*
X84152286Y-63139048D01*
X84199905Y-63091429D01*
X84247524Y-62996191D01*
X84247524Y-62805715D01*
X84199905Y-62710476D01*
X84152286Y-62662857D01*
X84057048Y-62615238D01*
X84676095Y-62520000D02*
X84676095Y-63520000D01*
X84676095Y-62567619D02*
X84771333Y-62520000D01*
X84961810Y-62520000D01*
X85057048Y-62567619D01*
X85104667Y-62615238D01*
X85152286Y-62710476D01*
X85152286Y-62996191D01*
X85104667Y-63091429D01*
X85057048Y-63139048D01*
X84961810Y-63186667D01*
X84771333Y-63186667D01*
X84676095Y-63139048D01*
X85866834Y-61599167D02*
X85533500Y-61122976D01*
X85295405Y-61599167D02*
X85295405Y-60599167D01*
X85676358Y-60599167D01*
X85771596Y-60646786D01*
X85819215Y-60694405D01*
X85866834Y-60789643D01*
X85866834Y-60932500D01*
X85819215Y-61027738D01*
X85771596Y-61075357D01*
X85676358Y-61122976D01*
X85295405Y-61122976D01*
X86247786Y-60694405D02*
X86295405Y-60646786D01*
X86390643Y-60599167D01*
X86628739Y-60599167D01*
X86723977Y-60646786D01*
X86771596Y-60694405D01*
X86819215Y-60789643D01*
X86819215Y-60884881D01*
X86771596Y-61027738D01*
X86200167Y-61599167D01*
X86819215Y-61599167D01*
X85422381Y-58836407D02*
X85517620Y-58836407D01*
X85612858Y-58884026D01*
X85660477Y-58931645D01*
X85708096Y-59026883D01*
X85755715Y-59217359D01*
X85755715Y-59455455D01*
X85708096Y-59645931D01*
X85660477Y-59741169D01*
X85612858Y-59788788D01*
X85517620Y-59836407D01*
X85422381Y-59836407D01*
X85327143Y-59788788D01*
X85279524Y-59741169D01*
X85231905Y-59645931D01*
X85184286Y-59455455D01*
X85184286Y-59217359D01*
X85231905Y-59026883D01*
X85279524Y-58931645D01*
X85327143Y-58884026D01*
X85422381Y-58836407D01*
X86755715Y-59836407D02*
X86422381Y-59360216D01*
X86184286Y-59836407D02*
X86184286Y-58836407D01*
X86565239Y-58836407D01*
X86660477Y-58884026D01*
X86708096Y-58931645D01*
X86755715Y-59026883D01*
X86755715Y-59169740D01*
X86708096Y-59264978D01*
X86660477Y-59312597D01*
X86565239Y-59360216D01*
X86184286Y-59360216D01*
X84787334Y-65091667D02*
X84454000Y-64615476D01*
X84215905Y-65091667D02*
X84215905Y-64091667D01*
X84596858Y-64091667D01*
X84692096Y-64139286D01*
X84739715Y-64186905D01*
X84787334Y-64282143D01*
X84787334Y-64425000D01*
X84739715Y-64520238D01*
X84692096Y-64567857D01*
X84596858Y-64615476D01*
X84215905Y-64615476D01*
X85644477Y-64425000D02*
X85644477Y-65091667D01*
X85406381Y-64044048D02*
X85168286Y-64758334D01*
X85787334Y-64758334D01*
X85263524Y-66790927D02*
X84930190Y-66314736D01*
X84692095Y-66790927D02*
X84692095Y-65790927D01*
X85073048Y-65790927D01*
X85168286Y-65838546D01*
X85215905Y-65886165D01*
X85263524Y-65981403D01*
X85263524Y-66124260D01*
X85215905Y-66219498D01*
X85168286Y-66267117D01*
X85073048Y-66314736D01*
X84692095Y-66314736D01*
X87073334Y-70076429D02*
X87025715Y-70124048D01*
X86882858Y-70171667D01*
X86787620Y-70171667D01*
X86644762Y-70124048D01*
X86549524Y-70028810D01*
X86501905Y-69933572D01*
X86454286Y-69743096D01*
X86454286Y-69600238D01*
X86501905Y-69409762D01*
X86549524Y-69314524D01*
X86644762Y-69219286D01*
X86787620Y-69171667D01*
X86882858Y-69171667D01*
X87025715Y-69219286D01*
X87073334Y-69266905D01*
X87930477Y-69505000D02*
X87930477Y-70171667D01*
X87692381Y-69124048D02*
X87454286Y-69838334D01*
X88073334Y-69838334D01*
X87073334Y-66488667D02*
X86501905Y-66488667D01*
X86787619Y-66488667D02*
X86787619Y-65488667D01*
X86692381Y-65631524D01*
X86597143Y-65726762D01*
X86501905Y-65774381D01*
X87501905Y-65822000D02*
X87501905Y-66488667D01*
X87501905Y-65917238D02*
X87549524Y-65869619D01*
X87644762Y-65822000D01*
X87787620Y-65822000D01*
X87882858Y-65869619D01*
X87930477Y-65964857D01*
X87930477Y-66488667D01*
X75897334Y-70076429D02*
X75849715Y-70124048D01*
X75706858Y-70171667D01*
X75611620Y-70171667D01*
X75468762Y-70124048D01*
X75373524Y-70028810D01*
X75325905Y-69933572D01*
X75278286Y-69743096D01*
X75278286Y-69600238D01*
X75325905Y-69409762D01*
X75373524Y-69314524D01*
X75468762Y-69219286D01*
X75611620Y-69171667D01*
X75706858Y-69171667D01*
X75849715Y-69219286D01*
X75897334Y-69266905D01*
X76802096Y-69171667D02*
X76325905Y-69171667D01*
X76278286Y-69647857D01*
X76325905Y-69600238D01*
X76421143Y-69552619D01*
X76659239Y-69552619D01*
X76754477Y-69600238D01*
X76802096Y-69647857D01*
X76849715Y-69743096D01*
X76849715Y-69981191D01*
X76802096Y-70076429D01*
X76754477Y-70124048D01*
X76659239Y-70171667D01*
X76421143Y-70171667D01*
X76325905Y-70124048D01*
X76278286Y-70076429D01*
X75897334Y-66488667D02*
X75325905Y-66488667D01*
X75611619Y-66488667D02*
X75611619Y-65488667D01*
X75516381Y-65631524D01*
X75421143Y-65726762D01*
X75325905Y-65774381D01*
X76325905Y-65822000D02*
X76325905Y-66488667D01*
X76325905Y-65917238D02*
X76373524Y-65869619D01*
X76468762Y-65822000D01*
X76611620Y-65822000D01*
X76706858Y-65869619D01*
X76754477Y-65964857D01*
X76754477Y-66488667D01*
X80659905Y-29785667D02*
X80659905Y-28785667D01*
X81040858Y-28785667D01*
X81136096Y-28833286D01*
X81183715Y-28880905D01*
X81231334Y-28976143D01*
X81231334Y-29119000D01*
X81183715Y-29214238D01*
X81136096Y-29261857D01*
X81040858Y-29309476D01*
X80659905Y-29309476D01*
X82183715Y-29785667D02*
X81612286Y-29785667D01*
X81898000Y-29785667D02*
X81898000Y-28785667D01*
X81802762Y-28928524D01*
X81707524Y-29023762D01*
X81612286Y-29071381D01*
X80286762Y-35595905D02*
X80191524Y-35548286D01*
X80096286Y-35453048D01*
X79953429Y-35310191D01*
X79858190Y-35262572D01*
X79762952Y-35262572D01*
X79810571Y-35500667D02*
X79715333Y-35453048D01*
X79620095Y-35357810D01*
X79572476Y-35167334D01*
X79572476Y-34834000D01*
X79620095Y-34643524D01*
X79715333Y-34548286D01*
X79810571Y-34500667D01*
X80001048Y-34500667D01*
X80096286Y-34548286D01*
X80191524Y-34643524D01*
X80239143Y-34834000D01*
X80239143Y-35167334D01*
X80191524Y-35357810D01*
X80096286Y-35453048D01*
X80001048Y-35500667D01*
X79810571Y-35500667D01*
X81191524Y-35500667D02*
X80620095Y-35500667D01*
X80905809Y-35500667D02*
X80905809Y-34500667D01*
X80810571Y-34643524D01*
X80715333Y-34738762D01*
X80620095Y-34786381D01*
X76905809Y-33341667D02*
X76905809Y-32341667D01*
X77239143Y-33055953D01*
X77572476Y-32341667D01*
X77572476Y-33341667D01*
X78239142Y-32341667D02*
X78429619Y-32341667D01*
X78524857Y-32389286D01*
X78620095Y-32484524D01*
X78667714Y-32675000D01*
X78667714Y-33008334D01*
X78620095Y-33198810D01*
X78524857Y-33294048D01*
X78429619Y-33341667D01*
X78239142Y-33341667D01*
X78143904Y-33294048D01*
X78048666Y-33198810D01*
X78001047Y-33008334D01*
X78001047Y-32675000D01*
X78048666Y-32484524D01*
X78143904Y-32389286D01*
X78239142Y-32341667D01*
X79048666Y-33294048D02*
X79191523Y-33341667D01*
X79429619Y-33341667D01*
X79524857Y-33294048D01*
X79572476Y-33246429D01*
X79620095Y-33151191D01*
X79620095Y-33055953D01*
X79572476Y-32960715D01*
X79524857Y-32913096D01*
X79429619Y-32865476D01*
X79239142Y-32817857D01*
X79143904Y-32770238D01*
X79096285Y-32722619D01*
X79048666Y-32627381D01*
X79048666Y-32532143D01*
X79096285Y-32436905D01*
X79143904Y-32389286D01*
X79239142Y-32341667D01*
X79477238Y-32341667D01*
X79620095Y-32389286D01*
X80382000Y-32817857D02*
X80048666Y-32817857D01*
X80048666Y-33341667D02*
X80048666Y-32341667D01*
X80524857Y-32341667D01*
X80905809Y-32817857D02*
X81239143Y-32817857D01*
X81382000Y-33341667D02*
X80905809Y-33341667D01*
X80905809Y-32341667D01*
X81382000Y-32341667D01*
X81667714Y-32341667D02*
X82239143Y-32341667D01*
X81953428Y-33341667D02*
X81953428Y-32341667D01*
X82334381Y-33436905D02*
X83096286Y-33436905D01*
X83334381Y-33341667D02*
X83334381Y-32341667D01*
X83715334Y-32341667D01*
X83810572Y-32389286D01*
X83858191Y-32436905D01*
X83905810Y-32532143D01*
X83905810Y-32675000D01*
X83858191Y-32770238D01*
X83810572Y-32817857D01*
X83715334Y-32865476D01*
X83334381Y-32865476D01*
X77421334Y-33595667D02*
X77088000Y-33119476D01*
X76849905Y-33595667D02*
X76849905Y-32595667D01*
X77230858Y-32595667D01*
X77326096Y-32643286D01*
X77373715Y-32690905D01*
X77421334Y-32786143D01*
X77421334Y-32929000D01*
X77373715Y-33024238D01*
X77326096Y-33071857D01*
X77230858Y-33119476D01*
X76849905Y-33119476D01*
X77754667Y-32595667D02*
X78373715Y-32595667D01*
X78040381Y-32976619D01*
X78183239Y-32976619D01*
X78278477Y-33024238D01*
X78326096Y-33071857D01*
X78373715Y-33167096D01*
X78373715Y-33405191D01*
X78326096Y-33500429D01*
X78278477Y-33548048D01*
X78183239Y-33595667D01*
X77897524Y-33595667D01*
X77802286Y-33548048D01*
X77754667Y-33500429D01*
X77302286Y-31896407D02*
X76730857Y-31896407D01*
X77016571Y-31896407D02*
X77016571Y-30896407D01*
X76921333Y-31039264D01*
X76826095Y-31134502D01*
X76730857Y-31182121D01*
X77730857Y-31896407D02*
X77730857Y-30896407D01*
X78064191Y-31610693D01*
X78397524Y-30896407D01*
X78397524Y-31896407D01*
X87073334Y-65091667D02*
X86740000Y-64615476D01*
X86501905Y-65091667D02*
X86501905Y-64091667D01*
X86882858Y-64091667D01*
X86978096Y-64139286D01*
X87025715Y-64186905D01*
X87073334Y-64282143D01*
X87073334Y-64425000D01*
X87025715Y-64520238D01*
X86978096Y-64567857D01*
X86882858Y-64615476D01*
X86501905Y-64615476D01*
X87978096Y-64091667D02*
X87501905Y-64091667D01*
X87454286Y-64567857D01*
X87501905Y-64520238D01*
X87597143Y-64472619D01*
X87835239Y-64472619D01*
X87930477Y-64520238D01*
X87978096Y-64567857D01*
X88025715Y-64663096D01*
X88025715Y-64901191D01*
X87978096Y-64996429D01*
X87930477Y-65044048D01*
X87835239Y-65091667D01*
X87597143Y-65091667D01*
X87501905Y-65044048D01*
X87454286Y-64996429D01*
X86954286Y-66790927D02*
X86382857Y-66790927D01*
X86668571Y-66790927D02*
X86668571Y-65790927D01*
X86573333Y-65933784D01*
X86478095Y-66029022D01*
X86382857Y-66076641D01*
X87382857Y-66790927D02*
X87382857Y-65790927D01*
X87716191Y-66505213D01*
X88049524Y-65790927D01*
X88049524Y-66790927D01*
X75897334Y-65091667D02*
X75564000Y-64615476D01*
X75325905Y-65091667D02*
X75325905Y-64091667D01*
X75706858Y-64091667D01*
X75802096Y-64139286D01*
X75849715Y-64186905D01*
X75897334Y-64282143D01*
X75897334Y-64425000D01*
X75849715Y-64520238D01*
X75802096Y-64567857D01*
X75706858Y-64615476D01*
X75325905Y-64615476D01*
X76754477Y-64091667D02*
X76564000Y-64091667D01*
X76468762Y-64139286D01*
X76421143Y-64186905D01*
X76325905Y-64329762D01*
X76278286Y-64520238D01*
X76278286Y-64901191D01*
X76325905Y-64996429D01*
X76373524Y-65044048D01*
X76468762Y-65091667D01*
X76659239Y-65091667D01*
X76754477Y-65044048D01*
X76802096Y-64996429D01*
X76849715Y-64901191D01*
X76849715Y-64663096D01*
X76802096Y-64567857D01*
X76754477Y-64520238D01*
X76659239Y-64472619D01*
X76468762Y-64472619D01*
X76373524Y-64520238D01*
X76325905Y-64567857D01*
X76278286Y-64663096D01*
X75778286Y-66790927D02*
X75206857Y-66790927D01*
X75492571Y-66790927D02*
X75492571Y-65790927D01*
X75397333Y-65933784D01*
X75302095Y-66029022D01*
X75206857Y-66076641D01*
X76206857Y-66790927D02*
X76206857Y-65790927D01*
X76540191Y-66505213D01*
X76873524Y-65790927D01*
X76873524Y-66790927D01*
X84787334Y-70171667D02*
X84454000Y-69695476D01*
X84215905Y-70171667D02*
X84215905Y-69171667D01*
X84596858Y-69171667D01*
X84692096Y-69219286D01*
X84739715Y-69266905D01*
X84787334Y-69362143D01*
X84787334Y-69505000D01*
X84739715Y-69600238D01*
X84692096Y-69647857D01*
X84596858Y-69695476D01*
X84215905Y-69695476D01*
X85120667Y-69171667D02*
X85787334Y-69171667D01*
X85358762Y-70171667D01*
X84668286Y-69838927D02*
X84096857Y-69838927D01*
X84382571Y-69838927D02*
X84382571Y-68838927D01*
X84287333Y-68981784D01*
X84192095Y-69077022D01*
X84096857Y-69124641D01*
X85096857Y-69838927D02*
X85096857Y-68838927D01*
X85430191Y-69553213D01*
X85763524Y-68838927D01*
X85763524Y-69838927D01*
X78183334Y-70171667D02*
X77850000Y-69695476D01*
X77611905Y-70171667D02*
X77611905Y-69171667D01*
X77992858Y-69171667D01*
X78088096Y-69219286D01*
X78135715Y-69266905D01*
X78183334Y-69362143D01*
X78183334Y-69505000D01*
X78135715Y-69600238D01*
X78088096Y-69647857D01*
X77992858Y-69695476D01*
X77611905Y-69695476D01*
X78754762Y-69600238D02*
X78659524Y-69552619D01*
X78611905Y-69505000D01*
X78564286Y-69409762D01*
X78564286Y-69362143D01*
X78611905Y-69266905D01*
X78659524Y-69219286D01*
X78754762Y-69171667D01*
X78945239Y-69171667D01*
X79040477Y-69219286D01*
X79088096Y-69266905D01*
X79135715Y-69362143D01*
X79135715Y-69409762D01*
X79088096Y-69505000D01*
X79040477Y-69552619D01*
X78945239Y-69600238D01*
X78754762Y-69600238D01*
X78659524Y-69647857D01*
X78611905Y-69695476D01*
X78564286Y-69790715D01*
X78564286Y-69981191D01*
X78611905Y-70076429D01*
X78659524Y-70124048D01*
X78754762Y-70171667D01*
X78945239Y-70171667D01*
X79040477Y-70124048D01*
X79088096Y-70076429D01*
X79135715Y-69981191D01*
X79135715Y-69790715D01*
X79088096Y-69695476D01*
X79040477Y-69647857D01*
X78945239Y-69600238D01*
X78064286Y-69838927D02*
X77492857Y-69838927D01*
X77778571Y-69838927D02*
X77778571Y-68838927D01*
X77683333Y-68981784D01*
X77588095Y-69077022D01*
X77492857Y-69124641D01*
X78492857Y-69838927D02*
X78492857Y-68838927D01*
X78826191Y-69553213D01*
X79159524Y-68838927D01*
X79159524Y-69838927D01*
X83771334Y-34262429D02*
X83723715Y-34310048D01*
X83580858Y-34357667D01*
X83485620Y-34357667D01*
X83342762Y-34310048D01*
X83247524Y-34214810D01*
X83199905Y-34119572D01*
X83152286Y-33929096D01*
X83152286Y-33786238D01*
X83199905Y-33595762D01*
X83247524Y-33500524D01*
X83342762Y-33405286D01*
X83485620Y-33357667D01*
X83580858Y-33357667D01*
X83723715Y-33405286D01*
X83771334Y-33452905D01*
X84628477Y-33357667D02*
X84438000Y-33357667D01*
X84342762Y-33405286D01*
X84295143Y-33452905D01*
X84199905Y-33595762D01*
X84152286Y-33786238D01*
X84152286Y-34167191D01*
X84199905Y-34262429D01*
X84247524Y-34310048D01*
X84342762Y-34357667D01*
X84533239Y-34357667D01*
X84628477Y-34310048D01*
X84676096Y-34262429D01*
X84723715Y-34167191D01*
X84723715Y-33929096D01*
X84676096Y-33833857D01*
X84628477Y-33786238D01*
X84533239Y-33738619D01*
X84342762Y-33738619D01*
X84247524Y-33786238D01*
X84199905Y-33833857D01*
X84152286Y-33929096D01*
X83771334Y-36008667D02*
X83199905Y-36008667D01*
X83485619Y-36008667D02*
X83485619Y-35008667D01*
X83390381Y-35151524D01*
X83295143Y-35246762D01*
X83199905Y-35294381D01*
X84628477Y-35342000D02*
X84628477Y-36008667D01*
X84199905Y-35342000D02*
X84199905Y-35865810D01*
X84247524Y-35961048D01*
X84342762Y-36008667D01*
X84485620Y-36008667D01*
X84580858Y-35961048D01*
X84628477Y-35913429D01*
X82183905Y-70171667D02*
X82183905Y-69171667D01*
X82422000Y-69171667D01*
X82564858Y-69219286D01*
X82660096Y-69314524D01*
X82707715Y-69409762D01*
X82755334Y-69600238D01*
X82755334Y-69743096D01*
X82707715Y-69933572D01*
X82660096Y-70028810D01*
X82564858Y-70124048D01*
X82422000Y-70171667D01*
X82183905Y-70171667D01*
X83707715Y-70171667D02*
X83136286Y-70171667D01*
X83422000Y-70171667D02*
X83422000Y-69171667D01*
X83326762Y-69314524D01*
X83231524Y-69409762D01*
X83136286Y-69457381D01*
X81674381Y-71163476D02*
X80674381Y-71163476D01*
X80674381Y-70925381D01*
X80722000Y-70782523D01*
X80817238Y-70687285D01*
X80912476Y-70639666D01*
X81102952Y-70592047D01*
X81245810Y-70592047D01*
X81436286Y-70639666D01*
X81531524Y-70687285D01*
X81626762Y-70782523D01*
X81674381Y-70925381D01*
X81674381Y-71163476D01*
X81674381Y-70163476D02*
X80674381Y-70163476D01*
X80674381Y-69496810D02*
X80674381Y-69306333D01*
X80722000Y-69211095D01*
X80817238Y-69115857D01*
X81007714Y-69068238D01*
X81341048Y-69068238D01*
X81531524Y-69115857D01*
X81626762Y-69211095D01*
X81674381Y-69306333D01*
X81674381Y-69496810D01*
X81626762Y-69592048D01*
X81531524Y-69687286D01*
X81341048Y-69734905D01*
X81007714Y-69734905D01*
X80817238Y-69687286D01*
X80722000Y-69592048D01*
X80674381Y-69496810D01*
X81674381Y-68639667D02*
X80674381Y-68639667D01*
X80674381Y-68401572D01*
X80722000Y-68258714D01*
X80817238Y-68163476D01*
X80912476Y-68115857D01*
X81102952Y-68068238D01*
X81245810Y-68068238D01*
X81436286Y-68115857D01*
X81531524Y-68163476D01*
X81626762Y-68258714D01*
X81674381Y-68401572D01*
X81674381Y-68639667D01*
X81150571Y-67639667D02*
X81150571Y-67306333D01*
X81674381Y-67163476D02*
X81674381Y-67639667D01*
X80674381Y-67639667D01*
X80674381Y-67163476D01*
X81626762Y-66782524D02*
X81674381Y-66639667D01*
X81674381Y-66401571D01*
X81626762Y-66306333D01*
X81579143Y-66258714D01*
X81483905Y-66211095D01*
X81388667Y-66211095D01*
X81293429Y-66258714D01*
X81245810Y-66306333D01*
X81198190Y-66401571D01*
X81150571Y-66592048D01*
X81102952Y-66687286D01*
X81055333Y-66734905D01*
X80960095Y-66782524D01*
X80864857Y-66782524D01*
X80769619Y-66734905D01*
X80722000Y-66687286D01*
X80674381Y-66592048D01*
X80674381Y-66353952D01*
X80722000Y-66211095D01*
X81579143Y-65211095D02*
X81626762Y-65258714D01*
X81674381Y-65401571D01*
X81674381Y-65496809D01*
X81626762Y-65639667D01*
X81531524Y-65734905D01*
X81436286Y-65782524D01*
X81245810Y-65830143D01*
X81102952Y-65830143D01*
X80912476Y-65782524D01*
X80817238Y-65734905D01*
X80722000Y-65639667D01*
X80674381Y-65496809D01*
X80674381Y-65401571D01*
X80722000Y-65258714D01*
X80769619Y-65211095D01*
X81674381Y-64782524D02*
X80674381Y-64782524D01*
X81150571Y-64782524D02*
X81150571Y-64211095D01*
X81674381Y-64211095D02*
X80674381Y-64211095D01*
X79643905Y-70171667D02*
X79643905Y-69171667D01*
X79882000Y-69171667D01*
X80024858Y-69219286D01*
X80120096Y-69314524D01*
X80167715Y-69409762D01*
X80215334Y-69600238D01*
X80215334Y-69743096D01*
X80167715Y-69933572D01*
X80120096Y-70028810D01*
X80024858Y-70124048D01*
X79882000Y-70171667D01*
X79643905Y-70171667D01*
X80596286Y-69266905D02*
X80643905Y-69219286D01*
X80739143Y-69171667D01*
X80977239Y-69171667D01*
X81072477Y-69219286D01*
X81120096Y-69266905D01*
X81167715Y-69362143D01*
X81167715Y-69457381D01*
X81120096Y-69600238D01*
X80548667Y-70171667D01*
X81167715Y-70171667D01*
X82534381Y-71163476D02*
X81534381Y-71163476D01*
X81534381Y-70925381D01*
X81582000Y-70782523D01*
X81677238Y-70687285D01*
X81772476Y-70639666D01*
X81962952Y-70592047D01*
X82105810Y-70592047D01*
X82296286Y-70639666D01*
X82391524Y-70687285D01*
X82486762Y-70782523D01*
X82534381Y-70925381D01*
X82534381Y-71163476D01*
X82534381Y-70163476D02*
X81534381Y-70163476D01*
X81534381Y-69496810D02*
X81534381Y-69306333D01*
X81582000Y-69211095D01*
X81677238Y-69115857D01*
X81867714Y-69068238D01*
X82201048Y-69068238D01*
X82391524Y-69115857D01*
X82486762Y-69211095D01*
X82534381Y-69306333D01*
X82534381Y-69496810D01*
X82486762Y-69592048D01*
X82391524Y-69687286D01*
X82201048Y-69734905D01*
X81867714Y-69734905D01*
X81677238Y-69687286D01*
X81582000Y-69592048D01*
X81534381Y-69496810D01*
X82534381Y-68639667D02*
X81534381Y-68639667D01*
X81534381Y-68401572D01*
X81582000Y-68258714D01*
X81677238Y-68163476D01*
X81772476Y-68115857D01*
X81962952Y-68068238D01*
X82105810Y-68068238D01*
X82296286Y-68115857D01*
X82391524Y-68163476D01*
X82486762Y-68258714D01*
X82534381Y-68401572D01*
X82534381Y-68639667D01*
X82010571Y-67639667D02*
X82010571Y-67306333D01*
X82534381Y-67163476D02*
X82534381Y-67639667D01*
X81534381Y-67639667D01*
X81534381Y-67163476D01*
X82486762Y-66782524D02*
X82534381Y-66639667D01*
X82534381Y-66401571D01*
X82486762Y-66306333D01*
X82439143Y-66258714D01*
X82343905Y-66211095D01*
X82248667Y-66211095D01*
X82153429Y-66258714D01*
X82105810Y-66306333D01*
X82058190Y-66401571D01*
X82010571Y-66592048D01*
X81962952Y-66687286D01*
X81915333Y-66734905D01*
X81820095Y-66782524D01*
X81724857Y-66782524D01*
X81629619Y-66734905D01*
X81582000Y-66687286D01*
X81534381Y-66592048D01*
X81534381Y-66353952D01*
X81582000Y-66211095D01*
X82439143Y-65211095D02*
X82486762Y-65258714D01*
X82534381Y-65401571D01*
X82534381Y-65496809D01*
X82486762Y-65639667D01*
X82391524Y-65734905D01*
X82296286Y-65782524D01*
X82105810Y-65830143D01*
X81962952Y-65830143D01*
X81772476Y-65782524D01*
X81677238Y-65734905D01*
X81582000Y-65639667D01*
X81534381Y-65496809D01*
X81534381Y-65401571D01*
X81582000Y-65258714D01*
X81629619Y-65211095D01*
X82534381Y-64782524D02*
X81534381Y-64782524D01*
X82010571Y-64782524D02*
X82010571Y-64211095D01*
X82534381Y-64211095D02*
X81534381Y-64211095D01*
X85104834Y-45343167D02*
X84771500Y-44866976D01*
X84533405Y-45343167D02*
X84533405Y-44343167D01*
X84914358Y-44343167D01*
X85009596Y-44390786D01*
X85057215Y-44438405D01*
X85104834Y-44533643D01*
X85104834Y-44676500D01*
X85057215Y-44771738D01*
X85009596Y-44819357D01*
X84914358Y-44866976D01*
X84533405Y-44866976D01*
X85581024Y-45343167D02*
X85771500Y-45343167D01*
X85866739Y-45295548D01*
X85914358Y-45247929D01*
X86009596Y-45105072D01*
X86057215Y-44914596D01*
X86057215Y-44533643D01*
X86009596Y-44438405D01*
X85961977Y-44390786D01*
X85866739Y-44343167D01*
X85676262Y-44343167D01*
X85581024Y-44390786D01*
X85533405Y-44438405D01*
X85485786Y-44533643D01*
X85485786Y-44771738D01*
X85533405Y-44866976D01*
X85581024Y-44914596D01*
X85676262Y-44962215D01*
X85866739Y-44962215D01*
X85961977Y-44914596D01*
X86009596Y-44866976D01*
X86057215Y-44771738D01*
X85517524Y-43580407D02*
X85184190Y-43104216D01*
X84946095Y-43580407D02*
X84946095Y-42580407D01*
X85327048Y-42580407D01*
X85422286Y-42628026D01*
X85469905Y-42675645D01*
X85517524Y-42770883D01*
X85517524Y-42913740D01*
X85469905Y-43008978D01*
X85422286Y-43056597D01*
X85327048Y-43104216D01*
X84946095Y-43104216D01*
X80770881Y-48581643D02*
X80294690Y-48914977D01*
X80770881Y-49153072D02*
X79770881Y-49153072D01*
X79770881Y-48772119D01*
X79818500Y-48676881D01*
X79866119Y-48629262D01*
X79961357Y-48581643D01*
X80104214Y-48581643D01*
X80199452Y-48629262D01*
X80247071Y-48676881D01*
X80294690Y-48772119D01*
X80294690Y-49153072D01*
X80770881Y-47629262D02*
X80770881Y-48200691D01*
X80770881Y-47914977D02*
X79770881Y-47914977D01*
X79913738Y-48010215D01*
X80008976Y-48105453D01*
X80056595Y-48200691D01*
X79770881Y-47010215D02*
X79770881Y-46914976D01*
X79818500Y-46819738D01*
X79866119Y-46772119D01*
X79961357Y-46724500D01*
X80151833Y-46676881D01*
X80389929Y-46676881D01*
X80580405Y-46724500D01*
X80675643Y-46772119D01*
X80723262Y-46819738D01*
X80770881Y-46914976D01*
X80770881Y-47010215D01*
X80723262Y-47105453D01*
X80675643Y-47153072D01*
X80580405Y-47200691D01*
X80389929Y-47248310D01*
X80151833Y-47248310D01*
X79961357Y-47200691D01*
X79866119Y-47153072D01*
X79818500Y-47105453D01*
X79770881Y-47010215D01*
X82533641Y-47565762D02*
X82057450Y-47899096D01*
X82533641Y-48137191D02*
X81533641Y-48137191D01*
X81533641Y-47756238D01*
X81581260Y-47661000D01*
X81628879Y-47613381D01*
X81724117Y-47565762D01*
X81866974Y-47565762D01*
X81962212Y-47613381D01*
X82009831Y-47661000D01*
X82057450Y-47756238D01*
X82057450Y-48137191D01*
X83945881Y-48454643D02*
X83469690Y-48787977D01*
X83945881Y-49026072D02*
X82945881Y-49026072D01*
X82945881Y-48645119D01*
X82993500Y-48549881D01*
X83041119Y-48502262D01*
X83136357Y-48454643D01*
X83279214Y-48454643D01*
X83374452Y-48502262D01*
X83422071Y-48549881D01*
X83469690Y-48645119D01*
X83469690Y-49026072D01*
X83945881Y-47502262D02*
X83945881Y-48073691D01*
X83945881Y-47787977D02*
X82945881Y-47787977D01*
X83088738Y-47883215D01*
X83183976Y-47978453D01*
X83231595Y-48073691D01*
X83945881Y-46549881D02*
X83945881Y-47121310D01*
X83945881Y-46835596D02*
X82945881Y-46835596D01*
X83088738Y-46930834D01*
X83183976Y-47026072D01*
X83231595Y-47121310D01*
X82183121Y-47565762D02*
X81706930Y-47899096D01*
X82183121Y-48137191D02*
X81183121Y-48137191D01*
X81183121Y-47756238D01*
X81230740Y-47661000D01*
X81278359Y-47613381D01*
X81373597Y-47565762D01*
X81516454Y-47565762D01*
X81611692Y-47613381D01*
X81659311Y-47661000D01*
X81706930Y-47756238D01*
X81706930Y-48137191D01*
X84628643Y-38993167D02*
X84295309Y-38516976D01*
X84057214Y-38993167D02*
X84057214Y-37993167D01*
X84438167Y-37993167D01*
X84533405Y-38040786D01*
X84581024Y-38088405D01*
X84628643Y-38183643D01*
X84628643Y-38326500D01*
X84581024Y-38421738D01*
X84533405Y-38469357D01*
X84438167Y-38516976D01*
X84057214Y-38516976D01*
X85581024Y-38993167D02*
X85009595Y-38993167D01*
X85295309Y-38993167D02*
X85295309Y-37993167D01*
X85200071Y-38136024D01*
X85104833Y-38231262D01*
X85009595Y-38278881D01*
X85961976Y-38088405D02*
X86009595Y-38040786D01*
X86104833Y-37993167D01*
X86342929Y-37993167D01*
X86438167Y-38040786D01*
X86485786Y-38088405D01*
X86533405Y-38183643D01*
X86533405Y-38278881D01*
X86485786Y-38421738D01*
X85914357Y-38993167D01*
X86533405Y-38993167D01*
X85517524Y-37230407D02*
X85184190Y-36754216D01*
X84946095Y-37230407D02*
X84946095Y-36230407D01*
X85327048Y-36230407D01*
X85422286Y-36278026D01*
X85469905Y-36325645D01*
X85517524Y-36420883D01*
X85517524Y-36563740D01*
X85469905Y-36658978D01*
X85422286Y-36706597D01*
X85327048Y-36754216D01*
X84946095Y-36754216D01*
X80850381Y-42541191D02*
X81659905Y-42541191D01*
X81755143Y-42493572D01*
X81802762Y-42445953D01*
X81850381Y-42350715D01*
X81850381Y-42160238D01*
X81802762Y-42065000D01*
X81755143Y-42017381D01*
X81659905Y-41969762D01*
X80850381Y-41969762D01*
X80945619Y-41541191D02*
X80898000Y-41493572D01*
X80850381Y-41398334D01*
X80850381Y-41160238D01*
X80898000Y-41065000D01*
X80945619Y-41017381D01*
X81040857Y-40969762D01*
X81136095Y-40969762D01*
X81278952Y-41017381D01*
X81850381Y-41588810D01*
X81850381Y-40969762D01*
X80072381Y-43469762D02*
X80072381Y-43945953D01*
X79072381Y-43945953D01*
X80072381Y-43136429D02*
X79072381Y-43136429D01*
X79786667Y-42803095D01*
X79072381Y-42469762D01*
X80072381Y-42469762D01*
X79072381Y-42088810D02*
X79072381Y-41469762D01*
X79453333Y-41803096D01*
X79453333Y-41660238D01*
X79500952Y-41565000D01*
X79548571Y-41517381D01*
X79643810Y-41469762D01*
X79881905Y-41469762D01*
X79977143Y-41517381D01*
X80024762Y-41565000D01*
X80072381Y-41660238D01*
X80072381Y-41945953D01*
X80024762Y-42041191D01*
X79977143Y-42088810D01*
X79167619Y-41088810D02*
X79120000Y-41041191D01*
X79072381Y-40945953D01*
X79072381Y-40707857D01*
X79120000Y-40612619D01*
X79167619Y-40565000D01*
X79262857Y-40517381D01*
X79358095Y-40517381D01*
X79500952Y-40565000D01*
X80072381Y-41136429D01*
X80072381Y-40517381D01*
X79405714Y-39660238D02*
X80072381Y-39660238D01*
X79024762Y-39898334D02*
X79739048Y-40136429D01*
X79739048Y-39517381D01*
M02*
