G04 #@! TF.FileFunction,Copper,L2,Bot,Signal*
%FSLAX46Y46*%
G04 Gerber Fmt 4.6, Leading zero omitted, Abs format (unit mm)*
G04 Created by KiCad (PCBNEW (2015-04-12 BZR 5595)-product) date Mon 20 Apr 2015 09:24:05 PM EEST*
%MOMM*%
G01*
G04 APERTURE LIST*
%ADD10C,0.100000*%
%ADD11R,1.727200X1.727200*%
%ADD12O,1.727200X1.727200*%
%ADD13C,0.889000*%
%ADD14C,0.254000*%
%ADD15C,0.406400*%
%ADD16C,0.508000*%
G04 APERTURE END LIST*
D10*
D11*
X124231400Y-38354000D03*
D12*
X124231400Y-40894000D03*
X121691400Y-38354000D03*
X121691400Y-40894000D03*
X119151400Y-38354000D03*
X119151400Y-40894000D03*
D11*
X108966000Y-38354000D03*
D12*
X108966000Y-40894000D03*
X106426000Y-38354000D03*
X106426000Y-40894000D03*
X103886000Y-38354000D03*
X103886000Y-40894000D03*
D13*
X107795000Y-62158286D03*
X102842000Y-69905286D03*
X109982000Y-74168000D03*
X109728000Y-50546000D03*
X112014000Y-53848000D03*
X109982000Y-57538572D03*
X109982000Y-59944000D03*
X106934000Y-50291998D03*
X112240000Y-74223286D03*
X101064000Y-74223286D03*
X107160000Y-68127286D03*
X103350000Y-74223286D03*
X118615400Y-74223286D03*
X122425400Y-68127286D03*
X116329400Y-74223286D03*
X127505400Y-74223286D03*
X122199400Y-50291998D03*
X125247400Y-59944000D03*
X125247400Y-57538572D03*
X127279400Y-53848000D03*
X124993400Y-50546000D03*
X125247400Y-74168000D03*
X118107400Y-69905286D03*
X123060400Y-62158286D03*
X102461000Y-63195939D03*
X102489000Y-59435996D03*
X117754400Y-59435996D03*
X117726400Y-63195939D03*
X106934000Y-51816008D03*
X108684000Y-70667286D03*
X123949400Y-70667286D03*
X122199400Y-51816008D03*
X105509000Y-70413286D03*
X103886000Y-50800000D03*
X119151400Y-50800000D03*
X120774400Y-70413286D03*
X104394000Y-46736000D03*
X119659400Y-46736000D03*
D14*
X103350000Y-69905286D02*
X102842000Y-69905286D01*
X103350000Y-74223286D02*
X103350000Y-69905286D01*
D15*
X106679990Y-50291998D02*
X106934000Y-50291998D01*
D14*
X104620000Y-74223286D02*
X107160000Y-71683286D01*
X107160000Y-71683286D02*
X107160000Y-68127286D01*
X103350000Y-74223286D02*
X104620000Y-74223286D01*
X118615400Y-74223286D02*
X119885400Y-74223286D01*
X122425400Y-71683286D02*
X122425400Y-68127286D01*
X119885400Y-74223286D02*
X122425400Y-71683286D01*
D15*
X121945390Y-50291998D02*
X122199400Y-50291998D01*
D14*
X118615400Y-74223286D02*
X118615400Y-69905286D01*
X118615400Y-69905286D02*
X118107400Y-69905286D01*
D16*
X102461000Y-59463996D02*
X102489000Y-59435996D01*
X102461000Y-63195939D02*
X102461000Y-59463996D01*
X117726400Y-63195939D02*
X117726400Y-59463996D01*
X117726400Y-59463996D02*
X117754400Y-59435996D01*
D15*
X108722101Y-53604101D02*
X106934000Y-51816000D01*
X108722101Y-62603295D02*
X108722101Y-53604101D01*
D16*
X108684000Y-62641396D02*
X108722101Y-62603295D01*
X108684000Y-70667286D02*
X108684000Y-62641396D01*
X123949400Y-70667286D02*
X123949400Y-62641396D01*
X123949400Y-62641396D02*
X123987501Y-62603295D01*
D15*
X123987501Y-62603295D02*
X123987501Y-53604101D01*
X123987501Y-53604101D02*
X122199400Y-51816000D01*
X105509000Y-55681286D02*
X105509000Y-53910476D01*
X103886000Y-50800000D02*
X103886000Y-52287476D01*
X103886000Y-52287476D02*
X105509000Y-53910476D01*
X105509000Y-70413286D02*
X105509000Y-55681286D01*
X120774400Y-70413286D02*
X120774400Y-55681286D01*
X119151400Y-52287476D02*
X120774400Y-53910476D01*
X119151400Y-50800000D02*
X119151400Y-52287476D01*
X120774400Y-55681286D02*
X120774400Y-53910476D01*
D16*
X104394000Y-46736000D02*
X104394000Y-41402000D01*
X104394000Y-41402000D02*
X103886000Y-40894000D01*
X119659400Y-41402000D02*
X119151400Y-40894000D01*
X119659400Y-46736000D02*
X119659400Y-41402000D01*
D14*
G36*
X113156937Y-84653714D02*
X113127792Y-84653714D01*
X113127792Y-30850543D01*
X112845908Y-30168334D01*
X112324412Y-29645926D01*
X111642695Y-29362853D01*
X110904543Y-29362208D01*
X110222334Y-29644092D01*
X109699926Y-30165588D01*
X109416853Y-30847305D01*
X109416208Y-31585457D01*
X109698092Y-32267666D01*
X110219588Y-32790074D01*
X110901305Y-33073147D01*
X111639457Y-33073792D01*
X112321666Y-32791908D01*
X112844074Y-32270412D01*
X113127147Y-31588695D01*
X113127792Y-30850543D01*
X113127792Y-84653714D01*
X110464600Y-84653714D01*
X110464600Y-39343910D01*
X110464600Y-39091291D01*
X110464600Y-38639750D01*
X110464600Y-38068250D01*
X110464600Y-37616709D01*
X110464600Y-37364090D01*
X110367927Y-37130701D01*
X110189298Y-36952073D01*
X109955909Y-36855400D01*
X109251750Y-36855400D01*
X109093000Y-37014150D01*
X109093000Y-38227000D01*
X110305850Y-38227000D01*
X110464600Y-38068250D01*
X110464600Y-38639750D01*
X110305850Y-38481000D01*
X109093000Y-38481000D01*
X109093000Y-38501000D01*
X108839000Y-38501000D01*
X108839000Y-38481000D01*
X108839000Y-38227000D01*
X108839000Y-37014150D01*
X108680250Y-36855400D01*
X107976091Y-36855400D01*
X107742702Y-36952073D01*
X107564073Y-37130701D01*
X107481471Y-37330119D01*
X107314490Y-37147179D01*
X106785027Y-36899032D01*
X106553000Y-37019531D01*
X106553000Y-38227000D01*
X107626150Y-38227000D01*
X107759817Y-38227000D01*
X108839000Y-38227000D01*
X108839000Y-38481000D01*
X107759817Y-38481000D01*
X107626150Y-38481000D01*
X106553000Y-38481000D01*
X106553000Y-39559531D01*
X106553000Y-39688469D01*
X106553000Y-40767000D01*
X106573000Y-40767000D01*
X106573000Y-41021000D01*
X106553000Y-41021000D01*
X106553000Y-42228469D01*
X106785027Y-42348968D01*
X107314490Y-42100821D01*
X107708688Y-41668947D01*
X107828495Y-41379688D01*
X108080009Y-41756105D01*
X108475546Y-42020394D01*
X108942114Y-42113200D01*
X108989886Y-42113200D01*
X109456454Y-42020394D01*
X109851991Y-41756105D01*
X110116280Y-41360568D01*
X110209086Y-40894000D01*
X110116280Y-40427432D01*
X109851991Y-40031895D01*
X109583656Y-39852600D01*
X109955909Y-39852600D01*
X110189298Y-39755927D01*
X110367927Y-39577299D01*
X110464600Y-39343910D01*
X110464600Y-84653714D01*
X109484239Y-84653714D01*
X109484239Y-70508834D01*
X109362687Y-70214658D01*
X109293600Y-70145450D01*
X109293600Y-62794841D01*
X109331701Y-62603295D01*
X109285298Y-62370011D01*
X109280901Y-62363430D01*
X109280901Y-53604101D01*
X109238366Y-53390258D01*
X109238365Y-53390257D01*
X109117232Y-53208970D01*
X107734092Y-51825830D01*
X107734239Y-51657556D01*
X107612687Y-51363380D01*
X107387812Y-51138112D01*
X107093848Y-51016047D01*
X106775548Y-51015769D01*
X106481372Y-51137321D01*
X106299000Y-51319374D01*
X106299000Y-42228469D01*
X106299000Y-41021000D01*
X106279000Y-41021000D01*
X106279000Y-40767000D01*
X106299000Y-40767000D01*
X106299000Y-39688469D01*
X106299000Y-39559531D01*
X106299000Y-38481000D01*
X106279000Y-38481000D01*
X106279000Y-38227000D01*
X106299000Y-38227000D01*
X106299000Y-37019531D01*
X106066973Y-36899032D01*
X105537510Y-37147179D01*
X105143312Y-37579053D01*
X105023504Y-37868311D01*
X104771991Y-37491895D01*
X104376454Y-37227606D01*
X103909886Y-37134800D01*
X103862114Y-37134800D01*
X103395546Y-37227606D01*
X103000009Y-37491895D01*
X102735720Y-37887432D01*
X102642914Y-38354000D01*
X102735720Y-38820568D01*
X103000009Y-39216105D01*
X103395546Y-39480394D01*
X103862114Y-39573200D01*
X103909886Y-39573200D01*
X104376454Y-39480394D01*
X104771991Y-39216105D01*
X105023504Y-38839688D01*
X105143312Y-39128947D01*
X105537510Y-39560821D01*
X105672312Y-39624000D01*
X105537510Y-39687179D01*
X105143312Y-40119053D01*
X105023504Y-40408311D01*
X104771991Y-40031895D01*
X104376454Y-39767606D01*
X103909886Y-39674800D01*
X103862114Y-39674800D01*
X103395546Y-39767606D01*
X103000009Y-40031895D01*
X102735720Y-40427432D01*
X102642914Y-40894000D01*
X102735720Y-41360568D01*
X103000009Y-41756105D01*
X103395546Y-42020394D01*
X103784400Y-42097741D01*
X103784400Y-46214011D01*
X103716104Y-46282188D01*
X103594039Y-46576152D01*
X103593761Y-46894452D01*
X103715313Y-47188628D01*
X103940188Y-47413896D01*
X104234152Y-47535961D01*
X104552452Y-47536239D01*
X104846628Y-47414687D01*
X105071896Y-47189812D01*
X105193961Y-46895848D01*
X105194239Y-46577548D01*
X105072687Y-46283372D01*
X105003600Y-46214164D01*
X105003600Y-41409477D01*
X105023504Y-41379688D01*
X105143312Y-41668947D01*
X105537510Y-42100821D01*
X106066973Y-42348968D01*
X106299000Y-42228469D01*
X106299000Y-51319374D01*
X106256104Y-51362196D01*
X106134039Y-51656160D01*
X106133761Y-51974460D01*
X106255313Y-52268636D01*
X106480188Y-52493904D01*
X106774152Y-52615969D01*
X106943855Y-52616117D01*
X108163301Y-53835563D01*
X108163301Y-62344509D01*
X108120803Y-62408112D01*
X108074400Y-62641396D01*
X108074400Y-70145297D01*
X108006104Y-70213474D01*
X107884039Y-70507438D01*
X107883761Y-70825738D01*
X108005313Y-71119914D01*
X108230188Y-71345182D01*
X108524152Y-71467247D01*
X108842452Y-71467525D01*
X109136628Y-71345973D01*
X109361896Y-71121098D01*
X109483961Y-70827134D01*
X109484239Y-70508834D01*
X109484239Y-84653714D01*
X106309239Y-84653714D01*
X106309239Y-70254834D01*
X106187687Y-69960658D01*
X106067800Y-69840561D01*
X106067800Y-55681286D01*
X106067800Y-53910476D01*
X106025265Y-53696633D01*
X106025264Y-53696632D01*
X105904132Y-53515345D01*
X104444800Y-52056013D01*
X104444800Y-51372700D01*
X104563896Y-51253812D01*
X104685961Y-50959848D01*
X104686239Y-50641548D01*
X104564687Y-50347372D01*
X104339812Y-50122104D01*
X104045848Y-50000039D01*
X103727548Y-49999761D01*
X103433372Y-50121313D01*
X103208104Y-50346188D01*
X103086039Y-50640152D01*
X103085761Y-50958452D01*
X103207313Y-51252628D01*
X103327200Y-51372724D01*
X103327200Y-52287476D01*
X103369736Y-52501320D01*
X103490869Y-52682607D01*
X104950200Y-54141938D01*
X104950200Y-55681286D01*
X104950200Y-69840585D01*
X104831104Y-69959474D01*
X104709039Y-70253438D01*
X104708761Y-70571738D01*
X104830313Y-70865914D01*
X105055188Y-71091182D01*
X105349152Y-71213247D01*
X105667452Y-71213525D01*
X105961628Y-71091973D01*
X106186896Y-70867098D01*
X106308961Y-70573134D01*
X106309239Y-70254834D01*
X106309239Y-84653714D01*
X103289239Y-84653714D01*
X103289239Y-59277544D01*
X103167687Y-58983368D01*
X102942812Y-58758100D01*
X102648848Y-58636035D01*
X102330548Y-58635757D01*
X102036372Y-58757309D01*
X101811104Y-58982184D01*
X101689039Y-59276148D01*
X101688761Y-59594448D01*
X101810313Y-59888624D01*
X101851400Y-59929782D01*
X101851400Y-62673950D01*
X101783104Y-62742127D01*
X101661039Y-63036091D01*
X101660761Y-63354391D01*
X101782313Y-63648567D01*
X102007188Y-63873835D01*
X102301152Y-63995900D01*
X102619452Y-63996178D01*
X102913628Y-63874626D01*
X103138896Y-63649751D01*
X103260961Y-63355787D01*
X103261239Y-63037487D01*
X103139687Y-62743311D01*
X103070600Y-62674103D01*
X103070600Y-59985936D01*
X103166896Y-59889808D01*
X103288961Y-59595844D01*
X103289239Y-59277544D01*
X103289239Y-84653714D01*
X100202937Y-84653714D01*
X100176559Y-31586308D01*
X100458092Y-32267666D01*
X100979588Y-32790074D01*
X101661305Y-33073147D01*
X102399457Y-33073792D01*
X103081666Y-32791908D01*
X103604074Y-32270412D01*
X103887147Y-31588695D01*
X103887792Y-30850543D01*
X103605908Y-30168334D01*
X103084412Y-29645926D01*
X102402695Y-29362853D01*
X101664543Y-29362208D01*
X100982334Y-29644092D01*
X100459926Y-30165588D01*
X100176853Y-30847305D01*
X100176431Y-31329155D01*
X100175090Y-28630886D01*
X113129090Y-28630886D01*
X113156937Y-84653714D01*
X113156937Y-84653714D01*
G37*
X113156937Y-84653714D02*
X113127792Y-84653714D01*
X113127792Y-30850543D01*
X112845908Y-30168334D01*
X112324412Y-29645926D01*
X111642695Y-29362853D01*
X110904543Y-29362208D01*
X110222334Y-29644092D01*
X109699926Y-30165588D01*
X109416853Y-30847305D01*
X109416208Y-31585457D01*
X109698092Y-32267666D01*
X110219588Y-32790074D01*
X110901305Y-33073147D01*
X111639457Y-33073792D01*
X112321666Y-32791908D01*
X112844074Y-32270412D01*
X113127147Y-31588695D01*
X113127792Y-30850543D01*
X113127792Y-84653714D01*
X110464600Y-84653714D01*
X110464600Y-39343910D01*
X110464600Y-39091291D01*
X110464600Y-38639750D01*
X110464600Y-38068250D01*
X110464600Y-37616709D01*
X110464600Y-37364090D01*
X110367927Y-37130701D01*
X110189298Y-36952073D01*
X109955909Y-36855400D01*
X109251750Y-36855400D01*
X109093000Y-37014150D01*
X109093000Y-38227000D01*
X110305850Y-38227000D01*
X110464600Y-38068250D01*
X110464600Y-38639750D01*
X110305850Y-38481000D01*
X109093000Y-38481000D01*
X109093000Y-38501000D01*
X108839000Y-38501000D01*
X108839000Y-38481000D01*
X108839000Y-38227000D01*
X108839000Y-37014150D01*
X108680250Y-36855400D01*
X107976091Y-36855400D01*
X107742702Y-36952073D01*
X107564073Y-37130701D01*
X107481471Y-37330119D01*
X107314490Y-37147179D01*
X106785027Y-36899032D01*
X106553000Y-37019531D01*
X106553000Y-38227000D01*
X107626150Y-38227000D01*
X107759817Y-38227000D01*
X108839000Y-38227000D01*
X108839000Y-38481000D01*
X107759817Y-38481000D01*
X107626150Y-38481000D01*
X106553000Y-38481000D01*
X106553000Y-39559531D01*
X106553000Y-39688469D01*
X106553000Y-40767000D01*
X106573000Y-40767000D01*
X106573000Y-41021000D01*
X106553000Y-41021000D01*
X106553000Y-42228469D01*
X106785027Y-42348968D01*
X107314490Y-42100821D01*
X107708688Y-41668947D01*
X107828495Y-41379688D01*
X108080009Y-41756105D01*
X108475546Y-42020394D01*
X108942114Y-42113200D01*
X108989886Y-42113200D01*
X109456454Y-42020394D01*
X109851991Y-41756105D01*
X110116280Y-41360568D01*
X110209086Y-40894000D01*
X110116280Y-40427432D01*
X109851991Y-40031895D01*
X109583656Y-39852600D01*
X109955909Y-39852600D01*
X110189298Y-39755927D01*
X110367927Y-39577299D01*
X110464600Y-39343910D01*
X110464600Y-84653714D01*
X109484239Y-84653714D01*
X109484239Y-70508834D01*
X109362687Y-70214658D01*
X109293600Y-70145450D01*
X109293600Y-62794841D01*
X109331701Y-62603295D01*
X109285298Y-62370011D01*
X109280901Y-62363430D01*
X109280901Y-53604101D01*
X109238366Y-53390258D01*
X109238365Y-53390257D01*
X109117232Y-53208970D01*
X107734092Y-51825830D01*
X107734239Y-51657556D01*
X107612687Y-51363380D01*
X107387812Y-51138112D01*
X107093848Y-51016047D01*
X106775548Y-51015769D01*
X106481372Y-51137321D01*
X106299000Y-51319374D01*
X106299000Y-42228469D01*
X106299000Y-41021000D01*
X106279000Y-41021000D01*
X106279000Y-40767000D01*
X106299000Y-40767000D01*
X106299000Y-39688469D01*
X106299000Y-39559531D01*
X106299000Y-38481000D01*
X106279000Y-38481000D01*
X106279000Y-38227000D01*
X106299000Y-38227000D01*
X106299000Y-37019531D01*
X106066973Y-36899032D01*
X105537510Y-37147179D01*
X105143312Y-37579053D01*
X105023504Y-37868311D01*
X104771991Y-37491895D01*
X104376454Y-37227606D01*
X103909886Y-37134800D01*
X103862114Y-37134800D01*
X103395546Y-37227606D01*
X103000009Y-37491895D01*
X102735720Y-37887432D01*
X102642914Y-38354000D01*
X102735720Y-38820568D01*
X103000009Y-39216105D01*
X103395546Y-39480394D01*
X103862114Y-39573200D01*
X103909886Y-39573200D01*
X104376454Y-39480394D01*
X104771991Y-39216105D01*
X105023504Y-38839688D01*
X105143312Y-39128947D01*
X105537510Y-39560821D01*
X105672312Y-39624000D01*
X105537510Y-39687179D01*
X105143312Y-40119053D01*
X105023504Y-40408311D01*
X104771991Y-40031895D01*
X104376454Y-39767606D01*
X103909886Y-39674800D01*
X103862114Y-39674800D01*
X103395546Y-39767606D01*
X103000009Y-40031895D01*
X102735720Y-40427432D01*
X102642914Y-40894000D01*
X102735720Y-41360568D01*
X103000009Y-41756105D01*
X103395546Y-42020394D01*
X103784400Y-42097741D01*
X103784400Y-46214011D01*
X103716104Y-46282188D01*
X103594039Y-46576152D01*
X103593761Y-46894452D01*
X103715313Y-47188628D01*
X103940188Y-47413896D01*
X104234152Y-47535961D01*
X104552452Y-47536239D01*
X104846628Y-47414687D01*
X105071896Y-47189812D01*
X105193961Y-46895848D01*
X105194239Y-46577548D01*
X105072687Y-46283372D01*
X105003600Y-46214164D01*
X105003600Y-41409477D01*
X105023504Y-41379688D01*
X105143312Y-41668947D01*
X105537510Y-42100821D01*
X106066973Y-42348968D01*
X106299000Y-42228469D01*
X106299000Y-51319374D01*
X106256104Y-51362196D01*
X106134039Y-51656160D01*
X106133761Y-51974460D01*
X106255313Y-52268636D01*
X106480188Y-52493904D01*
X106774152Y-52615969D01*
X106943855Y-52616117D01*
X108163301Y-53835563D01*
X108163301Y-62344509D01*
X108120803Y-62408112D01*
X108074400Y-62641396D01*
X108074400Y-70145297D01*
X108006104Y-70213474D01*
X107884039Y-70507438D01*
X107883761Y-70825738D01*
X108005313Y-71119914D01*
X108230188Y-71345182D01*
X108524152Y-71467247D01*
X108842452Y-71467525D01*
X109136628Y-71345973D01*
X109361896Y-71121098D01*
X109483961Y-70827134D01*
X109484239Y-70508834D01*
X109484239Y-84653714D01*
X106309239Y-84653714D01*
X106309239Y-70254834D01*
X106187687Y-69960658D01*
X106067800Y-69840561D01*
X106067800Y-55681286D01*
X106067800Y-53910476D01*
X106025265Y-53696633D01*
X106025264Y-53696632D01*
X105904132Y-53515345D01*
X104444800Y-52056013D01*
X104444800Y-51372700D01*
X104563896Y-51253812D01*
X104685961Y-50959848D01*
X104686239Y-50641548D01*
X104564687Y-50347372D01*
X104339812Y-50122104D01*
X104045848Y-50000039D01*
X103727548Y-49999761D01*
X103433372Y-50121313D01*
X103208104Y-50346188D01*
X103086039Y-50640152D01*
X103085761Y-50958452D01*
X103207313Y-51252628D01*
X103327200Y-51372724D01*
X103327200Y-52287476D01*
X103369736Y-52501320D01*
X103490869Y-52682607D01*
X104950200Y-54141938D01*
X104950200Y-55681286D01*
X104950200Y-69840585D01*
X104831104Y-69959474D01*
X104709039Y-70253438D01*
X104708761Y-70571738D01*
X104830313Y-70865914D01*
X105055188Y-71091182D01*
X105349152Y-71213247D01*
X105667452Y-71213525D01*
X105961628Y-71091973D01*
X106186896Y-70867098D01*
X106308961Y-70573134D01*
X106309239Y-70254834D01*
X106309239Y-84653714D01*
X103289239Y-84653714D01*
X103289239Y-59277544D01*
X103167687Y-58983368D01*
X102942812Y-58758100D01*
X102648848Y-58636035D01*
X102330548Y-58635757D01*
X102036372Y-58757309D01*
X101811104Y-58982184D01*
X101689039Y-59276148D01*
X101688761Y-59594448D01*
X101810313Y-59888624D01*
X101851400Y-59929782D01*
X101851400Y-62673950D01*
X101783104Y-62742127D01*
X101661039Y-63036091D01*
X101660761Y-63354391D01*
X101782313Y-63648567D01*
X102007188Y-63873835D01*
X102301152Y-63995900D01*
X102619452Y-63996178D01*
X102913628Y-63874626D01*
X103138896Y-63649751D01*
X103260961Y-63355787D01*
X103261239Y-63037487D01*
X103139687Y-62743311D01*
X103070600Y-62674103D01*
X103070600Y-59985936D01*
X103166896Y-59889808D01*
X103288961Y-59595844D01*
X103289239Y-59277544D01*
X103289239Y-84653714D01*
X100202937Y-84653714D01*
X100176559Y-31586308D01*
X100458092Y-32267666D01*
X100979588Y-32790074D01*
X101661305Y-33073147D01*
X102399457Y-33073792D01*
X103081666Y-32791908D01*
X103604074Y-32270412D01*
X103887147Y-31588695D01*
X103887792Y-30850543D01*
X103605908Y-30168334D01*
X103084412Y-29645926D01*
X102402695Y-29362853D01*
X101664543Y-29362208D01*
X100982334Y-29644092D01*
X100459926Y-30165588D01*
X100176853Y-30847305D01*
X100176431Y-31329155D01*
X100175090Y-28630886D01*
X113129090Y-28630886D01*
X113156937Y-84653714D01*
G36*
X128422337Y-84653714D02*
X128393192Y-84653714D01*
X128393192Y-30850543D01*
X128111308Y-30168334D01*
X127589812Y-29645926D01*
X126908095Y-29362853D01*
X126169943Y-29362208D01*
X125487734Y-29644092D01*
X124965326Y-30165588D01*
X124682253Y-30847305D01*
X124681608Y-31585457D01*
X124963492Y-32267666D01*
X125484988Y-32790074D01*
X126166705Y-33073147D01*
X126904857Y-33073792D01*
X127587066Y-32791908D01*
X128109474Y-32270412D01*
X128392547Y-31588695D01*
X128393192Y-30850543D01*
X128393192Y-84653714D01*
X125730000Y-84653714D01*
X125730000Y-39343910D01*
X125730000Y-39091291D01*
X125730000Y-38639750D01*
X125730000Y-38068250D01*
X125730000Y-37616709D01*
X125730000Y-37364090D01*
X125633327Y-37130701D01*
X125454698Y-36952073D01*
X125221309Y-36855400D01*
X124517150Y-36855400D01*
X124358400Y-37014150D01*
X124358400Y-38227000D01*
X125571250Y-38227000D01*
X125730000Y-38068250D01*
X125730000Y-38639750D01*
X125571250Y-38481000D01*
X124358400Y-38481000D01*
X124358400Y-38501000D01*
X124104400Y-38501000D01*
X124104400Y-38481000D01*
X124104400Y-38227000D01*
X124104400Y-37014150D01*
X123945650Y-36855400D01*
X123241491Y-36855400D01*
X123008102Y-36952073D01*
X122829473Y-37130701D01*
X122746871Y-37330119D01*
X122579890Y-37147179D01*
X122050427Y-36899032D01*
X121818400Y-37019531D01*
X121818400Y-38227000D01*
X122891550Y-38227000D01*
X123025217Y-38227000D01*
X124104400Y-38227000D01*
X124104400Y-38481000D01*
X123025217Y-38481000D01*
X122891550Y-38481000D01*
X121818400Y-38481000D01*
X121818400Y-39559531D01*
X121818400Y-39688469D01*
X121818400Y-40767000D01*
X121838400Y-40767000D01*
X121838400Y-41021000D01*
X121818400Y-41021000D01*
X121818400Y-42228469D01*
X122050427Y-42348968D01*
X122579890Y-42100821D01*
X122974088Y-41668947D01*
X123093895Y-41379688D01*
X123345409Y-41756105D01*
X123740946Y-42020394D01*
X124207514Y-42113200D01*
X124255286Y-42113200D01*
X124721854Y-42020394D01*
X125117391Y-41756105D01*
X125381680Y-41360568D01*
X125474486Y-40894000D01*
X125381680Y-40427432D01*
X125117391Y-40031895D01*
X124849056Y-39852600D01*
X125221309Y-39852600D01*
X125454698Y-39755927D01*
X125633327Y-39577299D01*
X125730000Y-39343910D01*
X125730000Y-84653714D01*
X124749639Y-84653714D01*
X124749639Y-70508834D01*
X124628087Y-70214658D01*
X124559000Y-70145450D01*
X124559000Y-62794841D01*
X124597101Y-62603295D01*
X124550698Y-62370011D01*
X124546301Y-62363430D01*
X124546301Y-53604101D01*
X124503766Y-53390258D01*
X124503765Y-53390257D01*
X124382632Y-53208970D01*
X122999492Y-51825830D01*
X122999639Y-51657556D01*
X122878087Y-51363380D01*
X122653212Y-51138112D01*
X122359248Y-51016047D01*
X122040948Y-51015769D01*
X121746772Y-51137321D01*
X121564400Y-51319374D01*
X121564400Y-42228469D01*
X121564400Y-41021000D01*
X121544400Y-41021000D01*
X121544400Y-40767000D01*
X121564400Y-40767000D01*
X121564400Y-39688469D01*
X121564400Y-39559531D01*
X121564400Y-38481000D01*
X121544400Y-38481000D01*
X121544400Y-38227000D01*
X121564400Y-38227000D01*
X121564400Y-37019531D01*
X121332373Y-36899032D01*
X120802910Y-37147179D01*
X120408712Y-37579053D01*
X120288904Y-37868311D01*
X120037391Y-37491895D01*
X119641854Y-37227606D01*
X119175286Y-37134800D01*
X119127514Y-37134800D01*
X118660946Y-37227606D01*
X118265409Y-37491895D01*
X118001120Y-37887432D01*
X117908314Y-38354000D01*
X118001120Y-38820568D01*
X118265409Y-39216105D01*
X118660946Y-39480394D01*
X119127514Y-39573200D01*
X119175286Y-39573200D01*
X119641854Y-39480394D01*
X120037391Y-39216105D01*
X120288904Y-38839688D01*
X120408712Y-39128947D01*
X120802910Y-39560821D01*
X120937712Y-39624000D01*
X120802910Y-39687179D01*
X120408712Y-40119053D01*
X120288904Y-40408311D01*
X120037391Y-40031895D01*
X119641854Y-39767606D01*
X119175286Y-39674800D01*
X119127514Y-39674800D01*
X118660946Y-39767606D01*
X118265409Y-40031895D01*
X118001120Y-40427432D01*
X117908314Y-40894000D01*
X118001120Y-41360568D01*
X118265409Y-41756105D01*
X118660946Y-42020394D01*
X119049800Y-42097741D01*
X119049800Y-46214011D01*
X118981504Y-46282188D01*
X118859439Y-46576152D01*
X118859161Y-46894452D01*
X118980713Y-47188628D01*
X119205588Y-47413896D01*
X119499552Y-47535961D01*
X119817852Y-47536239D01*
X120112028Y-47414687D01*
X120337296Y-47189812D01*
X120459361Y-46895848D01*
X120459639Y-46577548D01*
X120338087Y-46283372D01*
X120269000Y-46214164D01*
X120269000Y-41409477D01*
X120288904Y-41379688D01*
X120408712Y-41668947D01*
X120802910Y-42100821D01*
X121332373Y-42348968D01*
X121564400Y-42228469D01*
X121564400Y-51319374D01*
X121521504Y-51362196D01*
X121399439Y-51656160D01*
X121399161Y-51974460D01*
X121520713Y-52268636D01*
X121745588Y-52493904D01*
X122039552Y-52615969D01*
X122209255Y-52616117D01*
X123428701Y-53835563D01*
X123428701Y-62344509D01*
X123386203Y-62408112D01*
X123339800Y-62641396D01*
X123339800Y-70145297D01*
X123271504Y-70213474D01*
X123149439Y-70507438D01*
X123149161Y-70825738D01*
X123270713Y-71119914D01*
X123495588Y-71345182D01*
X123789552Y-71467247D01*
X124107852Y-71467525D01*
X124402028Y-71345973D01*
X124627296Y-71121098D01*
X124749361Y-70827134D01*
X124749639Y-70508834D01*
X124749639Y-84653714D01*
X121574639Y-84653714D01*
X121574639Y-70254834D01*
X121453087Y-69960658D01*
X121333200Y-69840561D01*
X121333200Y-55681286D01*
X121333200Y-53910476D01*
X121290665Y-53696633D01*
X121290664Y-53696632D01*
X121169532Y-53515345D01*
X119710200Y-52056013D01*
X119710200Y-51372700D01*
X119829296Y-51253812D01*
X119951361Y-50959848D01*
X119951639Y-50641548D01*
X119830087Y-50347372D01*
X119605212Y-50122104D01*
X119311248Y-50000039D01*
X118992948Y-49999761D01*
X118698772Y-50121313D01*
X118473504Y-50346188D01*
X118351439Y-50640152D01*
X118351161Y-50958452D01*
X118472713Y-51252628D01*
X118592600Y-51372724D01*
X118592600Y-52287476D01*
X118635136Y-52501320D01*
X118756269Y-52682607D01*
X120215600Y-54141938D01*
X120215600Y-55681286D01*
X120215600Y-69840585D01*
X120096504Y-69959474D01*
X119974439Y-70253438D01*
X119974161Y-70571738D01*
X120095713Y-70865914D01*
X120320588Y-71091182D01*
X120614552Y-71213247D01*
X120932852Y-71213525D01*
X121227028Y-71091973D01*
X121452296Y-70867098D01*
X121574361Y-70573134D01*
X121574639Y-70254834D01*
X121574639Y-84653714D01*
X118554639Y-84653714D01*
X118554639Y-59277544D01*
X118433087Y-58983368D01*
X118208212Y-58758100D01*
X117914248Y-58636035D01*
X117595948Y-58635757D01*
X117301772Y-58757309D01*
X117076504Y-58982184D01*
X116954439Y-59276148D01*
X116954161Y-59594448D01*
X117075713Y-59888624D01*
X117116800Y-59929782D01*
X117116800Y-62673950D01*
X117048504Y-62742127D01*
X116926439Y-63036091D01*
X116926161Y-63354391D01*
X117047713Y-63648567D01*
X117272588Y-63873835D01*
X117566552Y-63995900D01*
X117884852Y-63996178D01*
X118179028Y-63874626D01*
X118404296Y-63649751D01*
X118526361Y-63355787D01*
X118526639Y-63037487D01*
X118405087Y-62743311D01*
X118336000Y-62674103D01*
X118336000Y-59985936D01*
X118432296Y-59889808D01*
X118554361Y-59595844D01*
X118554639Y-59277544D01*
X118554639Y-84653714D01*
X115468337Y-84653714D01*
X115441959Y-31586308D01*
X115723492Y-32267666D01*
X116244988Y-32790074D01*
X116926705Y-33073147D01*
X117664857Y-33073792D01*
X118347066Y-32791908D01*
X118869474Y-32270412D01*
X119152547Y-31588695D01*
X119153192Y-30850543D01*
X118871308Y-30168334D01*
X118349812Y-29645926D01*
X117668095Y-29362853D01*
X116929943Y-29362208D01*
X116247734Y-29644092D01*
X115725326Y-30165588D01*
X115442253Y-30847305D01*
X115441831Y-31329155D01*
X115440490Y-28630886D01*
X128394490Y-28630886D01*
X128422337Y-84653714D01*
X128422337Y-84653714D01*
G37*
X128422337Y-84653714D02*
X128393192Y-84653714D01*
X128393192Y-30850543D01*
X128111308Y-30168334D01*
X127589812Y-29645926D01*
X126908095Y-29362853D01*
X126169943Y-29362208D01*
X125487734Y-29644092D01*
X124965326Y-30165588D01*
X124682253Y-30847305D01*
X124681608Y-31585457D01*
X124963492Y-32267666D01*
X125484988Y-32790074D01*
X126166705Y-33073147D01*
X126904857Y-33073792D01*
X127587066Y-32791908D01*
X128109474Y-32270412D01*
X128392547Y-31588695D01*
X128393192Y-30850543D01*
X128393192Y-84653714D01*
X125730000Y-84653714D01*
X125730000Y-39343910D01*
X125730000Y-39091291D01*
X125730000Y-38639750D01*
X125730000Y-38068250D01*
X125730000Y-37616709D01*
X125730000Y-37364090D01*
X125633327Y-37130701D01*
X125454698Y-36952073D01*
X125221309Y-36855400D01*
X124517150Y-36855400D01*
X124358400Y-37014150D01*
X124358400Y-38227000D01*
X125571250Y-38227000D01*
X125730000Y-38068250D01*
X125730000Y-38639750D01*
X125571250Y-38481000D01*
X124358400Y-38481000D01*
X124358400Y-38501000D01*
X124104400Y-38501000D01*
X124104400Y-38481000D01*
X124104400Y-38227000D01*
X124104400Y-37014150D01*
X123945650Y-36855400D01*
X123241491Y-36855400D01*
X123008102Y-36952073D01*
X122829473Y-37130701D01*
X122746871Y-37330119D01*
X122579890Y-37147179D01*
X122050427Y-36899032D01*
X121818400Y-37019531D01*
X121818400Y-38227000D01*
X122891550Y-38227000D01*
X123025217Y-38227000D01*
X124104400Y-38227000D01*
X124104400Y-38481000D01*
X123025217Y-38481000D01*
X122891550Y-38481000D01*
X121818400Y-38481000D01*
X121818400Y-39559531D01*
X121818400Y-39688469D01*
X121818400Y-40767000D01*
X121838400Y-40767000D01*
X121838400Y-41021000D01*
X121818400Y-41021000D01*
X121818400Y-42228469D01*
X122050427Y-42348968D01*
X122579890Y-42100821D01*
X122974088Y-41668947D01*
X123093895Y-41379688D01*
X123345409Y-41756105D01*
X123740946Y-42020394D01*
X124207514Y-42113200D01*
X124255286Y-42113200D01*
X124721854Y-42020394D01*
X125117391Y-41756105D01*
X125381680Y-41360568D01*
X125474486Y-40894000D01*
X125381680Y-40427432D01*
X125117391Y-40031895D01*
X124849056Y-39852600D01*
X125221309Y-39852600D01*
X125454698Y-39755927D01*
X125633327Y-39577299D01*
X125730000Y-39343910D01*
X125730000Y-84653714D01*
X124749639Y-84653714D01*
X124749639Y-70508834D01*
X124628087Y-70214658D01*
X124559000Y-70145450D01*
X124559000Y-62794841D01*
X124597101Y-62603295D01*
X124550698Y-62370011D01*
X124546301Y-62363430D01*
X124546301Y-53604101D01*
X124503766Y-53390258D01*
X124503765Y-53390257D01*
X124382632Y-53208970D01*
X122999492Y-51825830D01*
X122999639Y-51657556D01*
X122878087Y-51363380D01*
X122653212Y-51138112D01*
X122359248Y-51016047D01*
X122040948Y-51015769D01*
X121746772Y-51137321D01*
X121564400Y-51319374D01*
X121564400Y-42228469D01*
X121564400Y-41021000D01*
X121544400Y-41021000D01*
X121544400Y-40767000D01*
X121564400Y-40767000D01*
X121564400Y-39688469D01*
X121564400Y-39559531D01*
X121564400Y-38481000D01*
X121544400Y-38481000D01*
X121544400Y-38227000D01*
X121564400Y-38227000D01*
X121564400Y-37019531D01*
X121332373Y-36899032D01*
X120802910Y-37147179D01*
X120408712Y-37579053D01*
X120288904Y-37868311D01*
X120037391Y-37491895D01*
X119641854Y-37227606D01*
X119175286Y-37134800D01*
X119127514Y-37134800D01*
X118660946Y-37227606D01*
X118265409Y-37491895D01*
X118001120Y-37887432D01*
X117908314Y-38354000D01*
X118001120Y-38820568D01*
X118265409Y-39216105D01*
X118660946Y-39480394D01*
X119127514Y-39573200D01*
X119175286Y-39573200D01*
X119641854Y-39480394D01*
X120037391Y-39216105D01*
X120288904Y-38839688D01*
X120408712Y-39128947D01*
X120802910Y-39560821D01*
X120937712Y-39624000D01*
X120802910Y-39687179D01*
X120408712Y-40119053D01*
X120288904Y-40408311D01*
X120037391Y-40031895D01*
X119641854Y-39767606D01*
X119175286Y-39674800D01*
X119127514Y-39674800D01*
X118660946Y-39767606D01*
X118265409Y-40031895D01*
X118001120Y-40427432D01*
X117908314Y-40894000D01*
X118001120Y-41360568D01*
X118265409Y-41756105D01*
X118660946Y-42020394D01*
X119049800Y-42097741D01*
X119049800Y-46214011D01*
X118981504Y-46282188D01*
X118859439Y-46576152D01*
X118859161Y-46894452D01*
X118980713Y-47188628D01*
X119205588Y-47413896D01*
X119499552Y-47535961D01*
X119817852Y-47536239D01*
X120112028Y-47414687D01*
X120337296Y-47189812D01*
X120459361Y-46895848D01*
X120459639Y-46577548D01*
X120338087Y-46283372D01*
X120269000Y-46214164D01*
X120269000Y-41409477D01*
X120288904Y-41379688D01*
X120408712Y-41668947D01*
X120802910Y-42100821D01*
X121332373Y-42348968D01*
X121564400Y-42228469D01*
X121564400Y-51319374D01*
X121521504Y-51362196D01*
X121399439Y-51656160D01*
X121399161Y-51974460D01*
X121520713Y-52268636D01*
X121745588Y-52493904D01*
X122039552Y-52615969D01*
X122209255Y-52616117D01*
X123428701Y-53835563D01*
X123428701Y-62344509D01*
X123386203Y-62408112D01*
X123339800Y-62641396D01*
X123339800Y-70145297D01*
X123271504Y-70213474D01*
X123149439Y-70507438D01*
X123149161Y-70825738D01*
X123270713Y-71119914D01*
X123495588Y-71345182D01*
X123789552Y-71467247D01*
X124107852Y-71467525D01*
X124402028Y-71345973D01*
X124627296Y-71121098D01*
X124749361Y-70827134D01*
X124749639Y-70508834D01*
X124749639Y-84653714D01*
X121574639Y-84653714D01*
X121574639Y-70254834D01*
X121453087Y-69960658D01*
X121333200Y-69840561D01*
X121333200Y-55681286D01*
X121333200Y-53910476D01*
X121290665Y-53696633D01*
X121290664Y-53696632D01*
X121169532Y-53515345D01*
X119710200Y-52056013D01*
X119710200Y-51372700D01*
X119829296Y-51253812D01*
X119951361Y-50959848D01*
X119951639Y-50641548D01*
X119830087Y-50347372D01*
X119605212Y-50122104D01*
X119311248Y-50000039D01*
X118992948Y-49999761D01*
X118698772Y-50121313D01*
X118473504Y-50346188D01*
X118351439Y-50640152D01*
X118351161Y-50958452D01*
X118472713Y-51252628D01*
X118592600Y-51372724D01*
X118592600Y-52287476D01*
X118635136Y-52501320D01*
X118756269Y-52682607D01*
X120215600Y-54141938D01*
X120215600Y-55681286D01*
X120215600Y-69840585D01*
X120096504Y-69959474D01*
X119974439Y-70253438D01*
X119974161Y-70571738D01*
X120095713Y-70865914D01*
X120320588Y-71091182D01*
X120614552Y-71213247D01*
X120932852Y-71213525D01*
X121227028Y-71091973D01*
X121452296Y-70867098D01*
X121574361Y-70573134D01*
X121574639Y-70254834D01*
X121574639Y-84653714D01*
X118554639Y-84653714D01*
X118554639Y-59277544D01*
X118433087Y-58983368D01*
X118208212Y-58758100D01*
X117914248Y-58636035D01*
X117595948Y-58635757D01*
X117301772Y-58757309D01*
X117076504Y-58982184D01*
X116954439Y-59276148D01*
X116954161Y-59594448D01*
X117075713Y-59888624D01*
X117116800Y-59929782D01*
X117116800Y-62673950D01*
X117048504Y-62742127D01*
X116926439Y-63036091D01*
X116926161Y-63354391D01*
X117047713Y-63648567D01*
X117272588Y-63873835D01*
X117566552Y-63995900D01*
X117884852Y-63996178D01*
X118179028Y-63874626D01*
X118404296Y-63649751D01*
X118526361Y-63355787D01*
X118526639Y-63037487D01*
X118405087Y-62743311D01*
X118336000Y-62674103D01*
X118336000Y-59985936D01*
X118432296Y-59889808D01*
X118554361Y-59595844D01*
X118554639Y-59277544D01*
X118554639Y-84653714D01*
X115468337Y-84653714D01*
X115441959Y-31586308D01*
X115723492Y-32267666D01*
X116244988Y-32790074D01*
X116926705Y-33073147D01*
X117664857Y-33073792D01*
X118347066Y-32791908D01*
X118869474Y-32270412D01*
X119152547Y-31588695D01*
X119153192Y-30850543D01*
X118871308Y-30168334D01*
X118349812Y-29645926D01*
X117668095Y-29362853D01*
X116929943Y-29362208D01*
X116247734Y-29644092D01*
X115725326Y-30165588D01*
X115442253Y-30847305D01*
X115441831Y-31329155D01*
X115440490Y-28630886D01*
X128394490Y-28630886D01*
X128422337Y-84653714D01*
M02*
