G04 #@! TF.FileFunction,Soldermask,Top*
%FSLAX46Y46*%
G04 Gerber Fmt 4.6, Leading zero omitted, Abs format (unit mm)*
G04 Created by KiCad (PCBNEW (2015-04-12 BZR 5595)-product) date Mon 20 Apr 2015 09:24:05 PM EEST*
%MOMM*%
G01*
G04 APERTURE LIST*
%ADD10C,0.100000*%
%ADD11C,2.000000*%
%ADD12R,0.900000X0.500000*%
%ADD13R,0.750000X0.800000*%
%ADD14R,0.700000X0.600000*%
%ADD15R,1.727200X1.727200*%
%ADD16O,1.727200X1.727200*%
%ADD17R,2.100580X5.600700*%
%ADD18R,0.660400X0.406400*%
%ADD19R,0.914400X0.914400*%
%ADD20R,1.450000X0.450000*%
G04 APERTURE END LIST*
D10*
D11*
X132016500Y-30480000D03*
X96520000Y-139763500D03*
D12*
X116583400Y-62781286D03*
X116583400Y-61281286D03*
X125219400Y-69639286D03*
X125219400Y-68139286D03*
X127505400Y-69639286D03*
X127505400Y-68139286D03*
X116329400Y-69639286D03*
X116329400Y-68139286D03*
X125219400Y-72687286D03*
X125219400Y-71187286D03*
X118615400Y-72687286D03*
X118615400Y-71187286D03*
X123977400Y-53860000D03*
X123977400Y-55360000D03*
X126009400Y-55360000D03*
X126009400Y-53860000D03*
D13*
X124203400Y-58971286D03*
X124203400Y-57471286D03*
X126235400Y-58971286D03*
X126235400Y-57471286D03*
X124203400Y-66083286D03*
X124203400Y-64583286D03*
X127505400Y-71187286D03*
X127505400Y-72687286D03*
X116329400Y-71187286D03*
X116329400Y-72687286D03*
D14*
X120647400Y-72637286D03*
X120647400Y-71237286D03*
X123187400Y-71237286D03*
X123187400Y-72637286D03*
D15*
X124231400Y-38354000D03*
D16*
X124231400Y-40894000D03*
X121691400Y-38354000D03*
X121691400Y-40894000D03*
X119151400Y-38354000D03*
X119151400Y-40894000D03*
D17*
X120139400Y-56928426D03*
X120139400Y-66626146D03*
D18*
X124203400Y-61116886D03*
X124203400Y-62437686D03*
X124203400Y-61777286D03*
X126235400Y-62437686D03*
X126235400Y-61116886D03*
X126235400Y-61777286D03*
D12*
X126009400Y-51066000D03*
X126009400Y-52566000D03*
X122453400Y-44970000D03*
X122453400Y-46470000D03*
X126009400Y-44970000D03*
X126009400Y-46470000D03*
X126009400Y-48272000D03*
X126009400Y-49772000D03*
D19*
X117627400Y-46355000D03*
X117627400Y-44577000D03*
X119659400Y-45466000D03*
D13*
X116103400Y-46470000D03*
X116103400Y-44970000D03*
X124231400Y-46470000D03*
X124231400Y-44970000D03*
D12*
X120675400Y-44438000D03*
X120675400Y-42938000D03*
D20*
X117725400Y-48088000D03*
X117725400Y-48738000D03*
X117725400Y-49388000D03*
X117725400Y-50038000D03*
X117725400Y-50688000D03*
X117725400Y-51338000D03*
X117725400Y-51988000D03*
X123625400Y-51988000D03*
X123625400Y-51338000D03*
X123625400Y-50688000D03*
X123625400Y-50038000D03*
X123625400Y-49388000D03*
X123625400Y-48738000D03*
X123625400Y-48088000D03*
X102460000Y-48088000D03*
X102460000Y-48738000D03*
X102460000Y-49388000D03*
X102460000Y-50038000D03*
X102460000Y-50688000D03*
X102460000Y-51338000D03*
X102460000Y-51988000D03*
X108360000Y-51988000D03*
X108360000Y-51338000D03*
X108360000Y-50688000D03*
X108360000Y-50038000D03*
X108360000Y-49388000D03*
X108360000Y-48738000D03*
X108360000Y-48088000D03*
D12*
X105410000Y-44438000D03*
X105410000Y-42938000D03*
D13*
X108966000Y-46470000D03*
X108966000Y-44970000D03*
X100838000Y-46470000D03*
X100838000Y-44970000D03*
D19*
X102362000Y-46355000D03*
X102362000Y-44577000D03*
X104394000Y-45466000D03*
D12*
X110744000Y-48272000D03*
X110744000Y-49772000D03*
X110744000Y-44970000D03*
X110744000Y-46470000D03*
X107188000Y-44970000D03*
X107188000Y-46470000D03*
X110744000Y-51066000D03*
X110744000Y-52566000D03*
D18*
X108938000Y-61116886D03*
X108938000Y-62437686D03*
X108938000Y-61777286D03*
X110970000Y-62437686D03*
X110970000Y-61116886D03*
X110970000Y-61777286D03*
D17*
X104874000Y-56928426D03*
X104874000Y-66626146D03*
D15*
X108966000Y-38354000D03*
D16*
X108966000Y-40894000D03*
X106426000Y-38354000D03*
X106426000Y-40894000D03*
X103886000Y-38354000D03*
X103886000Y-40894000D03*
D14*
X107922000Y-71237286D03*
X107922000Y-72637286D03*
X105382000Y-72637286D03*
X105382000Y-71237286D03*
D13*
X101064000Y-71187286D03*
X101064000Y-72687286D03*
X112240000Y-71187286D03*
X112240000Y-72687286D03*
X108938000Y-66083286D03*
X108938000Y-64583286D03*
X110970000Y-58971286D03*
X110970000Y-57471286D03*
X108938000Y-58971286D03*
X108938000Y-57471286D03*
D12*
X110744000Y-55360000D03*
X110744000Y-53860000D03*
X108712000Y-53860000D03*
X108712000Y-55360000D03*
X103350000Y-72687286D03*
X103350000Y-71187286D03*
X109954000Y-72687286D03*
X109954000Y-71187286D03*
X101064000Y-69639286D03*
X101064000Y-68139286D03*
X112240000Y-69639286D03*
X112240000Y-68139286D03*
X109954000Y-69639286D03*
X109954000Y-68139286D03*
X101318000Y-62781286D03*
X101318000Y-61281286D03*
M02*
